<?xml version="1.0" encoding="utf-8"?>
<!-- Generator: Adobe Illustrator 24.0.0, SVG Export Plug-In . SVG Version: 6.00 Build 0)  -->
<svg version="1.1" id="Lager_1" xmlns="http://www.w3.org/2000/svg" xmlns:xlink="http://www.w3.org/1999/xlink" x="0px" y="0px"
	 viewBox="0 0 200 200" style="enable-background:new 0 0 200 200;" xml:space="preserve">
<style type="text/css">
	.st0{fill:#FFFFFF;}
</style>
<g>
	<path class="st0" d="M183.47,101.98c-0.12,0.09-0.23,0.18-0.36,0.25c-7.51,4.2-14.74,12.56-19.85,22.93
		c-5.21,10.57-7.45,21.96-5.98,30.45c0.33,1.89-0.94,3.68-2.83,4.01c-0.2,0.03-0.4,0.05-0.6,0.05c-0.3,0-0.58-0.05-0.86-0.12
		c-1.28-0.33-2.31-1.37-2.56-2.76c-0.39-2.23-0.56-4.59-0.54-7.05c-1.17,0.14-2.57,0.24-4.16,0.24c-3.71,0-8.47-0.54-13.83-2.41
		c-11.09-3.87-27.09-14.48-40.37-43c-0.83-1.79-1.6-3.55-2.33-5.28c-10.1,4.11-22.45,17.12-28.75,24.65
		c3.26,2.47,5.67,5.34,7.17,8.56c1.48,3.18,2.5,6.47,3.48,9.64c0.7,2.25,1.35,4.38,2.16,6.45c2.42,6.22,5.92,11.92,10.39,16.94
		c8.99,10.08,21.41,16.7,34.98,18.67c4.22,0.61,8.55,0.77,12.88,0.47c4.46-0.31,8.87-1.1,13.13-2.35c6.49-1.9,12.62-4.9,18.13-8.78
		c5.36-3.78,10.13-8.4,14.04-13.7c8.03-10.87,12.11-24.15,11.51-37.39C188.01,115.28,186.35,108.37,183.47,101.98z"/>
	<path class="st0" d="M116.94,55.72c-1.86,3.88-3.37,8.03-4.47,12.34c-1.72,6.73-2.37,13.47-2,19.88l0.15,1.25
		c2.66,2.72,19.87,18.17,49.57-1.49c-0.19-0.11-0.37-0.24-0.57-0.33c-1.28-0.59-1.85-2.11-1.25-3.4c0.59-1.29,2.12-1.85,3.4-1.25
		c2.84,1.31,5.14,3.71,6.47,6.76c0.84,1.93,1.24,4.03,1.15,6.07c-0.06,1.37-1.2,2.44-2.56,2.44c-0.04,0-0.08,0-0.12,0
		c-1.41-0.07-2.51-1.26-2.44-2.68c0.03-0.66-0.03-1.33-0.16-2c-12.38,8.22-23.06,10.98-31.8,10.98c-8.72,0-15.5-2.73-20.11-5.47
		c0.48,1.78,1.03,3.52,1.7,5.19c3.86,9.72,10.43,16.2,18.48,18.25c1.81,0.46,3.68,0.7,5.56,0.7c7.45,0,15.3-3.66,22.12-10.31
		c7.32-7.14,12.92-17.23,15.78-28.43c0.19-0.74,0.36-1.47,0.52-2.21c-1.37-0.98-1.87-2.83-1.08-4.38c0.83-1.63,2.98-2.34,4.61-1.55
		c0.81,0.4,1.71,0.63,2.61,0.59c1.77-0.09,3.3-1,4.2-2.45c0.73-1.18,0.96-2.57,0.65-3.92c-0.32-1.35-1.14-2.5-2.31-3.23
		c-1.62-1.01-3.65-1.06-5.42-0.05c-0.73,0.42-1.27,1.07-1.76,1.76c-1.17,1.64-3.53,1.98-5.12,0.59c-1.36-1.19-1.48-3.23-0.46-4.72
		c0.39-0.57,0.82-1.1,1.29-1.59c-8.67-14.98-20.93-17.02-22.12-17.18c-1.43-0.07-18.71-0.77-30.63,5.74
		C119.12,52.56,117.77,53.99,116.94,55.72z M154.96,58.23c1.77,0,3.2,2.68,3.2,5.99c0,3.31-1.43,5.99-3.2,5.99
		c-1.77,0-3.2-2.68-3.2-5.99C151.75,60.91,153.19,58.23,154.96,58.23z M128.97,70.92c1.92,0,3.47,1.55,3.47,3.47
		c0,2.38,1.94,4.32,4.32,4.32c2.38,0,4.32-1.94,4.32-4.32c0-1.92,1.55-3.47,3.47-3.47c1.92,0,3.47,1.55,3.47,3.47
		c0,6.21-5.05,11.26-11.26,11.26c-6.21,0-11.26-5.05-11.26-11.26C125.5,72.47,127.05,70.92,128.97,70.92z M123.08,65.52
		c0,3.31-1.43,5.99-3.2,5.99c-1.77,0-3.2-2.68-3.2-5.99c0-3.31,1.43-5.99,3.2-5.99C121.64,59.54,123.08,62.22,123.08,65.52z"/>
	<path class="st0" d="M145.15,38.96c-3.77-4.83-10.29-11.56-18.46-13.48c-1.47-0.35-2.96-0.52-4.45-0.52c-4.39,0-8.83,1.5-13.25,4.5
		c-6.57,4.45-9.93,9.2-10,14.12c-0.07,5.42,3.75,10.29,6.71,13.24C113.66,42.16,134.31,39.38,145.15,38.96z"/>
	<path class="st0" d="M93.04,90.05c0.82,2.25,1.69,4.48,2.63,6.7c0.69,1.64,1.42,3.27,2.17,4.89c9.59,20.61,22.01,34.17,35.92,39.22
		c7.75,2.81,14.01,2.26,16.7,1.79c0.85-5.83,2.67-11.96,5.37-17.99c-0.32,0.19-0.65,0.38-0.97,0.56c-0.26,0.14-0.52,0.29-0.77,0.42
		c-0.35,0.19-0.7,0.37-1.06,0.54c-0.25,0.13-0.51,0.25-0.76,0.37c-0.38,0.18-0.75,0.34-1.13,0.51c-0.23,0.1-0.47,0.21-0.7,0.3
		c-0.46,0.19-0.92,0.36-1.38,0.53c-0.16,0.06-0.31,0.12-0.47,0.18c-0.62,0.21-1.24,0.41-1.86,0.59c-0.17,0.05-0.35,0.09-0.52,0.14
		c-0.45,0.12-0.91,0.24-1.36,0.34c-0.24,0.05-0.47,0.1-0.71,0.14c-0.4,0.08-0.79,0.16-1.19,0.22c-0.26,0.04-0.51,0.08-0.77,0.11
		c-0.38,0.05-0.76,0.1-1.14,0.14c-0.26,0.03-0.52,0.05-0.79,0.07c-0.38,0.03-0.76,0.05-1.13,0.07c-0.26,0.01-0.52,0.02-0.78,0.02
		c-0.14,0-0.27,0.01-0.41,0.01c-0.24,0-0.48-0.02-0.73-0.02c-0.27-0.01-0.53-0.01-0.8-0.02c-0.39-0.02-0.78-0.05-1.17-0.09
		c-0.25-0.02-0.5-0.04-0.75-0.07c-0.43-0.05-0.86-0.12-1.29-0.19c-0.21-0.03-0.42-0.06-0.63-0.1c-0.64-0.12-1.27-0.26-1.91-0.42
		c-3.31-0.85-6.38-2.24-9.17-4.11c-1.12-0.75-2.19-1.57-3.21-2.46c-8.71-7.59-14.06-20.25-14.76-34.74c-0.08-1.7-0.1-3.44-0.05-5.19
		c0.07-2.66,0.3-5.37,0.69-8.1c-4.82,2.29-9.31,5.19-13.4,8.66c-0.19,0.16,0.96,3.1,1.08,3.45C92.21,87.7,92.62,88.88,93.04,90.05z"
		/>
	<path class="st0" d="M78.5,170.15c-5.03-5.64-8.96-12.05-11.68-19.05c-0.9-2.3-1.62-4.65-2.32-6.92c-0.95-3.09-1.86-6.01-3.14-8.76
		c-1.39-2.97-3.91-5.5-7.72-7.72c-2.77-1.62-5.4-3.2-7.9-4.77c2.36,29.45,24.01,55.21,53.87,62.83c0.08,0.02,0.16,0.03,0.23,0.05
		C91.74,182.13,84.45,176.82,78.5,170.15z"/>
	<path class="st0" d="M86.67,92.85c-1.23-3.36-2.29-6.62-3.16-9.77c-0.02-0.05-0.02-0.1-0.04-0.15
		c-7.91-28.69-1.46-48.42,6.39-60.64c1.79-2.79,1.08-5.7-0.19-7.49c-1.57-2.21-4.06-3.16-6.66-2.54c-5.15,1.22-9.43,4.77-12.4,10.24
		c-5.41,9.98-5.75,24.66-0.92,38.39c0.05,0.07,0.11,0.14,0.16,0.21c2.06,2.73,4.19,5.56,6.31,8.27c1.18,1.51,0.92,3.69-0.59,4.87
		c-1.51,1.18-3.69,0.92-4.87-0.59c-2.17-2.76-4.32-5.62-6.39-8.38c-4.12-5.47-8.37-11.13-12.91-16.22
		c-1.29-1.45-3.09-2.31-4.95-2.37c-1.22-0.04-3,0.24-4.6,1.81c-2.55,2.51-2.59,6.63-0.08,9.18c0.66,0.68,0.99,1.55,0.99,2.43
		c0,0.9-0.35,1.8-1.04,2.48c-1.37,1.34-3.56,1.32-4.91-0.04c-1.22-1.24-2.84-1.93-4.57-1.94c-1.75,0.01-3.37,0.65-4.61,1.86
		c-1.24,1.22-1.93,2.84-1.94,4.57c-0.02,1.73,0.65,3.37,1.86,4.61c0.66,0.68,0.99,1.55,0.99,2.43c0,0.9-0.35,1.8-1.04,2.48
		c-1.37,1.34-3.56,1.32-4.91-0.04c-2.51-2.55-6.63-2.59-9.18-0.08c-1.32,1.3-1.9,2.7-1.81,4.41c0.27,5.41,6.65,13.15,18.95,23
		c6.84,5.48,14.53,10.72,24,16.37C59.62,114.09,73.66,98.15,86.67,92.85z"/>
	<path class="st0" d="M187.19,94c-0.83-1.47-1.73-2.91-2.68-4.31l0.26-6.32c0.09-0.02,0.19-0.03,0.29-0.05
		c3.15-0.74,5.83-2.66,7.54-5.41c1.71-2.75,2.24-6,1.51-9.16s-2.66-5.83-5.41-7.54c-1.35-0.84-2.82-1.39-4.34-1.65
		c-0.31-2.46-0.76-4.86-1.35-7.16c-0.98-3.86-2.32-7.48-4.01-10.78c-0.34-0.66-0.69-1.31-1.05-1.94c-1.82-3.17-3.96-5.99-6.41-8.4
		c-0.49-0.48-0.99-0.95-1.5-1.39c-1.03-0.89-2.1-1.72-3.21-2.46c-2.79-1.87-5.86-3.27-9.17-4.11c-0.64-0.16-1.27-0.3-1.91-0.42
		c-0.21-0.04-0.41-0.06-0.62-0.1c-0.43-0.07-0.87-0.14-1.3-0.19c-0.25-0.03-0.49-0.05-0.74-0.07c-0.39-0.04-0.79-0.07-1.18-0.09
		c-0.27-0.01-0.53-0.02-0.8-0.02c-0.24-0.01-0.48-0.02-0.72-0.02c0,0,0,0,0,0c-0.14,0-0.27,0.01-0.41,0.01
		c-0.26,0-0.53,0.01-0.79,0.02c-0.37,0.01-0.75,0.04-1.12,0.06c-0.27,0.02-0.54,0.04-0.81,0.07c-0.37,0.04-0.74,0.09-1.11,0.14
		c-0.27,0.04-0.53,0.07-0.8,0.12c-0.38,0.06-0.76,0.14-1.14,0.21c-0.25,0.05-0.51,0.1-0.76,0.15c-0.42,0.1-0.84,0.21-1.26,0.32
		c-0.21,0.06-0.42,0.1-0.62,0.16c-0.55,0.16-1.11,0.33-1.66,0.52c-3.38-2.41-7.26-4.43-11.58-5.45c-7.8-1.84-15.61-0.17-23.21,4.98
		c-8.57,5.81-12.96,12.47-13.04,19.8c-0.14,12.41,12.44,21.5,12.98,21.88c0.26,0.18,0.54,0.32,0.84,0.43
		c-0.03,0.1-0.06,0.2-0.08,0.31c-0.03,0.01-0.06,0.01-0.09,0.03c-6.08,2.37-11.73,5.57-16.87,9.53
		c-5.09-23.34,0.32-39.46,6.87-49.65c3.01-4.69,2.87-10.68-0.37-15.25c-3.22-4.54-8.55-6.56-13.92-5.28
		c-7.12,1.69-12.96,6.42-16.9,13.68c-4.3,7.92-5.9,18.25-4.77,28.92c-1.04-1.24-2.09-2.47-3.16-3.68c-2.55-2.86-6.15-4.57-9.9-4.69
		c-3.64-0.13-7.08,1.23-9.69,3.8c-2.82,2.77-4.15,6.48-4,10.14c-3.65-0.21-7.4,1.06-10.21,3.82c-2.56,2.51-3.99,5.88-4.02,9.46
		c0,0.23,0,0.45,0.01,0.68c-3.65-0.21-7.39,1.06-10.2,3.82c-2.73,2.68-4.07,6.03-3.88,9.71c0.51,9.98,11.78,20.24,21.54,28.07
		c3.85,3.09,7.95,6.09,12.45,9.13c0.36,34.41,24.83,65.23,59.23,74.02c6.51,1.66,13.17,2.49,19.8,2.49
		c11.47,0,22.86-2.47,33.29-7.32l-0.02-0.03c7.09-2.62,13.72-6.4,19.57-11.16c4.44-3.61,8.45-7.77,11.86-12.39
		c8.97-12.15,13.54-27,12.86-41.83C194.81,112.12,192.04,102.55,187.19,94z M151.44,45.9c1.19,0.16,13.45,2.21,22.12,17.18
		c-0.47,0.49-0.9,1.02-1.29,1.59c-1.02,1.49-0.9,3.53,0.46,4.72c1.59,1.39,3.96,1.05,5.12-0.59c0.49-0.68,1.03-1.34,1.76-1.76
		c1.77-1.01,3.8-0.96,5.42,0.05c1.18,0.73,2,1.88,2.31,3.23c0.32,1.35,0.09,2.74-0.65,3.92c-0.9,1.45-2.43,2.36-4.2,2.45
		c-0.9,0.05-1.8-0.19-2.61-0.59c-1.63-0.79-3.78-0.08-4.61,1.55c-0.79,1.55-0.29,3.4,1.08,4.38c-0.16,0.74-0.34,1.47-0.52,2.21
		c-2.86,11.2-8.46,21.3-15.78,28.43c-6.82,6.65-14.67,10.31-22.12,10.31c-1.88,0-3.75-0.23-5.56-0.7
		c-8.05-2.06-14.61-8.54-18.48-18.25c-0.67-1.67-1.22-3.41-1.7-5.19c4.61,2.74,11.39,5.47,20.11,5.47c8.74,0,19.42-2.76,31.8-10.98
		c0.14,0.67,0.19,1.34,0.16,2c-0.06,1.41,1.03,2.61,2.44,2.68c0.04,0,0.08,0,0.12,0c1.36,0,2.49-1.07,2.56-2.44
		c0.09-2.04-0.3-4.14-1.15-6.07c-1.33-3.05-3.63-5.45-6.47-6.76c-1.28-0.59-2.81-0.03-3.4,1.25c-0.59,1.28-0.03,2.81,1.25,3.4
		c0.2,0.09,0.38,0.22,0.57,0.33c-29.7,19.66-46.91,4.21-49.57,1.49l-0.15-1.25c-0.37-6.41,0.28-13.16,2-19.88
		c1.1-4.31,2.61-8.46,4.47-12.34c0.83-1.73,2.19-3.16,3.87-4.08C132.73,45.14,150,45.83,151.44,45.9z M105.71,56.81
		c-2.95-2.95-6.78-7.82-6.71-13.24c0.06-4.91,3.43-9.66,10-14.12c4.42-2.99,8.85-4.5,13.25-4.5c1.49,0,2.97,0.17,4.45,0.52
		c8.17,1.92,14.69,8.65,18.46,13.48C134.31,39.38,113.66,42.16,105.71,56.81z M90.74,83.06c4.09-3.47,8.58-6.37,13.4-8.66
		c-0.39,2.73-0.62,5.44-0.69,8.1c-0.05,1.75-0.03,3.48,0.05,5.19c0.7,14.49,6.05,27.15,14.76,34.74c1.03,0.89,2.1,1.72,3.21,2.46
		c2.79,1.87,5.86,3.27,9.17,4.11c0.63,0.16,1.27,0.3,1.91,0.42c0.21,0.04,0.42,0.06,0.63,0.1c0.43,0.07,0.86,0.14,1.29,0.19
		c0.25,0.03,0.5,0.05,0.75,0.07c0.39,0.04,0.78,0.07,1.17,0.09c0.27,0.01,0.53,0.02,0.8,0.02c0.24,0.01,0.48,0.02,0.73,0.02
		c0.14,0,0.27-0.01,0.41-0.01c0.26,0,0.52-0.01,0.78-0.02c0.38-0.01,0.76-0.04,1.13-0.07c0.26-0.02,0.52-0.04,0.79-0.07
		c0.38-0.04,0.76-0.09,1.14-0.14c0.26-0.04,0.51-0.07,0.77-0.11c0.4-0.07,0.79-0.14,1.19-0.22c0.24-0.05,0.47-0.09,0.71-0.14
		c0.46-0.1,0.91-0.22,1.36-0.34c0.17-0.05,0.35-0.09,0.52-0.14c0.62-0.18,1.24-0.37,1.86-0.59c0.16-0.05,0.31-0.12,0.47-0.18
		c0.46-0.17,0.92-0.34,1.38-0.53c0.23-0.1,0.47-0.2,0.7-0.3c0.38-0.16,0.76-0.33,1.13-0.51c0.25-0.12,0.51-0.25,0.76-0.37
		c0.35-0.18,0.71-0.35,1.06-0.54c0.26-0.14,0.52-0.28,0.77-0.42c0.32-0.18,0.65-0.37,0.97-0.56c-2.71,6.03-4.52,12.16-5.37,17.99
		c-2.68,0.46-8.95,1.02-16.7-1.79c-13.9-5.05-26.32-18.61-35.92-39.22c-0.75-1.62-1.48-3.25-2.17-4.89
		c-0.94-2.21-1.81-4.44-2.63-6.7c-0.43-1.17-0.84-2.35-1.23-3.54C91.7,86.16,90.55,83.23,90.74,83.06z M30.57,103.82
		c-12.3-9.86-18.68-17.6-18.95-23c-0.09-1.7,0.49-3.1,1.81-4.41c2.55-2.51,6.67-2.47,9.18,0.08c1.34,1.37,3.54,1.38,4.91,0.04
		c0.69-0.68,1.04-1.58,1.04-2.48c0-0.88-0.33-1.76-0.99-2.43c-1.22-1.24-1.88-2.87-1.86-4.61c0.02-1.73,0.7-3.36,1.94-4.57
		c1.24-1.22,2.86-1.85,4.61-1.86c1.73,0.02,3.36,0.7,4.57,1.94c1.34,1.37,3.54,1.39,4.91,0.04c0.69-0.68,1.04-1.58,1.04-2.48
		c0-0.88-0.33-1.76-0.99-2.43c-2.51-2.55-2.47-6.67,0.08-9.18c1.6-1.57,3.37-1.85,4.6-1.81c1.86,0.06,3.66,0.93,4.95,2.37
		c4.53,5.09,8.79,10.75,12.91,16.22c2.08,2.76,4.23,5.62,6.39,8.38c1.18,1.51,3.36,1.77,4.87,0.59c1.51-1.18,1.77-3.36,0.59-4.87
		c-2.12-2.7-4.25-5.53-6.31-8.27c-0.05-0.07-0.11-0.14-0.16-0.21c-4.83-13.73-4.49-28.41,0.92-38.39c2.97-5.47,7.26-9.02,12.4-10.24
		c2.6-0.62,5.09,0.33,6.66,2.54c1.27,1.79,1.99,4.69,0.19,7.49c-7.84,12.22-14.3,31.94-6.39,60.64c0.02,0.05,0.02,0.1,0.04,0.15
		c0.87,3.15,1.93,6.41,3.16,9.77c-13.01,5.3-27.06,21.24-32.11,27.35C45.09,114.55,37.41,109.31,30.57,103.82z M99.6,185.76
		c-29.86-7.62-51.51-33.38-53.87-62.83c2.5,1.56,5.13,3.15,7.9,4.77c3.81,2.22,6.33,4.75,7.72,7.72c1.28,2.75,2.18,5.67,3.14,8.76
		c0.7,2.27,1.42,4.61,2.32,6.92c2.72,7,6.65,13.41,11.68,19.05c5.95,6.67,13.24,11.98,21.34,15.67
		C99.76,185.8,99.68,185.78,99.6,185.76z M176.83,159.84c-3.91,5.3-8.68,9.92-14.04,13.7c-5.5,3.88-11.64,6.87-18.13,8.78
		c-4.26,1.25-8.68,2.04-13.13,2.35c-4.32,0.3-8.66,0.14-12.88-0.47c-13.56-1.96-25.99-8.59-34.98-18.67
		c-4.48-5.02-7.97-10.72-10.39-16.94c-0.81-2.07-1.46-4.2-2.16-6.45c-0.98-3.18-2-6.47-3.48-9.64c-1.5-3.22-3.91-6.09-7.17-8.56
		c6.3-7.53,18.66-20.54,28.75-24.65c0.73,1.74,1.5,3.49,2.33,5.28c13.28,28.52,29.28,39.12,40.37,43
		c5.35,1.87,10.11,2.41,13.83,2.41c1.59,0,2.99-0.1,4.16-0.24c-0.02,2.45,0.15,4.82,0.54,7.05c0.24,1.39,1.28,2.42,2.56,2.76
		c0.28,0.07,0.56,0.12,0.86,0.12c0.2,0,0.4-0.02,0.6-0.05c1.89-0.33,3.15-2.12,2.83-4.01c-1.47-8.49,0.76-19.87,5.98-30.45
		c5.11-10.37,12.34-18.72,19.85-22.93c0.13-0.07,0.24-0.16,0.36-0.25c2.88,6.39,4.54,13.31,4.87,20.48
		C188.94,135.69,184.86,148.97,176.83,159.84z"/>
	<path class="st0" d="M116.67,65.52c0,3.31,1.43,5.99,3.2,5.99c1.77,0,3.2-2.68,3.2-5.99c0-3.31-1.43-5.99-3.2-5.99
		C118.1,59.54,116.67,62.22,116.67,65.52z"/>
	<path class="st0" d="M154.96,70.2c1.77,0,3.2-2.68,3.2-5.99c0-3.31-1.43-5.99-3.2-5.99c-1.77,0-3.2,2.68-3.2,5.99
		C151.75,67.52,153.19,70.2,154.96,70.2z"/>
	<path class="st0" d="M136.75,85.64c6.21,0,11.26-5.05,11.26-11.26c0-1.92-1.55-3.47-3.47-3.47c-1.92,0-3.47,1.55-3.47,3.47
		c0,2.38-1.94,4.32-4.32,4.32c-2.38,0-4.32-1.94-4.32-4.32c0-1.92-1.55-3.47-3.47-3.47c-1.92,0-3.47,1.55-3.47,3.47
		C125.5,80.59,130.55,85.64,136.75,85.64z"/>
</g>
</svg>
