<svg version="1.1" id="Lager_1" xmlns="http://www.w3.org/2000/svg" x="0" y="0" viewBox="0 0 227 238" xml:space="preserve"><style>#arm{-webkit-animation:arm 5s infinite;-webkit-animation-timing-function:cubic-bezier(.645,.045,.355,1);animation:arm 5s infinite;animation-timing-function:cubic-bezier(.645,.045,.355,1);transform-box:fill-box}@keyframes arm{0%,100%{-moz-transform:rotate(3deg);-webkit-transform:rotate(3deg);transform:rotate(3deg);transform-origin:right center}50%{-moz-transform:rotate(-7deg);-webkit-transform:rotate(-7deg);transform:rotate(-7deg);transform-origin:right center}}@-webkit-keyframes arm{0%,100%{-moz-transform:rotate(3deg);-webkit-transform:rotate(3deg);transform:rotate(3deg);transform-origin:right center}50%{-moz-transform:rotate(-7deg);-webkit-transform:rotate(-7deg);transform:rotate(-7deg);transform-origin:right center}}@-moz-keyframes arm{0%,100%{-moz-transform:rotate(3deg);-webkit-transform:rotate(3deg);transform:rotate(3deg);transform-origin:right center}50%{-moz-transform:rotate(-7deg);-webkit-transform:rotate(-7deg);transform:rotate(-7deg);transform-origin:right center}}.st0{fill:#f7f7f7}</style><g id="lager1"><path class="st0" d="M209.3 141.2c-.5-10-3.3-19.6-8.1-28.2-.8-1.5-1.7-2.9-2.7-4.3l.3-6.3h.3c3.2-.7 5.8-2.7 7.5-5.4 1.7-2.8 2.2-6 1.5-9.2s-2.7-5.8-5.4-7.5c-1.4-.8-2.8-1.4-4.3-1.7-.3-2.5-.8-4.9-1.3-7.2-1-3.9-2.3-7.5-4-10.8-.3-.7-.7-1.3-1-1.9-1.8-3.2-4-6-6.4-8.4-.5-.5-1-1-1.5-1.4-1-.9-2.1-1.7-3.2-2.5-2.8-1.9-5.9-3.3-9.2-4.1-.6-.2-1.3-.3-1.9-.4-.2 0-.4-.1-.6-.1-.4-.1-.9-.1-1.3-.2-.2 0-.5 0-.7-.1-.4 0-.8-.1-1.2-.1h-2.7c-.4 0-.8 0-1.1.1-.3 0-.5 0-.8.1-.4 0-.7.1-1.1.1-.3 0-.5.1-.8.1-.4.1-.8.1-1.1.2-.2 0-.5.1-.8.2-.4.1-.8.2-1.3.3-.2.1-.4.1-.6.2-.5.2-1.1.3-1.7.5-3.4-2.4-7.3-4.4-11.6-5.5-7.8-1.8-15.6-.2-23.2 5-8.6 5.8-13 12.5-13 19.8-.1 12.4 12.4 21.5 13 21.9.3.2.5.3.8.4 0 .1-.1.2-.1.3h-.1c-5.9 2.3-11.3 5.4-16.3 9.1-1.8 1.2-5 3.3-6.2 4.5-3.2 3.5 2 8.2 5 5.5 2.8-2.5 7.4-6 8.1-6.5 2.5-1.7 5.1-3.2 7.8-4.4-.4 2.7-.6 5.4-.7 8.1v5.2c.7 14.5 6 27.1 14.8 34.7 1 .9 2.1 1.7 3.2 2.5 2.8 1.9 5.9 3.3 9.2 4.1.6.2 1.3.3 1.9.4.2 0 .4.1.6.1.4.1.9.1 1.3.2.2 0 .5.1.8.1.4 0 .8.1 1.2.1h2.7c.4 0 .8 0 1.1-.1.3 0 .5 0 .8-.1.4 0 .8-.1 1.1-.1s.5-.1.8-.1c.4-.1.8-.1 1.2-.2.2 0 .5-.1.7-.1.5-.1.9-.2 1.4-.3.2 0 .4-.1.5-.1.6-.2 1.2-.4 1.9-.6.2 0 .3-.1.5-.2.5-.2.9-.3 1.4-.5.2-.1.5-.2.7-.3.4-.2.8-.3 1.1-.5.2-.1.5-.2.8-.4.4-.2.7-.3 1.1-.5.3-.1.5-.3.8-.4.3-.2.6-.4 1-.6 0 0 17.7-11.5 26.5-24.6.1-.1 1 2.1 1.1 2 2.9 6.4 4.5 13.3 4.9 20.5.6 13.2-3.5 26.5-11.5 37.4-3.9 5.3-8.7 9.9-14 13.7-18 12.7-41.6 16-63 12.3-.1 0-.2 0-.2-.1-29.9-7.6-51.5-33.4-53.9-62.8 0 0-.1-6.6.2-10.6.3-4-6.6-5.3-7.4-.6-.4 2.3.3 9.1.3 9.1 1.5 33.4 25.6 63 59.2 71.6 6.5 1.7 13.2 2.5 19.8 2.5 11.5 0 22.9-2.5 33.3-7.3 7.1-2.6 13.7-6.4 19.6-11.2 4.4-3.6 8.5-7.8 11.9-12.4 8.4-12.4 13-27.2 12.3-42zm-89.6-65.4c-3-3-6.8-7.8-6.7-13.2.1-4.9 3.4-9.7 10-14.1 4.4-3 8.8-4.5 13.2-4.5 1.5 0 3 .2 4.5.5 8.2 1.9 14.7 8.7 18.5 13.5-10.9.4-31.5 3.2-39.5 17.8zm76.8 19.9c-.9 0-1.8-.2-2.6-.6-1.6-.8-3.8-.1-4.6 1.6-.8 1.5-.3 3.4 1.1 4.4-.2.7-.3 1.5-.5 2.2-2.9 11.2-8.5 21.3-15.8 28.4-6.8 6.7-14.7 10.3-22.1 10.3-1.9 0-3.8-.2-5.6-.7-8-2.1-14.6-8.5-18.5-18.2-.7-1.7-1.2-3.4-1.7-5.2 4.6 2.7 11.4 5.5 20.1 5.5 8.7 0 19.4-2.8 31.8-11 .1.7.2 1.3.2 2-.1 1.4 1 2.6 2.4 2.7h.1c1.4 0 2.5-1.1 2.6-2.4.1-2-.3-4.1-1.1-6.1-1.3-3-3.6-5.5-6.5-6.8-1.3-.6-2.8 0-3.4 1.2-.6 1.3 0 2.8 1.2 3.4l.6.3c-29.7 19.7-46.9 4.2-49.6 1.5l-.2-1.2c-.4-6.4.3-13.2 2-19.9 1.1-4.3 2.6-8.5 4.5-12.3.8-1.7 2.2-3.2 3.9-4.1 11.9-6.5 29.2-5.8 30.6-5.8 1.2.2 13.5 2.2 22.1 17.2-.5.5-.9 1-1.3 1.6-1 1.5-.9 3.5.5 4.7 1.6 1.4 4 1 5.1-.6.5-.7 1-1.3 1.8-1.8 1.8-1 3.8-1 5.4.1 1.2.7 2 1.9 2.3 3.2.3 1.3.1 2.7-.7 3.9-.8 1.5-2.3 2.4-4.1 2.5z"/><path class="st0" d="M133.9 78.5c-1.8 0-3.2 2.7-3.2 6s1.4 6 3.2 6c1.8 0 3.2-2.7 3.2-6s-1.5-6-3.2-6zM169 77.2c-1.8 0-3.2 2.7-3.2 6s1.4 6 3.2 6 3.2-2.7 3.2-6-1.5-6-3.2-6zM158.5 89.9c-1.9 0-3.5 1.6-3.5 3.5 0 2.4-1.9 4.3-4.3 4.3s-4.3-1.9-4.3-4.3c0-1.9-1.5-3.5-3.5-3.5-1.9 0-3.5 1.6-3.5 3.5 0 6.2 5.1 11.3 11.3 11.3S162 99.6 162 93.4c0-1.9-1.5-3.5-3.5-3.5z"/></g><g id="arm"><path d="M197.5 112.9c-.4 0-.9.1-1.5.6-19.1 16.9-24.3 30.8-24.4 30.9v.2c-2.6 5.8-4.4 11.7-5.2 17.5l-.2 1.4-1.4.2c-1.1.2-2.8.4-5 .4-4.2 0-8.5-.8-12.7-2.3-14.4-5.2-27.2-19.2-37.1-40.3-.8-1.8-1.6-3.4-2.2-5-.9-2.2-1.8-4.4-2.7-6.8-.4-1.2-.9-2.4-1.3-3.6 0-.1-.1-.2-.2-.5-.6-1.5-.9-2.5-1-3.3l-1.8-7c-5.3-24.9 1-41.6 7.2-51.3 2.6-4 2.4-9.1-.3-13-2.2-3.1-5.5-4.8-9.1-4.8-.9 0-1.8.1-2.7.3C89.4 28 84 32.4 80.3 39.2c-4 7.4-5.6 17.3-4.5 27.8l.7 6.5-4.2-5c-1.2-1.4-2.2-2.6-3.1-3.6-2.2-2.4-5.3-3.9-8.5-4h-.4c-2.9 0-5.7 1.1-7.8 3.2-2.3 2.3-3.5 5.4-3.4 8.6l.1 2.2-2.2-.1h-.7c-3 0-5.9 1.2-8 3.3-2.2 2.1-3.4 5-3.4 8v.6l.1 2.2-2.2-.1h-.7c-3 0-5.9 1.2-8 3.3-2.3 2.3-3.4 5.1-3.3 8.2.5 9.2 11.4 19 20.8 26.6 3.8 3 7.8 6 12.3 9l7 4.5c2.5 1.6 5.1 3.2 7.8 4.7 4.2 2.4 6.9 5.2 8.5 8.6 1.3 2.8 2.2 5.8 3.2 8.9V162.9c.7 2.2 1.4 4.5 2.3 6.7 2.6 6.8 6.4 13 11.3 18.4.8.9 1.5 1.7 2.1 2.5 4.3 4.9 6.4 7.4 18.5 12.7 7.5 3.3 15.6 4.9 24 4.9 24 0 43.6-13.4 44.7-14.1 4.4-3.5 8.2-7.6 11.5-12 8.7-11.8 13.1-26.2 12.5-40.6-.2-5.2-1.2-10.4-2.9-15.4-.8-2.5-1.8-5-2.8-7.4-.8-1.8-1.7-5.7-4.1-5.7z" fill="#fff"/><path class="st0" d="M44.6 122.8c-12.3-9.9-18.7-17.6-19-23-.1-1.7.5-3.1 1.8-4.4 2.6-2.5 6.7-2.5 9.2.1 1.3 1.4 3.5 1.4 4.9 0 .7-.7 1-1.6 1-2.5s-.3-1.8-1-2.4c-1.2-1.2-1.9-2.9-1.9-4.6s.7-3.4 1.9-4.6c1.2-1.2 2.9-1.8 4.6-1.9 1.7 0 3.4.7 4.6 1.9 1.3 1.4 3.5 1.4 4.9 0 .7-.7 1-1.6 1-2.5s-.3-1.8-1-2.4c-2.5-2.5-2.5-6.7.1-9.2 1.6-1.6 3.4-1.8 4.6-1.8 1.9.1 3.7.9 5 2.4 4.5 5.1 8.8 10.8 12.9 16.2 2.1 2.8 4.2 5.6 6.4 8.4 1.2 1.5 3.4 1.8 4.9.6s1.8-3.4.6-4.9c-2.1-2.7-4.2-5.5-6.3-8.3l-.2-.2c-4.8-13.7-4.5-28.4.9-38.4 3-5.5 7.3-9 12.4-10.2 2.6-.6 5.1.3 6.7 2.5 1.3 1.8 2 4.7.2 7.5-7.8 12.4-14.2 32.1-6.3 60.8v.2c.9 3.2 1.9 6.4 3.2 9.8-13 5.3-27.1 21.2-32.1 27.3-9.5-5.6-17.2-10.9-24-16.4zm140 72.6c4.4-3.6 8.4-7.8 11.9-12.4 9-12.1 13.5-27 12.9-41.8-.5-10-3.3-19.6-8.1-28.2-1.3-2.3-4.4-2.8-6.4-1-19.8 17.5-24.9 31.7-24.9 31.7-2.7 6-4.5 12.2-5.4 18-2.7.5-8.9 1-16.7-1.8-13.9-5.1-26.3-18.6-35.9-39.2-.8-1.6-1.5-3.2-2.2-4.9-.9-2.2-1.8-4.4-2.6-6.7-.4-1.2-.8-2.3-1.2-3.5-.1-.3-1.3-3.3-1.1-3.4l-1.9-7.4c-5.1-23.3.3-39.5 6.9-49.7 3-4.7 2.9-10.7-.4-15.2-3.2-4.5-8.6-6.6-13.9-5.3-7.1 1.7-13 6.4-16.9 13.7-4.3 7.9-5.9 18.3-4.8 28.9-1-1.2-2.1-2.5-3.2-3.7-2.5-2.9-6.2-4.6-9.9-4.7-3.6-.1-7.1 1.2-9.7 3.8-2.8 2.8-4.2 6.5-4 10.1-3.6-.2-7.4 1.1-10.2 3.8-2.6 2.5-4 5.9-4 9.5v.7c-3.6-.2-7.4 1.1-10.2 3.8-2.7 2.7-4.1 6-3.9 9.7.5 10 11.8 20.2 21.5 28.1 3.9 3.1 8 6.1 12.5 9.1l7 4.6c2.5 1.6 5.1 3.2 7.9 4.8 3.8 2.2 6.3 4.7 7.7 7.7 1.3 2.8 2.2 5.7 3.1 8.8.7 2.3 1.4 4.6 2.3 6.9 2.7 7 6.7 13.4 11.7 19.1 5.9 6.7 6.9 9.4 21.3 15.7 35.6 15.4 70.8-9.6 70.8-9.6zm6.2-16.6c-3.9 5.3-8.7 9.9-14 13.7-5.5 3.9-11.6 6.9-18.1 8.8-4.3 1.2-8.7 2-13.1 2.4-4.3.3-8.7.1-12.9-.5-13.6-2-26-8.6-35-18.7-4.5-5-8-10.7-10.4-16.9-.8-2.1-1.5-4.2-2.2-6.4-1-3.2-2-6.5-3.5-9.6-1.5-3.2-3.9-6.1-7.2-8.6 6.3-7.5 18.7-20.5 28.8-24.7.7 1.7 1.5 3.5 2.3 5.3 13.3 28.5 29.3 39.1 40.4 43 5.4 1.9 10.1 2.4 13.8 2.4 1.6 0 3-.1 4.2-.2 0 2.4.1 4.8.5 7.1.2 1.4 1.3 2.4 2.6 2.8.3.1.6.1.9.1.2 0 .4 0 .6-.1 1.9-.3 3.1-2.1 2.8-4-1.5-8.5.8-19.9 6-30.4 5.1-10.4 12.3-18.7 19.9-22.9.1-.1.2-.2.4-.2 2.9 6.4 4.5 13.3 4.9 20.5.4 13-3.6 26.3-11.7 37.1z"/></g></svg>