<svg version="1.1" id="_x31_0" xmlns="http://www.w3.org/2000/svg" xmlns:xlink="http://www.w3.org/1999/xlink" x="0px" y="0px" viewBox="0 0 512 512" style="width: 256px; height: 256px; opacity: 1;" xml:space="preserve">
<path fill="#000000" class="st0" d="M408.578,252.953h-97.161l-14.706,14.707l-10.489,10.324h0.161l-0.161,0.161h29.23v40.25h-69.476
l-14.684,14.68l-10.511,10.351h0.16l-0.16,0.16h187.797c10.722,0,19.461-8.742,19.461-19.465v-51.706
C428.039,261.691,419.301,252.953,408.578,252.953z M402.848,278.145v40.25h-69.477v-40.25H402.848z"></path>
<path fill="#000000" class="st0" d="M141.164,318.554l-0.156-0.004l0.156-0.156h-21.148v-40.25h61.398l14.714-14.711l10.481-10.32h-0.164
l0.164-0.161H106.574c-11.754,0-21.301,9.547-21.301,21.298v48.034c0,11.75,9.546,21.301,21.301,21.301h9.398l14.707-14.706
L141.164,318.554z"></path>
<path fill="#000000" class="st0" d="M108.043,227.098v-17.332c0-21.816,17.183-34.519,36.574-34.519h11.68v-11.606
c0-19.39,15.129-35.477,34.446-36.653l3.453-0.144v-22.446l0.004-0.754h-0.004v-0.157l-3.82,0.145
c-1.27,0.058-2.477,0.355-3.726,0.492c-0.926,0.102-1.844,0.219-2.758,0.363c-2.652,0.414-5.234,0.996-7.77,1.746
c-0.527,0.156-1.046,0.32-1.566,0.488c-2.902,0.95-5.691,2.098-8.39,3.461c-0.106,0.055-0.211,0.106-0.316,0.161
c-8.778,4.492-16.294,11.027-21.95,19.09c-0.164,0.234-0.332,0.477-0.496,0.715c-1.516,2.23-2.875,4.542-4.086,6.98
c-0.485,0.965-0.942,1.946-1.375,2.942c-0.73,1.699-1.402,3.414-1.977,5.195c-0.656,2-1.211,4.039-1.656,6.125
c-0.11,0.524-0.321,1-0.414,1.527c-27.836,4.993-49.211,27.246-49.211,56.626v17.343v0.051l0,0v0.16H108.043z"></path>
<path fill="#000000" class="st0" d="M171.207,190.598c-14.836,0-27.102,11.086-28.574,26.289v10.211h23.578v-8.519
c0-2.422,2.867-4.699,4.996-4.699h17.774c22.695,0,42.527-15.938,47.301-37.902c21.226-4.848,36.5-24.016,36.5-45.828
c0-12.047-4.551-23.43-12.703-32.172l-2.481-2.61l-0.121-0.145l-0.008,0.008l-0.11-0.117l-16.011,16.89l2.202,2.5
c3.598,4.113,5.657,9.106,5.875,14.543c0.293,6.39-2.054,12.414-6.535,17.113c-4.629,4.848-11.238,7.637-17.922,7.637h-10.871
v11.606c0,13.882-11.309,25.195-25.191,25.195H171.207z"></path>
<path fill="#000000" class="st0" d="M255.965,0C114.871,0,0,114.797,0,255.965C0,397.129,114.871,512,255.965,512
C397.129,512,512,397.129,512,255.965C512,114.797,397.129,0,255.965,0z M255.965,467.199c-38.633,0-76.68-10.797-109.949-31.145
l-19.414-11.926l-4.359-2.718l77.828-77.825l25.191-25.191l40.25-40.25l25.121-25.192l130.809-130.808l14.613,23.867
c20.422,33.273,31.219,71.316,31.219,109.953C467.274,372.45,372.453,467.199,255.965,467.199z M90.543,389.754l-14.598-23.766
c-20.418-33.347-31.215-71.39-31.215-110.023c0-116.488,94.82-211.234,211.234-211.234c38.707,0,76.75,10.797,110.023,31.215
l19.379,11.902l4.39,2.738L227.394,252.953l-25.195,25.192l-65.442,65.441l-37.613,37.614L90.543,389.754z"></path>
</svg>
