<svg version="1.1" id="Capa_1" xmlns="http://www.w3.org/2000/svg" xmlns:xlink="http://www.w3.org/1999/xlink" x="0px" y="0px" width="964.6px" height="964.6px" viewBox="0 0 964.6 964.6" style="enable-background:new 0 0 964.6 964.6;" xml:space="preserve"
>
<path fill="#000000" d="M392.443,549.8c-12.5,2.2-25.399,3.3-38.5,3.3c-124.8,0-226.1-101.199-226.1-226.1c0-124.9,101.2-226.1,226.1-226.1
c124.9,0,226,101.3,226,226.1c0,47.7-14.8,91.9-39.899,128.3c10.1,14.7,19,27.601,25.899,37.5c21.9-5.1,68.7-15.899,114.7-26.8V20
c0-11-8.7-20-19.7-20h-614c-11.1,0-20.3,9-20.3,20v614c0,11,9.2,20,20.3,20h403.7L392.443,549.8z"/>
<path fill="#000000" d="M333.344,297.1l4-2.6c12.6-8.3,27.3-12.7,42.399-12.7l0,0c25.4,0,49.2,12.5,63.601,33.4c6.3,9.2,13.399,19.5,21,30.5
c1-6.1,1.5-12.3,1.5-18.6c0-61.8-50.101-111.9-111.9-111.9s-111.9,50.1-111.9,111.9c0,53.2,37.2,97.8,87,109.1l-20.601-36.9
c-9.5-17.1-12.2-37-7.6-56C305.443,324.2,316.943,307.8,333.344,297.1z"/>
<path fill="#000000" d="M914.844,633.8c-0.601-1.2-1.3-2.399-2-3.6l-74.2-132.7c-6.9-12.3-19.7-19.6-33.3-19.6c-2.9,0-5.9,0.3-8.8,1
c-27.9,6.5-72.9,17-115.9,27c-61,14.3-119,27.8-119,27.8c-1.4,0.3-2.8,0.5-4.3,0.5c-6.101,0-12-3-15.601-8.101
c-6.1-8.699-120.8-174.7-130.699-188.899c-7.4-10.7-19.301-16.5-31.5-16.5c-7.2,0-14.5,2-20.9,6.3l-4,2.6
c-16.7,11-22.1,33.1-12.4,50.5l195.7,350.5c2.4,4.301,1.3,9.7-2.7,12.7l-0.1,0.101c-0.4,0.3-0.9,0.6-1.4,0.899
c-13.5,7.5-27.199,10.101-39.699,10.101c-27.601,0-49.301-12.601-49.4-12.601c-6.2-3.1-12.8-4.6-19.3-4.6
c-12.3,0-24.4,5.3-32.8,15.1l-4.9,5.7c-15.3,18-13.3,44.9,4.5,60.5c40.3,35.1,110.2,86.8,180.3,123.6
c28.601,15,59.9,22.5,91.2,22.5c32.9,0,65.7-8.3,95.3-24.8l78.3-43.8C930.243,844.2,965.344,727.4,914.844,633.8z"/>
</svg>
