<svg version="1.1" id="Lager_1" xmlns="http://www.w3.org/2000/svg" xmlns:xlink="http://www.w3.org/1999/xlink" x="0px" y="0px" width="48" height="48" viewBox="0 0 48 48" style="enable-background:new 0 0 48 48;" xml:space="preserve">
	<path class="st0" fill="#000000" d="M32.5,20.7c1.4,0,2.6-1.2,2.6-2.6c0-0.4-0.3-0.8-0.8-0.8c-0.4,0-0.8,0.4-0.8,0.8c0,0.6-0.4,1-1,1
		c-0.6,0-1-0.4-1-1c0-0.4-0.3-0.8-0.8-0.8c-0.4,0-0.8,0.4-0.8,0.8C29.9,19.5,31,20.7,32.5,20.7z"/>
	<ellipse class="st0" fill="#000000" cx="36.7" cy="15.7" rx="0.7" ry="1.4"/>
	<path class="st0" fill="#000000" d="M27.8,16c0,0.8,0.3,1.4,0.7,1.4c0.4,0,0.7-0.6,0.7-1.4c0-0.8-0.3-1.4-0.7-1.4C28.2,14.6,27.8,15.2,27.8,16z"/>
	<path class="st0" fill="#000000" d="M46.1,29.1c-0.1-2.3-0.8-4.5-1.9-6.5c0-0.1-0.1-0.1-0.1-0.2c-0.2-0.3-0.3-0.6-0.5-0.8l0.1-1.5h0.1
		c0.7-0.2,1.3-0.6,1.7-1.3c0.4-0.6,0.5-1.4,0.3-2.1c-0.2-0.7-0.6-1.3-1.3-1.7c-0.3-0.2-0.6-0.3-1-0.4c-0.1-0.6-0.2-1.1-0.3-1.7
		c-0.2-0.9-0.5-1.7-0.9-2.5c-0.1-0.2-0.2-0.3-0.2-0.4c-0.4-0.7-0.9-1.4-1.5-1.9c-0.1-0.1-0.2-0.2-0.3-0.3c-0.2-0.2-0.5-0.4-0.7-0.6
		c-0.6-0.4-1.4-0.8-2.1-0.9c-0.1,0-0.3-0.1-0.4-0.1c0,0-0.1,0-0.1,0c-0.1,0-0.2,0-0.3,0c0,0-0.1,0-0.2,0c-0.1,0-0.2,0-0.3,0h-0.6
		c-0.1,0-0.2,0-0.3,0C35.1,6,35,6,35,6c-0.1,0-0.2,0-0.3,0c-0.1,0-0.1,0-0.2,0c-0.1,0-0.2,0-0.3,0c0,0-0.1,0-0.2,0
		c-0.1,0-0.2,0-0.3,0.1c0,0-0.1,0-0.1,0c-0.1,0-0.3,0.1-0.4,0.1c-0.8-0.6-1.7-1-2.7-1.3c-1.8-0.4-3.6,0-5.4,1.2c-2,1.3-3,2.9-3,4.6
		c0,2.9,2.9,5,3,5.1c0.1,0,0.1,0.1,0.2,0.1c0,0,0,0,0,0.1h0c-1.4,0.5-2.6,1.3-3.8,2.1c0,0-0.1,0.1-0.1,0.1
		c-1.2-5.4,0.1-9.1,1.6-11.5c0.7-1.1,0.7-2.5-0.1-3.5c-0.7-1-2-1.5-3.2-1.2c-1.6,0.4-3,1.5-3.9,3.2c-1,1.8-1.4,4.2-1.1,6.7
		c-0.2-0.3-0.5-0.6-0.7-0.9c-0.6-0.7-1.4-1.1-2.3-1.1c-0.8,0-1.6,0.3-2.2,0.9c-0.6,0.6-1,1.5-0.9,2.3c-0.8,0-1.7,0.3-2.4,0.9
		c-0.6,0.6-0.9,1.4-0.9,2.2v0.2c-0.8,0-1.7,0.3-2.4,0.9c-0.6,0.6-0.9,1.4-0.9,2.2c0.1,2.3,2.7,4.7,5,6.5c0.9,0.7,1.9,1.4,2.9,2.1
		l0,0c0,0.3,0,0.6,0,0.6c0.3,7.7,5.9,14.6,13.7,16.6c1.5,0.4,3.1,0.6,4.6,0.6c2.7,0,5.3-0.6,7.7-1.7c1.6-0.6,3.2-1.5,4.5-2.6
		c1-0.8,2-1.8,2.8-2.9c1-1.5,1.8-3.2,2.3-4.9C45.9,32.4,46.1,30.7,46.1,29.1z M3.9,18.5c0.6-0.6,1.6-0.6,2.1,0
		c0.3,0.3,0.8,0.3,1.1,0c0.2-0.2,0.2-0.4,0.2-0.6c0-0.2-0.1-0.4-0.2-0.6c-0.3-0.3-0.4-0.7-0.4-1.1c0-0.4,0.2-0.8,0.4-1.1
		c0.3-0.3,0.7-0.4,1.1-0.4c0.4,0,0.8,0.2,1.1,0.4c0.3,0.3,0.8,0.3,1.1,0c0.2-0.2,0.2-0.4,0.2-0.6c0-0.2-0.1-0.4-0.2-0.6
		c-0.6-0.6-0.6-1.6,0-2.1c0.4-0.4,0.8-0.4,1.1-0.4c0.4,0,0.9,0.2,1.2,0.6c1,1.2,2,2.5,3,3.8c0.5,0.6,1,1.3,1.5,1.9
		c0.3,0.3,0.8,0.4,1.1,0.1c0.3-0.3,0.4-0.8,0.1-1.1c-0.5-0.6-1-1.3-1.5-1.9l0,0c-1.1-3.2-1-6.6,0.2-8.9c0.7-1.3,1.7-2.1,2.9-2.4
		c0.6-0.1,1.2,0.1,1.6,0.6c0.3,0.4,0.5,1.1,0,1.7c-1.8,2.9-3.3,7.4-1.5,14.1v0c0.2,0.7,0.4,1.5,0.7,2.3c-3,1.2-6.3,4.9-7.4,6.3
		c-2.2-1.3-4-2.5-5.6-3.8c-2.8-2.3-4.3-4.1-4.4-5.3C3.5,19.1,3.6,18.8,3.9,18.5z M22,25c3.1,6.6,6.8,9.1,9.4,10
		c1.3,0.4,2.3,0.6,3.2,0.6c0.4,0,0.7,0,1,0c0,0.6,0,1.1,0.1,1.6c0,0.3,0.3,0.6,0.6,0.6c0.1,0,0.1,0,0.2,0c0,0,0.1,0,0.1,0
		c0.4-0.1,0.7-0.5,0.6-0.9c-0.3-2,0.2-4.6,1.4-7c1.2-2.4,2.8-4.3,4.6-5.3c0,0,0,0,0.1,0c0.7,1.5,1,3.1,1.1,4.7
		c0.1,3-0.8,6.1-2.7,8.6c-0.9,1.2-2,2.3-3.2,3.2c-1.3,0.9-2.7,1.6-4.2,2c-1,0.3-2,0.5-3,0.6c-1,0.1-2,0-3-0.1c-3.1-0.5-6-2-8.1-4.3
		c-1-1.2-1.9-2.5-2.4-3.9c-0.2-0.5-0.3-1-0.5-1.5c-0.2-0.7-0.5-1.5-0.8-2.2c-0.3-0.7-0.9-1.4-1.7-2c1.5-1.7,4.3-4.7,6.7-5.7
		C21.6,24.2,21.8,24.6,22,25z M35.9,11.4c0.3,0,3.1,0.5,5.1,4c-0.1,0.1-0.2,0.2-0.3,0.4c-0.2,0.3-0.2,0.8,0.1,1.1
		c0.4,0.3,0.9,0.2,1.2-0.1c0.1-0.2,0.2-0.3,0.4-0.4c0.4-0.2,0.9-0.2,1.3,0c0.3,0.2,0.5,0.4,0.5,0.7c0.1,0.3,0,0.6-0.2,0.9
		c-0.2,0.3-0.5,0.6-0.9,0.6c-0.2,0-0.4,0-0.6-0.1c-0.4-0.2-0.9,0-1.1,0.4c-0.2,0.3-0.1,0.8,0.3,1c0,0.2-0.1,0.3-0.1,0.5
		c-0.7,2.6-2,4.9-3.7,6.6c-1.6,1.6-3.4,2.4-5.1,2.4c-0.4,0-0.9,0-1.3-0.2c-1.9-0.5-3.4-2-4.3-4.2c-0.2-0.4-0.3-0.8-0.4-1.2
		c1.1,0.6,2.6,1.3,4.7,1.3s4.5-0.6,7.4-2.5c0,0.2,0,0.3,0,0.5c0,0.3,0.2,0.6,0.6,0.6h0c0.3,0,0.6-0.3,0.6-0.6c0-0.5-0.1-0.9-0.3-1.4
		c-0.3-0.7-0.8-1.3-1.5-1.6c-0.3-0.1-0.6,0-0.8,0.3c-0.1,0.3,0,0.6,0.3,0.8l0.1,0.1c-6.9,4.6-10.9,1-11.5,0.3l0-0.3
		c-0.1-1.5,0.1-3.1,0.5-4.6c0.3-1,0.6-2,1-2.8c0.2-0.4,0.5-0.7,0.9-0.9C31.5,11.3,35.5,11.4,35.9,11.4z M25.3,14
		c-0.7-0.7-1.6-1.8-1.6-3.1c0-1.1,0.8-2.2,2.3-3.3c1-0.7,2-1,3.1-1c0.3,0,0.7,0,1,0.1c1.9,0.4,3.4,2,4.3,3.1
		C31.9,9.9,27.1,10.6,25.3,14z M25,18c-0.1,0.6-0.1,1.3-0.2,1.9v1.2c0.2,3.4,1.4,6.3,3.4,8c0.2,0.2,0.5,0.4,0.7,0.6
		c0.6,0.4,1.4,0.8,2.1,0.9c0.1,0,0.3,0.1,0.4,0.1c0,0,0.1,0,0.1,0c0.1,0,0.2,0,0.3,0c0,0,0.1,0,0.2,0c0.1,0,0.2,0,0.3,0h0.6
		c0.1,0,0.2,0,0.3,0c0.1,0,0.1,0,0.2,0c0.1,0,0.2,0,0.3,0c0.1,0,0.1,0,0.2,0c0.1,0,0.2,0,0.3,0c0,0,0.1,0,0.2,0c0.1,0,0.2,0,0.3-0.1
		c0,0,0.1,0,0.1,0c0.1,0,0.3-0.1,0.4-0.1c0,0,0.1,0,0.1,0c0.1,0,0.2-0.1,0.3-0.1c0,0,0.1,0,0.2-0.1c0.1,0,0.2-0.1,0.3-0.1
		c0,0,0.1,0,0.2-0.1c0.1,0,0.2-0.1,0.3-0.1c0.1,0,0.1-0.1,0.2-0.1c0.1,0,0.1-0.1,0.2-0.1c-0.6,1.4-1,2.8-1.2,4.1
		c-0.6,0.1-2.1,0.2-3.9-0.4c-3.2-1.2-6.1-4.3-8.3-9.1c-0.2-0.4-0.3-0.7-0.5-1.1c-0.2-0.5-0.4-1-0.6-1.6c-0.1-0.3-0.2-0.5-0.3-0.8
		c0-0.1-0.3-0.8-0.3-0.8l0,0c0.6-0.5,1.2-0.9,1.3-1C23.7,18.6,24.3,18.3,25,18z M11.5,29.3c0.6,0.4,1.1,0.7,1.8,1.1
		c0.9,0.5,1.5,1.1,1.8,1.8c0.3,0.6,0.5,1.3,0.7,2c0.2,0.5,0.3,1.1,0.5,1.6c0.6,1.6,1.6,3.1,2.7,4.4c1.3,1.5,1.6,2.1,4.7,3.5
		C16.9,41.9,12.1,36,11.5,29.3z"/>
</svg>
