<?xml version="1.0" encoding="iso-8859-1"?>
<!-- Generator: Adobe Illustrator 17.1.0, SVG Export Plug-In . SVG Version: 6.00 Build 0)  -->
<!DOCTYPE svg PUBLIC "-//W3C//DTD SVG 1.1//EN" "http://www.w3.org/Graphics/SVG/1.1/DTD/svg11.dtd">
<svg version="1.1" id="Capa_1" xmlns="http://www.w3.org/2000/svg" xmlns:xlink="http://www.w3.org/1999/xlink" x="0px" y="0px"
viewBox="0 0 426.131 426.131" style="enable-background:new 0 0 426.131 426.131;" xml:space="preserve">
<path fill="#000000" d="M257.709,110.538h-16.554c18.306-9.987,30.754-29.414,30.754-51.694C271.909,26.397,245.512,0,213.065,0
s-58.843,26.397-58.843,58.843c0,22.281,12.448,41.707,30.754,51.694h-16.554c-8.271,0-15,6.729-15,15v147.467
c0,8.271,6.729,15,15,15h2.24v123.126c0,8.271,6.729,15,15,15h54.807c8.271,0,15-6.729,15-15V288.005h2.24c8.271,0,15-6.729,15-15
V125.538C272.709,117.267,265.98,110.538,257.709,110.538z"/>
</svg>
