<svg version="1.1" id="Lager_1" xmlns="http://www.w3.org/2000/svg" xmlns:xlink="http://www.w3.org/1999/xlink" x="0px" y="0px" width="48" height="48" viewBox="0 0 48 48" style="enable-background:new 0 0 48 48;" xml:space="preserve">
<g>
	<path fill="#000000" d="M8.8,43.8c0.3-0.9,1-1.4,1.9-1.6c1.2-0.3,2.4-0.5,3.6-0.8c0.3-0.1,0.6-0.2,0.9-0.3c1.9-1.2,3.8-2.3,5.7-3.5
		c0.1-0.1,0.3-0.2,0.5-0.3c-0.1,0-0.1-0.1-0.2-0.1c-2.5-1.2-5-2.4-7.7-3c-0.3-0.1-0.5,0-0.7,0.2c-0.7,0.6-1.4,1.1-2.4,1.1
		c-1.3,0-1.8-0.9-1.2-2.1c0.2-0.4,0.5-0.8,0.8-1.2c0.2-0.3,0.2-0.6,0.2-0.9c-0.1-0.6-0.2-1.2-0.2-1.8c0.1-1.1,1-1.7,2-1.2
		c0.6,0.3,1.1,0.7,1.6,1.1c0.7,0.7,1.4,1.4,2.1,2.1c0.1,0.2,0.3,0.3,0.5,0.4c2.6,1.2,5.1,2.3,7.7,3.4c0.2,0.1,0.4,0.1,0.6,0.1
		c2.5-1.1,5-2.3,7.6-3.4c0.2-0.1,0.5-0.3,0.7-0.4c1-0.9,1.9-1.7,2.9-2.6c0.3-0.3,0.6-0.4,1-0.6c0.7-0.3,1.4,0,1.5,0.8
		c0.1,0.8,0,1.6,0,2.3c0,0.2,0,0.4,0.1,0.6c0.4,0.7,0.8,1.3,1.2,2c0,0.2,0,0.3,0,0.5c-0.2,0.3-0.3,0.6-0.5,0.8
		c-0.4,0.3-1,0.4-1.5,0.1c-0.7-0.4-1.4-0.8-2.1-1.1c-0.2-0.1-0.5-0.2-0.7-0.1c-2.6,0.6-5.1,1.8-7.5,3c0,0,0,0.1,0,0.1
		c2.1,1.3,4.2,2.6,6.4,3.9c0.3,0.2,0.7,0.3,1.1,0.4c1.1,0.3,2.2,0.5,3.3,0.9c0.7,0.2,1.3,0.7,1.6,1.5c0,0.2,0,0.4,0,0.7
		c-0.3,0.6-0.7,0.9-1.3,1.1c-0.4,0.1-0.8,0.2-1.3,0.4c-0.2,0.1-0.5,0.2-0.7,0.4c-0.5,0.4-0.9,0.8-1.3,1.2c-0.6,0.4-1.1,0.3-1.5-0.2
		c-0.3-0.3-0.5-0.6-0.7-1c-0.3-0.6-0.5-1.2-0.8-1.9c-0.1-0.2-0.2-0.4-0.4-0.6c-2.2-1.8-4.5-3.5-7.1-4.9c-0.3-0.1-0.5-0.1-0.7,0
		c-2.4,1.4-4.7,3-6.8,4.9c-0.4,0.3-0.6,0.7-0.7,1.2c-0.1,0.7-0.4,1.3-0.7,1.9c-0.5,0.9-1.4,1.1-2.2,0.4c-0.3-0.3-0.7-0.6-0.9-1
		c-0.3-0.4-0.6-0.6-1.1-0.6c-1,0-2-0.2-2.4-1.3C8.8,44.3,8.8,44,8.8,43.8z"/>
	<path fill="#000000" d="M13.3,10.2C13,4,17.2,1.1,21.1,0.4c2.8-0.5,5.6-0.4,8.3,0.8c3.5,1.6,5.3,4.7,5.1,8.6c-0.1,1.8-0.5,3.5-1.3,5.1
		c-0.7,1.2-1,2.5-1.1,3.8c-0.1,0.7-0.3,1.1-1,1.3c-1,0.4-1.9,0.9-2.8,1.3c-0.4,0.2-0.7,0.4-0.8,0.9c-0.1,0.8-0.7,1.1-1.5,1.2
		c-1.6,0.2-3.1,0.2-4.6-0.1c-0.3-0.1-0.5-0.2-0.6-0.5c-0.2-0.9-0.7-1.4-1.5-1.7c-1-0.4-1.9-0.9-2.8-1.3c-0.2-0.1-0.3-0.3-0.3-0.5
		c-0.1-0.6-0.1-1.2-0.3-1.8c-0.2-0.8-0.4-1.7-0.9-2.4C13.7,13.6,13.3,11.8,13.3,10.2z M22.1,14c0-1.5-0.6-2.4-1.8-2.6
		c-0.5-0.1-1.1,0-1.7,0.1c-0.8,0.1-1.3,0.7-1.5,1.4c-0.2,0.8-0.2,1.5-0.1,2.3c0.3,1.2,1,1.8,2.2,1.8c1.4,0,2.2-0.5,2.6-1.7
		C22,14.9,22,14.5,22.1,14z M31,14c0-0.2,0-0.5-0.1-0.8c-0.1-1-0.7-1.6-1.7-1.8c-0.5-0.1-1.1,0-1.6,0c-0.9,0.1-1.4,0.7-1.6,1.5
		c-0.2,0.8-0.2,1.6,0,2.5c0.2,0.6,0.5,1.1,1.1,1.3c1.8,0.9,3.6-0.2,3.8-2.1C31,14.5,31,14.3,31,14z M24,17.4
		c-0.5,0.7-1.1,1.4-1.6,2.1c-0.3,0.4-0.4,0.8-0.1,1.3c0.2,0.3,0.8,0.5,1.3,0.3c0.3-0.1,0.4-0.1,0.7,0c0.5,0.2,1,0,1.3-0.3
		c0.3-0.3,0.2-0.8-0.1-1.3c0-0.1-0.1-0.1-0.1-0.2C25,18.7,24.5,18,24,17.4z"/>
	<path fill="#000000" d="M18.2,23.1c0.4-0.1,0.7-0.2,1.1-0.3c0.2,0.5,0.4,1,0.7,1.4c0.6,1.2,1.6,1.8,2.9,1.8c1,0,2,0,3-0.1c0.9-0.1,1.5-0.5,1.9-1.3
		c0.3-0.6,0.6-1.2,1-1.9c0.3,0.1,0.7,0.2,1,0.3c-0.2,1-0.5,1.9-0.7,2.8c0,0.1-0.2,0.3-0.3,0.4c-0.7,0.7-1.5,1.3-2.1,2.2
		c-1.3,1.6-4.1,1.5-5.3-0.1c-0.5-0.7-1.2-1.3-1.8-1.8c-0.3-0.3-0.5-0.6-0.6-1C18.6,24.7,18.4,23.9,18.2,23.1z"/>
</g>
</svg>
