<svg version="1.1" id="Lager_1" xmlns="http://www.w3.org/2000/svg" xmlns:xlink="http://www.w3.org/1999/xlink" x="0px" y="0px"
	 viewBox="0 0 48 48" style="enable-background:new 0 0 48 48;" xml:space="preserve" width="48" height="48">
<path fill="#000000" d="M24,0.8C11.2,0.8,0.8,11.2,0.8,24S11.2,47.2,24,47.2c12.8,0,23.2-10.4,23.2-23.2S36.8,0.8,24,0.8z M24,42.5
	C13.8,42.5,5.5,34.2,5.5,24S13.8,5.5,24,5.5S42.5,13.8,42.5,24S34.2,42.5,24,42.5z M32.1,21.7c1.9,0,3.5-1.6,3.5-3.5
	s-1.6-3.5-3.5-3.5c-1.9,0-3.5,1.6-3.5,3.5S30.2,21.7,32.1,21.7z M15.9,21.7c1.9,0,3.5-1.6,3.5-3.5s-1.6-3.5-3.5-3.5
	s-3.5,1.6-3.5,3.5S14,21.7,15.9,21.7z M24,36.8c5.4,0,10-3.4,11.8-8.1H12.2C14,33.4,18.6,36.8,24,36.8z"/>
</svg>
