<svg version="1.1" id="Lager_1" xmlns="http://www.w3.org/2000/svg" xmlns:xlink="http://www.w3.org/1999/xlink" x="0px" y="0px" width="48" height="48" viewBox="0 0 48 48" style="enable-background:new 0 0 48 48;" xml:space="preserve">
<path fill="#000000" d="M46.6,41l-1-1.1l-5.1,4.4L38,41.5l2.7-2.4l-1-1.1L37,40.4l-2.6-3l5.1-4.4l-1-1.1l-5.1,4.4l-9.6-11.1
	c2.4-2.3,3.8-5.4,4.1-8.7c0.2-3.6-0.9-7.1-3.3-9.8c-2.4-2.7-5.6-4.3-9.2-4.6S8.3,3,5.6,5.4C2.8,7.7,1.2,11,1,14.6
	c-0.2,3.6,0.9,7.1,3.3,9.8c2.4,2.7,5.6,4.3,9.2,4.6c0.3,0,0.6,0,0.9,0c3,0,5.9-1,8.2-2.8l17.7,20.3L46.6,41z M13.6,27.5
	C7,27,2,21.3,2.5,14.7C2.9,8.4,8.2,3.5,14.4,3.5c0.3,0,0.6,0,0.8,0c3.2,0.2,6.1,1.7,8.2,4.1s3.1,5.5,2.9,8.7
	c-0.2,3.2-1.7,6.1-4.1,8.2S16.8,27.7,13.6,27.5z"/>
</svg>
