<svg version="1.1" id="Capa_1" xmlns="http://www.w3.org/2000/svg" xmlns:xlink="http://www.w3.org/1999/xlink" x="0px" y="0px" width="407.5" height="407.5" viewBox="0 0 407.5 407.5" style="enable-background:new 0 0 407.5 407.5;" xml:space="preserve">
<path fill="#000000" d="M376.3,45.6c-21.1-23.7-50.2-36.7-81.9-36.7c-24.8,0-51.5,14.7-71,25.5c-7.1,3.9-16.8,9.3-19.7,9.6
	c-2.9-0.3-12.5-5.7-19.6-9.6C164.7,23.7,138,8.9,113.1,8.9c-31.7,0-60.8,13-81.9,36.7C11.1,68.1,0,97.7,0,129
	c0,44.7,16,108.3,42.9,170c12,27.5,24.7,51.2,36.8,68.7c14.4,20.8,26.8,30.9,37.9,30.9c4.9,0,13.9-2.1,18.9-16
	c4.9-13.5,9.3-29.1,14-45.5c12.4-43.6,27.7-97.9,52.5-97.9h1.6c11,0,20.9,9.4,30.1,28.8c9.2,19.2,16.1,44.8,22.9,69.5
	c4.5,16.4,8.7,31.8,13.4,45.1c4.9,13.8,13.8,15.9,18.7,15.9c11,0,23.4-10.2,37.8-31.3c12.1-17.6,24.9-41.6,36.9-69.4
	c27-62.3,43.2-125.4,43.2-168.8C407.5,97.7,396.4,68.1,376.3,45.6z M349.1,291.1c-11.5,26.4-24,50-35.3,66.6
	c-13.1,19.1-21.5,24.6-24.1,24.1c-1.6-0.3-1.8-1.4-3-4.9c-4.5-12.7-8.7-27.9-13-43.9c-6.9-25.4-14.1-51.7-23.9-72.2
	c-12.3-25.8-27.1-38.3-45.1-38.3H203c-17.4,0-31.8,12.4-44.1,38c-9.8,20.4-17.2,46.6-24.4,72c-4.6,16.2-8.9,31.4-13.6,44.4
	c-1,2.9-1.4,4.7-3.3,5c-1.5,0.2-7.9-0.3-24.2-23.7c-11.3-16.3-23.9-39.7-35.2-65.8C32.6,233.5,16.6,170.9,16.6,129
	c0-50.9,36.1-103.5,96.4-103.5c15.7,0,36.3,7.1,55.2,19.1c2.8,1.8,6.7,4.7,10.4,7.6c1.5,1.2,3,2.3,4.4,3.3
	c4.4,3.3,10.4,7.6,17.4,11.8c3,1.8,6.7,4,10.7,5.6c15.1,6.4,31.1,9.7,47.6,9.7c16.8,0,28.1-3,28.2-3c0,0,2.5-0.7,2.4-1.3
	c-0.1-0.7-2.5-0.7-2.5-0.7c-0.3,0-25.8-1.2-49.1-7.4c-10.5-2.8-22.9-8.4-22.9-10c0-1.6,13.5-9.5,16.7-11.3
	c17.9-9.9,42.5-23.4,63-23.4c60.4,0,96.4,52.6,96.4,103.5C390.9,169.6,374.9,231.8,349.1,291.1z"/>
<ellipse fill="#000000" cx="149.3" cy="109.5" rx="15.3" ry="29.9"/>
<ellipse fill="#000000" cx="258.1" cy="122.1" rx="15.3" ry="29.9"/>
<path fill="#000000" d="M300.5,163.4c-31.3,18.8-102.7,49.8-181.7,3.6c-1.9-1.1-3.7,1.5-2.1,2.9c29.7,25.1,103.3,70.6,185.8-3.7
	C304.3,164.8,302.4,162.3,300.5,163.4z"/>
<path fill="#000000" d="M107.9,153.9c-3,1.2-5.7,3.4-7.8,6.3c-2.1,3-3.2,6.3-3.3,9.5c-0.1,3,4.1,3.8,5.2,1c0.9-2.3,2.1-4.5,3.6-6.7s3.3-4.1,5.1-5.7
	C112.9,156.5,110.6,152.8,107.9,153.9z"/>
<path fill="#000000" d="M315.4,149.8c-2.8-2.2-6.1-3.5-9.3-3.9c-3-0.3-4,3.9-1.3,5.1c2.2,1,4.4,2.3,6.5,4c2.1,1.7,3.9,3.5,5.4,5.4
	c1.8,2.4,5.6,0.3,4.6-2.5C320.3,155,318.3,152.1,315.4,149.8z"/>
<path fill="#000000" d="M123.6,75.1c2.2-2,4.8-3.8,7.8-5.3c3-1.4,6.1-2.3,9-2.7c2.5-0.3,2.8-3.8,0.4-4.5c-3.8-1.1-8.1-0.8-12.2,1.2
	c-4.1,1.9-7.1,5.1-8.7,8.7C118.9,74.8,121.8,76.8,123.6,75.1z"/>
</svg>
