<?xml version="1.0" encoding="iso-8859-1"?>
<!-- Generator: Adobe Illustrator 17.1.0, SVG Export Plug-In . SVG Version: 6.00 Build 0)  -->
<!DOCTYPE svg PUBLIC "-//W3C//DTD SVG 1.1//EN" "http://www.w3.org/Graphics/SVG/1.1/DTD/svg11.dtd">
<svg version="1.1" id="Capa_1" xmlns="http://www.w3.org/2000/svg" xmlns:xlink="http://www.w3.org/1999/xlink" x="0px" y="0px"
 viewBox="0 0 423.365 423.365" style="enable-background:new 0 0 423.365 423.365;" xml:space="preserve">
<path fill="#000000" d="M297.977,298.159l-25.612-174.19c-1.168-7.943-8.373-14.166-16.401-14.166h-16.255c18.135-9.944,30.46-29.217,30.46-51.318
C270.168,26.236,243.932,0,211.683,0s-58.486,26.236-58.486,58.485c0,22.101,12.325,41.374,30.46,51.318h-16.255
c-8.029,0-15.233,6.223-16.401,14.166l-25.612,174.19c-0.593,4.032,0.527,8.036,3.073,10.983c2.545,2.948,6.343,4.638,10.419,4.638
h37.751l5.623,94.898c0.48,8.098,7.471,14.687,15.583,14.687h27.689c8.112,0,15.103-6.588,15.583-14.687l5.623-94.898h37.751
c4.076,0,7.874-1.69,10.419-4.638C297.45,306.195,298.57,302.191,297.977,298.159z"/>
</svg>
