<svg version="1.1" id="Lager_1" xmlns="http://www.w3.org/2000/svg" xmlns:xlink="http://www.w3.org/1999/xlink" x="0px" y="0px" width="228.5" height="22.8" viewBox="0 0 228.5 22.8"  xml:space="preserve">
<style type="text/css">
.st0{fill:#FFFFFF;}
.st1{fill:#FFFFFF;}
</style>
<g>
<path class="st0" d="M16.5,16.1c-1.4,0-2.7,1.2-2.7,2.6s1.2,2.7,2.7,2.6c1.3,0,2.6-1.2,2.5-2.6C19.1,17.2,17.8,16.1,16.5,16.1z
M16.6,18.1c-0.4,0.1-0.6,0.4-0.8,0.8c-0.1,0.1-0.3,0.3-0.5,0.3c-0.3,0-0.4-0.3-0.4-0.5c0-0.7,0.8-1.4,1.4-1.3
c0.3,0,0.4,0.1,0.4,0.4l0.1,0.1C16.9,17.9,16.7,18,16.6,18.1z"/>
<path class="st0" d="M4.2,16.1c-1.4,0-2.7,1.2-2.7,2.6s1.3,2.7,2.7,2.6c1.3,0,2.6-1.2,2.5-2.6C6.8,17.2,5.5,16.1,4.2,16.1z
M4.2,18.1c-0.4,0.1-0.6,0.3-0.7,0.7C3.4,19,3.3,19.2,3,19.1s-0.3-0.4-0.3-0.6c0.1-0.7,0.8-1.3,1.4-1.2c0.3,0,0.4,0.1,0.5,0.5
C4.5,17.9,4.4,18,4.2,18.1z"/>
<path class="st0" d="M6.7,15.2c1.4,0,2.6-1.2,2.6-2.6S8.1,10,6.7,10s-2.6,1.2-2.6,2.6C4.1,14,5.3,15.2,6.7,15.2z M6.5,11.1
c0.2,0,0.5,0,0.5,0.3c0.1,0.2-0.1,0.4-0.3,0.5C6.4,12,6.1,12.2,6,12.6C6,12.9,5.8,13,5.6,13c-0.3-0.1-0.4-0.3-0.3-0.6
C5.3,11.8,5.9,11.1,6.5,11.1z"/>
<path class="st0" d="M6.6,21.3c0.4,0.1,0.8,0.2,1.1-0.1c-0.2-0.2-0.3-0.4-0.5-0.6C7,20.8,6.9,21,6.6,21.3z"/>
<path class="st0" d="M12.8,21.4c0.5,0,0.8,0,1.2-0.1c-0.3-0.3-0.4-0.5-0.6-0.8C13.1,20.9,13,21.1,12.8,21.4z"/>
<path class="st0" d="M10.3,9c1.3,0,2.6-1.2,2.5-2.6c0.1-1.5-1.2-2.6-2.5-2.7C8.9,3.7,7.6,5,7.7,6.4C7.7,7.8,8.9,9.1,10.3,9z
M8.8,6.2C8.9,5.5,9.5,5,10.2,5c0.2,0,0.5,0,0.5,0.3s-0.2,0.4-0.4,0.5C10,5.9,9.8,6.1,9.7,6.4C9.6,6.7,9.4,6.9,9.1,6.8
C8.9,6.7,8.8,6.4,8.8,6.2z"/>
<path class="st0" d="M10.4,16.1c-1.8,0-2.7,1.3-2.7,2.6c0,1.4,1.2,2.7,2.7,2.7c1.3,0,2.7-1.1,2.6-2.7C13,17.3,11.7,16.1,10.4,16.1z
M10.3,18.1c-0.3,0.1-0.5,0.3-0.6,0.6c-0.1,0.3-0.2,0.4-0.6,0.4c-0.2-0.1-0.4-0.3-0.3-0.7c0.1-0.7,0.7-1.2,1.5-1.1
c0.1,0.1,0.3,0.2,0.4,0.3C10.8,17.9,10.6,18,10.3,18.1z"/>
<path class="st0" d="M7.2,16.9c0.3-0.3,0.5-0.6,0.7-0.8c0,0,0-0.1-0.1-0.1c-0.4,0-0.8,0.1-1.3,0.2C6.8,16.4,7,16.6,7.2,16.9z"/>
<path class="st0" d="M15.5,12.5c0-1.4-1.2-2.6-2.6-2.6s-2.6,1.2-2.6,2.6c0,1.5,1.2,2.7,2.6,2.7S15.5,14,15.5,12.5z M12.9,11.9
c-0.4,0.1-0.5,0.4-0.7,0.7c-0.1,0.2-0.3,0.4-0.5,0.3c-0.2-0.1-0.3-0.3-0.3-0.4c0-0.7,0.7-1.4,1.3-1.4c0.2,0,0.5,0,0.6,0.3
C13.3,11.7,13.1,11.9,12.9,11.9z"/>
<path class="st0" d="M138,8.8c0-0.3,0.2-0.5,0.4-0.5l1.7-0.3l-1.9-3.6l0.6,2.7c0,0.2,0,0.4-0.2,0.5s-0.3,0.2-0.5,0.1l-1.4-0.5
l1.5,3.3L138,8.8z"/>
<path class="st0" d="M15.9,9.9c-0.2,0-0.3,0.1-0.6,0.1c0.2,0.2,0.3,0.4,0.3,0.5c0.2,0.5,0.6,0.6,1.1,0.6c0.6,0,1.1,0,1.7,0
s0.8,0.1,0.8,0.4c0,0.3-0.2,0.4-0.9,0.4c-0.5,0-1,0-1.6,0c-0.4,0-0.5,0.1-0.5,0.6s0.1,0.6,0.6,0.7c0.3,0,0.6,0,1,0
c0.2,0,0.4,0.1,0.4,0.4c0,0.3-0.2,0.4-0.4,0.4c-0.2,0-0.3,0-0.5,0c-0.3,0-0.7,0-1,0c-0.2,0-0.4,0.1-0.5,0.2
c-0.2,0.2-0.4,0.5-0.6,0.9c0.3,0,0.5,0.1,0.7,0.1c2.6,0,5.2,0,7.8,0c0.7,0,1.3-0.2,1.9-0.6c0.2-0.1,0.4-0.3,0.4-0.6
c-0.2,0-0.4-0.1-0.6-0.1c-0.1-0.1-0.3-0.2-0.3-0.3s0.2-0.3,0.3-0.4c0.2-0.1,0.4,0,0.7-0.1c0.4-0.1,0.6-0.3,0.5-0.7
c0-0.3-0.2-0.5-0.6-0.6c-0.4,0-0.9,0-1.3,0c-0.3,0-0.6,0-0.9,0c-0.6,0-0.8-0.1-0.8-0.4c0-0.3,0.2-0.4,0.8-0.4c0.3,0,0.5,0,0.8,0
s0.6,0,1,0c0.1,0,0.3-0.1,0.6-0.1c-0.3-0.2-0.4-0.4-0.6-0.6c-0.5-0.3-1.1-0.5-1.7-0.5C21.3,9.9,18.6,9.9,15.9,9.9z M21,11.2
c0.1-0.1,0.3-0.1,0.4-0.1c0.3,0,0.6,0,0.6,0.4c0,0.3-0.2,0.4-0.7,0.4c-0.1,0-0.2,0-0.3-0.1c-0.1-0.1-0.2-0.2-0.2-0.3
C20.7,11.4,20.8,11.3,21,11.2z M23.4,13.2c0.3,0,0.6,0,0.6,0.4c0,0.3-0.3,0.4-0.5,0.4c-0.9,0-1.9,0-2.8,0c-0.3,0-0.5-0.1-0.5-0.4
c0-0.3,0.3-0.4,0.5-0.4c0.5,0,1,0,1.4,0l0,0C22.6,13.2,23,13.2,23.4,13.2z"/>
<path class="st0" d="M13.4,16.9c0.3-0.3,0.5-0.4,0.4-0.7c-0.3,0-0.6,0-1,0C13,16.4,13.2,16.6,13.4,16.9z"/>
<path class="st0" d="M8.9,9.7c0.4,0.4,0.6,0.6,0.9,1c0.2-0.3,0.4-0.4,0.4-0.7C9.8,9.9,9.4,9.8,8.9,9.7z"/>
<path class="st0" d="M14.4,5c0.6,0,1.2,0,1.8,0c0.5,0,0.7,0.1,0.7,0.4s-0.2,0.4-0.8,0.4c-0.5,0-1,0-1.6,0s-0.7,0.1-0.7,0.6
S13.9,7,14.5,7c0.3,0,0.5,0,0.8,0s0.5,0.1,0.5,0.4s-0.3,0.4-0.5,0.4c-0.4,0-0.8,0-1.2,0c-0.2,0-0.5,0.1-0.6,0.2
c-0.3,0.3-0.5,0.6-0.7,1c0.2,0,0.3,0.1,0.4,0.1c2.8,0,5.5,0,8.3,0c0.7,0,1.3-0.2,1.8-0.7c0.1-0.1,0.2-0.3,0.3-0.4
c-0.2-0.1-0.4-0.1-0.5-0.2s-0.3-0.2-0.3-0.4c0-0.2,0.2-0.3,0.4-0.4c0.2,0,0.3,0,0.5,0c0.5,0,0.6-0.2,0.6-0.7c0-0.4-0.1-0.5-0.6-0.6
c-0.7,0-1.3,0-2,0c-0.2,0-0.4,0-0.5,0c-0.2,0-0.4-0.1-0.4-0.4S21,5,21.2,4.9c0.2,0,0.3,0,0.5,0c0.4,0,0.9,0,1.3,0
c0.2,0,0.4,0,0.8-0.1c-0.2-0.2-0.3-0.4-0.4-0.5c-0.6-0.5-1.3-0.6-2.1-0.7c-2.6,0-5.1,0-7.7,0c-0.2,0-0.4,0-0.7,0.1
C13,4,13.1,4.2,13.1,4.3C13.4,4.8,13.8,5,14.4,5z M18.7,5c0.3,0,0.6,0,0.7,0.3c0,0.1-0.1,0.3-0.2,0.4s-0.3,0.1-0.4,0.1
s-0.3,0-0.3-0.1c-0.1-0.1-0.3-0.3-0.3-0.4C18.2,5,18.4,5,18.7,5z M18.1,7c1,0,1.9,0,2.9,0c0.3,0,0.5,0.1,0.5,0.4S21.2,7.8,21,7.8
c-0.5,0-1,0-1.4,0c-0.5,0-1,0-1.4,0c-0.2,0-0.5-0.1-0.5-0.4C17.5,7.1,17.8,7,18.1,7z"/>
<path class="st0" d="M10.3,15.1c-0.2-0.3-0.4-0.5-0.5-0.7c-0.3,0.3-0.5,0.6-0.9,1C9.4,15.3,9.8,15.2,10.3,15.1z"/>
<path class="st0" d="M29.7,18.1c-0.5,0-1,0-1.6,0c-0.3,0-0.6,0-0.9,0c-0.1,0-0.3-0.2-0.3-0.4c0-0.1,0.2-0.3,0.3-0.4
c0.2-0.1,0.4,0,0.5,0c0.5,0,1,0,1.5,0c0.2,0,0.3-0.1,0.6-0.1c-0.3-0.2-0.4-0.4-0.6-0.5c-0.5-0.4-1.2-0.5-1.8-0.5c-2.7,0-5.3,0-8,0
c-0.1,0-0.3,0.1-0.5,0.1c0.1,0.2,0.3,0.4,0.3,0.5c0.2,0.5,0.6,0.6,1.2,0.6s1.1,0,1.7,0c0.2,0,0.4,0,0.5,0.1s0.3,0.2,0.3,0.3
c0,0.1-0.1,0.3-0.2,0.3c-0.2,0.1-0.4,0.1-0.5,0.1c-0.6,0-1.1,0-1.7,0c-0.4,0-0.5,0.1-0.5,0.5c0,0.5,0.1,0.7,0.6,0.7
c0.4,0,0.7,0,1.1,0.1c0.1,0,0.3,0.2,0.3,0.3c0,0.1-0.2,0.3-0.3,0.4c-0.3,0.1-0.5,0.1-0.8,0.1c-1.3,0-1.1,0-1.8,0.9
c0,0,0,0.1-0.1,0.2c0.2,0,0.4,0.1,0.6,0.1c2.6,0,5.2,0,7.8,0c0.5,0,1-0.1,1.4-0.3c0.4-0.1,0.8-0.3,1-0.8c-0.1-0.1-0.2-0.1-0.3-0.1
c-0.1,0-0.2,0-0.3-0.1C29.1,20.1,29,20,29,19.9c0-0.1,0.1-0.3,0.2-0.4c0.2-0.1,0.4-0.1,0.5-0.1c0.6,0,0.7-0.2,0.7-0.6
C30.4,18.2,30.2,18.1,29.7,18.1z M25,17.3c0.1,0,0.2,0,0.3,0.1c0.1,0.1,0.2,0.2,0.2,0.3c0,0.1-0.1,0.3-0.2,0.4s-0.3,0.1-0.4,0.1
c-0.3,0-0.6,0-0.6-0.4C24.2,17.4,24.5,17.3,25,17.3z M27,20.1c-0.5,0-1,0-1.4,0l0,0c-0.4,0-0.9,0-1.3,0c-0.3,0-0.6,0-0.6-0.4
c0-0.3,0.3-0.4,0.5-0.4c0.9,0,1.9,0,2.8,0c0.3,0,0.5,0.1,0.5,0.4C27.6,20.1,27.3,20.1,27,20.1z"/>
<rect x="142.7" y="9.6" class="st0" width="1.8" height="2.5"/>
<path class="st0" d="M98.5,14.2c-0.1,0.1-0.3,0.2-0.4,0.2s-0.2,0-0.3-0.1c-0.2-0.2-0.3-0.5-0.1-0.7l6.7-9.7H93.2v11.2L99.5,6
c0.2-0.2,0.5-0.3,0.7-0.1c0.2,0.2,0.3,0.5,0.1,0.7l-7.1,10.3v4.4h7l7.1-10.3c0.2-0.2,0.5-0.3,0.7-0.1s0.3,0.5,0.1,0.7l-6.7,9.7h7.5
V3.9h-3.2L98.5,14.2z M102,14l-2.8,4c-0.1,0.1-0.3,0.2-0.4,0.2s-0.2,0-0.3-0.1c-0.2-0.2-0.3-0.5-0.1-0.7l2.8-4
c0.2-0.2,0.5-0.3,0.7-0.1C102.1,13.4,102.1,13.8,102,14z M105,9.6l-1.9,2.7c-0.1,0.1-0.3,0.2-0.4,0.2s-0.2,0-0.3-0.1
c-0.2-0.2-0.3-0.5-0.1-0.7l1.9-2.7c0.2-0.2,0.5-0.3,0.7-0.1C105.1,9,105.2,9.3,105,9.6z"/>
<path class="st0" d="M48,3.9v17.3h0.3v-7.4c0-0.2-0.4-4.9,1.8-7.4C51,5.5,52.1,5,53.5,5c2.1,0,7.5,0,11.8-0.1v-1H48z"/>
<path class="st0" d="M92.2,16.9c0-0.1,0-0.2,0-0.3V3.9h-0.7v17.3h0.7V16.9z"/>
<rect x="133" y="9.6" class="st0" width="1.8" height="2.5"/>
<path class="st0" d="M142.7,13.1v3c0,1.8-1.5,3.3-3.3,3.3h-1.2c-1.8,0-3.3-1.5-3.3-3.3v-3H133v3c0,2.8,2.3,5.1,5.1,5.1h1.2
c2.8,0,5.1-2.3,5.1-5.1v-3H142.7z"/>
<path d="M30.4,16.4c-0.8-0.8-1.7-1.2-2.8-1.2c-0.3,0-0.6,0-1-0.1c1-1.3,1.3-2.6,0.7-4c-0.6-1.4-1.8-2-3.2-2.2
c0.1-0.2,0.1-0.3,0.2-0.4c0.7-0.9,0.9-2,0.7-3.2c-0.3-1.3-1.7-2.6-3.2-2.6c-3.9,0-7.8,0-11.7,0c-1.5,0-2.5,0.8-3,2.1
C6.5,6.3,6.7,7.6,7.7,8.7C7.8,8.9,7.9,9,8,9.1C7.4,9.1,6.8,9,6.3,9c-1,0-1.8,0.5-2.3,1.3c-1,1.3-1,2.8-0.2,4.2
c0.1,0.2,0.2,0.4,0.3,0.6c-0.2,0-0.2,0.1-0.3,0.1c-1.8,0.2-2.8,1.2-3.2,3c0,0.1-0.1,0.2-0.1,0.3c0,0.1,0,0.3,0,0.4s0.1,0.2,0.1,0.3
c0.4,2,1.6,3,3.6,3c7.8,0,15.5,0,23.3,0c1.8,0,3.6-1.5,3.6-3.1c0-0.1,0.1-0.3,0.1-0.4v-0.1c-0.1-0.2-0.1-0.4-0.2-0.7
C31.1,17.4,30.8,16.9,30.4,16.4z M25.7,10.4c0.2,0.1,0.3,0.3,0.6,0.6c-0.3,0.1-0.4,0.1-0.6,0.1c-0.3,0-0.6,0-1,0
c-0.3,0-0.5,0-0.8,0c-0.6,0-0.8,0.1-0.8,0.4c0,0.3,0.2,0.4,0.8,0.4c0.3,0,0.6,0,0.9,0c0.4,0,0.9,0,1.3,0s0.5,0.2,0.6,0.6
c0,0.4-0.1,0.6-0.5,0.7c-0.2,0-0.5,0-0.7,0.1c-0.1,0-0.3,0.2-0.3,0.4c0,0.1,0.1,0.3,0.3,0.3c0.2,0.1,0.4,0.1,0.6,0.1
c0,0.3-0.2,0.5-0.4,0.6c-0.6,0.4-1.2,0.6-1.9,0.6c-2.6,0-5.2,0-7.8,0c-0.2,0-0.4,0-0.7-0.1c0.2-0.4,0.4-0.7,0.6-0.9
c0.1-0.1,0.3-0.2,0.5-0.2c0.3,0,0.7,0,1,0c0.2,0,0.3,0,0.5,0s0.4-0.1,0.4-0.4c0-0.3-0.2-0.4-0.4-0.4c-0.3,0-0.6,0-1,0
c-0.5,0-0.6-0.2-0.6-0.7c0-0.4,0.1-0.5,0.5-0.6c0.5,0,1,0,1.6,0c0.7,0,0.9-0.1,0.9-0.4c0-0.3-0.2-0.4-0.8-0.4c-0.6,0-1.1,0-1.7,0
c-0.5,0-0.9-0.1-1.1-0.6c-0.1-0.2-0.2-0.3-0.3-0.5c0.2,0,0.4-0.1,0.6-0.1c2.7,0,5.3,0,8,0C24.6,9.9,25.1,10.1,25.7,10.4z
M12.9,15.2c-1.4,0-2.6-1.2-2.6-2.7c0-1.4,1.2-2.6,2.6-2.6s2.6,1.2,2.6,2.6C15.5,14,14.3,15.2,12.9,15.2z M13.8,16.1
c0.1,0.3-0.2,0.5-0.4,0.7c-0.2-0.3-0.3-0.4-0.6-0.7C13.2,16.1,13.5,16.1,13.8,16.1z M10.3,15.1c-0.5,0.1-0.9,0.2-1.4,0.3
c0.3-0.4,0.6-0.6,0.9-1C10,14.7,10.1,14.9,10.3,15.1z M8.9,9.7c0.5,0.1,0.9,0.2,1.3,0.2c0,0.3-0.2,0.5-0.4,0.7
C9.5,10.4,9.3,10.1,8.9,9.7z M13.5,3.7c2.6,0,5.1,0,7.7,0c0.8,0,1.5,0.2,2.1,0.7c0.1,0.1,0.2,0.3,0.4,0.5c-0.4,0-0.6,0.1-0.8,0.1
c-0.4,0-0.9,0-1.3,0c-0.2,0-0.3,0-0.5,0s-0.4,0.1-0.4,0.4s0.2,0.4,0.4,0.4c0.2,0,0.4,0,0.5,0c0.7,0,1.3,0,2,0
c0.5,0,0.6,0.1,0.6,0.6S24.1,7,23.6,7.1c-0.2,0-0.3,0-0.5,0s-0.4,0.1-0.4,0.4c0,0.1,0.2,0.3,0.3,0.4C23.1,8,23.3,8,23.5,8.1
c-0.1,0.2-0.2,0.3-0.3,0.4c-0.5,0.4-1.2,0.6-1.8,0.7c-2.8,0-5.5,0-8.3,0c-0.1,0-0.2,0-0.4-0.1c0.2-0.3,0.4-0.7,0.7-0.9
C13.5,8.1,13.8,8,14,8c0.4,0,0.8,0,1.2,0c0.3,0,0.5-0.1,0.5-0.4s-0.3-0.4-0.5-0.4c-0.3,0-0.5,0-0.8,0c-0.6,0-0.7-0.1-0.7-0.6
S13.8,6,14.4,6c0.5,0,1,0,1.6,0c0.5,0,0.7-0.1,0.8-0.4c0-0.3-0.2-0.4-0.7-0.4c-0.6,0-1.2,0-1.8,0s-1-0.2-1.2-0.7
c0-0.3-0.1-0.5-0.3-0.7C13.1,3.8,13.3,3.7,13.5,3.7z M7.7,6.4c0-1.4,1.2-2.7,2.7-2.7c1.3,0,2.6,1.1,2.5,2.7c0,1.5-1.2,2.6-2.6,2.6
C8.9,9.1,7.7,7.8,7.7,6.4z M4.1,12.5c0-1.4,1.2-2.6,2.6-2.6s2.6,1.2,2.6,2.6s-1.1,2.6-2.6,2.6C5.3,15.2,4.1,14,4.1,12.5z M7.9,16.1
c-0.2,0.2-0.4,0.5-0.7,0.8c-0.2-0.3-0.4-0.5-0.6-0.8c0.5,0,0.9-0.1,1.3-0.1C7.9,16,7.9,16,7.9,16.1z M4.2,21.4
c-1.4,0-2.7-1.2-2.7-2.6s1.2-2.7,2.7-2.6c1.3,0,2.6,1.1,2.5,2.7C6.8,20.2,5.5,21.3,4.2,21.4z M6.6,21.3C6.9,21,7,20.8,7.2,20.6
c0.2,0.3,0.3,0.4,0.5,0.6C7.4,21.5,7.1,21.4,6.6,21.3z M10.3,21.4c-1.5,0-2.7-1.2-2.7-2.7c0-1.3,0.9-2.6,2.7-2.6
c1.3,0,2.6,1.2,2.5,2.6C13,20.2,11.6,21.3,10.3,21.4z M12.8,21.4c0.2-0.3,0.4-0.5,0.6-0.8c0.2,0.2,0.4,0.4,0.6,0.8
C13.5,21.3,13.2,21.4,12.8,21.4z M16.5,21.4c-1.4,0-2.7-1.2-2.7-2.6s1.2-2.7,2.7-2.6c1.3,0,2.6,1.1,2.5,2.7
C19.1,20.2,17.8,21.3,16.5,21.4z M29.7,19.3c-0.2,0-0.4,0-0.5,0.1S29,19.6,29,19.8c0,0.1,0.1,0.2,0.2,0.3c0.1,0.1,0.2,0.1,0.3,0.1
c0.1,0,0.2,0.1,0.3,0.1c-0.2,0.5-0.6,0.7-1,0.8c-0.4,0.2-0.9,0.3-1.4,0.3c-2.6,0-5.2,0-7.8,0c-0.2,0-0.3,0-0.6-0.1
c0.1-0.1,0.1-0.2,0.1-0.2c0.7-1,0.4-0.9,1.8-0.9c0.3,0,0.6,0,0.8-0.1c0.1,0,0.3-0.2,0.3-0.4c0-0.1-0.2-0.3-0.3-0.3
c-0.4-0.1-0.7,0-1.1-0.1c-0.5,0-0.6-0.2-0.6-0.7c0-0.4,0.1-0.5,0.5-0.5c0.6,0,1.1,0,1.7,0c0.2,0,0.4,0,0.5-0.1s0.3-0.2,0.2-0.3
c0-0.1-0.1-0.3-0.3-0.3c-0.2-0.1-0.4-0.1-0.5-0.1c-0.6,0-1.1,0-1.7,0c-0.5,0-0.9-0.1-1.2-0.6c-0.1-0.2-0.2-0.3-0.3-0.5
c0.2,0,0.3-0.1,0.5-0.1c2.7,0,5.3,0,8,0c0.6,0,1.3,0.2,1.8,0.5c0.2,0.1,0.3,0.3,0.6,0.5c-0.3,0.1-0.5,0.1-0.6,0.1c-0.5,0-1,0-1.5,0
c-0.2,0-0.4,0-0.5,0c-0.1,0.1-0.3,0.2-0.3,0.4c0,0.1,0.2,0.3,0.3,0.4c0.3,0.1,0.6,0,0.9,0c0.5,0,1,0,1.6,0s0.7,0.1,0.7,0.6
C30.4,19.2,30.3,19.3,29.7,19.3z"/>
<path d="M18.1,7.8c0.5,0,1,0,1.4,0c0.5,0,1,0,1.4,0c0.2,0,0.5-0.1,0.5-0.4S21.2,7,20.9,7c-1,0-1.9,0-2.9,0c-0.3,0-0.5,0.1-0.5,0.4
C17.6,7.7,17.8,7.8,18.1,7.8z"/>
<path d="M18.4,5.7c0.1,0.1,0.2,0,0.3,0.1c0.1,0,0.3,0,0.4-0.1s0.3-0.3,0.2-0.4C19.3,4.9,19,5,18.7,5s-0.5,0-0.6,0.3
C18.1,5.4,18.3,5.6,18.4,5.7z"/>
<path d="M27.1,19.3c-0.9,0-1.9,0-2.8,0c-0.3,0-0.5,0.1-0.5,0.4c0,0.4,0.3,0.4,0.6,0.4c0.4,0,0.9,0,1.3,0l0,0c0.5,0,1,0,1.4,0
c0.3,0,0.5-0.1,0.5-0.4S27.3,19.4,27.1,19.3z"/>
<path d="M24.9,18.1c0.1,0,0.3,0,0.4-0.1s0.2-0.2,0.2-0.4c0-0.1-0.1-0.2-0.2-0.3c-0.1-0.1-0.3-0.1-0.3-0.1c-0.5,0-0.7,0.2-0.7,0.4
C24.3,18.1,24.6,18.1,24.9,18.1z"/>
<path d="M22.1,13.2c-0.5,0-1,0-1.4,0c-0.3,0-0.5,0.1-0.5,0.4c0,0.3,0.3,0.4,0.5,0.4c0.9,0,1.9,0,2.8,0c0.3,0,0.5-0.1,0.5-0.4
c0-0.4-0.3-0.4-0.6-0.4C23,13.2,22.6,13.2,22.1,13.2L22.1,13.2z"/>
<path d="M20.9,11.9C21,12,21.2,12,21.2,12c0.5,0,0.7-0.1,0.7-0.4c0-0.4-0.3-0.4-0.6-0.4c-0.1,0-0.3,0-0.4,0.1s-0.2,0.2-0.2,0.4
C20.7,11.7,20.8,11.8,20.9,11.9z"/>
<path d="M5.6,13c0.2,0,0.4-0.1,0.5-0.4c0.1-0.4,0.3-0.6,0.7-0.7c0.2,0,0.3-0.2,0.2-0.4c-0.1-0.3-0.3-0.3-0.5-0.3
c-0.6,0-1.2,0.6-1.3,1.2C5.2,12.6,5.3,12.9,5.6,13z"/>
<path d="M12.6,11.1c-0.6,0-1.2,0.7-1.3,1.4c0.1,0.1,0.2,0.3,0.3,0.4c0.2,0.1,0.5,0,0.5-0.3c0.1-0.3,0.3-0.6,0.7-0.7
c0.2-0.1,0.4-0.2,0.3-0.5C13.1,11.2,12.9,11.1,12.6,11.1z"/>
<path d="M9.1,6.8c0.3,0.1,0.5-0.1,0.6-0.3c0.1-0.3,0.3-0.6,0.6-0.7c0.2-0.1,0.4-0.2,0.4-0.5C10.7,5,10.4,5,10.2,5
C9.5,5,8.9,5.5,8.8,6.2C8.8,6.4,8.9,6.7,9.1,6.8z"/>
<path d="M16.4,17.3c-0.7-0.1-1.5,0.6-1.4,1.3c0,0.2,0.1,0.5,0.4,0.5c0.2,0,0.4-0.1,0.5-0.3c0.1-0.4,0.4-0.7,0.8-0.8
c0.1,0,0.3-0.1,0.4-0.2L17,17.7C16.9,17.4,16.7,17.3,16.4,17.3z"/>
<path d="M10.3,17.3c-0.8,0-1.3,0.5-1.5,1.1c-0.1,0.3,0.1,0.6,0.3,0.7c0.3,0.1,0.5-0.1,0.6-0.4s0.3-0.5,0.6-0.6
c0.2-0.1,0.5-0.2,0.3-0.5C10.6,17.5,10.4,17.4,10.3,17.3z"/>
<path d="M4.1,17.3c-0.7-0.1-1.3,0.5-1.4,1.2c0,0.3,0,0.5,0.3,0.6s0.5-0.1,0.6-0.3c0.1-0.4,0.3-0.6,0.7-0.7c0.1,0,0.3-0.2,0.4-0.3
C4.5,17.4,4.4,17.3,4.1,17.3z"/>
<path d="M48.3,21.7v-0.4H48V3.9h17.3V5c0.3,0,0.7,0,1,0V3.4c0-0.3-0.2-0.5-0.5-0.5H47.5c-0.3,0-0.5,0.2-0.5,0.5v18.3
c0,0.3,0.2,0.5,0.5,0.5h18.3l0,0l-17-0.1C48.6,22.2,48.3,21.9,48.3,21.7z"/>
<path d="M109.4,2.9H92.7H91c-0.3,0-0.5,0.2-0.5,0.5v18.3c0,0.3,0.2,0.5,0.5,0.5h1.7h16.7c0.3,0,0.5-0.2,0.5-0.5V3.4
C109.9,3.1,109.6,2.9,109.4,2.9z M91.5,3.9h0.7v12.7c0,0.1,0,0.2,0,0.3v4.3h-0.7V3.9z M108.9,21.2h-7.5l6.7-9.7
c0.2-0.2,0.1-0.5-0.1-0.7s-0.5-0.1-0.7,0.1l-7.1,10.3h-7v-4.4l7.1-10.3c0.2-0.2,0.1-0.5-0.1-0.7c-0.2-0.1-0.5,0-0.7,0.2l-6.3,9.1
V3.9h11.2l-6.7,9.7c-0.2,0.2-0.1,0.5,0.1,0.7c0.1,0.1,0.2,0.1,0.3,0.1c0.2,0,0.3-0.1,0.4-0.2l7.1-10.3h3.2v17.3H108.9z"/>
<path class="st1" d="M53.5,6.1c-1.1,0-1.9,0.4-2.6,1.1c-1.9,2.1-1.6,6.6-1.6,6.6v7.4l16.7,0v-7.5c0-0.2-0.4-4.9,1.8-7.4
c0.2,0,0.3-0.2,0.4-0.3C63.9,6,56.2,6.1,53.5,6.1z"/>
<path d="M71.1,5c-0.4,0-2.3,0-4.8,0c-0.3,0-0.7,0-1,0C61,5,55.6,5.1,53.5,5.1c-1.4,0-2.5,0.5-3.4,1.4c-2.2,2.4-1.8,7.2-1.8,7.4v7.4
v0.4c0,0.3,0.2,0.5,0.5,0.5l17,0.1h0.6l0,0c0.1,0,0.3-0.1,0.4-0.1c0.1-0.1,0.1-0.2,0.1-0.4v-8c0,0-0.4-4.5,1.6-6.6
C69.2,6.4,70.1,6,71.1,6h0.1c0.3,0,0.5-0.2,0.5-0.5S71.4,5,71.1,5z M66,13.7v7.5l-16.7-0.1v-7.4c0,0-0.4-4.5,1.6-6.6
C51.6,6.4,52.4,6,53.5,6c2.6,0,10.4,0,14.7-0.1c-0.1,0.1-0.3,0.3-0.4,0.4C65.6,8.8,66,13.6,66,13.7z"/>
<path d="M101.1,13.4l-2.8,4c-0.2,0.2-0.1,0.5,0.1,0.7c0.1,0.1,0.2,0.1,0.3,0.1c0.2,0,0.3-0.1,0.4-0.2l2.8-4
c0.2-0.2,0.1-0.5-0.1-0.7C101.6,13.1,101.3,13.2,101.1,13.4z"/>
<path d="M104.2,9l-1.9,2.7c-0.2,0.2-0.1,0.5,0.1,0.7c0.1,0.1,0.2,0.1,0.3,0.1c0.2,0,0.3-0.1,0.4-0.2l1.9-2.7
c0.2-0.2,0.1-0.5-0.1-0.7C104.7,8.7,104.4,8.8,104.2,9z"/>
<path d="M145,8.6h-2.8c-0.3,0-0.5,0.2-0.5,0.5v7c0,1.3-1,2.3-2.3,2.3h-1.2c-1.3,0-2.3-1-2.3-2.3v-7c0-0.3-0.2-0.5-0.5-0.5h-2.8
c-0.3,0-0.5,0.2-0.5,0.5v7c0,3.4,2.8,6.1,6.1,6.1h1.2c3.4,0,6.1-2.8,6.1-6.1v-7C145.5,8.9,145.3,8.6,145,8.6z M144.5,9.6v2.5h-1.8
V9.6H144.5z M134.9,9.6v2.5H133V9.6H134.9z M139.4,21.2h-1.2c-2.8,0-5.1-2.3-5.1-5.1v-3h1.8v3c0,1.8,1.5,3.3,3.3,3.3h1.2
c1.8,0,3.3-1.5,3.3-3.3v-3h1.8v3C144.5,18.9,142.2,21.2,139.4,21.2z"/>
<path d="M138.5,13.8c0.1,0.2,0.3,0.3,0.5,0.3h0.1c0.2-0.1,0.4-0.3,0.4-0.5L139,9.2l1.9-0.3c0.2,0,0.3-0.1,0.4-0.3
c0.1-0.1,0.1-0.3,0-0.5l-3.9-7.3c-0.1-0.2-0.4-0.3-0.6-0.2c-0.2,0.1-0.4,0.3-0.3,0.6l1.1,5.3L136,6c-0.2-0.1-0.4,0-0.5,0.1
s-0.2,0.4-0.1,0.5L138.5,13.8z M138,7.7c0.2,0.1,0.4,0,0.5-0.1s0.2-0.3,0.2-0.5l-0.6-2.7L140,8l-1.7,0.3c-0.3,0-0.4,0.3-0.4,0.5
l0.2,1.7l-1.5-3.3L138,7.7z"/>
</g>
<g>
<path class="st0" d="M171.8,8.8c0,0.3,0.2,0.5,0.5,0.5s0.5-0.2,0.5-0.5s-0.2-0.5-0.5-0.5S171.8,8.6,171.8,8.8z"/>
<path class="st0" d="M174.4,11.4l-0.4-0.1V8.8c0-0.1,0-0.3,0-0.4l-0.2,0.2c0,0.1,0,0.1,0,0.2c0,0.8-0.7,1.5-1.5,1.5
s-1.5-0.7-1.5-1.5c0-0.8,0.7-1.5,1.5-1.5c0.4,0,0.7,0.1,1,0.4l0.2-0.2c-0.3-0.3-0.7-0.5-1.2-0.5c-1,0-1.7,0.8-1.7,1.7v2.5l-0.4,0.1
c-4.2,0.5-7.2,2.5-7.2,4.8c0,2.7,4.3,4.9,9.3,4.9s9.3-2.2,9.3-4.9C181.6,13.9,178.6,11.9,174.4,11.4z"/>
<path d="M165.6,4.6c0.1,0.1,0.2,0.1,0.3,0.1c0.1,0,0.3-0.1,0.4-0.2c0.2-0.2,0.1-0.5-0.1-0.7l-1.6-1.2c-0.2-0.2-0.5-0.1-0.7,0.1
c-0.2,0.2-0.1,0.5,0.1,0.7L165.6,4.6z"/>
<path d="M168.8,7.1c0.1,0.1,0.2,0.1,0.3,0.1c0.1,0,0.3-0.1,0.4-0.2c0.2-0.2,0.1-0.5-0.1-0.7l-1.6-1.2c-0.2-0.2-0.5-0.1-0.7,0.1
c-0.2,0.2-0.1,0.5,0.1,0.7L168.8,7.1z"/>
<path d="M175,10.4V8.8c0-0.4-0.1-0.7-0.2-1l0.4-0.3c0.2-0.2,0.3-0.5,0.1-0.7c-0.2-0.2-0.5-0.3-0.7-0.1L174.2,7
c-0.5-0.5-1.2-0.9-2-0.9c-1.5,0-2.7,1.2-2.7,2.7v1.6c-4.5,0.7-7.6,3-7.6,5.7c0,3.3,4.5,5.9,10.3,5.9s10.3-2.6,10.3-5.9
C182.6,13.4,179.5,11.1,175,10.4z M172.2,21c-5.1,0-9.3-2.2-9.3-4.9c0-2.2,3-4.2,7.2-4.8l0.4-0.1V8.8c0-1,0.8-1.7,1.7-1.7
c0.5,0,0.9,0.2,1.2,0.5l-0.2,0.2c-0.3-0.2-0.6-0.4-1-0.4c-0.8,0-1.5,0.7-1.5,1.5c0,0.8,0.7,1.5,1.5,1.5s1.5-0.7,1.5-1.5
c0-0.1,0-0.1,0-0.2l0.2-0.2c0,0.1,0,0.2,0,0.4v2.5l0.4,0.1c4.2,0.5,7.2,2.5,7.2,4.8C181.6,18.8,177.3,21,172.2,21z M172.7,8.8
c0,0.3-0.2,0.5-0.5,0.5s-0.5-0.2-0.5-0.5s0.2-0.5,0.5-0.5S172.7,8.6,172.7,8.8z"/>
<path d="M176.4,6.4c0.1,0,0.2,0,0.3-0.1l1.6-1.2c0.2-0.2,0.3-0.5,0.1-0.7c-0.2-0.2-0.5-0.3-0.7-0.1l-1.6,1.2
c-0.2,0.2-0.3,0.5-0.1,0.7C176.1,6.3,176.3,6.4,176.4,6.4z"/>
<path d="M179.6,4c0.1,0,0.2,0,0.3-0.1l1.6-1.2c0.2-0.2,0.3-0.5,0.1-0.7c-0.2-0.2-0.5-0.3-0.7-0.1l-1.6,1.2
c-0.2,0.2-0.3,0.5-0.1,0.7C179.3,3.9,179.4,4,179.6,4z"/>
</g>
</svg>