<svg id="Lager_1" xmlns="http://www.w3.org/2000/svg" viewBox="0 0 250 80.1" width="250" height="80.1"><style>.st1{fill:#fff}</style><path d="M209 79.7H41C19.1 79.7 1.3 62 1.3 40 1.3 18.1 19.1.4 41 .4h168c21.9 0 39.7 17.8 39.7 39.7 0 21.9-17.8 39.6-39.7 39.6z" fill="#28cb75"/><path class="st1" d="M50.4 49.6V28.1h2.3l5.4 13.3V28.1h3.1v21.5H59l-5.5-14.3v14.3h-3.1zM66.8 49.9c-.9 0-1.6-.4-2.2-1.1-.6-.7-.9-1.6-.9-2.5 0-.7.1-1.4.4-2 .3-.6.5-1.1.8-1.5.3-.4.7-.7 1.4-1.1.7-.4 1.2-.7 1.5-.8.3-.1.9-.4 1.8-.7.1-.1.3-.1.3-.1V39c0-.8-.1-1.4-.3-1.8-.2-.4-.6-.6-1.2-.6-.5 0-.9.2-1.1.5-.2.4-.4.9-.4 1.5v.4h-3.1c0-1.5.4-2.6 1.2-3.5.8-.9 1.9-1.3 3.4-1.3 1.4 0 2.6.4 3.4 1.3.8.9 1.2 2.1 1.2 3.5v6.9c0 1.6.1 2.9.4 3.8h-3.1l-.4-2.3c-.2.3-.3.6-.4.7-.1.2-.2.4-.4.7-.2.3-.4.5-.6.6-.2.1-.4.3-.7.4-.4 0-.7.1-1 .1zm1.5-2.6c.2 0 .4-.1.6-.2.2-.1.4-.3.5-.4s.2-.3.4-.5c0 0 0-.1.1-.1V42c-.1.1-.3.2-.6.4s-.5.3-.7.5c-.2.1-.4.3-.6.5l-.6.6c-.1.2-.3.4-.4.7-.1.3-.2.6-.2.9 0 1.1.5 1.7 1.5 1.7zM75.6 49.6V34.3h3.1V36c1.1-1.3 2.4-2 3.8-2 .7 0 1.3.2 1.6.5.3.3.6.8.7 1.5.5-.7 1-1.2 1.6-1.5.6-.3 1.3-.5 2.2-.5.3 0 .5 0 .7.1.2.1.4.1.5.2.2.1.3.2.4.3.1.1.2.3.3.4.1.1.1.3.2.5s.1.4.1.6c0 .2 0 .4.1.7V49.7h-3.1V38.4v-.2-.6c0-.1 0-.3-.1-.5 0-.2-.1-.3-.2-.4-.1-.1-.3-.1-.4-.1-.3 0-.6.1-.9.2-.3.1-.6.2-.7.4-.2.1-.4.3-.6.5v12h-3.1V38.5v-.2-.5-.4c0-.2-.1-.3-.1-.4s-.1-.2-.2-.2c-.1-.1-.2-.1-.4-.1-.8 0-1.5.3-2.3 1v12.1h-3.2zM93.7 49.6V34.3h3.1V36c.5-.4.8-.7 1.1-1 .3-.2.7-.4 1.2-.6.5-.2 1.1-.3 1.6-.3.7 0 1.2.2 1.6.7.4.5.6 1.1.6 1.8v13.1h-3.1V38.1c0-.5-.1-.9-.2-1.2-.2-.2-.5-.4-.9-.4-.3 0-.5.1-.8.2-.3.1-.5.2-.6.3s-.3.2-.6.4v12.2h-3zM111.7 49.9c-.6 0-1.2-.1-1.7-.4-.5-.3-1-.7-1.4-1.2v1.4h-3.1V28.1h3.1v7.7c.3-.3.5-.5.6-.7.1-.1.4-.3.6-.5.3-.2.6-.4.9-.4.3-.1.6-.1 1-.1.5 0 1 .1 1.4.3.4.2.7.4 1 .7.3.3.5.6.7 1.1.2.5.3.9.4 1.3.1.4.2.9.2 1.6 0 .7.1 1.2.1 1.7v1.9c0 .7 0 1.3-.1 1.9-.1.6-.2 1.3-.4 1.9-.2.6-.4 1.2-.7 1.7-.3.5-.6.9-1.1 1.2-.3.3-.9.5-1.5.5zm-.7-2.6c.3 0 .6-.1.8-.4.2-.2.4-.6.5-1 .1-.4.2-.9.2-1.3s.1-1 .1-1.5v-1.7-1.6-.9c0-.3-.1-.6-.1-.8-.1-.3-.2-.5-.3-.7-.1-.2-.3-.4-.5-.5-.2-.1-.4-.2-.7-.2-.8 0-1.6.2-2.3.6V47c.8.2 1.5.3 2.3.3zM118.1 49.6V34.3h3.1v2.1c.3-.6.8-1.1 1.4-1.6.6-.5 1.3-.7 2-.7h.5v3.4c-.6-.2-1.1-.3-1.7-.3-.6 0-1.2.2-1.6.6-.4.4-.6.9-.6 1.5v10.4h-3.1zM126.6 32v-3.1h3.1V32h-3.1zm0 17.6V34.3h3.1v15.4h-3.1zM136.4 49.9c-.7 0-1.4-.1-1.9-.4-.5-.2-1-.6-1.3-1-.3-.4-.6-.9-.8-1.5-.2-.6-.3-1.2-.4-1.9-.1-.6-.1-1.3-.1-2.2v-2c0-.8.1-1.5.1-2.2.1-.6.2-1.2.4-1.9s.5-1.1.8-1.5c.3-.4.8-.7 1.3-1 .5-.2 1.2-.4 1.9-.4 1.6 0 2.8.4 3.5 1.3.7.9 1.1 2.2 1.1 3.9v.4h-3v-.4c0-.4 0-.7-.1-1 0-.3-.1-.6-.2-.9-.1-.3-.3-.5-.5-.7-.2-.2-.5-.2-.8-.2-.3 0-.6.1-.8.3-.2.2-.4.4-.5.8-.1.3-.2.7-.2 1 0 .4-.1.8-.1 1.2v4.5c0 .4 0 .8.1 1.2 0 .3.1.7.2 1 .1.3.3.5.5.7.2.2.5.3.8.3.3 0 .5-.1.7-.2.2-.1.3-.2.5-.4.1-.2.2-.4.2-.6.1-.3.1-.5.1-.7V44.2h3.1v.4c0 .8-.1 1.5-.3 2.1-.2.6-.4 1.2-.8 1.6-.4.5-.8.8-1.4 1.1-.6.3-1.2.5-2.1.5zM143 49.6V28.1h3.1v11.8l3.8-5.7h3.1l-3.4 5.4 3.4 10h-3.1l-2.3-7.4-1.5 2.1v5.4H143zM162.2 48.4c-.7 1-1.9 1.4-3.5 1.4-1.7 0-2.8-.5-3.5-1.4-.7-1-1.1-2.3-1.1-4.2v-4.6c0-1.8.4-3.2 1.1-4.2.7-1 1.9-1.4 3.5-1.4 1.7 0 2.8.5 3.5 1.4.7 1 1.1 2.3 1.1 4.2v4.6c0 1.9-.4 3.3-1.1 4.2zm-4.1-1.2c.2.1.4.1.6.1.2 0 .4 0 .6-.1.2-.1.3-.1.4-.2.1-.1.2-.2.3-.4.1-.2.1-.3.2-.5 0-.1.1-.3.1-.6v-.6-5.3-.7-.6c0-.3 0-.5-.1-.6 0-.1-.1-.3-.2-.5s-.2-.3-.3-.4c-.1-.1-.2-.2-.4-.2-.2-.1-.4-.1-.6-.1-.2 0-.4 0-.6.1-.2.1-.3.1-.4.2-.1.1-.2.2-.3.4-.1.2-.1.3-.2.5 0 .1-.1.3-.1.6V45.5c0 .3 0 .5.1.6 0 .1.1.3.2.5s.2.3.3.4c.1.1.2.2.4.2zM165.8 49.6V34.3h3.1v2.1c.3-.6.8-1.1 1.4-1.6.6-.5 1.3-.7 2-.7h.5v3.4c-.6-.2-1.1-.3-1.7-.3-.6 0-1.2.2-1.6.6-.4.4-.6.9-.6 1.5v10.4h-3.1zM173.5 49.6v-3.1h3.1v3.1h-3.1zM178.7 49.6V34.3h3.1V36c.5-.4.8-.7 1.1-1 .3-.2.7-.4 1.2-.6.5-.2 1.1-.3 1.6-.3.7 0 1.2.2 1.6.7.4.5.6 1.1.6 1.8v13.1h-3.1V38.1c0-.5-.1-.9-.2-1.2-.2-.2-.5-.4-.9-.4-.3 0-.5.1-.8.2-.3.1-.5.2-.6.3-.1.1-.3.2-.6.4v12.2h-3zM192.9 49.9c-.7 0-1.2-.2-1.6-.7-.4-.5-.6-1.1-.6-1.8V34.3h3.1v12.2c0 .3.1.6.3.8.2.2.5.3.8.3.2 0 .3 0 .5-.1.2 0 .3-.1.5-.2s.3-.2.4-.2c.1-.1.2-.2.4-.3.2-.1.3-.2.3-.3V34.3h3.1v15.4H197V48c-.3.3-.5.5-.7.6-.1.1-.4.3-.6.5s-.5.4-.8.4c-.2.1-.5.2-.8.3-.6 0-.9.1-1.2.1z"/><g><path class="st1" d="M29.1 39.8c0-3.1-2.5-5.6-5.6-5.6-1 0-1.9.2-2.6.7l6.7 8.7c.9-1 1.5-2.3 1.5-3.8zM18 39.8c0 3.1 2.5 5.6 5.6 5.6.9 0 1.7-.2 2.5-.6l-6.7-8.6c-.9.9-1.4 2.2-1.4 3.6zM230.6 39.8c0-3.1-2.5-5.6-5.6-5.6-1 0-1.9.2-2.6.7l6.7 8.7c1-1 1.5-2.3 1.5-3.8zM219.5 39.8c0 3.1 2.5 5.6 5.6 5.6.9 0 1.7-.2 2.5-.6l-6.7-8.6c-.9.9-1.4 2.2-1.4 3.6z"/></g></svg>