<svg version="1.1" id="Lager_1" xmlns="http://www.w3.org/2000/svg" xmlns:xlink="http://www.w3.org/1999/xlink" x="0px" y="0px" viewBox="0 0 505.4 66.9" style="enable-background:new 0 0 505.4 66.9;" xml:space="preserve" width="505.5" height="66.9">
<style type="text/css">
	.st0{fill:none;stroke:#000000;stroke-width:2;stroke-miterlimit:10;}
</style>
<path d="M261,66c-3.2-0.6-6.8-1.9-9.7-3.4c-2.9-1.4-5.7-3.3-8.1-5.5c-4.7-4.3-8.2-9.9-9.7-16.1c-0.7-3-1-6.1-0.8-9.1
	c1.3-16.7,13.9-29.7,30.6-30.4c15.1-0.6,30.3-0.1,45.5-0.1c0.6,0,3,0,3,0l0.1,17c0,0-5,0-7,0c-12.7,0-25.4-0.1-38.1,0.1
	c-9.3,0.1-15.2,4.7-16.5,12.7c-1.3,7.7,3.7,15.3,11.4,16.9c2.4,0.5,4.9,0.6,7.3,0.6c12.1,0.1,36.4,0,36.4,0h6l0,17.4
	c0,0-43.8,0-48,0C262.5,66.1,261.8,66.1,261,66z M299.9,15.5c3.2,0,5.9,0,8.5,0c0-3.9,0-7.4,0-10.8c-3.1,0-5.7,0-8.5,0
	C299.9,8.5,299.9,11.8,299.9,15.5z M308.5,62.6c0-3.9,0-7.4,0-11.1c-3,0-5.6,0-8.5,0c0,3.9,0,7.3,0,11.1
	C302.9,62.6,305.4,62.6,308.5,62.6z"/>
<path d="M2.1,30.6c0.3-2.7,1.2-5.2,2.1-7.8c1.1-3,2.5-5.8,4.3-8.3c3.6-5,8.6-8.9,14.3-11c3.2-1.2,6.5-1.8,9.9-1.9
	C48,1,63.3,1.4,78.6,1.5c0.4,0,0.8,0.2,1.7,0.5c1.6,5.1,1.1,10.4,0.2,16.1c-2.1,0.2-4,0.4-5.8,0.4c-12.9,0-25.7-0.1-38.6,0.1
	c-9.3,0.1-15.2,4.7-16.6,12.7c-1.3,7.7,3.7,15.4,11.4,16.9c2.4,0.5,4.9,0.6,7.3,0.6c12.1,0.1,24.3,0,36.4,0c1.8,0,3.7,0.3,6,0.4
	c0,5.9,0,11.4,0,16.9c-8.5,0-17,0-25.5,0c-7.5,0-15-0.3-22.4-0.7c-3.5-0.2-6.5-0.5-9.9-1.8c-3.1-1.2-6.1-2.8-8.7-4.8
	C9.6,55.1,6.4,50,4.3,44.5C3.1,41.2,2.1,37.6,1.9,34C1.9,32.9,2,31.7,2.1,30.6z M65.9,4.3c-11.1,0-21.7-0.1-32.2,0
	C17.8,4.5,5.1,17.5,5.1,33.6c0,16.1,12.7,29.1,28.6,29.3c9.4,0.1,18.8,0,28.2,0c1.4,0,2.7-0.3,4-0.4c0-3.9,0-7.3,0-11
	c-2.1-0.1-3.8-0.3-5.5-0.3c-8.7,0-17.3,0-26,0c-10.1-0.1-17.5-7.6-17.5-17.5c0-10,7.4-17.5,17.5-17.6c8.8-0.1,17.6,0,26.4,0
	c1.7,0,3.3-0.3,5.2-0.4C65.9,11.7,65.9,8.4,65.9,4.3z M69.4,16c3.2-0.2,6-0.3,8.6-0.5c0-4.2,0-7.4,0-10.9c-3,0-5.6,0-8.6,0
	C69.4,8.3,69.4,11.6,69.4,16z M69.5,51.5c0,4,0,7.4,0,11c3,0,5.7,0,8.5,0c0-3.8,0-7.3,0-11C75,51.5,72.5,51.5,69.5,51.5z"/>
<path d="M377.6,12.9c0,3,1.2,5.6,0.6,8.6c-0.2,0.8-0.4,1.6-0.9,2.2c-0.6,0.7-1.5,1.1-2.4,1.2c-1.9,0.3-3.3-0.2-4.3-1.9
	c-1.2-1.9-1.2-4.6-1.2-6.8c-0.1-3.1,0.4-6,1.7-8.8c2.2-4.6,7.7-6.9,12.9-5.9c5.1,1,9.3,5.6,9.4,11.1c0,2.5,0.4,5.1,0.3,7.6
	c-0.1,1.7,0.1,4-1.4,5.2c-0.6,0.5-1.4,0.6-2,1c-0.7,0.6-0.8,1.5-0.8,2.4c-0.1,2,0.4,3.9,0.4,5.9c0,2.1,0.1,4.3,0.2,6.4
	c0.2,4.3,1.1,10.1,0.9,14.4c-0.4,6.8-8,13.7-13.9,8.5c-6.4-5.6-21.6-39.6-21.6-39.6l-0.6-3.8l1.1-0.6l2.5,3.1c0,0,15.6,31.4,16.5,33
	c1.2-5.9,9-7.1,12.3-2.7c3-1.7,1.2-10.2,1.4-14.2c0.2-3.8,0.2-7.6-0.2-11.4c0-0.5-0.1-1.1-0.5-1.4c-0.2-0.2-0.5-0.2-0.8-0.3
	c-2.5-0.5-2.5-3.4-2.4-5.5c0-2.4,0.1-4.9,0.6-7.2c0.5-2.5-1.3-4.1-4-3.9C379.2,9.7,377.6,10.9,377.6,12.9z M385,58.6
	c0-2.1-2.1-4-4.5-3.3c-3,0.9-3.1,5.3-0.1,6.4c1.4,0.5,2.9,0.1,3.8-1.1C384.8,60,385,59.3,385,58.6z"/>
<path d="M427,57.2c1.5-2.2,2.3-3.3,3.2-4.6c-0.5-1-1-2-1.5-3c0.5-1.1,1.1-2,1.6-3c-0.6-1-1.2-1.8-1.8-2.8c0.6-1.1,1.2-2.2,1.8-3.2
	c-0.9-1.5-1.8-2.7-3.4-5.2c6.4,0,11.7,0,18,0c0-4.5,0.2-8-0.1-11.5c-0.5-6.5,2.5-11,8-13.6c14.7-7,29.5-7,44.2,0.1
	c5.3,2.6,8.1,7,7.8,13.3c-0.3,5.2-0.2,10.4,0,15.6c0.2,5.7-2.4,9.6-7,12.6c-6.4,4.1-13.5,5.9-20.9,6c-15,0.2-30,0.1-45,0.1
	C430.4,58,429.1,57.6,427,57.2z M431,37.2c0.7,1.6,1.1,2.5,1.5,3.5c-0.6,0.9-1.3,1.9-2,2.9c0.7,1.1,1.4,2,2,3c-0.7,1-1.3,2-1.9,3
	c0.7,1,1.3,2,1.7,2.7c-0.4,1.3-0.7,2.3-1.1,3.5c16,0,31.6,0.2,47.2-0.1c4.1-0.1,8.3-1.2,12.2-2.8c12.2-5,13.1-8.9,10.9-23.8
	c-6.3,4.7-13.3,7.2-20.9,7.8c-3.9,0.3-7.8,0.4-11.7,0.4C456.5,37.3,444.1,37.2,431,37.2z M474.5,35.1c7.3-0.4,14.6-1.3,21.2-5.1
	c8.8-5.1,9.1-12.9,0.1-17.4c-13.9-7.1-28.4-7.2-42.3,0c-8.8,4.5-8.6,12.2-0.2,17.2C459.8,33.7,467.1,34.6,474.5,35.1z"/>
<path d="M194.7,66.7c-0.5-0.6-1.3-1.1-1.6-1.8c-3.4-6.5-8.9-9.5-16.1-11.1c-21.1-4.6-42.1-9.7-63.2-14.5c-4.8-1.1-8.2-3.6-9.3-8.5
	c-0.8-3.5,0.3-6.7,3.2-8.9c3.5-2.7,7.5-2.9,11.4-1.1c11.5,5,22.9,10.1,34.4,15.2c18,8,36.1,16,54.1,24c1.5,0.7,2.9,1.5,4.3,2.2
	c-0.2,0.4-0.4,0.8-0.6,1.2c-1.6-0.7-3.3-1.3-4.9-2c-28.6-12.7-57.2-25.4-85.8-38.1c-0.9-0.4-1.8-0.9-2.8-1.2
	c-4.8-1.7-9.8,0.3-11.1,4.5c-1.4,4.5,1.4,9.2,6.4,10.5c9.9,2.4,19.9,4.7,29.9,7c12.6,2.9,25.3,5.8,37.9,8.8
	c7.3,1.7,11.8,6.5,14.6,13.1C195.2,66.3,195,66.5,194.7,66.7z"/>
<path d="M474.8,14.8c2.2,0.1,4.5,0.8,6.4,1.8c3.4,1.9,3.4,5.6-0.1,7.5c-4,2.2-8.4,2.2-12.4,0.2c-1.4-0.7-3.1-2.7-3.1-4.1
	c0-1.5,1.6-2.9,2.8-3.7C470.2,15.2,472.5,14.7,474.8,14.8z M467.9,20c3.7,4.2,9.5,4.2,12.9,0.2C477.4,16.4,472.5,16.2,467.9,20z"/>
<rect x="386.7" y="25.7" width="4" height="29.8"/>
<path class="st0" d="M211,62.2l-2.3-22L120.4,2.7c0,0-14.3-2-15,24.8"/>
</svg>