<?xml version="1.0" encoding="utf-8"?>
<!-- Generator: Adobe Illustrator 27.8.1, SVG Export Plug-In . SVG Version: 6.00 Build 0)  -->
<svg version="1.1" id="Lager_1" xmlns="http://www.w3.org/2000/svg" xmlns:xlink="http://www.w3.org/1999/xlink" x="0px" y="0px"
	 viewBox="0 0 24 24" style="enable-background:new 0 0 24 24;" xml:space="preserve">
<style type="text/css">
	.st0{fill:#F8F2A4;}
	.st1{fill:#292929;}
</style>
<path class="st0" d="M12,2l3.1,6.7l7.4,0.9l-5.4,5l1.4,7.3L12,18.3l-6.5,3.6L7,14.6l-5.4-5l7.4-0.9L12,2z"/>
<path class="st1" d="M18.5,22.4c-0.1,0-0.2,0-0.2-0.1L12,18.9l-6.2,3.5c-0.2,0.1-0.4,0.1-0.5,0C5.1,22.2,5,22,5,21.8l1.4-7L1.2,10
	C1.1,9.8,1,9.6,1.1,9.4c0.1-0.2,0.2-0.3,0.4-0.3l7.1-0.8l3-6.5c0.2-0.4,0.7-0.4,0.9,0l3,6.5l7.1,0.8c0.2,0,0.4,0.2,0.4,0.3
	c0.1,0.2,0,0.4-0.1,0.5l-5.2,4.8l1.4,7c0,0.2,0,0.4-0.2,0.5C18.7,22.4,18.6,22.4,18.5,22.4z M12,17.8c0.1,0,0.2,0,0.2,0.1l5.5,3.1
	l-1.2-6.2c0-0.2,0-0.3,0.2-0.5l4.6-4.3L15,9.2c-0.2,0-0.3-0.1-0.4-0.3L12,3.2L9.4,8.9C9.3,9.1,9.1,9.2,9,9.2L2.7,10l4.6,4.3
	c0.1,0.1,0.2,0.3,0.2,0.5l-1.2,6.2l5.5-3.1C11.8,17.8,11.9,17.8,12,17.8z"/>
</svg>
