<?xml version="1.0" encoding="utf-8"?>
<!-- Generator: Adobe Illustrator 27.8.1, SVG Export Plug-In . SVG Version: 6.00 Build 0)  -->
<svg version="1.1" id="Lager_1" xmlns="http://www.w3.org/2000/svg" xmlns:xlink="http://www.w3.org/1999/xlink" x="0px" y="0px"
	 viewBox="0 0 24 24" style="enable-background:new 0 0 24 24;" xml:space="preserve">
<style type="text/css">
	.st0{fill:#E7E66F;}
	.st1{fill:#F8F2A4;}
	.st2{fill:#292929;}
</style>
<path class="st0" d="M15.7,18.3L12,20.4l-3.7-2.1c-1.7-1-2.8-2.8-2.8-4.8V6.7c0-0.2,0.1-0.4,0.3-0.5L12,3.5l6.2,2.7
	c0.2,0.1,0.3,0.3,0.3,0.5v6.9C18.5,15.5,17.4,17.3,15.7,18.3z"/>
<polygon class="st1" points="12,3 12,21 17,18 18.9,15.2 18.9,5.9 "/>
<path class="st2" d="M18.6,5.3l-6.4-2.7c-0.1-0.1-0.3-0.1-0.4,0L5.4,5.3C4.9,5.5,4.5,6.1,4.5,6.7v6.9c0,2.3,1.2,4.5,3.3,5.6l4,2.3
	c0.2,0.1,0.3,0.1,0.5,0l4-2.3c2-1.2,3.3-3.3,3.3-5.6V6.7C19.5,6.1,19.1,5.5,18.6,5.3z M15.7,18.3L12,20.4l-3.7-2.1
	c-1.7-1-2.8-2.8-2.8-4.8V6.7c0-0.2,0.1-0.4,0.3-0.5L12,3.5l6.2,2.7c0.2,0.1,0.3,0.3,0.3,0.5v6.9C18.5,15.5,17.4,17.3,15.7,18.3z"/>
<path class="st2" d="M13.8,14.8L12.5,11c0.5-0.2,0.8-0.7,0.8-1.3c0-0.8-0.6-1.4-1.4-1.4c-0.8,0-1.4,0.6-1.4,1.4
	c0,0.6,0.4,1.1,0.9,1.3l-1.2,3.8H13.8z"/>
</svg>
