<?xml version="1.0" encoding="utf-8"?>
<!-- Generator: Adobe Illustrator 27.9.1, SVG Export Plug-In . SVG Version: 6.00 Build 0)  -->
<svg version="1.1" id="Lager_1" xmlns="http://www.w3.org/2000/svg" xmlns:xlink="http://www.w3.org/1999/xlink" x="0px" y="0px"
	 viewBox="0 0 24 24" style="enable-background:new 0 0 24 24;" xml:space="preserve">
<style type="text/css">
	.st0{fill:#1D1D1B;}
</style>
<g>
	<g>
		<path class="st0" d="M13,21.1c0-0.7,0.4-1.3,1.1-1.7v-0.1c-0.4-0.2-0.7-0.7-0.7-1.3c0-0.6,0.4-1.1,0.8-1.4v-0.1
			c-0.5-0.4-1-1.1-1-2.1c0-1.7,1.3-2.7,2.9-2.7c0.4,0,0.8,0.1,1.1,0.2h2.7v1h-1.6c0.4,0.3,0.6,0.9,0.6,1.6c0,1.6-1.2,2.7-2.8,2.7
			c-0.4,0-0.8-0.1-1.1-0.3c-0.3,0.2-0.5,0.5-0.5,0.9c0,0.5,0.3,0.8,1.3,0.8h1.5c1.8,0,2.7,0.6,2.7,1.8c0,1.4-1.5,2.6-3.9,2.6
			C14.3,23.2,13,22.5,13,21.1z M18.8,20.7c0-0.7-0.5-1-1.5-1h-1.3c-0.3,0-0.7,0-1-0.1c-0.5,0.4-0.8,0.8-0.8,1.3
			c0,0.8,0.8,1.3,2.2,1.3C17.8,22.3,18.8,21.5,18.8,20.7z M17.8,14.5c0-1.1-0.7-1.8-1.6-1.8c-0.9,0-1.6,0.7-1.6,1.8
			c0,1.1,0.7,1.8,1.6,1.8C17.1,16.4,17.8,15.7,17.8,14.5z"/>
	</g>
	<g>
		<path class="st0" d="M12.5,5.1L9.4,15.4c-0.2,0.6-0.3,1.1-0.3,1.2c0,0.3,0.1,0.6,0.4,0.7c0.3,0.2,0.6,0.2,1,0.2h0.4l-0.1,0.5H4.8
			L5,17.6h0.3c0.4,0,0.8-0.1,1.1-0.2s0.5-0.3,0.6-0.5c0.1-0.2,0.3-0.7,0.5-1.4L10.7,5C9.6,4.9,8.6,4.8,7.9,4.8C7,4.8,6.3,4.9,5.9,5
			C5.5,5.2,5.3,5.4,5.3,5.7c0,0.1,0,0.3,0.1,0.5c0.1,0.2,0.1,0.3,0.1,0.4c0,0.2-0.1,0.3-0.2,0.5C5.2,7.2,5,7.2,4.8,7.2
			c-0.3,0-0.5-0.1-0.6-0.3C4,6.7,3.9,6.5,3.9,6.3c0-0.5,0.3-1,0.9-1.4c0.6-0.4,1.7-0.6,3.3-0.6c0.8,0,2.3,0.1,4.5,0.3
			c1.6,0.1,2.8,0.2,3.6,0.2c0.8,0,1.2-0.2,1.3-0.6c0.1-0.3,0.2-0.4,0.4-0.4c0.3,0,0.5,0.2,0.5,0.5c0,0.7-0.8,1.1-2.4,1.1
			C15.3,5.3,14.1,5.2,12.5,5.1z"/>
	</g>
</g>
</svg>
