<?xml version="1.0" encoding="utf-8"?>
<!-- Generator: Adobe Illustrator 27.8.1, SVG Export Plug-In . SVG Version: 6.00 Build 0)  -->
<svg version="1.1" id="Lager_1" xmlns="http://www.w3.org/2000/svg" xmlns:xlink="http://www.w3.org/1999/xlink" x="0px" y="0px"
	 viewBox="0 0 24 24" style="enable-background:new 0 0 24 24;" xml:space="preserve">
<style type="text/css">
	.st0{fill:#007CC2;}
	.st1{fill:#E8D800;}
	.st2{fill:none;stroke:#292929;stroke-linecap:round;stroke-linejoin:round;}
</style>
<g>
	<path class="st0" d="M4.9,4.8h14.2c1,0,1.8,0.8,1.8,1.8v10.7c0,1-0.8,1.8-1.8,1.8H4.9c-1,0-1.8-0.8-1.8-1.8V6.7
		C3.1,5.7,3.9,4.8,4.9,4.8z"/>
	<polygon class="st1" points="21.2,10.4 14.6,10.4 14.6,4.8 10.3,4.8 10.3,10.4 2.8,10.4 2.8,13.7 10.3,13.7 10.3,19.2 14.6,19.2 
		14.6,13.7 21.2,13.7 	"/>
</g>
<path class="st2" d="M3,7c0-1.1,0.9-2,2-2h14c1.1,0,2,0.9,2,2v10c0,1.1-0.9,2-2,2H5c-1.1,0-2-0.9-2-2V7z"/>
</svg>
