<?xml version="1.0" encoding="utf-8"?>
<!-- Generator: Adobe Illustrator 27.9.0, SVG Export Plug-In . SVG Version: 6.00 Build 0)  -->
<svg version="1.1" id="Lager_1" xmlns="http://www.w3.org/2000/svg" xmlns:xlink="http://www.w3.org/1999/xlink" x="0px" y="0px"
	 viewBox="0 0 48 48" style="enable-background:new 0 0 48 48;" xml:space="preserve">
<style type="text/css">
	.st0{fill:#FFFFFF;stroke:#2A292A;stroke-miterlimit:10;}
	.st1{fill:#FFE08B;stroke:#2A292A;stroke-miterlimit:10;}
	.st2{fill:#F7F1A4;}
	.st3{fill:#2A292A;}
	.st4{fill:#FFE08B;}
	.st5{fill:none;}
	.st6{fill:#F7F1A4;stroke:#2A292A;stroke-miterlimit:10;}
	.st7{fill:none;stroke:#2A292A;stroke-miterlimit:10;}
</style>
<ellipse transform="matrix(0.6061 -0.7954 0.7954 0.6061 -3.361 21.7902)" class="st0" cx="20.3" cy="14.3" rx="6.9" ry="9.7"/>
<ellipse transform="matrix(0.6061 -0.7954 0.7954 0.6061 -3.361 21.7902)" class="st0" cx="20.3" cy="14.3" rx="4.6" ry="7.2"/>
<rect x="28.6" y="4.7" transform="matrix(0.9748 -0.2231 0.2231 0.9748 -3.4878 7.9615)" class="st1" width="9.7" height="29.4"/>
<rect x="26.4" y="9.7" transform="matrix(0.8809 -0.4734 0.4734 0.8809 -6.8602 17.2933)" class="st0" width="9" height="25.2"/>
<path class="st1" d="M39.1,30l-7,9c-0.7,1-2.1,1.1-3.1,0.4L9.2,24.2c-1-0.7-1.1-2.1-0.4-3.1l7-9c0.7-1,2.1-1.1,3.1-0.4l19.8,15.2
	C39.7,27.6,39.8,29,39.1,30z"/>
<path class="st2" d="M102.4,20.6l3.1,6.7l7.4,0.9l-5.4,5l1.4,7.3l-6.5-3.6l-6.5,3.6l1.5-7.3l-5.4-5l7.4-0.9L102.4,20.6z"/>
<path class="st3" d="M108.9,41c-0.1,0-0.2,0-0.2-0.1l-6.3-3.4L96.2,41c-0.2,0.1-0.4,0.1-0.5,0c-0.2-0.2-0.3-0.4-0.3-0.6l1.4-7
	l-5.2-4.8c-0.1-0.2-0.2-0.4-0.1-0.6s0.2-0.3,0.4-0.3l7.1-0.8l3-6.5c0.2-0.4,0.7-0.4,0.9,0l3,6.5l7.1,0.8c0.2,0,0.4,0.2,0.4,0.3
	c0.1,0.2,0,0.4-0.1,0.5l-5.2,4.8l1.4,7c0,0.2,0,0.4-0.2,0.5C109.1,41,109,41,108.9,41z M102.4,36.4c0.1,0,0.2,0,0.2,0.1l5.5,3.1
	l-1.2-6.2c0-0.2,0-0.3,0.2-0.5l4.6-4.3l-6.3-0.8c-0.2,0-0.3-0.1-0.4-0.3l-2.6-5.7l-2.6,5.7c-0.1,0.2-0.3,0.3-0.4,0.3l-6.3,0.8
	l4.6,4.3c0.1,0.1,0.2,0.3,0.2,0.5l-1.2,6.2l5.5-3.1C102.2,36.4,102.3,36.4,102.4,36.4z"/>
<path class="st4" d="M86.2-1.2h-5.1l-0.3-1.5c-0.9-0.9-2.4-0.9-3.4-0.1l-0.8,1.6c-0.8,0-1.5-0.6-1.5-1.5v-10.5h11.1V-1.2z"/>
<g>
	<path class="st5" d="M80.1-14.2c0-1.4-1.1-2.5-2.5-2.5c-0.3,0-0.5,0.2-0.5,0.5c0,1.4,1.1,2.5,2.5,2.5h0.5V-14.2z"/>
	<path class="st5" d="M81.6-13.7c1.4,0,2.5-1.1,2.5-2.5c0-0.3-0.2-0.5-0.5-0.5c-1.4,0-2.5,1.1-2.5,2.5v0.5H81.6z"/>
	<path class="st5" d="M77.3-3c1-1,2.6-1,3.5,0c0.4,0.4,0.6,0.8,0.7,1.3h4.1v-9.5v-1.5h-4h-1h-1h-4v9.5c0,0.7,0.5,1.2,1.1,1.4
		C76.8-2.2,77-2.6,77.3-3z"/>
	<path class="st5" d="M91.1-10.7h-4.5v9h2.1C88.8-2.2,89-2.6,89.4-3c1-1,2.6-1,3.5,0c0.3,0.3,0.6,0.8,0.7,1.2
		c0.6-0.2,1.1-0.8,1.1-1.4v-4C94.6-9.1,93-10.7,91.1-10.7z"/>
	<path class="st5" d="M80.2-2.3c-0.6-0.6-1.5-0.6-2.1,0c-0.3,0.3-0.4,0.7-0.4,1.1s0.1,0.8,0.4,1.1c0.6,0.6,1.5,0.6,2.1,0
		c0.3-0.3,0.4-0.7,0.4-1.1S80.5-2,80.2-2.3z"/>
	<path class="st5" d="M92.2-2.3c-0.6-0.6-1.5-0.6-2.1,0c-0.3,0.3-0.4,0.7-0.4,1.1s0.1,0.8,0.4,1.1c0.6,0.6,1.5,0.6,2.1,0
		c0.3-0.3,0.4-0.7,0.4-1.1S92.5-2,92.2-2.3z"/>
	<path class="st3" d="M91.1-11.7h-4.5v-1.5c0-0.3-0.2-0.5-0.5-0.5H84c0.7-0.6,1.1-1.5,1.1-2.5c0-0.8-0.7-1.5-1.5-1.5
		c-1.3,0-2.4,0.7-3,1.7c-0.6-1-1.7-1.7-3-1.7c-0.8,0-1.5,0.7-1.5,1.5c0,1,0.4,1.9,1.1,2.5h-2.1c-0.3,0-0.5,0.2-0.5,0.5v10
		c0,1.2,0.9,2.2,2,2.5c0.1,0.5,0.3,0.9,0.7,1.3c1,1,2.6,1,3.5,0c0.4-0.4,0.6-0.8,0.7-1.3h4.6h2.6c0.1,0.5,0.3,0.9,0.7,1.3
		c1,1,2.6,1,3.5,0c0.4-0.4,0.6-0.8,0.7-1.3c1.2-0.2,2-1.2,2-2.5v-4C95.6-9.7,93.6-11.7,91.1-11.7z M83.6-16.7c0.3,0,0.5,0.2,0.5,0.5
		c0,1.4-1.1,2.5-2.5,2.5h-0.5v-0.5C81.1-15.6,82.2-16.7,83.6-16.7z M77.1-16.2c0-0.3,0.2-0.5,0.5-0.5c1.4,0,2.5,1.1,2.5,2.5v0.5
		h-0.5C78.2-13.7,77.1-14.8,77.1-16.2z M75.6-3.2v-9.5h4h1h1h4v1.5v9.5h-4.1c-0.1-0.5-0.3-0.9-0.7-1.3c-1-1-2.6-1-3.5,0
		c-0.3,0.3-0.6,0.8-0.7,1.2C76.1-2,75.6-2.5,75.6-3.2z M78-0.1c-0.3-0.3-0.4-0.7-0.4-1.1S77.7-2,78-2.3c0.6-0.6,1.5-0.6,2.1,0
		c0.3,0.3,0.4,0.7,0.4,1.1s-0.1,0.8-0.4,1.1C79.6,0.4,78.6,0.4,78-0.1z M90-0.1c-0.3-0.3-0.4-0.7-0.4-1.1S89.7-2,90-2.3
		c0.6-0.6,1.5-0.6,2.1,0c0.3,0.3,0.4,0.7,0.4,1.1s-0.1,0.8-0.4,1.1C91.6,0.4,90.6,0.4,90-0.1z M93.5-1.8c-0.1-0.4-0.3-0.9-0.7-1.2
		c-1-1-2.6-1-3.5,0c-0.4,0.4-0.6,0.8-0.7,1.3h-2.1v-9h4.6c1.9,0,3.5,1.6,3.5,3.5v4C94.6-2.5,94.1-2,93.5-1.8z"/>
</g>
<g>
	<path class="st0" d="M23,23.4c1.4,1.4,0.9,4.3,0.9,4.3s-2.9,0.6-4.3-0.9c-1.4-1.4-1.8-3.4-0.9-4.3S21.6,21.9,23,23.4z"/>
	<path class="st0" d="M25.2,23.4c-1.4,1.4-0.9,4.3-0.9,4.3s2.9,0.6,4.3-0.9c1.4-1.4,1.8-3.4,0.9-4.3S26.6,21.9,25.2,23.4z"/>
</g>
<path class="st6" d="M42.5,43.5H6.3C5.6,43.5,5,43,5,42.2v-13c0-0.7,0.6-1.3,1.3-1.3h36.2c0.7,0,1.3,0.6,1.3,1.3v13
	C43.8,43,43.2,43.5,42.5,43.5z"/>
<circle class="st7" cx="8.3" cy="35.8" r="1"/>
<circle class="st7" cx="39.9" cy="35.8" r="1"/>
</svg>
