<?xml version="1.0" encoding="utf-8"?>
<!-- Generator: Adobe Illustrator 27.8.1, SVG Export Plug-In . SVG Version: 6.00 Build 0)  -->
<svg version="1.1" id="Lager_1" xmlns="http://www.w3.org/2000/svg" xmlns:xlink="http://www.w3.org/1999/xlink" x="0px" y="0px"
	 viewBox="0 0 24 24" style="enable-background:new 0 0 24 24;" xml:space="preserve">
<style type="text/css">
	.st0{fill:#FFE08B;}
	.st1{fill:none;}
	.st2{fill:#292929;}
</style>
<path class="st0" d="M13.1,19H8l-0.3-1.5c-0.9-0.9-2.4-0.9-3.4-0.1L3.5,19C2.7,19,2,18.4,2,17.5V7h11.1V19z"/>
<g>
	<path class="st1" d="M7,6c0-1.4-1.1-2.5-2.5-2.5C4.2,3.5,4,3.7,4,4c0,1.4,1.1,2.5,2.5,2.5H7V6z"/>
	<path class="st1" d="M8.5,6.5C9.9,6.5,11,5.4,11,4c0-0.3-0.2-0.5-0.5-0.5C9.1,3.5,8,4.6,8,6v0.5H8.5z"/>
	<path class="st1" d="M4.2,17.2c1-1,2.6-1,3.5,0c0.4,0.4,0.6,0.8,0.7,1.3h4.1V9V7.5h-4h-1h-1h-4V17c0,0.7,0.5,1.2,1.1,1.4
		C3.7,18,3.9,17.6,4.2,17.2z"/>
	<path class="st1" d="M18,9.5h-4.5v9h2.1c0.1-0.5,0.3-0.9,0.7-1.3c1-1,2.6-1,3.5,0c0.3,0.3,0.6,0.8,0.7,1.2c0.6-0.2,1.1-0.8,1.1-1.4
		v-4C21.5,11.1,19.9,9.5,18,9.5z"/>
	<path class="st1" d="M7.1,17.9c-0.6-0.6-1.5-0.6-2.1,0c-0.3,0.3-0.4,0.7-0.4,1.1s0.1,0.8,0.4,1.1c0.6,0.6,1.5,0.6,2.1,0
		c0.3-0.3,0.4-0.7,0.4-1.1S7.4,18.2,7.1,17.9z"/>
	<path class="st1" d="M19.1,17.9c-0.6-0.6-1.5-0.6-2.1,0c-0.3,0.3-0.4,0.7-0.4,1.1s0.1,0.8,0.4,1.1c0.6,0.6,1.5,0.6,2.1,0
		c0.3-0.3,0.4-0.7,0.4-1.1S19.4,18.2,19.1,17.9z"/>
	<path class="st2" d="M18,8.5h-4.5V7c0-0.3-0.2-0.5-0.5-0.5h-2.1C11.6,5.9,12,5,12,4c0-0.8-0.7-1.5-1.5-1.5c-1.3,0-2.4,0.7-3,1.7
		c-0.6-1-1.7-1.7-3-1.7C3.7,2.5,3,3.2,3,4c0,1,0.4,1.9,1.1,2.5H2C1.7,6.5,1.5,6.7,1.5,7v10c0,1.2,0.9,2.2,2,2.5
		c0.1,0.5,0.3,0.9,0.7,1.3c1,1,2.6,1,3.5,0c0.4-0.4,0.6-0.8,0.7-1.3H13h2.6c0.1,0.5,0.3,0.9,0.7,1.3c1,1,2.6,1,3.5,0
		c0.4-0.4,0.6-0.8,0.7-1.3c1.2-0.2,2-1.2,2-2.5v-4C22.5,10.5,20.5,8.5,18,8.5z M10.5,3.5C10.8,3.5,11,3.7,11,4
		c0,1.4-1.1,2.5-2.5,2.5H8V6C8,4.6,9.1,3.5,10.5,3.5z M4,4c0-0.3,0.2-0.5,0.5-0.5C5.9,3.5,7,4.6,7,6v0.5H6.5C5.1,6.5,4,5.4,4,4z
		 M2.5,17V7.5h4h1h1h4V9v9.5H8.4c-0.1-0.5-0.3-0.9-0.7-1.3c-1-1-2.6-1-3.5,0c-0.3,0.3-0.6,0.8-0.7,1.2C3,18.2,2.5,17.7,2.5,17z
		 M4.9,20.1c-0.3-0.3-0.4-0.7-0.4-1.1s0.1-0.8,0.4-1.1c0.6-0.6,1.5-0.6,2.1,0c0.3,0.3,0.4,0.7,0.4,1.1s-0.1,0.8-0.4,1.1
		C6.5,20.6,5.5,20.6,4.9,20.1z M16.9,20.1c-0.3-0.3-0.4-0.7-0.4-1.1s0.1-0.8,0.4-1.1c0.6-0.6,1.5-0.6,2.1,0c0.3,0.3,0.4,0.7,0.4,1.1
		s-0.1,0.8-0.4,1.1C18.5,20.6,17.5,20.6,16.9,20.1z M20.4,18.4c-0.1-0.4-0.3-0.9-0.7-1.2c-1-1-2.6-1-3.5,0c-0.4,0.4-0.6,0.8-0.7,1.3
		h-2.1v-9H18c1.9,0,3.5,1.6,3.5,3.5v4C21.5,17.7,21,18.2,20.4,18.4z"/>
</g>
</svg>
