<?xml version="1.0" encoding="utf-8"?>
<!-- Generator: Adobe Illustrator 27.9.0, SVG Export Plug-In . SVG Version: 6.00 Build 0)  -->
<svg version="1.1" id="Lager_1" xmlns="http://www.w3.org/2000/svg" xmlns:xlink="http://www.w3.org/1999/xlink" x="0px" y="0px"
	 viewBox="0 0 24 24" style="enable-background:new 0 0 24 24;" xml:space="preserve">
<style type="text/css">
	.st0{fill:#292929;}
</style>
<path class="st0" d="M22.2,11c-0.2-0.2-0.5-0.4-0.8-0.5c-0.2-2.2-1.1-3.9-2.5-5.2c-1-0.9-2.2-1.6-3.5-2.1c-1.3-0.4-2.7-0.6-4.1-0.6
	C8.9,2.9,6.5,3.8,4.8,5.6C4.1,6.3,3.6,7.1,3.2,8c-0.4,0.8-0.6,1.7-0.7,2.6C2.3,10.7,2,10.8,1.8,11c-0.3,0.3-0.5,0.7-0.5,1.2v1.9
	c0,0.4,0.1,0.7,0.4,0.9c0.2,0.2,0.6,0.4,0.9,0.4h1.6c0.2,0,0.4-0.2,0.4-0.4V11c0-0.2-0.2-0.4-0.4-0.4H3.5C3.6,9.8,3.7,9,4,8.3
	c0.3-0.8,0.8-1.5,1.4-2.1c1.6-1.6,3.7-2.5,6-2.6c1.3-0.1,2.6,0.1,3.8,0.5c1.2,0.4,2.3,1,3.2,1.9c1.2,1.1,2,2.7,2.2,4.6h-0.8
	c-0.2,0-0.4,0.2-0.4,0.4V15c0,0.2,0.2,0.4,0.4,0.4h0.6c0,0.8-0.1,1.4-0.3,1.8c-0.3,0.4-0.8,0.5-1.9,0.5h-0.3
	c0.7-1.1,1.1-2.5,1.1-4.1c0-0.1,0-0.2,0-0.2v-2.1c0-2.9-1.8-4.8-4.2-5.6C13.9,5.5,13,5.3,12,5.3s-1.9,0.2-2.8,0.5
	C6.8,6.6,5,8.5,5,11.4v2.1c0,2.2,0.8,4,2,5.3c1.3,1.5,3.1,2.3,4.9,2.4c0.1,0,0.1,0,0.1,0c1.8,0,3.5-0.7,4.8-2.1
	c0.2-0.2,0.3-0.4,0.5-0.6h0.9c1.4,0,2.1-0.3,2.6-0.9c0.4-0.5,0.5-1.3,0.5-2.3h0.2c0.4,0,0.7-0.1,0.9-0.4c0.2-0.2,0.4-0.6,0.4-0.9
	v-1.9C22.7,11.8,22.5,11.3,22.2,11z M3.8,14.6H2.6c-0.1,0-0.2-0.1-0.3-0.1c-0.1-0.1-0.1-0.2-0.1-0.3v-1.9c0-0.2,0.1-0.4,0.2-0.6
	c0.1-0.1,0.4-0.2,0.6-0.2h0.8V14.6z M12,20.4C11.9,20.4,11.9,20.4,12,20.4c-1.7,0-3.3-0.8-4.4-2.1c-1.1-1.2-1.7-2.8-1.7-4.8v-2.1
	c0-2.5,1.6-4.1,3.6-4.8c0.8-0.3,1.7-0.4,2.6-0.4c0.9,0,1.8,0.1,2.6,0.4c2,0.7,3.6,2.3,3.6,4.8v2.1c0,0.1,0,0.1,0,0.1
	c0,1.6-0.5,3-1.3,4.1h-3.6c0-0.1-0.1-0.2-0.2-0.2l0,0l0,0l0,0c-0.2-0.2-0.4-0.3-0.7-0.3h-0.7c-0.3,0-0.5,0.1-0.7,0.3l0,0l0,0l0,0
	c-0.2,0.2-0.3,0.4-0.3,0.7v0c0,0.3,0.1,0.5,0.3,0.7l0,0l0,0l0,0c0.2,0.2,0.4,0.3,0.7,0.3h0.7c0.3,0,0.5-0.1,0.7-0.3l0,0l0,0l0,0
	c0.1-0.1,0.2-0.2,0.2-0.3h2.8C15,19.8,13.5,20.4,12,20.4z M12.4,18.4h-0.7c0,0-0.1,0-0.1,0l0,0c0,0,0-0.1,0-0.1v0c0,0,0-0.1,0-0.1
	l0,0h0c0,0,0.1,0,0.1,0h0.7c0,0,0.1,0,0.1,0l0,0c0,0,0,0.1,0,0.1v0c0,0,0,0.1,0,0.1l0,0v0C12.4,18.4,12.4,18.4,12.4,18.4z
	 M21.9,14.1c0,0.1-0.1,0.2-0.1,0.3s-0.2,0.1-0.3,0.1h-1.2v-3.2H21c0.2,0,0.4,0.1,0.6,0.2c0.1,0.1,0.2,0.4,0.2,0.6V14.1z"/>
</svg>
