<?xml version="1.0" encoding="utf-8"?>
<!-- Generator: Adobe Illustrator 26.0.2, SVG Export Plug-In . SVG Version: 6.00 Build 0)  -->
<svg version="1.1" id="Lager_1" xmlns="http://www.w3.org/2000/svg" xmlns:xlink="http://www.w3.org/1999/xlink" x="0px" y="0px"
	 viewBox="0 0 42 42" style="enable-background:new 0 0 42 42;" xml:space="preserve">
<style type="text/css">
	.st0{fill:#351408;}
</style>
<g>
	<path class="st0" d="M19,19.7L34.2,4.4c1-1,2.5-1,3.5,0s1,2.5,0,3.5L24.3,21.4l13.6,13.5c1,1,1,2.5,0,3.5s-2.5,1-3.5,0L19,23.2
		c-0.5-0.5-0.7-1.1-0.7-1.8C18.2,20.8,18.5,20.2,19,19.7"/>
	<path class="st0" d="M23,18.9c0.5,0.5,0.8,1.1,0.7,1.7c0,0.7-0.2,1.3-0.7,1.8L7.6,37.6c-1,1-2.5,1-3.5,0s-1-2.5,0-3.5l13.6-13.5
		L4.3,7.1c-1-1-1-2.5,0-3.5s2.5-1,3.5,0L23,18.9"/>
</g>
</svg>
