<?xml version="1.0" encoding="utf-8"?>
<!-- Generator: Adobe Illustrator 27.2.0, SVG Export Plug-In . SVG Version: 6.00 Build 0)  -->
<svg version="1.1" id="Lager_1" xmlns="http://www.w3.org/2000/svg" xmlns:xlink="http://www.w3.org/1999/xlink" x="0px" y="0px"
	 viewBox="0 0 42 42" style="enable-background:new 0 0 42 42;" xml:space="preserve">
<style type="text/css">
	.st0{fill:#F8B86A;}
	.st1{fill:none;stroke:#F49E49;stroke-width:3;stroke-linecap:round;stroke-linejoin:round;stroke-miterlimit:10;}
	.st2{fill:#E38C16;}
	.st3{fill:#F49E49;}
</style>
<g>
	<path class="st0" d="M33.4,18c-0.7,0.3-1.5,0.4-2.3,0.4c-3.5,0-6.3-2.8-6.3-6.3c0-1.1,0.3-2.1,0.8-2.9c-0.8-0.8-1.3-1.9-1.3-3.1
		c0-1.2,0.5-2.2,1.2-3c-1.4-0.4-2.9-0.6-4.4-0.6C10.8,2.5,2.6,10.8,2.6,21c0,10.2,8.3,18.5,18.5,18.5c9.8,0,17.7-7.6,18.4-17.2
		c-0.4,0.1-0.9,0.3-1.4,0.3C35.5,22.6,33.4,20.5,33.4,18z"/>
</g>
<g>
	<path class="st1" d="M33.4,18c-0.7,0.3-1.5,0.4-2.3,0.4c-3.5,0-6.3-2.8-6.3-6.3c0-1.1,0.3-2.1,0.8-2.9c-0.8-0.8-1.3-1.9-1.3-3.1
		c0-1.2,0.5-2.2,1.2-3c-1.4-0.4-2.9-0.6-4.4-0.6C10.8,2.5,2.6,10.8,2.6,21c0,10.2,8.3,18.5,18.5,18.5c9.8,0,17.7-7.6,18.4-17.2
		c-0.4,0.1-0.9,0.3-1.4,0.3C35.5,22.6,33.4,20.5,33.4,18z"/>
</g>
<circle class="st2" cx="13.5" cy="15" r="2.7"/>
<circle class="st2" cx="16.7" cy="30.2" r="2.7"/>
<circle class="st2" cx="18.8" cy="21.6" r="1.7"/>
<circle class="st2" cx="28.4" cy="26.9" r="2.7"/>
<circle class="st3" cx="31" cy="12" r="1.6"/>
<circle class="st3" cx="33.3" cy="4.7" r="1.6"/>
<circle class="st3" cx="38.3" cy="12.9" r="1"/>
</svg>
