<?xml version="1.0" encoding="utf-8"?>
<!-- Generator: Adobe Illustrator 25.4.1, SVG Export Plug-In . SVG Version: 6.00 Build 0)  -->
<svg version="1.1" id="Lager_1" xmlns="http://www.w3.org/2000/svg" xmlns:xlink="http://www.w3.org/1999/xlink" x="0px" y="0px"
	 viewBox="0 0 42 42" style="enable-background:new 0 0 42 42;" xml:space="preserve">
<style type="text/css">
	.st0{fill:none;}
	.st1{fill-rule:evenodd;clip-rule:evenodd;fill:#F49E49;}
	.st2{fill-rule:evenodd;clip-rule:evenodd;fill:#F5A351;}
	.st3{fill-rule:evenodd;clip-rule:evenodd;fill:#F8B86B;}
	.st4{fill-rule:evenodd;clip-rule:evenodd;fill:#E48C15;}
	.st5{fill-rule:evenodd;clip-rule:evenodd;fill:none;stroke:#E48C15;stroke-width:0.25;stroke-linecap:round;stroke-miterlimit:10;}
</style>
<g>
	<g id="Layer_1">
		<g>
			<path class="st0" d="M8.3,32c-0.1,0.3-0.4,0.5-0.8,0.4l-2.8-0.9c-0.3-0.1-0.5-0.4-0.4-0.8c0.1-0.3,0.4-0.5,0.8-0.4l2.8,0.9
				C8.3,31.3,8.4,31.6,8.3,32z"/>
		</g>
		<polygon class="st1" points="39.8,9.5 21.1,2.9 2.3,9.5 21,15.7 		"/>
		<path class="st2" d="M21,39.7v-24L2.3,9.5v23.7L21,39.7L21,39.7z M4.3,30.6c0.1-0.3,0.4-0.5,0.8-0.4l2.8,0.9
			c0.3,0.1,0.5,0.4,0.4,0.8c-0.1,0.3-0.4,0.5-0.8,0.4l-2.8-0.9C4.4,31.3,4.2,30.9,4.3,30.6z"/>
		<path class="st3" d="M21,15.7v24l18.8-6.5l0,0V9.5L21,15.7z M25.4,29.1l10.1-3.4c0,0,0.2,0,0.3,0c0.5,0,1,0.5,1,1v5.1
			c0,0.3-0.2,0.8-0.6,1l0,0L26,36.2c0,0-0.2,0-0.3,0c-0.5,0-1-0.5-1-1v-5.1C24.7,29.8,24.9,29.3,25.4,29.1L25.4,29.1z"/>
	</g>
	<g id="Master_Layer_7">
	</g>
</g>
<polygon class="st4" points="9.6,6.8 28.1,13.3 28,22.4 32.9,20.7 32.9,11.7 14.7,5.1 "/>
<polyline class="st5" points="2.4,9.6 21,15.7 39.8,9.5 "/>
</svg>
