<svg version="1.1" id="Lager_1" xmlns="http://www.w3.org/2000/svg" xmlns:xlink="http://www.w3.org/1999/xlink" x="0px" y="0px"
	 viewBox="0 0 42 42" style="enable-background:new 0 0 42 42;" xml:space="preserve" width="42" height="42">
<g>
	<path fill="#351408" d="M31.2,7.2h-6.7V6.6c0-1-0.8-1.8-1.8-1.8h-3.5c-1,0-1.8,0.8-1.8,1.8v0.7h-6.7C9.8,7.2,9,8,9,9v1.2c0,0.7,0.5,1.4,1.1,1.6
		c0.2,4.1,1.4,23.8,1.4,24.7c0,0.4,0.3,0.7,0.7,0.7h17.5c0.4,0,0.7-0.3,0.7-0.7c0.1-0.9,1.2-20.6,1.4-24.7c0.6-0.3,1.1-0.9,1.1-1.6
		V9C33,8,32.2,7.2,31.2,7.2z M18.9,6.6c0-0.2,0.2-0.4,0.3-0.4h3.5c0.2,0,0.3,0.2,0.3,0.4v0.7h-4.2L18.9,6.6L18.9,6.6z M10.4,9
		c0-0.2,0.2-0.3,0.4-0.3h20.5c0.2,0,0.4,0.2,0.4,0.3v1.2c0,0.2-0.2,0.3-0.4,0.3H10.8c-0.2,0-0.4-0.2-0.4-0.3L10.4,9L10.4,9z
		 M29.1,35.8H12.9C12.7,32.3,11.7,16,11.5,12h18.9C30.3,16,29.3,32.3,29.1,35.8z"/>
	<path fill="#351408" d="M21,14.6c-0.4,0-0.7,0.3-0.7,0.7v18.1c0,0.4,0.3,0.7,0.7,0.7s0.7-0.3,0.7-0.7V15.3C21.7,14.9,21.4,14.6,21,14.6L21,14.6z"
		/>
	<path fill="#351408" d="M16.1,15.3c0-0.4-0.4-0.7-0.8-0.7c-0.4,0-0.7,0.4-0.7,0.8l0.9,18.1c0,0.4,0.3,0.7,0.7,0.7c0,0,0,0,0,0
		c0.4,0,0.7-0.4,0.7-0.8C17.1,33.4,16.1,15.3,16.1,15.3z"/>
	<path fill="#351408" d="M26.6,14.6c-0.4,0-0.7,0.3-0.8,0.7l-0.9,18.1c0,0.4,0.3,0.7,0.7,0.8c0,0,0,0,0,0c0.4,0,0.7-0.3,0.7-0.7l0.9-18.1
		C27.3,15,27,14.6,26.6,14.6z"/>
</g>
</svg>
