<svg xmlns="http://www.w3.org/2000/svg" viewBox="0 0 42 42" style="enable-background:new 0 0 42 42" xml:space="preserve" width="42" height="42"><path d="M36.9 11.4c-.6-.2-1.3.1-1.5.7l-.9 2.6c-1.1-2.4-2.8-4.6-5-6.2-6.9-5.1-16.8-3.7-22 3.1-2.5 3.3-3.6 7.4-3 11.5.5 4.2 2.7 7.9 6.1 10.4 2.8 2.1 6.1 3.1 9.4 3.1 4.8 0 9.5-2.2 12.6-6.2 1.4-1.8 2.3-3.8 2.8-6 .1-.6-.3-1.3-.9-1.4-.6-.1-1.3.3-1.4.9-.4 1.8-1.2 3.5-2.4 5.1-4.4 5.8-12.8 7-18.7 2.7-2.9-2.1-4.7-5.2-5.2-8.7-.5-3.5.4-6.9 2.5-9.7 4.4-5.8 12.8-7 18.7-2.7 2.1 1.6 3.7 3.8 4.6 6.2l-4.1-1.6c-.6-.2-1.3.1-1.6.7-.2.6.1 1.3.7 1.6l6.1 2.4c.1.1.3.1.4.1h.2c.5 0 1-.3 1.1-.8l2.2-6c.3-.9-.1-1.6-.7-1.8z" fill="#363636" /></svg>