<svg version="1.1" id="Lager_1" xmlns="http://www.w3.org/2000/svg" xmlns:xlink="http://www.w3.org/1999/xlink" x="0px" y="0px"
	 viewBox="0 0 42 42" style="enable-background:new 0 0 42 42;" xml:space="preserve" width="42" height="42">
<g>
	<g>
		<path fill="#333" d="M36.4,37.2c0.5,0,0.8-0.4,0.8-0.8v-24c0-0.2-0.1-0.5-0.3-0.6L29,5c0,0,0,0,0,0c0,0,0,0-0.1,0c0,0,0,0-0.1,0c0,0,0,0-0.1,0
			c0,0-0.1,0-0.1,0c0,0,0,0-0.1,0c-0.1,0-0.1,0-0.2,0H5.6c-0.5,0-0.8,0.4-0.8,0.8v30.8c0,0.5,0.4,0.8,0.8,0.8L36.4,37.2L36.4,37.2
			L36.4,37.2z M30.4,35.6H11.6V23.3c0-0.2,0.2-0.4,0.4-0.4h18c0.2,0,0.4,0.2,0.4,0.4V35.6z M15.6,6.4h12.1v8.5c0,0.1,0,0.1-0.1,0.1
			H15.7c-0.1,0-0.1,0-0.1-0.1L15.6,6.4L15.6,6.4z M6.4,6.4H14v8.5c0,1,0.8,1.7,1.7,1.7h11.9c1,0,1.7-0.8,1.7-1.7V7.4l6.3,5.4v22.8
			h-3.5V23.3c0-1.1-0.9-2.1-2.1-2.1H12c-1.1,0-2.1,0.9-2.1,2.1v12.3H6.4V6.4z"/>
		<path fill="#333" d="M20,10h3.6v2.2c0,0.5,0.4,0.8,0.8,0.8c0.5,0,0.8-0.4,0.8-0.8v-3c0-0.5-0.4-0.8-0.8-0.8H20c-0.5,0-0.8,0.4-0.8,0.8
			C19.1,9.6,19.5,10,20,10z"/>
		<path fill="#333" d="M25.1,26.3h-8.2c-0.5,0-0.8,0.4-0.8,0.8s0.4,0.8,0.8,0.8h8.2c0.5,0,0.8-0.4,0.8-0.8S25.6,26.3,25.1,26.3z"/>
		<path fill="#333" d="M25.1,30.7h-8.2c-0.5,0-0.8,0.4-0.8,0.8c0,0.5,0.4,0.8,0.8,0.8h8.2c0.5,0,0.8-0.4,0.8-0.8C25.9,31,25.6,30.7,25.1,30.7z"
			/>
	</g>
</g>
</svg>
