<?xml version="1.0" encoding="utf-8"?>
<!-- Generator: Adobe Illustrator 26.0.2, SVG Export Plug-In . SVG Version: 6.00 Build 0)  -->
<svg version="1.1" id="Lager_1" xmlns="http://www.w3.org/2000/svg" xmlns:xlink="http://www.w3.org/1999/xlink" x="0px" y="0px"
	 viewBox="0 0 42 42" style="enable-background:new 0 0 42 42;" xml:space="preserve">
<style type="text/css">
	.st0{fill:#351408;}
</style>
<path class="st0" d="M35.6,19.2l-12.8,0l0-13c0-1-0.7-1.7-1.7-1.7c-1,0-1.7,0.7-1.7,1.7l0,13l-13.1,0c-1,0-1.7,0.7-1.7,1.7
	c0,1,0.7,1.7,1.7,1.7l12.8,0.1l0.1,13c0,1,0.7,1.7,1.7,1.7c1,0,1.7-0.7,1.7-1.7l0-13.1l13,0c1,0,1.7-0.7,1.7-1.7
	C37.3,19.9,36.6,19.2,35.6,19.2z"/>
</svg>
