<?xml version="1.0" encoding="utf-8"?>
<!-- Generator: Adobe Illustrator 24.0.1, SVG Export Plug-In . SVG Version: 6.00 Build 0)  -->
<svg version="1.1" id="Lager_1" xmlns="http://www.w3.org/2000/svg" xmlns:xlink="http://www.w3.org/1999/xlink" x="0px" y="0px" width="243" height="69.7" viewBox="0 0 243 69.7" style="enable-background:new 0 0 243 69.7;" xml:space="preserve">
<g>
	<path d="M43,7.8H31.1c0,9.8-4.5,18.7-12.3,24.6l-4.7,3.5l18.3,24.9h15L30.6,37.9C38.5,30,43,19.3,43,7.8z"/>
	<rect x="0.4" y="7.8" width="12.2" height="53.1"/>
	<rect x="50.9" y="7.8" width="11.5" height="53.1"/>
	<path d="M163.3,23.2c-4.4,0-8.6,1.3-11.3,5.1v-4.1H141v36.7h11.1V41.6c0-5.6,3.7-8.3,8.2-8.3c4.8,0,7.6,2.9,7.6,8.2v19.4h11V37.6
		C178.9,29,172.1,23.2,163.3,23.2z"/>
	<path d="M97.2,24.2v2.4c-3.1-2.1-6.8-3.4-10.9-3.4c-10.7,0-19.4,8.7-19.4,19.4s8.7,19.4,19.4,19.4c4.1,0,7.8-1.2,10.9-3.4v2.4h11
		V24.2H97.2z M87.2,51.9c-5.5,0-9.9-4.2-9.9-9.4s4.4-9.4,9.9-9.4s9.9,4.2,9.9,9.4S92.7,51.9,87.2,51.9z"/>
	<path d="M125.2,28.9v-4.8h-11.2v36.7h11.3V43.8c0-5.8,6.3-8.9,10.6-8.9c0.1,0,0.1,0,0.1,0V24.2C131.5,24.2,127.4,26.1,125.2,28.9z"
		/>
	<path d="M213,24.2v2.4c-3.1-2.1-6.8-3.4-10.9-3.4c-10.7,0-19.4,8.7-19.4,19.4s8.7,19.4,19.4,19.4c4.1,0,7.8-1.2,10.9-3.4v2.4h11
		V24.2H213z M203,51.9c-5.5,0-9.9-4.2-9.9-9.4s4.4-9.4,9.9-9.4c5.5,0,9.9,4.2,9.9,9.4C213,47.7,208.5,51.9,203,51.9z"/>
	<g>
		<path d="M232.5,25.3c0-0.5-0.4-0.9-1-0.9h-1v2.8h0.5v-1h0.5l0.4,1h0.5l-0.5-1.1C232.3,25.9,232.5,25.6,232.5,25.3z M231.5,25.7
			H231v-0.9h0.5c0.3,0,0.5,0.2,0.5,0.4S231.9,25.7,231.5,25.7z"/>
		<path d="M231.4,23.2c-1.4,0-2.6,1.2-2.6,2.6c0.1,1.4,1.2,2.6,2.6,2.6s2.6-1.2,2.6-2.6C234,24.4,232.8,23.2,231.4,23.2z M231.4,28
			c-1.2,0-2.1-1-2.1-2.1s1-2.1,2.1-2.1c1.2,0,2.1,1,2.1,2.1S232.5,28,231.4,28z"/>
	</g>
	<path d="M235.7,47.9c-3.8,0-6.9,3.1-6.9,6.9s3.1,6.9,6.9,6.9s6.9-3.1,6.9-6.9C242.6,50.9,239.5,47.9,235.7,47.9z"/>
</g>
</svg>
