<?xml version="1.0" encoding="utf-8"?>
<!-- Generator: Adobe Illustrator 24.0.1, SVG Export Plug-In . SVG Version: 6.00 Build 0)  -->
<svg version="1.1" id="Lager_1" xmlns="http://www.w3.org/2000/svg" xmlns:xlink="http://www.w3.org/1999/xlink" x="0px" y="0px" width="75" height="20" viewBox="0 0 75 20" style="enable-background:new 0 0 75 20;" xml:space="preserve">
<g>
	<path d="M13.3,1.7H9.6c0,3-1.4,5.8-3.8,7.6l-1.4,1.1L10,18h4.6l-5.2-7.1C11.9,8.5,13.3,5.2,13.3,1.7z"/>
	<rect x="0.2" y="1.7" width="3.8" height="16.3"/>
	<rect x="15.8" y="1.7" width="3.5" height="16.3"/>
	<path d="M50.4,6.4c-1.4,0-2.6,0.4-3.5,1.6V6.7h-3.4V18h3.4v-5.9c0-1.7,1.2-2.6,2.5-2.6c1.5,0,2.3,0.9,2.3,2.5v6h3.4v-7.2
		C55.2,8.2,53.1,6.4,50.4,6.4z"/>
	<path d="M30,6.7v0.7c-1-0.7-2.1-1-3.4-1c-3.3,0-6,2.7-6,6s2.7,6,6,6c1.3,0,2.4-0.4,3.4-1V18h3.4V6.7H30z M26.9,15.3
		c-1.7,0-3.1-1.3-3.1-2.9s1.4-2.9,3.1-2.9s3.1,1.3,3.1,2.9S28.6,15.3,26.9,15.3z"/>
	<path d="M38.6,8.2V6.7h-3.5V18h3.5v-5.3c0-1.8,1.9-2.7,3.3-2.7c0,0,0,0,0,0V6.7C40.6,6.7,39.3,7.3,38.6,8.2z"/>
	<path d="M65.7,6.7v0.7c-1-0.7-2.1-1-3.4-1c-3.3,0-6,2.7-6,6s2.7,6,6,6c1.3,0,2.4-0.4,3.4-1V18h3.4V6.7H65.7z M62.6,15.3
		c-1.7,0-3.1-1.3-3.1-2.9s1.4-2.9,3.1-2.9c1.7,0,3.1,1.3,3.1,2.9C65.7,14,64.3,15.3,62.6,15.3z"/>
	<g>
		<path d="M71.7,7c0-0.2-0.1-0.3-0.3-0.3h-0.3v0.9h0.1V7.3h0.2l0.1,0.3h0.2l-0.1-0.3C71.6,7.2,71.7,7.2,71.7,7z M71.4,7.2h-0.2V6.9
			h0.2c0.1,0,0.1,0,0.1,0.1S71.5,7.2,71.4,7.2z"/>
		<path d="M71.3,6.4c-0.4,0-0.8,0.4-0.8,0.8c0,0.4,0.4,0.8,0.8,0.8c0.4,0,0.8-0.4,0.8-0.8C72.2,6.8,71.8,6.4,71.3,6.4z M71.3,7.9
			c-0.4,0-0.6-0.3-0.6-0.7s0.3-0.7,0.6-0.7c0.4,0,0.6,0.3,0.6,0.7S71.7,7.9,71.3,7.9z"/>
	</g>
	<path d="M72.7,14c-1.2,0-2.1,1-2.1,2.1s1,2.1,2.1,2.1s2.1-1,2.1-2.1C74.8,15,73.9,14,72.7,14z"/>
</g>
</svg>
