<svg xmlns="http://www.w3.org/2000/svg" width="75" height="20"><g transform="matrix(.62325 0 0 .62325 100 145.208)"><path d="M-46.6-226.1c0-.5.1-.9.3-1.3.1-.4.4-.8.6-1 .3-.3.6-.5 1-.8.4-.1.8-.3 1.3-.3s.9.1 1.3.3c.4.1.8.4 1 .8.3.3.5.6.6 1 .1.4.3.9.3 1.3 0 .5-.1.9-.3 1.3s-.4.8-.6 1c-.3.3-.6.5-1 .8-.4.1-.8.3-1.3.3s-.9-.1-1.3-.3-.8-.4-1-.8c-.3-.3-.5-.6-.6-1-.1-.4-.3-.9-.3-1.3zm.7 0c0 .4.1.8.3 1 .1.4.3.6.5.9s.5.4.8.6c.3.1.6.3 1 .3s.8-.1 1-.3c.3-.1.6-.4.8-.6.3-.3.4-.5.5-.9.1-.4.3-.6.3-1s-.1-.8-.3-1c-.1-.4-.3-.6-.5-.9-.3-.3-.5-.4-.8-.6-.3-.1-.6-.3-1-.3s-.8.1-1 .3c-.3.1-.6.4-.8.6-.3.3-.4.5-.5.9-.2.3-.3.6-.3 1zm1.5-1.5c0-.3.1-.3.3-.3h1c.4 0 .6.1.8.3.3.1.3.4.3.8v.4c0 .1-.1.3-.1.3 0 .1-.1.1-.3.1-.1 0-.1.1-.3.1v.1l.5.9c0 .1.1.1 0 .3 0 .1-.1.1-.3.1h-.1c-.1 0-.3-.1-.4-.3l-.5-1.1h-.5v1c0 .3-.1.3-.3.3h-.1c-.1 0-.3-.1-.3-.3l.3-2.7zm1.1 1.4c.1 0 .3 0 .4-.1.1-.1.1-.3.1-.4s0-.3-.1-.4c-.1-.1-.3-.1-.4-.1h-.5v1.1h.5v-.1zm-26.4 2.1c1 0 1.9.1 2.7.4.8.3 1.3.5 1.6.8.4.1.5.4.6.8.1.4 0 .6-.1 1l-.3.5c-.1.4-.4.6-.6.6-.3 0-.6 0-1-.1s-.8-.4-1.3-.5c-.5-.1-1-.3-1.6-.3-.6 0-1.1.1-1.5.4-.4.3-.5.6-.5 1.1 0 .4.1.8.5 1s.9.5 1.4.6c.6.3 1.1.4 1.9.6.6.3 1.3.5 1.9.9.6.4 1 .9 1.4 1.4.4.5.5 1.3.5 2.1 0 .6-.1 1.3-.4 1.9-.3.6-.6 1-1.1 1.5-.5.4-1.1.8-1.9 1-.8.3-1.5.4-2.4.4-1.3 0-2.3-.1-3.2-.5-.9-.4-1.5-.8-2-1-.4-.3-.5-.5-.6-.8s0-.6.3-1l.4-.5c.3-.4.5-.5.8-.5.3 0 .6 0 1 .3s.9.4 1.4.6c.6.3 1.3.4 2 .4.6 0 1.1-.1 1.5-.4.4-.3.6-.6.6-1.1 0-.4-.1-.8-.5-1-.4-.3-.9-.5-1.4-.6-.6-.3-1.1-.4-1.9-.6-.6-.3-1.3-.5-1.9-.9-.6-.4-1-.9-1.4-1.4-.4-.5-.5-1.3-.5-2.1s.1-1.4.5-2c.3-.6.8-1 1.3-1.4.5-.4 1.1-.6 1.9-.9.4-.5 1.2-.7 1.9-.7zm-44.8 0c1 0 1.9.1 2.7.4.8.3 1.3.5 1.6.8.4.1.5.4.6.8.1.4 0 .6-.1 1l-.3.5c-.1.4-.4.6-.6.6-.3 0-.6 0-1-.1s-.8-.4-1.3-.5c-.5-.1-1-.3-1.6-.3s-1.1.1-1.5.4c-.4.3-.5.6-.5 1.1 0 .4.1.8.5 1s.9.5 1.4.6c.6.3 1.1.4 1.9.6.6.3 1.3.5 1.9.9.6.4 1 .9 1.4 1.4.4.5.5 1.3.5 2.1 0 .6-.1 1.3-.4 1.9-.3.6-.6 1-1.1 1.5-.5.4-1.1.8-1.9 1-.8.3-1.5.4-2.4.4-1.3 0-2.3-.1-3.2-.5-.9-.4-1.5-.8-2-1-.4-.3-.5-.5-.6-.8-.1-.3 0-.6.3-1l.4-.5c.3-.4.5-.5.8-.5.3 0 .6 0 1 .3s.9.4 1.4.6c.6.3 1.3.4 2 .4.6 0 1.1-.1 1.5-.4.4-.3.6-.6.6-1.1 0-.4-.1-.8-.5-1-.4-.3-.9-.5-1.4-.6-.6-.3-1.1-.4-1.9-.6-.6-.3-1.3-.5-1.9-.9-.6-.4-1-.9-1.4-1.4-.4-.5-.5-1.3-.5-2.1s.1-1.4.5-2c.3-.6.8-1 1.3-1.4.5-.4 1.1-.6 1.9-.9.4-.5 1.1-.7 1.9-.7zm54.9-5.6c.9 0 1.3.4 1.3 1.3V-220.9c.1-.4.4-.8.8-1.1.4-.4.8-.8 1.1-1 .5-.3 1-.5 1.5-.8.6-.1 1.1-.3 1.9-.3 1.8 0 3 .5 3.9 1.4.9.9 1.4 2.4 1.4 4.4v8.6c0 .9-.4 1.3-1.3 1.3h-1.3c-.9 0-1.3-.4-1.3-1.3v-7.8c0-.9-.1-1.6-.5-2.3-.4-.6-1-.9-1.9-.9-.6 0-1.3.1-1.8.4s-1 .6-1.4 1c-.4.4-.6 1-.9 1.6s-.4 1.3-.4 2v5.9c0 .9-.4 1.3-1.3 1.3h-1.3c-.9 0-1.3-.4-1.3-1.3v-18.9c0-.9.4-1.3 1.3-1.3h1.3v.3zm-19.9 6c.9 0 1.3.4 1.3 1.3v12.9c0 .9-.4 1.3-1.3 1.3h-1.3c-.9 0-1.3-.4-1.3-1.3v-12.9c0-.9.4-1.3 1.3-1.3h1.3zm-25.7 0c.8 0 1.3.4 1.4 1.1l2.5 9c0 .3.1.4.1.6 0 .1.1.4.1.5 0 .1.1.4.1.5 0-.1 0-.4.1-.5 0-.1.1-.4.1-.5 0-.1.1-.4.1-.6l2.7-9c.1-.8.6-1.1 1.4-1.1h1.1c.8 0 1.3.4 1.4 1.1l2.5 9c0 .3.1.4.1.6 0 .1.1.4.1.5 0 .1.1.4.1.5 0-.1 0-.4.1-.5 0-.1.1-.4.1-.5 0-.1.1-.4.1-.6l2.4-9c.1-.8.6-1.1 1.4-1.1h1.4c.5 0 .8.1 1 .4.1.3.3.6.1 1l-3.9 12.9c-.3.8-.6 1-1.4 1h-2c-.8 0-1.3-.4-1.4-1.1l-2.3-7.7c0-.3-.1-.4-.1-.6 0-.3-.1-.4-.1-.5 0-.1-.1-.4-.1-.5 0 .1-.1.4-.1.5 0 .1-.1.4-.1.5s-.1.4-.1.6l-2.3 7.7c-.1.8-.6 1.1-1.4 1.1h-2c-.8 0-1.1-.4-1.4-1l-3.9-12.9c-.1-.4-.1-.8.1-1 .3-.3.5-.4 1-.4h1z" fill="#4a4a49"/><g transform="translate(50.006 20.581)"><linearGradient id="SVGID_1_" gradientUnits="userSpaceOnUse" x1="-1870.266" y1="-1170.586" x2="-1870.086" y2="-1170.586" gradientTransform="rotate(-108.249 -16911.606 -41291.972) scale(32.6927)"><stop offset="0" stop-color="#ef2131"/><stop offset="1" stop-color="#fecf2c"/></linearGradient><path d="M-201.5-223.3c6.3 3 14.2 1.5 18.9-4.1 5.6-6.7 4.7-16.6-1.9-22.2l-4.4 5.3c5.2 4.4 5.9 12.1 1.5 17.4-3.6 4.1-9.3 5.5-14.1 3.6" fill-rule="evenodd" clip-rule="evenodd" fill="url(#SVGID_1_)"/><linearGradient id="SVGID_00000047757562462453795670000000933348319643120294_" gradientUnits="userSpaceOnUse" x1="-1842.176" y1="-1195.502" x2="-1841.996" y2="-1195.502" gradientTransform="rotate(115.676 -66156.9 -1125.624) scale(50.9971)"><stop offset="0" stop-color="#fbc52c"/><stop offset=".26" stop-color="#f87130"/><stop offset=".56" stop-color="#ef52e2"/><stop offset="1" stop-color="#661eec"/></linearGradient><path d="M-201.5-223.3c6.3 3 14.2 1.5 18.9-4.1.6-.7 1.1-1.4 1.5-2.2.7-4.6-.9-9.5-4.8-12.8-1-.8-2-1.5-3.2-2 5.2 4.4 5.9 12.1 1.5 17.4-3.4 4.2-9.1 5.6-13.9 3.7" fill-rule="evenodd" clip-rule="evenodd" fill="url(#SVGID_00000047757562462453795670000000933348319643120294_)"/></g><linearGradient id="SVGID_00000072990099116390509950000008763356113355956648_" gradientUnits="userSpaceOnUse" x1="-1693.799" y1="-1205.819" x2="-1693.62" y2="-1205.819" gradientTransform="rotate(72.101 -53274.962 17640.014) scale(31.8493)"><stop offset="0" stop-color="#78f6d8"/><stop offset=".27" stop-color="#77d1f6"/><stop offset=".55" stop-color="#70a4f3"/><stop offset="1" stop-color="#661eec"/></linearGradient><path d="M-137.9-231.2c-6.3-3-14.2-1.5-18.9 4.1-5.6 6.7-4.7 16.6 1.9 22.2l4.4-5.3c-5.2-4.4-5.9-12.1-1.5-17.4 3.6-4.1 9.3-5.4 14.1-3.6" fill-rule="evenodd" clip-rule="evenodd" fill="url(#SVGID_00000072990099116390509950000008763356113355956648_)"/><linearGradient id="SVGID_00000036224318723530551110000004225063518998444423_" gradientUnits="userSpaceOnUse" x1="-1723.161" y1="-1177.259" x2="-1722.982" y2="-1177.259" gradientTransform="rotate(-64.422 3446.697 -99292.54) scale(50.7661)"><stop offset="0" stop-color="#536eed"/><stop offset=".25" stop-color="#54c3ec"/><stop offset=".56" stop-color="#64d769"/><stop offset="1" stop-color="#fecf2c"/></linearGradient><path d="M-137.9-231.2c-6.3-3-14.2-1.5-18.9 4.1-.6.7-1.1 1.4-1.5 2.2-.7 4.6.9 9.5 4.8 12.8 1 .8 2 1.5 3.2 2-5.2-4.4-5.9-12.1-1.5-17.4 3.4-4.2 9.1-5.5 13.9-3.7" fill-rule="evenodd" clip-rule="evenodd" fill="url(#SVGID_00000036224318723530551110000004225063518998444423_)"/></g></svg>