<?xml version="1.0" encoding="utf-8"?>
<!-- Generator: Adobe Illustrator 24.0.1, SVG Export Plug-In . SVG Version: 6.00 Build 0)  -->
<svg version="1.1" id="Lager_1" xmlns="http://www.w3.org/2000/svg" xmlns:xlink="http://www.w3.org/1999/xlink" x="0px" y="0px" width="659.1" height="202.1" viewBox="0 0 659.1 202.1" style="enable-background:new 0 0 659.1 202.1;" xml:space="preserve">
<style type="text/css">
	.st0{clip-path:url(#SVGID_2_);fill:url(#XMLID_8_);}
</style>
<g>
	<defs>
		<path id="SVGID_1_" d="M200,2.7l-53.1,134.2L125.4,22.8C122.9,10,112.9,2.7,101.9,2.7H15l-1.2,5.7c17.8,3.9,38.1,10.1,50.3,16.8
			c7.5,4.1,9.6,7.6,12.1,17.3L117,199.9h53.9L253.6,2.7H200z M275.5,2.7l-42.2,197.2h51L326.5,2.7H275.5z M568,56l15.5,74.1h-42.3
			L568,56z M560.5,2.7c-9.8,0-18.1,5.7-21.7,14.5l-76.6,182.8h53.6l10.6-29.5h65.4l6.2,29.5h47.2L604,2.7H560.5z M340.4,64.3
			c-0.3,28.4,25.3,44.2,44.7,53.7c19.9,9.7,26.5,15.9,26.5,24.5c-0.1,13.2-15.9,19.1-30.5,19.3c-25.6,0.4-40.5-6.9-52.4-12.5
			l-9.2,43.2c11.9,5.5,33.9,10.2,56.7,10.5c53.6,0,88.6-26.5,88.8-67.5c0.2-52-72-54.9-71.5-78.2c0.2-7.1,6.9-14.6,21.6-16.5
			c7.3-0.9,27.5-1.7,50.3,8.8l9-41.8c-12.3-4.5-28.1-8.7-47.7-8.7C376.1-0.9,340.6,25.9,340.4,64.3"/>
	</defs>
	<clipPath id="SVGID_2_">
		<use xlink:href="#SVGID_1_"  style="overflow:visible;"/>
	</clipPath>
	
		<linearGradient id="XMLID_8_" gradientUnits="userSpaceOnUse" x1="20.3884" y1="497.1194" x2="25.3776" y2="497.1194" gradientTransform="matrix(126.5456 0 0 -126.5456 -2566.2134 63009.2891)">
		<stop  offset="0" style="stop-color:#241F5D"/>
		<stop  offset="1" style="stop-color:#034EA1"/>
	</linearGradient>
	<rect id="XMLID_6_" x="13.8" y="-0.9" class="st0" width="631.4" height="203.9"/>
</g>
</svg>
