<?xml version="1.0" encoding="utf-8"?>
<!-- Generator: Adobe Illustrator 25.4.1, SVG Export Plug-In . SVG Version: 6.00 Build 0)  -->
<svg version="1.1" id="Lager_1" xmlns="http://www.w3.org/2000/svg" xmlns:xlink="http://www.w3.org/1999/xlink" x="0px" y="0px"
	 viewBox="0 0 42 42" style="enable-background:new 0 0 42 42;" xml:space="preserve">
<style type="text/css">
	.st0{fill:#FAC036;}
	.st1{fill:#E48C15;}
</style>
<path class="st0" d="M25.6,18.1c1.8-0.5,5.1-0.5,6.1-0.4c1.7,0.1,3.4,0.1,3.6,2.1c0.2,1.4-0.3,2.6-2.3,2.8c-0.7,0.1-1.6,0.1-2.3,0.2
	l-0.6,0.6c0.7-0.1,2.2-0.1,2.7-0.1c1.9-0.2,3.6,0.5,3.8,2.4c0.2,1.6-1,2.9-2.8,2.8c-0.6,0-2.3,0.2-4,0.2L29.7,29l-0.1,0.1
	c1.1,0,2.1,0.1,2.8,0.1c1.9,0.1,3,1.1,3,2.5c0,1.7-1.6,2.3-2.7,2.4c-0.8,0.1-3.9,0-5.9-0.2l-0.3,0.5c0.1,0,4,0.2,4.2,0.2
	c1.8,0.1,2.5,0.8,2.5,2c-0.1,1.8-2,2.3-3,2.4c-1.7,0.3-3.9,0.2-5.5,0.2c-3.5,0.1-10.7,0.3-14-2.7c-1.1-1-2.3-2.4-3.3-2.8
	c-2.1-0.8-2.2-3.5-2.1-6.9c0-1.6-0.5-6.2,1.5-7.3c2.8-1.6,7.5-2.7,9.1-4c2.6-2,4.1-5.3,4.8-7.2C22,4.6,22.4,2,24.7,2
	c4,0,3.9,3.6,4,5.4C28.7,11.2,24.4,17.7,25.6,18.1z"/>
<path class="st1" d="M33.4,28.3c0,0-4.2,0.1-6.8,0.2s-3.2-1.4-3.2-2c0-0.1,0-0.3,0-0.5c0-1.5,1.4-1.7,3.2-1.9
	c4.1-0.6,5.8-0.7,5.8-0.7c0.2,0,0.5,0,0.7,0c-0.1-0.1-0.3-0.2-0.3-0.4c0-0.1,0.2-0.5,0.2-0.5s-1.8,0.3-4.6,0.7
	c-2.7,0.4-4.8,0.2-5-1.4c-0.1-1.2,0.1-1.9,0.6-2.4c0.6-0.7,1.8-1.2,1.8-1.2s-0.1,0-0.2-0.1c-0.1-0.1-0.1-0.2-0.1-0.2
	c-2.2,0.3-3.8,1.8-3.7,3.6c0.1,0.8,0.2,1.4,0.5,1.8c0.2,1.6,0.1,5.3-4,8.1c0,0-0.7,0.5-0.4,0.8c0,0,0.2,0.4,1.2-0.4
	c0,0,2.2-1.5,3.5-4.4c0.4,0.8,1.1,1.1,1.1,1.2c-0.8,0-2.4,0.8-2.4,2.4c0,1.4,0.8,2.4,1.5,2.8c-0.5,0.1-1.5,0.8-1.5,2.2
	c0,2.1,1.6,2.9,2.8,3.1c1.2,0.2,4.6-0.1,5.6-0.2c0.6-0.1-2.9-0.1-5.5-0.5c-0.8-0.1-1.6-0.8-1.7-1.7c0,0-0.2-1.3,1-1.9
	c0,0,0.5-0.4,2.7-0.4h0.7c0.2,0,2.9,0.1,3.8,0.2c0.4,0,0.8,0.1,1.1,0.2c0-0.1-0.1-0.2-0.1-0.3c0-0.3,0.4-0.6,0.4-0.6h-0.5l-1.8-0.1
	c-1.8-0.1-4.6-0.1-4.9-0.2c0,0-1.8-0.5-1.8-2.3c0,0-0.1-1.6,2.3-1.6c0,0,5.8-0.3,8.3,0C33.2,29.2,32.8,28.6,33.4,28.3z"/>
</svg>
