<?xml version="1.0" encoding="utf-8"?>
<!-- Generator: Adobe Illustrator 25.4.1, SVG Export Plug-In . SVG Version: 6.00 Build 0)  -->
<svg version="1.1" id="Lager_1" xmlns="http://www.w3.org/2000/svg" xmlns:xlink="http://www.w3.org/1999/xlink" x="0px" y="0px"
	 viewBox="0 0 42 42" style="enable-background:new 0 0 42 42;" xml:space="preserve">
<style type="text/css">
	.st0{fill:#95A5A6;}
	.st1{fill:#E48C15;}
	.st2{fill:#A0616A;}
</style>
<path class="st0" d="M12.1,27.2c-1.4,0-2.5-1.1-2.5-2.5V13C9.6,6.7,14.7,1.6,21,1.6S32.4,6.7,32.4,13v10.3c0,1.4-1.1,2.5-2.5,2.5
	s-2.5-1.1-2.5-2.5V13c0-3.5-2.9-6.4-6.4-6.4s-6.4,2.9-6.4,6.4v11.7C14.6,26.1,13.5,27.2,12.1,27.2z"/>
<path class="st1" d="M33.2,16.6h-3.5h-21c-1.9,0-3.5,1.6-3.5,3.5v1.8v1.7v1.8v7v1.8v1.7v1.8c0,1.9,1.6,3.5,3.5,3.5h3.5h17.5h3.5
	c1.9,0,3.5-1.6,3.5-3.5v-3.5v-8.8v-1.8v-1.7v-1.8C36.7,18.2,35.1,16.6,33.2,16.6z"/>
<path class="st2" d="M25.4,25.2c0-2.4-2-4.4-4.4-4.4s-4.4,2-4.4,4.4c0,1.4,0.7,2.8,1.9,3.6v9.5h4.9v-9.5
	C24.7,28,25.4,26.6,25.4,25.2z"/>
</svg>
