<?xml version="1.0" encoding="utf-8"?>
<!-- Generator: Adobe Illustrator 25.4.1, SVG Export Plug-In . SVG Version: 6.00 Build 0)  -->
<svg version="1.1" id="Lager_1" xmlns="http://www.w3.org/2000/svg" xmlns:xlink="http://www.w3.org/1999/xlink" x="0px" y="0px"
	 viewBox="0 0 42 42" style="enable-background:new 0 0 42 42;" xml:space="preserve">
<style type="text/css">
	.st0{fill:#000000;}
</style>
<g>
	<path class="st0" d="M7.4,24.3c0.5-0.1,1-0.3,1.5-0.4c0.7-0.1,1.4-0.1,2.1-0.1c2.8,0,5.5,0,8.3,0c1.1-1.9,2.1-3.7,3.2-5.6
		c-0.3,0-0.4,0-0.6,0c-4,0-8.1,0-12.1,0c-0.9,0-1.7,0-2.4-0.5C7.4,19.9,7.4,22.1,7.4,24.3z M41.5,21c-2.1-0.9-4.2-1.8-6.2-2.7
		c-0.3-0.2-0.4,0.1-0.5,0.2c-1,1.7-1.9,3.3-2.9,5c-0.1,0.1-0.1,0.2-0.1,0.3c1.1,0,2.1,0,3.2,0c0.2,0,0.3-0.1,0.5-0.1
		c1.5-0.6,3-1.3,4.5-2C40.4,21.5,40.9,21.3,41.5,21z M27.8,18.2c-1.1,0-2.1,0-3.1,0c-0.3,0-0.4,0.1-0.6,0.3c-0.9,1.7-1.9,3.3-2.9,5
		c0,0.1-0.1,0.2-0.1,0.3c1.1,0,2.1,0,3.1,0c0.3,0,0.4-0.1,0.6-0.3c0.9-1.7,1.9-3.3,2.9-5C27.7,18.4,27.7,18.3,27.8,18.2z M33.1,18.2
		c-1.1,0-2.2,0-3.2,0c-0.2,0-0.4,0.2-0.5,0.3c-1,1.6-1.9,3.3-2.8,4.9c-0.1,0.1-0.1,0.2-0.2,0.4c1.1,0,2,0,3,0c0.3,0,0.5-0.1,0.7-0.3
		c0.6-1.1,1.2-2.1,1.8-3.2C32.3,19.6,32.7,18.9,33.1,18.2z"/>
	<path class="st0" d="M7.4,24.3c0-2.1,0-4.4,0-6.6c0.7,0.5,1.5,0.5,2.4,0.5c4,0,8.1,0,12.1,0c0.2,0,0.3,0,0.6,0
		c-1.1,1.9-2.2,3.7-3.2,5.6c-2.8,0-5.5,0-8.3,0c-0.7,0-1.4,0-2.1,0.1C8.4,23.9,7.9,24.1,7.4,24.3z"/>
	<path class="st0" d="M1.6,13.5l4.1,3c0,0,0,5.9,0,8.8l-4.1,3.2c-0.4,0.3-1.1,0.1-1.1-0.5v-5.7h2.7v-2.5H0.5V14
		C0.5,13.4,1.2,13.2,1.6,13.5z"/>
	<path class="st0" d="M41.5,21c-0.6,0.3-1.1,0.5-1.6,0.7c-1.5,0.7-3,1.3-4.5,2c-0.2,0.1-0.3,0.1-0.5,0.1c-1,0-2.1,0-3.2,0
		c0.1-0.1,0.1-0.2,0.1-0.3c0.9-1.7,1.9-3.3,2.9-5c0.1-0.2,0.2-0.4,0.5-0.2C37.3,19.2,39.3,20.1,41.5,21z"/>
	<path class="st0" d="M27.8,18.2c-0.1,0.1-0.1,0.2-0.2,0.3c-0.9,1.7-1.9,3.3-2.9,5c-0.1,0.2-0.3,0.3-0.6,0.3c-1,0-2,0-3.1,0
		c0.1-0.1,0.1-0.2,0.1-0.3c1-1.7,1.9-3.3,2.9-5c0.1-0.2,0.3-0.3,0.6-0.3C25.7,18.2,26.7,18.2,27.8,18.2z"/>
	<path class="st0" d="M33.1,18.2c-0.4,0.7-0.8,1.4-1.2,2.1c-0.6,1.1-1.2,2.1-1.8,3.2c-0.2,0.3-0.3,0.4-0.7,0.3c-1,0-2,0-3,0
		c0.1-0.2,0.1-0.3,0.2-0.4c0.9-1.6,1.9-3.3,2.8-4.9c0.1-0.1,0.3-0.3,0.5-0.3C31,18.2,32,18.2,33.1,18.2z"/>
</g>
</svg>
