<svg xmlns="http://www.w3.org/2000/svg" viewBox="0 0 1024 1024" style="enable-background:new 0 0 1024 1024" xml:space="preserve" width="1024" height="1024"><path d="M684.7 408.1c0-73.9-28.8-143.3-81-195.5s-121.7-81-195.5-81-143.3 28.8-195.5 81-81 121.7-81 195.5 28.8 143.3 81 195.5c52.2 52.2 121.7 81 195.5 81s143.3-28.8 195.5-81c52.2-52.1 81-121.6 81-195.5z" style="fill:none"/><path d="M981.4 921 695 634.7c20.3-25.7 37.1-53.9 49.9-84.3 19.1-45.1 28.7-93 28.7-142.3s-9.7-97.2-28.7-142.3c-18.4-43.5-44.8-82.6-78.3-116.2C633 116 594 89.7 550.4 71.3c-45.1-19.1-93-28.7-142.3-28.7s-97.2 9.7-142.3 28.7c-43.5 18.4-82.6 44.8-116.2 78.3-33.6 33.6-59.9 72.6-78.3 116.2-19.1 45.1-28.7 93-28.7 142.3s9.7 97.2 28.7 142.3c18.4 43.5 44.8 82.6 78.3 116.2 33.6 33.6 72.6 59.9 116.2 78.3 45.1 19.1 93 28.7 142.3 28.7s97.2-9.7 142.3-28.7c30.4-12.8 58.6-29.6 84.3-49.9L921 981.4l60.4-60.4zM408.1 684.7c-73.9 0-143.3-28.8-195.5-81-52.2-52.2-81-121.7-81-195.5s28.8-143.3 81-195.5 121.7-81 195.5-81 143.3 28.8 195.5 81 81 121.7 81 195.5-28.8 143.3-81 195.5c-52.1 52.2-121.6 81-195.5 81z" style="fill:#351408"/></svg>