<svg version="1.1" id="layer" xmlns="http://www.w3.org/2000/svg" xmlns:xlink="http://www.w3.org/1999/xlink" x="0px" y="0px" viewBox="0 0 965 507" width="965" height="507" style="enable-background:new 0 0 965 507;" xml:space="preserve">
<style type="text/css">
	.st0{fill:#DBDCDC;}
	.st1{fill:#FFFFFF;}
	.st2{fill:#003893;}
</style>
<path class="st0" d="M339.9,3.5c60.8,0,158.4,38.6,223.4,74.4c71.4,39.4,172.1,119.8,172.2,175.3c-0.1,59-103,137.1-172.2,175.3
	c-62.8,34.6-158.4,75-221.2,75c-16.6,0-30.2-2.8-40.4-8.4c-49.6-27.4-72.2-144.6-72.2-241.9c0-48.9,6.3-101.5,17.3-144.2
	C260,57.6,279,23.8,301.7,11.3C311.1,6.1,324,3.5,339.9,3.5"/>
<g>
	<g>
		<defs>
			<path id="SVGID_1_" d="M310.7,26.5c-41.5,22.9-64.3,137.4-64.3,226.7c0,90,21.5,203,64.3,226.7c38.9,21.4,144.7-10.2,244.4-65.1
				c85.6-47.2,163.4-117.4,163.5-161.5c-0.1-42.1-79.2-115.1-163.5-161.5C477.9,49.1,392.3,20.4,342,20.4
				C328.9,20.4,318.2,22.4,310.7,26.5"/>
		</defs>
		<use xlink:href="#SVGID_1_"  style="overflow:visible;fill:#F39500;"/>
		<clipPath id="SVGID_00000036223176402325540420000011199215765521014935_">
			<use xlink:href="#SVGID_1_"  style="overflow:visible;"/>
		</clipPath>
	</g>
</g>
<path class="st1" d="M608.3,297c-0.2,0-0.4-0.2-0.4-0.4v-41.9c0-9.3-3.2-13.3-10.6-13.3c-2.6,0-5.8,1-9,2.8
	c-3.1,1.8-5.6,3.3-6.5,3.9c-0.2,0.2-0.5,0.6-0.5,0.9v47.5c0,0.2-0.2,0.4-0.4,0.4h-18.7c-0.2,0-0.4-0.2-0.4-0.4v-67.3
	c0-1.1,0.9-2,2-2h17.1c0.2,0,0.4,0.2,0.4,0.4v5.3c0,0.3,0.3,0.6,0.6,0.6c0.1,0,0.3-0.1,0.3-0.1l0.6-0.4c2.1-1.6,5.3-3.4,7.4-4.2
	c4.7-1.8,9.7-2.8,13.8-2.8c15.2,0,23.3,8.8,23.3,25.3v45.3c0,0.2-0.2,0.4-0.4,0.4H608.3L608.3,297z"/>
<path class="st1" d="M642.7,297c-0.2,0-0.4-0.2-0.4-0.4V193.5c0-0.4,0.1-0.5,0.6-0.5c1.2,0,11.6,6.5,14.9,10.3
	c2.5,2.8,3.9,6.5,3.9,10.3v83.1c0,0.2-0.2,0.4-0.4,0.4L642.7,297L642.7,297z"/>
<path class="st2" d="M436.1,262.1c0,24.6-16.3,36.4-36.4,36.4c-20.2,0-36.4-11.8-36.4-36.4c0-25.2,16.3-36.4,36.4-36.4
	C419.8,225.7,436.1,236.9,436.1,262.1 M415.5,262.1c0-13.3-6.8-19.1-15.7-19.1c-9,0-15.8,5.8-15.8,19.1c0,12.2,6.8,19.1,15.8,19.1
	C408.7,281.2,415.5,274.3,415.5,262.1"/>
<path class="st2" d="M531,208.1c0-0.6-0.2-0.7-0.8-0.7c-1.4,0-11.9,6.7-15.1,10.3c-2.4,2.7-4,6.5-4,10.4v44.8
	c0,19.4,11.2,25.5,23.3,25.5c6.9,0,11.6-1,14.4-2.5c0.6-0.3,1.1-1,1.1-1.9v-12.7c0-0.4-0.3-0.7-0.7-0.7c-0.7,0-5.3,1.8-8.2,1.8
	c-6.2,0-10-2.9-10-12.8v-25.8c0-0.4,0.3-0.7,0.7-0.7h16.9c0.4,0,0.7-0.3,0.7-0.7l0,0v-13.3c0-1.2-1-2.2-2.2-2.2h-15.3
	c-0.4,0-0.7-0.3-0.7-0.7L531,208.1z"/>
<path class="st2" d="M287.3,229.2c0-1.2,1-2.2,2.3-2.2h26.6c26.1,0,39.6,15.7,39.6,35.9c0,20.3-15.1,34.3-40,34.3H308
	c-0.4,0-0.7,0.3-0.7,0.7v32.9c0,0.5-0.2,0.7-0.8,0.7c-1.3,0-11.9-6.7-15.1-10.3c-2.4-2.7-4-6.5-4-10.4L287.3,229.2L287.3,229.2z
	 M336,261.9c0-8.6-5.6-16.7-20.3-16.7h-7.8c-0.4,0-0.7,0.3-0.7,0.7v32.4c0,0.4,0.3,0.7,0.7,0.7h8.2C333.6,279,336,266.8,336,261.9"
	/>
<path class="st2" d="M492.3,259c-4.1-2.7-9.2-3.8-14-4.9c-0.9-0.2-4.1-0.9-4.8-1.1c-6-1.3-10.6-2.4-10.6-6.2c0-3.3,3.2-5.5,8.2-5.5
	c6.2,0,14.9,1.2,24.5,4.8c0.5,0.2,1.1-0.1,1.2-0.8v-13.8c0-0.9-0.6-1.9-1.7-2.2c-3.3-1.1-13.2-3.8-21.5-3.8c-9.3,0-17,2.1-22.4,6
	s-8.3,9.6-8.3,16.5c0,15.5,12.7,18.4,24.7,21.2c1.8,0.4,1.6,0.4,2.2,0.5c5.5,1.2,11.1,2.5,11.1,7c0,1.3-0.5,2.4-1.5,3.5
	c-1.5,1.5-3.9,2.2-8.4,2.2c-7.6,0-22-3.6-26.4-5c0,0-0.2,0-0.3,0c-0.5,0-0.9,0.4-0.9,0.8V292c0,1,0.6,1.8,1.5,2.2
	c0.1,0,12.6,4.2,24.5,4.2c20.7,0,31.4-8.1,31.4-22.9C500.7,268.2,498,262.8,492.3,259"/>
<path class="st1" d="M368.9,209c-1.7,0-2.4-0.8-2.4-2.8v-7.5c0-1.7,1.5-3.1,3.2-3.1h60c1.7,0,3.2,1.4,3.2,3.1v7.5
	c0,2-0.7,2.8-2.4,2.8H368.9z M423.2,187.9c-0.6,0-1.1-0.2-1.3-0.5c-0.3-0.4-0.3-0.9,0-1.6c2-6.2,8.7-25,8.8-25.2
	c0.4-1.2,0-2.9-1.3-3.4l-3.4-1.1c-0.2-0.1-0.5-0.1-0.7-0.1c-0.7,0-1,0.3-1.2,0.7c-1.4,3.1-2.2,5.3-3.3,8.9c-0.2,0.6-0.7,0.9-1.6,0.9
	h-6.6c-0.5,0-0.8-0.1-1-0.4c-0.2-0.3-0.2-0.6-0.1-1.1c1.7-6.1,3.5-11,5.9-16.4c0.4-0.9,1.5-2.5,3.7-2.5c0.4,0,0.8,0.1,1.3,0.2h0.1
	c2.3,0.5,4.8,1.1,7.5,1.9c2.1,0.6,4.3,1.4,6.5,2.2c6.8,2.5,6.5,7.4,5.2,12.3c-0.8,3-4.8,14-7.1,20.6c-0.5,1.4-0.9,2.6-1.2,3.4
	c-0.3,0.8-0.9,1.1-1.9,1.1h-8.3V187.9z M395.5,187.9c-1.5,0-1.6-1.6-1.6-1.7c0-0.3-0.4-35.5-0.5-40.2c0-0.4,0.1-1.1,0.6-1.6
	c0.3-0.3,0.6-0.4,1-0.4c0.7,0,2.5-0.1,4.7-0.1s4,0.1,4.7,0.1c0.4,0,0.8,0.1,1,0.4c0.5,0.5,0.6,1.3,0.6,1.6
	c-0.1,4.8-0.5,39.9-0.5,40.2c0,0-0.1,1.7-1.6,1.7H395.5z M368,187.9c-1,0-1.7-0.4-1.9-1.1c-0.3-0.8-0.7-2-1.2-3.4
	c-2.4-6.6-6.3-17.6-7.1-20.6c-1.3-4.9-1.6-9.8,5.2-12.3c2.2-0.8,4.4-1.6,6.5-2.2c2.7-0.8,5.2-1.4,7.5-1.9h0.1
	c0.4-0.1,0.9-0.2,1.3-0.2c2.2,0,3.3,1.6,3.7,2.5c2.4,5.4,4.2,10.3,5.9,16.4c0.1,0.5,0.1,0.9-0.1,1.1c-0.2,0.2-0.5,0.4-1,0.4h-6.6
	c-0.9,0-1.4-0.3-1.6-0.9c-1.1-3.7-1.9-5.8-3.3-8.9c-0.1-0.3-0.5-0.7-1.2-0.7c-0.2,0-0.4,0-0.7,0.1l-3.4,1.1
	c-1.3,0.5-1.7,2.1-1.3,3.4c0.1,0.2,6.8,19,8.8,25.2c0.2,0.7,0.2,1.3,0,1.6s-0.7,0.5-1.3,0.5H368V187.9z M399.7,136.7
	c-0.4,0-0.8-0.2-1.2-0.5c-2.8-2.2-5.4-4.8-7.6-7.7c-0.2-0.3-0.8-1,0-1.8c2.4-3,5.1-5.7,8.1-8c0.3-0.2,0.5-0.2,0.7-0.2s0.4,0,0.7,0.3
	c3,2.3,5.7,5,8.1,8c0.6,0.7,0.3,1.3,0,1.8c-2.2,2.9-4.8,5.5-7.6,7.7C400.5,136.5,400.1,136.7,399.7,136.7L399.7,136.7z"/>
</svg>
