<svg xmlns="http://www.w3.org/2000/svg" width="100" height="28.525" viewBox="2 2 100 28.525"><path fill="#CC0001" d="M16.423 30.525h70.833c1.603 0 3.526-.32 4.808-.64C97.834 27.96 102 22.513 102 16.103S97.834 4.564 92.064 2.64C90.782 2.321 88.86 2 87.256 2H16.423C8.41 2 2.001 8.41 2.001 16.103c0 8.012 6.41 14.422 14.422 14.422z"/><path fill="#FFF" d="M79.565 10.013h9.615v2.564h-3.205v9.294H82.77v-9.294h-3.205v-2.564zM44.307 16.744c.642 0 1.603 0 2.244-.321.641-.32 1.282-.64 1.282-1.923 0-.962-.64-1.603-1.602-1.923-.962-.32-1.924 0-1.924 0v4.167zm-3.204-6.731c.32 0 5.448-.32 7.051.32 1.603.641 2.564 1.923 2.564 4.167 0 2.564-.961 3.525-2.243 4.166-.962.321-2.244.642-4.168.642v2.563h-3.204V10.013zM53.282 16.43c0 3.699 3.026 6.724 7.06 6.724 3.697 0 6.722-3.025 6.722-6.723 0-4.034-3.025-7.06-6.722-7.06-4.034 0-7.06 3.026-7.06 7.06zm10.421-.335c0 3.025-2.017 4.034-3.36 4.034-1.683 0-3.7-1.009-3.7-4.034 0-2.69 2.017-3.698 3.7-3.698 1.679 0 3.36 1.008 3.36 3.698zM72.834 24.756l-1.604-2.564c1.283-.641 2.565-1.282 2.565-3.205 0-.962-1.283-1.602-1.924-1.923-.64-.961-.96-1.282-1.281-2.244-.64-1.282-.32-2.884.64-3.846.641-.32 1.283-.961 2.245-.961.96-.32 2.243 0 3.205 0v2.243c-1.924 0-3.205 0-3.205 1.603 0 .32.32.641.64 1.282.641.32 2.565 1.282 2.885 3.525.32.962 0 2.244-.64 3.205-.642.962-1.924 1.924-3.526 2.885z"/><path fill="#323498" d="M16.423 2C8.41 2 2.001 8.41 2.001 16.103h3.205c0-6.09 4.807-11.218 11.218-11.218V2z"/><path fill="#309932" d="M16.424 2c7.692 0 14.102 6.41 14.102 14.103h-3.205c0-6.09-4.808-11.218-10.897-11.218V2z"/><path fill="#FDFE00" d="M18.667 20.59c-.32 0-.641.32-.641.64v.32c.32 0 .64-.32.64-.64v-.32zm-4.487 2.564h-.32c-.321 0-.321 0-.321-.32h.32c-.64-.321-.962-.321-1.282-.642l-.32-.32.962-.642.32-.32c0 .32.32.64.64.64-.32-.32-.32-.64-.64-.96h.32v-.32l.642.64s.32-.32.32 0l-.641 2.244zm-.962-6.41c.641-.962 1.603-1.603 3.205-1.603 1.283 0 2.244.641 2.885 1.603v.32c-.641-.961-1.923-1.923-2.885-1.923-1.282 0-2.564.962-3.205 1.923v-.32zm3.205.961c-.32 0-.64 0-.961.32l-1.603-.64c.641-.962 1.282-1.603 2.564-1.603.962 0 1.923.64 2.244 1.603l-1.603.64c0-.32-.32-.32-.64-.32zm.32.64h-.32c-.32 0-.64.321-.64.321-.32-.32.64-.64.96-.32zm3.206-2.242s0 .32.32.32h-.32c-.64-.962-2.243-1.923-3.526-1.923-1.602 0-3.205.961-3.846 1.923 0 0 0-.32.32-.32h-1.602c.32-.962.32-1.283.32-1.283-.64 0-1.282.321-2.243.962-.641.32-1.602.962-1.923 1.282 1.923.32 2.885 2.244 3.846 3.526l-.32.32h.32l-.32.32.32.32 1.282-.64-.961.64v.321l1.602-.96.32-.642 2.885-1.282h.32c0 .32-.32.32-.64.32l-.32.32H17.063v-.32l.32-.32v-.321h-.64l3.525-1.922c0 .32.32.32.32.64.321-.64.963-1.282.963-1.602 0 0-.962.32-1.603.32zM9.372 15.46c-.961.642-1.923 1.283-2.244 1.603-.32.32-.32.32-.64 0l.32-.32c.641-.321 1.282-.962 2.244-1.603.961-.32 1.923-.961 2.884-1.282.321 0 .321 0 .321.32l-.32.32c-.642 0-1.603.642-2.565.962zm5.77 3.205v.321l-1.282.962c-.321-.321-.321-.962-.321-1.283v-.96l-.32-.321c-.322.32-.322.96-.322 1.281 0 .321 0 .962.321 1.284h-.32c0-.322-.32-.963-.32-1.284 0-.32.32-.96.32-1.281l-.641-.32c0 .64-.32.96-.32 1.601v-.321c-.321-.64-.321-1.28-.642-1.601 0-.321-.32-.321-.32-.641v-.32c0 .32.64.96.961 1.602.321-.32.321-.32.321-.641l2.884 1.602v.32zm6.089 0l-.32-.32h-.321v1.923l-.32-.32c0-.321.32-.641.32-1.283 0-.32 0-.64-.32-1.281v-.32l-.641.32c.32.32.32.96.32 1.281 0 .321 0 .642-.32 1.283v-.32-.963-1.281l-.642.32v1.923h-.32l-1.282-.64v.32l.961.641.641.961 1.603.64v-.32l-1.282-.32.32-.32 1.283.64h.32l-.32.32h-.321l.32.32-1.923-.96-.961.961-.32 1.283c1.281-.641 1.922-1.283 1.922-1.283l-.32 1.283c0 .32.32.64.961.64s.962-.32.962-.64v-.962.32l.32.642c0 .32-.32.32-.32.64h-.962v.321c0 .32.32.641.962.641.641 0 .962-.32.962-.64 0 0-.321-1.924-.321-2.245 0-.32 0-.32-.32-.32.32 0 .32-.32.32-.32 0-.32-.32-.32-.641-.32h.32c0-.321-.32-.321-.32-.321v-1.603c.32 0 .641-.642.32-.962l-.32-.32h-.641v.32h.32s.321 0 .321.32v.321zm.641-1.281c.32 0 .962-.32.962-.641h.64c0-.321 0-.321-.64-.962-.641-.32-.641-.32-.962-.32 0 .32 0 .32.32.64-.32.32-.64.642-.64.962l-.321.32v-.32c-.32 0-.32 0-.32.32.32 0 .32 0 .32.321.32 0 .32 0 .32.32h.321s.32 0 0-.32v-.32zm-4.487 5.77v.32c-.32 0-.32 0-.32-.32l.32-1.925c.32-.64.32-.64.961-.64 0 0-.32 0-.32.32l-.641 2.244zm0-1.925l-.641 2.245s0 .32-.32.32v-.32l.32-1.924c.32-.32.32-.64.32-.64.32 0 .32.32.32.32zm-1.282.32l-.64 1.925s-.322.32-.322 0h-.32l.64-1.924.321-.32c.321 0 .321 0 .321.32zm-1.282 1.604c0 .32-.32.32-.32.32-.321 0-.321 0-.321-.32l.961-1.923s0-.32.321-.32v.32l-.641 1.923zm1.282.32s0 .32-.32.32v-.32l.32-1.923.32-.32c.32 0 .32 0 .32.32l-.64 1.924zm-.32-13.14s0 .32 0 0c-.642-.321-.642 0-.642.64 0 .32.321.641.641.32.321.642-.961.962-.961.321.32 0 0-.641 0-.641 0-.32-.32-.64-.641-.32v-.32c.32-.321 0-.321-.32-.321-.321-.641.64-.962 1.602-.32h.32l-.32-.321c0-.32 0-.32-.32-.32v.32s0-.32-.321-.32V8.73l-.32.32c0-.32-.321-.32-.321-.32s-.32 0-.32.32h-.641c0 .32 0 .32.32.32-.32.321-.32.963.32 1.283-.32.32-.32.64 0 .64 0 .321.32.321.32.321 0 .641-.64.641-.96 0v-.32c0-.321-.322-.321-.322-.321-.32-.64-.32-1.282.321-1.282v-.32h-.32c0-.32 0-.32-.32-.32 0 0-.321 0-.321.32h.32l-.32.32c-.32 0-.32 0-.32.32h.32v.322l-.32.32.32.32v-.32c0 .32.32.32.32.32-.32 0-.32.32-.32.32h.32c.32 0 .32.321.641.962 0 .321 0 .321.32.321.641 0 1.924-.32 2.885-.32.641 0 1.923.32 2.564.32.32 0 .32 0 .641-.32 0-.642 0-.962.32-.962h.321s0-.321-.32-.321c.32 0 .32 0 .32-.32v.32c.321 0 .321-.32.321-.32s0-.32-.32-.32v-.321h.32v-.32h-.32V9.37c0-.32-.321-.32-.321-.32s-.32 0-.32.32h-.32v.321c.64 0 .96.641.32 1.282 0 0-.32 0-.32.32v.321c-.322.641-.963.641-.963 0 .32 0 .32 0 .641-.32 0 0 0-.321-.32-.641.641-.32.641-.962.32-1.283.321 0 .321 0 .321-.32h-.641c0-.32 0-.32-.32-.32v.32h-.321s0-.32-.32-.32v.32l-.321.32v-.32c-.32 0-.32 0-.32.32v.321c.96-.64 1.922-.32 1.602.32-.32 0-.32 0-.32.322v.32c-.32-.32-.641 0-.641.32 0 0-.321.641.32.641-.32.641-1.603.32-1.282-.32.64.32.64 0 .64-.321.322-.64 0-.962-.64-.64 0 .32 0 0 0 0 .32-.642 0-.642-.32-.642s-.962 0-.642.642zm3.525 2.563v.962c-.962 0-1.923-.32-2.885-.32-1.282 0-2.243.32-3.205.32v-.962c.641-.32 2.244-.32 3.205-.32.641 0 2.244 0 2.885.32zm-2.564.641v-.64h-.32v.32h-.642l.321.32h.64zm-2.564 0c.32 0 .32 0 .32-.32l-.32.32s0-.32-.32-.32l.32.32zm4.166 0l.32-.32c-.32 0-.32.32-.32.32l-.32-.32c0 .32.32.32.32.32zm-1.923-6.73v.32h.32s0 .32-.32.32h.641c.32 0 .32 0 .32.32h-.32c0 .322 0 .322-.32.322v-.321h-.32v.32c.32 0 .64.321.64.642 0 .32-.32.64-.64.64-.642 0-.962-.32-.962-.64 0-.321.32-.641.64-.641v-.321h-.32v.32s-.32 0-.32-.32h-.32c0-.32.32-.32.32-.32h.641l-.32-.321h.32v-.32h.32z"/><path fill="#FDFE00" d="M30.526 16.103c0 8.012-6.41 14.422-14.102 14.422V27.32c6.089 0 10.897-4.807 10.897-11.217h3.205z"/></svg>