<svg xmlns="http://www.w3.org/2000/svg" width="120" height="56"><g fill="#FF8000"><path d="M41.4 25.3c.5-4.5 3.8-7.7 8.4-7.7s8 3.2 8.4 7.7h7.3C65 17 58.3 10.6 49.9 10.6S34.7 17 34.2 25.3h7.2zm-16.9 1.8c-.2 4.9-3.8 8.3-8.6 8.3S7.5 32 7.4 27.1H0v28.6h7.3V39h.1c2 2 4.8 3.4 8.8 3.4 8.6 0 15.3-6.5 15.5-15.3h-7.2zM7.4 25.3c.4-4.6 3.9-7.7 8.5-7.7s8.1 3.2 8.6 7.7h7.3c-.5-8.4-6.8-14.7-15.2-14.7-4 0-7.2 1.5-9.1 3.5h-.2v-2.9H0v14.1h7.4zm101.5 16.5h7.3V27.1h-7.3v14.7zm-15.9 0h7.3V27.1H93v14.7zm-8.5-14.7H70.3c1.5 1 3.9 2.2 5.4 2.8 3 1.1 4.1 1.8 4.1 3.2 0 1.4-1.6 2.2-3.6 2.2-2.4 0-4.1-.9-5.8-2.4l-4.8 4.8c2.8 2.8 5.7 4.7 10.7 4.7 5.3 0 10.8-3.8 10.8-9.5 0-2.5-1.1-4.4-2.6-5.8zm-26.2 0c-.2 4.9-3.6 8.3-8.5 8.3-4.8 0-8.3-3.5-8.5-8.3H34c.2 8.5 7.1 15.3 15.7 15.3s15.5-6.8 15.7-15.3h-7.1zm57.9-15.9h-7.3v14.1h7.3V11.2zM93 25.3h7.3v-7.7h6.7v-6.4h-6.7V.3H93v10.9h-5.5v6.4H93v7.7zm-10.5 0c-1.4-.9-3.1-1.6-4.6-2.1-2.8-1-4.1-1.7-4.1-3.3 0-1.3 1.3-2.2 3-2.2 1.8 0 3.6.7 5.1 2.1l4.7-5.1c-2.8-2.6-5.7-4-9.8-4-4.2 0-9.9 3.3-9.9 9.5 0 2.1.7 3.8 1.8 5.1h13.8zM115.1 2c-.5 0-1.6.9-1.6 4.4 1.1-.9 2.2-2.7 2.2-3.7-.1-.5-.2-.7-.6-.7zm-4.7 2.3c-.4 0-.6.3-.6.7 0 1 1 1.6 2.1 1.8v-.3c0-1.2-.6-2.2-1.5-2.2zM107.8 7c.9.7 1.6 1.4 2.4 1.4.4 0 .6-.1.8-.2-1.7-.5-2.7-1.9-2.7-3.2 0-1.2.8-2.1 2.1-2.1.8 0 1.4.4 1.9.8.5-2 1.7-3.1 3-3.1 1.2 0 1.8.9 1.8 2.2 0 1.6-1.5 4.2-3.3 5.2.2.3.5.5 1 .5 1.6 0 3-1.4 3.9-2.5.2-.2.4-.3.6-.3.4 0 .7.3.7.7 0 .2-.1.4-.2.5-.9 1-2.7 3-5 3-1 0-1.8-.5-2.2-1.1-.6.7-1.4 1.1-2.4 1.1s-2-.7-2.9-1.4c-.4-.3-.9-.7-1.2-.9-.3-.3-.6-.4-.7-.4-.6 0-.8-.4-.8-.8s.3-.7.8-.7c.4 0 .8.2 1.2.4.4.2.8.5 1.2.9z"/></g></svg>