<svg version="1.1" id="Lager_1" xmlns="http://www.w3.org/2000/svg" x="0" y="0" viewBox="0 0 150 150" style="enable-background:new 0 0 150 150" xml:space="preserve"><style>.st1{fill:#ffb406}</style><path d="M75 143.9c1.2-.6 33.3-14.5 43.5-22.8 10.5-8.6 16-21 16-35.8V16l-.9-.3C108 1.8 76.2 2.7 74.7 2.7c-1.2 0-33-.9-58.6 12.9l-.6.4v69.7c0 14.8 5.5 27.1 16 35.8 10.2 8.2 42.3 22.1 43.5 22.4" style="fill:#341b14"/><path class="st1" d="M75 145.5s-33.9-14.8-44.4-23.1c-11.1-9.2-16.3-21.9-16.3-36.4V13.8C41.1-.7 75 .6 75 .6s33.9-1.2 60.7 13.3v71.8c0 14.5-5.2 27.1-16.3 36.4-10.5 8.6-44.4 23.4-44.4 23.4M19.2 86c0 13.6 4.9 24.7 14.5 32.4 8.6 7.1 34.2 18.5 41.3 21.6 7.1-3.1 33-14.8 41.3-21.6 9.6-7.7 14.5-19.1 14.5-32.4V15C95 11.7 52.5 13.5 19.2 44.3V86z"/><path class="st1" d="M109.2 75.8c4.6 2.8 6.5 4.6 6.8 8 0 3.7-2.5 5.9-6.5 5.9-3.4 0-7.4-1.8-10.2-4.3v9.9c3.4 1.8 7.4 3.4 11.7 3.4 10.5 0 15.4-7.4 15.4-14.2.3-6.2-1.5-11.1-10.5-16.3-4-2.5-7.1-4-7.1-7.7s3.4-5.2 6.2-5.2c3.7 0 7.4 2.2 9.6 4.3v-9.2c-1.8-1.5-5.9-3.7-11.7-3.4-7.1.3-14.5 5.2-14.5 13.9.3 5.6 2.2 10 10.8 14.9M72.8 98c.9.3 2.5.6 4.9.6 12 0 18.8-10.8 18.8-26.2 0-15.7-7.1-25.3-19.7-25.3-5.9 0-10.5 1.2-14.5 3.7v69.7h10.5V98zm0-41.9c.9-.3 2.5-.9 3.7-.9 6.2 0 8.6 4.9 8.6 17 0 11.7-3.1 17.3-9.2 17.3-1.5 0-2.8-.3-3.4-.6V56.1h.3zM40.5 98.6c6.5 0 12-1.5 16-4.3V47.7H45.7v40.4c-1.2.9-2.8 1.2-4.9 1.2-4.9 0-5.5-4.6-5.5-7.4V47.7H24.4v33.6c0 11.4 5.6 17.3 16.1 17.3m71.8 41.6v7.1h1.2v-2.8h.3l1.8 2.8h1.5s-1.8-2.8-2.2-3.1c.9-.3 1.5-.9 1.5-1.8s-.6-2.2-2.5-2.2h-1.6zm1.9.9c.9 0 1.2.6 1.2.9 0 .6-.3 1.2-1.5 1.2h-.3V141h.6v.1z"/><path class="st1" d="M119.1 143.6c0 2.5-2.2 4.6-4.6 4.6s-4.6-2.2-4.6-4.6c0-2.5 2.2-4.6 4.6-4.6 2.7 0 4.6 2.1 4.6 4.6m-4.6-5.8c-3.1 0-5.9 2.5-5.9 5.9 0 3.1 2.5 5.9 5.9 5.9 3.1 0 5.9-2.5 5.9-5.9-.1-3.2-2.9-5.9-5.9-5.9"/></svg>