<svg version="1.1" id="Lager_1" xmlns="http://www.w3.org/2000/svg" xmlns:xlink="http://www.w3.org/1999/xlink" x="0px" y="0px" viewBox="0 0 224.4 50.2" style="enable-background:new 0 0 224.4 50.2;" xml:space="preserve" width="224.4" height="50.2">
<style type="text/css">
	.st0{fill-rule:evenodd;clip-rule:evenodd;fill:#FCC310;}
	.st1{fill-rule:evenodd;clip-rule:evenodd;fill:#231F20;}
</style>
<g>
	<path class="st0" d="M0,50.2h224V0.6H0V50.2z"/>
	<g>
		<path class="st1" d="M186.5,34.8c-14.1,0-19.6-12.3-18.8-21.6l4.1-1.3c-0.7,5.3,1,9.1,2.1,10.8c-1.3-7.5,4.3-13.5,11.4-13.5
			c6.4,0,11.6,4.6,11.6,11.3c0.9-2.5,1.6-6.4,1.7-9.1l9.6,2.4C207.4,24.9,199,34.8,186.5,34.8L186.5,34.8z M200.2,41.2l-5.4-5.5h5.4
			l5.4,5.5H200.2z M193,41.2l-5.4-5.5h5.4l5.4,5.5H193z M180.9,41.2h-5.4l5.4-5.5h5.4L180.9,41.2z M168.2,41.2l5.4-5.5h5.4l-5.4,5.5
			H168.2L168.2,41.2z M185.3,13.1c-4.2,0-7.6,3.4-7.6,7.6c0,4.2,3.4,7.6,7.6,7.6c4.2,0,7.6-3.4,7.6-7.6
			C192.9,16.5,189.5,13.1,185.3,13.1 M156.7,35.9c-2.4,0-3.8-1.5-3.8-3.9V26h-2.3v-2.3h2.3v-2.4l3.1-1v3.4h2.7V26H156v5.6
			c0,1,0.3,2,1.5,2c0.6,0,1.1-0.1,1.4-0.3l0.1,2.4C158.3,35.8,157.6,35.9,156.7,35.9L156.7,35.9z M144.6,35.9
			c-1.2,0-2.4-0.2-3.5-0.5l0.2-2.5c1,0.5,2,0.8,3.1,0.8c0.8,0,2-0.3,2-1.5c0-2.3-5.4-0.7-5.4-5c0-2.6,2.2-3.7,4.7-3.7
			c1.5,0,2.4,0.2,3.4,0.4l-0.2,2.3c-1-0.3-1.6-0.5-2.8-0.5c-0.8,0-1.8,0.3-1.8,1.3c0,1.9,5.4,0.7,5.4,5
			C149.6,34.8,147.1,35.9,144.6,35.9L144.6,35.9z M133.4,35.9c-3.9,0-6.2-2.7-6.2-6.2c0-3.9,2.7-6.3,6.2-6.3c3.5,0,6.2,2.4,6.2,6.3
			C139.7,33.2,137.4,35.9,133.4,35.9z M121,29.5h-1.4v6.1h-3.2V19.5h4.1c3.5,0,6.7,1,6.7,4.9C127.2,28.1,124.5,29.5,121,29.5
			L121,29.5z M104.8,33.6c1.5,0,2.8-0.6,4-1.2V35c-1.1,0.6-2.4,0.9-4.1,0.9c-3.9,0-6.2-2.3-6.2-6.2c0-3.4,1.8-6.3,5.5-6.3
			c4.4,0,5.7,3,5.7,7.2h-8.2C101.5,32.6,102.8,33.6,104.8,33.6L104.8,33.6z M96.9,35.6h-3.1v-6.4c0-1.5,0-3.4-2-3.4
			c-2.2,0-2.7,2.4-2.7,4v5.8H86V18.3h3.1v7.1h0c0.8-1.2,2.1-1.9,3.7-1.9c2.8,0,4.1,2,4.1,4.7L96.9,35.6L96.9,35.6z M81.2,35.9
			c-3.9,0-5.9-2.7-5.9-6.3c0-3.4,2-6.2,5.8-6.2c1.2,0,2.1,0.1,3,0.4l-0.3,2.5c-0.6-0.3-1.2-0.4-2.1-0.4c-1.9,0-3.2,1.5-3.2,3.8
			c0,2.2,1,3.9,3.2,3.9c0.9,0,1.9-0.3,2.4-0.6l0.1,2.6C83.4,35.8,82.5,35.9,81.2,35.9L81.2,35.9z M69.2,35.9c-1.2,0-2.4-0.2-3.5-0.5
			l0.2-2.5c1,0.5,2,0.8,3.1,0.8c0.8,0,2-0.3,2-1.5c0-2.3-5.4-0.7-5.4-5c0-2.6,2.2-3.7,4.7-3.7c1.4,0,2.4,0.2,3.4,0.4l-0.2,2.3
			c-0.9-0.3-1.6-0.5-2.8-0.5c-0.8,0-1.8,0.3-1.8,1.3c0,1.9,5.4,0.7,5.4,5C74.2,34.8,71.7,35.9,69.2,35.9L69.2,35.9z M61.9,35.9
			c-2.4,0-3.8-1.5-3.8-3.9V26h-2.3v-2.3h2.3v-2.4l3.1-1v3.4H64V26h-2.8v5.6c0,1,0.3,2,1.5,2c0.6,0,1.1-0.1,1.4-0.3l0.1,2.4
			C63.5,35.8,62.8,35.9,61.9,35.9L61.9,35.9z M54.4,35.6h-2.9V34h0c-1,1.2-2.3,1.9-3.9,1.9c-2.8,0-4-2-4-4.7v-7.5h3.1v6.4
			c0,1.5,0,3.4,2,3.4c2.2,0,2.7-2.4,2.7-4v-5.8h3.1L54.4,35.6L54.4,35.6z M37.2,33.6c1.5,0,2.8-0.6,4-1.2V35
			c-1.1,0.6-2.4,0.9-4.1,0.9c-3.9,0-6.2-2.3-6.2-6.2c0-3.4,1.8-6.3,5.5-6.3c4.4,0,5.7,3,5.7,7.2h-8.2C33.9,32.6,35.3,33.6,37.2,33.6
			L37.2,33.6z M20.3,35.6h-4.4V19.5h4.4c4.9,0,9.3,1.7,9.3,8.1C29.6,34,25.2,35.6,20.3,35.6L20.3,35.6z M36.6,25.7
			c-1.7,0-2.6,1.2-2.8,2.8h5.3C39,27,38.3,25.7,36.6,25.7L36.6,25.7z M20.9,22h-1.8v11.1h1.8c2.7,0,5.3-2,5.3-5.5
			C26.2,24,23.6,22,20.9,22z M120.7,22h-1.1V27h1.1c1.6,0,3.1-0.5,3.1-2.4C123.8,22.7,122.4,22,120.7,22L120.7,22z M133.4,25.8
			c-2,0-3,1.8-3,3.5c0,2,0.6,4.1,3,4.1c2.4,0,3-2.1,3-4.1C136.4,27.6,135.4,25.8,133.4,25.8L133.4,25.8z M104.1,25.7
			c-1.7,0-2.6,1.2-2.8,2.8h5.3C106.5,27,105.9,25.7,104.1,25.7"/>
	</g>
</g>
</svg>
