<?xml version="1.0" encoding="utf-8"?>
<!-- Generator: Adobe Illustrator 25.4.1, SVG Export Plug-In . SVG Version: 6.00 Build 0)  -->
<svg version="1.1" id="Lager_1" xmlns="http://www.w3.org/2000/svg" xmlns:xlink="http://www.w3.org/1999/xlink" x="0px" y="0px"
	 viewBox="0 0 42 42" style="enable-background:new 0 0 42 42;" xml:space="preserve">
<style type="text/css">
	.st0{fill:#FFC107;}
	.st1{fill:#00b87a;}
	.st2{fill:#35140A;}
	.st3{fill:#86e3c3;}
	.st4{fill:#BCAAA4;}
</style>
<g>
	
		<g transform="matrix(0.9994433522224426,0.03336082398891449,-0.03336082398891449,0.9994433522224426,1.2143478393554688,-1.1252212524414062)">
		<g transform="matrix(1,0,0,1,37,25)">
			<path class="st0" d="M0.7,6.5l-12.4,0.4l-0.6-19.5l9.4-0.3c0.8,0,1.4,0.4,1.7,1.2l3.5,9.4l0.2,7.1C2.5,5.7,1.7,6.5,0.7,6.5"/>
		</g>
		<g transform="matrix(1,0,0,1,16,21.5)">
			<path class="st1" d="M9.3,10.3L-12,10.9c-1,0-1.8-0.7-1.9-1.7L-14.6-13c0-1,0.7-1.8,1.7-1.9l19.5-0.6c1,0,1.8,0.7,1.9,1.7
				L9.3,10.3z"/>
		</g>
		<g transform="matrix(1,0,0,1,37.5,20.5)">
			<path class="st2" d="M-1.8,1.3L-8,1.5c-0.5,0-0.9-0.4-0.9-0.9l-0.2-6.2c0-0.5,0.4-0.9,0.9-0.9l4.4-0.2c0.4,0,0.7,0.3,0.9,0.6
				L-1-0.8c0,0.1,0.1,0.2,0.1,0.3l0,0.9C-1,0.9-1.4,1.3-1.8,1.3"/>
		</g>
		<g transform="matrix(1,0,0,1,16,21)">
			<path class="st3" d="M-14.2-5.3L8.9-6L9,1.1l-23,0.7L-14.2-5.3z"/>
		</g>
	</g>
	<g transform="matrix(1,0,0,0.972472608089447,0,1.1286239624023438)">
		<g transform="matrix(1,0,0,1,37,36)">
			<path class="st2" d="M-0.4-4.3c0,2.5-1.9,4.4-4.4,4.4s-4.4-1.9-4.4-4.4s1.9-4.4,4.4-4.4S-0.4-6.8-0.4-4.3"/>
		</g>
		<g transform="matrix(1,0,0,1,37,36)">
			<path class="st4" d="M-3.1-4.3c0,1-0.8,1.8-1.8,1.8s-1.8-0.8-1.8-1.8s0.8-1.8,1.8-1.8S-3.1-5.3-3.1-4.3"/>
		</g>
	</g>
	<g transform="matrix(1,0,0,1,0,-0.10425186157226562)">
		<g transform="matrix(1,0,0,1,13,36)">
			<path class="st2" d="M2.3-4.1c0,2.5-1.9,4.4-4.4,4.4s-4.4-1.9-4.4-4.4s1.9-4.4,4.4-4.4S2.3-6.6,2.3-4.1"/>
		</g>
		<g transform="matrix(1,0,0,1,13,36)">
			<path class="st4" d="M-0.3-4.1c0,1-0.8,1.8-1.8,1.8s-1.8-0.8-1.8-1.8s0.8-1.8,1.8-1.8S-0.3-5.1-0.3-4.1"/>
		</g>
	</g>
</g>
</svg>
