<?xml version="1.0" encoding="utf-8"?>
<!-- Generator: Adobe Illustrator 27.9.0, SVG Export Plug-In . SVG Version: 6.00 Build 0)  -->
<svg version="1.1" id="Lager_1" xmlns="http://www.w3.org/2000/svg" xmlns:xlink="http://www.w3.org/1999/xlink" x="0px" y="0px"
	 viewBox="0 0 42 42" style="enable-background:new 0 0 42 42;" xml:space="preserve">
<style type="text/css">
	.st0{fill:#000000;}
</style>
<g id="NM9RYt_00000001629183719022737320000010637933185992406966_">
	<g>
		<path class="st0" d="M28.8,33.5c3.7,0,7.1,0,10.6,0c0,1.2,0,2.3,0,3.6c-0.2,0-0.5,0-0.7,0c-6.7,0-13.4,0-20.1,0
			c-8.3,0-15.2-6.3-16-14.6C1.8,13.6,8.3,5.9,17.1,5c8.8-0.9,16.7,5.6,17.5,14.4c0.5,5.3-1.3,9.8-5.1,13.5
			C29.3,33,29.1,33.2,28.8,33.5z M31.1,21c0-6.9-5.6-12.5-12.5-12.5C11.7,8.5,6.1,14.1,6.1,21c0,6.9,5.6,12.4,12.5,12.4
			C25.5,33.5,31.2,27.9,31.1,21z"/>
		<path class="st0" d="M25.2,21c0,3.6-2.9,6.6-6.5,6.6c-3.6,0-6.6-2.9-6.6-6.5c0-3.6,2.9-6.6,6.5-6.6C22.2,14.5,25.2,17.4,25.2,21z
			 M21.6,21c0-1.6-1.3-3-3-3c-1.6,0-3,1.4-3,3c0,1.6,1.3,3,3,3C20.2,24,21.6,22.6,21.6,21z"/>
	</g>
</g>
</svg>
