<?xml version="1.0" encoding="utf-8"?>
<!-- Generator: Adobe Illustrator 26.0.3, SVG Export Plug-In . SVG Version: 6.00 Build 0)  -->
<svg version="1.1" id="ee10700a-6e76-4a82-b03e-a9751bc157fe"
	 xmlns="http://www.w3.org/2000/svg" xmlns:xlink="http://www.w3.org/1999/xlink" x="0px" y="0px" viewBox="0 0 803.1 591.4"
	 style="enable-background:new 0 0 803.1 591.4;" xml:space="preserve">
<style type="text/css">
	.st0{fill:#F7F7F7;}
	.st1{fill:#262424;}
	.st2{fill:#FFFFFF;}
	.st3{fill:#88C0C2;}
	.st4{fill:#DE9244;}
	.st5{fill:#3F3D56;}
</style>
<path class="st0" d="M625.1,160.1c-0.7-8.4-2.1-16.9-4.2-25.4C600.2,53.1,517.2,3.8,435.7,24.5c-62.4,15.9-106,68.1-113.8,128.3
	c-39.4-15.5-83.9-19.2-128.1-8C81.7,173.3,13.9,287.3,42.4,399.4S184.9,579.2,297,550.8c37-9.4,69.2-28.1,94.6-53
	c50.5,52.5,127,77.1,202.7,57.9c112-28.5,179.8-142.6,151.3-254.7C729,235.4,683,184.9,625.1,160.1z"/>
<path class="st1" d="M581.8,443.9l-5.6-1.3c-0.5-0.2-1,0.1-1.2,0.5c-0.2,0.5,0.1,1,0.5,1.2c0.1,0,0.2,0.1,0.3,0.1l5.6,1.3
	c0.5,0.2,1-0.1,1.2-0.5c0.2-0.5-0.1-1-0.5-1.2C582,443.9,581.9,443.9,581.8,443.9z M591.6,442.3c-1.5,0.9-3.2,1.5-5,1.8
	c-0.5,0.1-0.8,0.7-0.6,1.2c0.1,0.4,0.5,0.7,0.9,0.7c2-0.3,4-1,5.7-2c0.4-0.3,0.5-0.9,0.1-1.3C592.5,442.2,592.1,442.1,591.6,442.3
	L591.6,442.3L591.6,442.3z M597.7,433.9c-0.4,1.7-1.1,3.4-2.2,4.8c-0.4,0.4-0.4,1,0,1.3c0.4,0.4,1,0.4,1.3,0
	c0.1-0.1,0.1-0.1,0.2-0.2c1.2-1.6,2-3.5,2.5-5.5c0.1-0.5-0.3-1-0.8-1.1C598.3,433.2,597.9,433.5,597.7,433.9L597.7,433.9z
	 M600.2,422.8l-1.3,5.6c0,0.5,0.4,1,0.9,1c0.4,0,0.8-0.2,1-0.6l1.3-5.6c0.2-0.5-0.1-1-0.6-1.2c-0.5-0.2-1,0.1-1.2,0.6
	C600.3,422.6,600.2,422.7,600.2,422.8L600.2,422.8z M602.7,411.6l-1.3,5.6c-0.2,0.5,0.1,1,0.5,1.2c0.5,0.2,1-0.1,1.2-0.5
	c0-0.1,0.1-0.2,0.1-0.3l1.3-5.6c0.2-0.5-0.1-1-0.6-1.2c-0.5-0.2-1,0.1-1.2,0.6C602.8,411.5,602.8,411.6,602.7,411.6L602.7,411.6z
	 M605.3,400.5l-1.3,5.6c-0.2,0.5,0.1,1,0.5,1.2c0.5,0.2,1-0.1,1.2-0.5c0-0.1,0.1-0.2,0.1-0.3l1.3-5.6c0-0.5-0.3-1-0.9-1
	C605.8,399.9,605.4,400.1,605.3,400.5L605.3,400.5z M607.8,389.4l-1.3,5.6c0,0.5,0.4,1,0.9,1c0.4,0,0.8-0.2,1-0.6l1.3-5.6
	c0-0.5-0.3-1-0.9-1C608.3,388.7,607.9,389,607.8,389.4L607.8,389.4z M610.3,378.3l-1.3,5.6c0,0.5,0.4,1,0.9,1c0.4,0,0.8-0.2,1-0.6
	l1.3-5.6c0.2-0.5,0-1-0.5-1.3s-1,0-1.3,0.5C610.3,378,610.3,378.1,610.3,378.3L610.3,378.3z M612.8,367.1l-1.3,5.6
	c-0.2,0.5,0.1,1,0.5,1.2c0.5,0.2,1-0.1,1.2-0.5c0-0.1,0.1-0.2,0.1-0.3l1.3-5.6c0.2-0.5-0.1-1-0.6-1.2c-0.5-0.2-1,0.1-1.2,0.6
	C612.8,367,612.8,367,612.8,367.1L612.8,367.1z M615.3,356l-1.3,5.6c0,0.5,0.4,1,0.9,1c0.4,0,0.8-0.2,1-0.6l1.3-5.6
	c0-0.5-0.3-1-0.9-1C615.8,355.4,615.4,355.6,615.3,356L615.3,356z M617.8,344.9l-1.3,5.6c0,0.5,0.4,1,0.9,1c0.4,0,0.8-0.2,1-0.6
	l1.3-5.6c0-0.5-0.3-1-0.9-1C618.4,344.2,618,344.5,617.8,344.9L617.8,344.9z M620.3,333.7l-1.3,5.6c-0.2,0.5,0.1,1,0.5,1.2
	c0.5,0.2,1-0.1,1.2-0.5c0-0.1,0.1-0.2,0.1-0.3l1.3-5.6c0.2-0.5-0.1-1-0.5-1.2c-0.5-0.2-1,0.1-1.2,0.5
	C620.3,333.6,620.3,333.7,620.3,333.7L620.3,333.7z M622.8,322.6l-1.3,5.6c-0.2,0.5,0.1,1,0.5,1.2c0.5,0.2,1-0.1,1.2-0.5
	c0-0.1,0.1-0.2,0.1-0.3l1.3-5.6c0.2-0.5-0.1-1-0.5-1.2c-0.5-0.2-1,0.1-1.2,0.5C622.9,322.4,622.8,322.5,622.8,322.6L622.8,322.6z
	 M625.3,311.5l-1.3,5.6c0,0.5,0.4,1,0.9,1c0.4,0,0.8-0.2,1-0.6l1.3-5.6c0-0.5-0.4-1-0.9-1C625.9,310.9,625.5,311.1,625.3,311.5
	L625.3,311.5z M627.8,300.4l-1.3,5.6c-0.2,0.5,0.1,1,0.5,1.2c0.5,0.2,1-0.1,1.2-0.5c0-0.1,0.1-0.2,0.1-0.3l1.3-5.6
	c0.2-0.5-0.1-1-0.5-1.2s-1,0.1-1.2,0.5C627.9,300.2,627.9,300.3,627.8,300.4L627.8,300.4z M630.4,289.2l-1.3,5.6
	c-0.2,0.5,0.1,1,0.5,1.2c0.5,0.2,1-0.1,1.2-0.5c0-0.1,0.1-0.2,0.1-0.3l1.3-5.6c0.2-0.5-0.1-1-0.6-1.2c-0.5-0.2-1,0.1-1.2,0.6
	C630.4,289.1,630.4,289.1,630.4,289.2L630.4,289.2z M632.9,278.1l-1.3,5.6c-0.2,0.5,0.1,1,0.5,1.2c0.5,0.2,1-0.1,1.2-0.5
	c0-0.1,0.1-0.2,0.1-0.3l1.3-5.6c0.2-0.5-0.1-1-0.5-1.2c-0.5-0.2-1,0.1-1.2,0.5C632.9,277.9,632.9,278,632.9,278.1L632.9,278.1z
	 M635.4,267l-1.3,5.6c-0.2,0.5,0.1,1,0.5,1.2c0.5,0.2,1-0.1,1.2-0.5c0-0.1,0.1-0.2,0.1-0.3l1.3-5.6c0.2-0.5-0.1-1-0.5-1.2
	c-0.5-0.2-1,0.1-1.2,0.5C635.4,266.8,635.4,266.9,635.4,267L635.4,267z M637.9,255.9l-1.3,5.6c-0.2,0.5,0.1,1,0.5,1.2
	c0.5,0.2,1-0.1,1.2-0.5c0-0.1,0.1-0.2,0.1-0.3l1.3-5.6c0.2-0.5-0.1-1-0.6-1.2c-0.5-0.2-1,0.1-1.2,0.6
	C637.9,255.7,637.9,255.8,637.9,255.9L637.9,255.9z M640.4,244.7l-1.3,5.6c-0.2,0.5,0.1,1,0.5,1.2c0.5,0.2,1-0.1,1.2-0.5
	c0-0.1,0.1-0.2,0.1-0.3l1.3-5.6c0.2-0.5-0.1-1-0.6-1.2c-0.5-0.2-1,0.1-1.2,0.6C640.4,244.5,640.4,244.6,640.4,244.7L640.4,244.7z
	 M642.9,233.6l-1.2,5.6c-0.2,0.5,0.1,1,0.5,1.2c0.5,0.2,1-0.1,1.2-0.5c0-0.1,0.1-0.2,0.1-0.3l1.3-5.6c0.2-0.5-0.1-1-0.6-1.2
	c-0.5-0.2-1,0.1-1.2,0.6C642.9,233.4,642.9,233.5,642.9,233.6L642.9,233.6z M645.4,222.5l-1.3,5.6c-0.2,0.5,0.1,1,0.5,1.2
	c0.5,0.2,1-0.1,1.2-0.5c0-0.1,0.1-0.2,0.1-0.3l1.3-5.6c0.2-0.5-0.1-1-0.6-1.2s-1,0.1-1.2,0.6C645.4,222.3,645.4,222.4,645.4,222.5
	L645.4,222.5z M647.9,211.3l-1.3,5.6c-0.2,0.5,0.1,1,0.5,1.2c0.5,0.2,1-0.1,1.2-0.5c0-0.1,0.1-0.2,0.1-0.3l1.2-5.6
	c0.2-0.5,0-1-0.5-1.3c-0.5-0.2-1,0-1.3,0.5C648,211.1,647.9,211.2,647.9,211.3L647.9,211.3z M650.4,200.2l-1.3,5.6
	c-0.2,0.5,0.1,1,0.5,1.2c0.5,0.2,1-0.1,1.2-0.5c0-0.1,0.1-0.2,0.1-0.3l1.3-5.6c0.2-0.5,0-1-0.5-1.2c-0.5-0.2-1,0-1.2,0.5
	C650.5,200,650.4,200.1,650.4,200.2L650.4,200.2z M652.9,189.1l-1.3,5.5c-0.2,0.5,0.1,1,0.5,1.2c0.5,0.2,1-0.1,1.2-0.5
	c0-0.1,0.1-0.2,0.1-0.3l1.3-5.6c0.2-0.5-0.1-1-0.5-1.2s-1,0.1-1.2,0.5C653,188.9,653,189,652.9,189.1L652.9,189.1z M655.4,177.9
	l-1.3,5.6c-0.2,0.5,0.1,1,0.5,1.2c0.5,0.2,1-0.1,1.2-0.5c0-0.1,0.1-0.2,0.1-0.3l1.3-5.6c0.2-0.5-0.1-1-0.5-1.2
	c-0.5-0.2-1,0.1-1.2,0.5C655.5,177.8,655.5,177.8,655.4,177.9z M658,166.8l-1.3,5.6c-0.2,0.5,0.1,1,0.5,1.2c0.5,0.2,1-0.1,1.2-0.5
	c0-0.1,0.1-0.2,0.1-0.3l1.3-5.6c0.2-0.5,0-1-0.5-1.3c-0.5-0.2-1,0-1.3,0.5C658,166.6,658,166.7,658,166.8L658,166.8z M660.5,155.7
	l-1.3,5.6c-0.2,0.5,0.1,1,0.5,1.2c0.5,0.2,1-0.1,1.2-0.5c0-0.1,0.1-0.2,0.1-0.3l1.3-5.6c0.2-0.5,0-1-0.5-1.3c-0.5-0.2-1,0-1.3,0.5
	C660.5,155.4,660.5,155.6,660.5,155.7L660.5,155.7z M663,144.6l-1.3,5.6c-0.2,0.5,0.1,1,0.5,1.2c0.5,0.2,1-0.1,1.2-0.5
	c0-0.1,0.1-0.2,0.1-0.3l1.3-5.6c0.2-0.5,0-1-0.5-1.3c-0.5-0.2-1,0-1.3,0.5C663,144.3,663,144.4,663,144.6L663,144.6z M665.5,133.4
	l-1.2,5.6c-0.2,0.5,0.1,1,0.5,1.2c0.5,0.2,1-0.1,1.2-0.5c0-0.1,0.1-0.2,0.1-0.3l1.3-5.6c0.2-0.5-0.1-1-0.6-1.2
	c-0.5-0.2-1,0.1-1.2,0.6C665.5,133.3,665.5,133.3,665.5,133.4L665.5,133.4z M668,122.3l-1.3,5.6c-0.2,0.5,0.1,1,0.5,1.2
	c0.5,0.2,1-0.1,1.2-0.5c0-0.1,0.1-0.2,0.1-0.3l1.3-5.6c0.2-0.5,0-1-0.5-1.3c-0.5-0.2-1,0-1.3,0.5C668,122.1,668,122.2,668,122.3
	L668,122.3z M670.5,111.2l-1.3,5.6c-0.2,0.5,0.1,1,0.5,1.2c0.5,0.2,1-0.1,1.2-0.5c0-0.1,0.1-0.2,0.1-0.3l1.3-5.6
	c0.2-0.5,0-1-0.5-1.3c-0.5-0.2-1,0-1.3,0.5C670.6,110.9,670.5,111,670.5,111.2L670.5,111.2z M673,100l-1.3,5.6
	c-0.2,0.5,0.1,1,0.5,1.2c0.5,0.2,1-0.1,1.2-0.5c0-0.1,0.1-0.2,0.1-0.3l1.3-5.6c0.2-0.5-0.1-1-0.5-1.2c-0.5-0.2-1,0.1-1.2,0.5
	C673.1,99.8,673,99.9,673,100z M675.5,88.9l-1.3,5.6c-0.2,0.5,0.1,1,0.5,1.2c0.5,0.2,1-0.1,1.2-0.5c0-0.1,0.1-0.2,0.1-0.3l1.3-5.6
	c0.2-0.5-0.1-1-0.6-1.2c-0.5-0.2-1,0.1-1.2,0.6C675.6,88.7,675.5,88.8,675.5,88.9L675.5,88.9z M674.4,78.5c0.9,1.6,1.4,3.3,1.6,5
	c0.1,0.5,0.6,0.8,1.2,0.7c0.4-0.1,0.7-0.5,0.7-0.9c-0.2-2-0.9-4-1.8-5.7c-0.2-0.5-0.8-0.7-1.2-0.5c-0.5,0.2-0.7,0.8-0.5,1.2
	C674.3,78.4,674.3,78.5,674.4,78.5L674.4,78.5z M666.2,72.2c1.7,0.5,3.3,1.3,4.8,2.3c0.5,0.3,1,0.1,1.3-0.4c0.2-0.4,0.1-0.8-0.1-1.1
	c-1.6-1.2-3.4-2.2-5.4-2.7c-0.5-0.2-1,0.1-1.2,0.5s0.1,1,0.5,1.2C666.1,72.1,666.1,72.2,666.2,72.2L666.2,72.2z M655.1,69.7l5.6,1.3
	c0.5,0,1-0.4,1-0.9c0-0.4-0.2-0.8-0.6-1l-5.6-1.3c-0.5-0.1-1,0.3-1,0.9C654.4,69.1,654.7,69.5,655.1,69.7L655.1,69.7z M644,67.1
	l5.6,1.3c0.5,0,1-0.4,1-0.9c0-0.4-0.2-0.8-0.6-1l-5.6-1.2c-0.5,0-1,0.4-1,0.9C643.4,66.6,643.6,67,644,67.1L644,67.1z M632.9,64.6
	l5.6,1.3c0.5,0,1-0.4,1-0.9c0-0.4-0.2-0.8-0.6-1l-5.6-1.3c-0.5-0.1-1,0.3-1,0.9C632.2,64.1,632.4,64.5,632.9,64.6L632.9,64.6z
	 M621.7,62.1l5.6,1.3c0.5,0,1-0.4,1-0.9c0-0.4-0.2-0.8-0.6-1l-5.6-1.3c-0.5,0-1,0.4-1,0.9C621.1,61.6,621.3,62,621.7,62.1z
	 M610.6,59.6l5.6,1.3c0.5,0,1-0.4,1-0.9c0-0.4-0.2-0.8-0.6-1l-5.6-1.3c-0.5,0-1,0.4-1,0.9C610,59.1,610.2,59.5,610.6,59.6z
	 M599.5,57.1l5.6,1.3c0.5,0,1-0.4,1-0.9c0-0.4-0.2-0.8-0.6-1l-5.6-1.3c-0.5,0-1,0.4-1,0.9C598.9,56.6,599.1,57,599.5,57.1
	L599.5,57.1z M588.3,54.6l5.6,1.3c0.5,0,1-0.4,1-0.9c0-0.4-0.2-0.8-0.6-1l-5.6-1.3c-0.5,0-1,0.4-1,0.9
	C587.7,54.1,588,54.4,588.3,54.6L588.3,54.6z M577.2,52.1l5.6,1.3c0.5,0,1-0.4,1-0.9c0-0.4-0.2-0.8-0.6-1l-5.6-1.3
	c-0.5,0-1,0.4-1,0.9C576.6,51.6,576.8,51.9,577.2,52.1L577.2,52.1z M566.1,49.6l5.6,1.3c0.5,0,1-0.4,1-0.9c0-0.4-0.2-0.8-0.6-1
	l-5.6-1.3c-0.5,0-1,0.4-1,0.9C565.4,49,565.7,49.4,566.1,49.6z M555,47.1l5.6,1.3c0.5,0,1-0.4,1-0.9c0-0.4-0.2-0.8-0.6-1l-5.6-1.3
	c-0.5,0-1,0.4-1,0.9C554.3,46.5,554.6,46.9,555,47.1L555,47.1z M543.8,44.6l5.6,1.3c0.5,0,1-0.4,1-0.9c0-0.4-0.2-0.8-0.6-1l-5.6-1.3
	c-0.5,0-1,0.4-1,0.9C543.2,44,543.4,44.4,543.8,44.6L543.8,44.6z M532.7,42l5.6,1.3c0.5,0,1-0.4,1-0.9c0-0.4-0.2-0.8-0.6-1l-5.6-1.3
	c-0.5,0-1,0.4-1,0.9C532.1,41.5,532.3,41.9,532.7,42z M521.6,39.5l5.6,1.3c0.5,0,1-0.4,1-0.9c0-0.4-0.2-0.8-0.6-1l-5.6-1.3
	c-0.5,0-1,0.3-1,0.9C520.9,39,521.2,39.4,521.6,39.5L521.6,39.5z M510.4,37l5.6,1.3c0.5,0,1-0.4,1-0.9c0-0.4-0.2-0.8-0.6-1l-5.6-1.3
	c-0.5,0-1,0.3-1,0.9C509.8,36.5,510,36.9,510.4,37L510.4,37z M499.3,34.5l5.6,1.3c0.5,0,1-0.4,1-0.9c0-0.4-0.2-0.8-0.6-1l-5.6-1.3
	c-0.5,0-1,0.3-1,0.9C498.6,34,498.9,34.4,499.3,34.5L499.3,34.5z M488.2,32l5.6,1.3c0.5,0,1-0.4,1-0.9c0-0.4-0.2-0.8-0.6-1l-5.6-1.3
	c-0.5-0.1-1,0.3-1.1,0.8C487.4,31.4,487.7,31.9,488.2,32L488.2,32z M477,29.5l5.6,1.3c0.5,0,1-0.4,1-0.9c0-0.4-0.2-0.8-0.6-1
	l-5.6-1.3c-0.5-0.1-1,0.3-1,0.9C476.4,28.9,476.6,29.3,477,29.5L477,29.5z M465.9,27l5.6,1.3c0.5,0,1-0.4,1-0.9c0-0.4-0.2-0.8-0.6-1
	l-5.6-1.3c-0.5,0-1,0.4-1,0.9C465.3,26.5,465.6,26.8,465.9,27L465.9,27z M455.7,28.6c1.5-0.9,3.2-1.6,4.9-1.9
	c0.5-0.2,0.8-0.7,0.6-1.2c-0.1-0.4-0.5-0.7-0.9-0.7c-2,0.3-3.9,1.1-5.6,2.1c-0.5,0.2-0.7,0.8-0.5,1.3c0.2,0.5,0.8,0.7,1.3,0.5
	C455.5,28.8,455.6,28.7,455.7,28.6L455.7,28.6L455.7,28.6z M449.7,37.2l0-0.2c0.4-1.7,1.1-3.3,2.1-4.7c0.2-0.5,0.1-1-0.4-1.3
	c-0.4-0.2-0.8-0.1-1.1,0.2c-1.1,1.6-1.9,3.4-2.4,5.4l0,0.2c-0.2,0.5,0.1,1,0.5,1.2c0.5,0.2,1-0.1,1.2-0.5
	C449.7,37.3,449.7,37.2,449.7,37.2L449.7,37.2L449.7,37.2z M447.2,48.3l1.3-5.6c0.2-0.5-0.1-1-0.5-1.2c-0.5-0.2-1,0.1-1.2,0.5
	c0,0.1-0.1,0.2-0.1,0.3l-1.3,5.6c-0.2,0.5,0.1,1,0.5,1.2c0.5,0.2,1-0.1,1.2-0.5C447.2,48.5,447.2,48.4,447.2,48.3L447.2,48.3z
	 M444.7,59.4l1.3-5.6c0.2-0.5-0.1-1-0.5-1.2c-0.5-0.2-1,0.1-1.2,0.5c0,0.1-0.1,0.2-0.1,0.3l-1.3,5.6c-0.2,0.5,0.1,1,0.5,1.2
	c0.5,0.2,1-0.1,1.2-0.5C444.7,59.6,444.7,59.5,444.7,59.4L444.7,59.4z M442.2,70.6l1.2-5.6c0.2-0.5-0.1-1-0.5-1.2
	c-0.5-0.2-1,0.1-1.2,0.5c0,0.1-0.1,0.2-0.1,0.3l-1.3,5.6c-0.2,0.5,0.1,1,0.6,1.2c0.5,0.2,1-0.1,1.2-0.6
	C442.2,70.7,442.2,70.6,442.2,70.6z M439.7,81.7l1.3-5.6c0.2-0.5-0.1-1-0.5-1.2c-0.5-0.2-1,0.1-1.2,0.5c0,0.1-0.1,0.2-0.1,0.3
	l-1.3,5.6c-0.2,0.5,0.1,1,0.5,1.2c0.5,0.2,1-0.1,1.2-0.5C439.7,81.9,439.7,81.8,439.7,81.7L439.7,81.7z M437.2,92.8l1.3-5.6
	c0.2-0.5-0.1-1-0.5-1.2c-0.5-0.2-1,0.1-1.2,0.5c0,0.1-0.1,0.2-0.1,0.3l-1.2,5.6c-0.2,0.5,0,1,0.5,1.3c0.5,0.2,1,0,1.3-0.5
	C437.1,93.1,437.2,92.9,437.2,92.8L437.2,92.8z M434.7,103.9l1.3-5.6c0.2-0.5-0.1-1-0.5-1.2c-0.5-0.2-1,0.1-1.2,0.5
	c0,0.1-0.1,0.2-0.1,0.3l-1.3,5.6c-0.2,0.5,0,1,0.5,1.2c0.5,0.2,1,0,1.2-0.5C434.6,104.1,434.7,104,434.7,103.9L434.7,103.9z
	 M432.2,115.1l1.3-5.6c0.2-0.5-0.1-1-0.5-1.2c-0.5-0.2-1,0.1-1.2,0.5c0,0.1-0.1,0.2-0.1,0.3l-1.3,5.6c-0.2,0.5,0,1,0.5,1.2
	c0.5,0.2,1,0,1.2-0.5C432.1,115.3,432.1,115.2,432.2,115.1L432.2,115.1z M429.7,126.2l1.3-5.6c0.2-0.5-0.1-1-0.5-1.2
	c-0.5-0.2-1,0.1-1.2,0.5c0,0.1-0.1,0.2-0.1,0.3l-1.3,5.6c-0.2,0.5,0.1,1,0.5,1.2c0.5,0.2,1-0.1,1.2-0.5
	C429.6,126.4,429.7,126.3,429.7,126.2z M427.1,137.3l1.3-5.6c0.2-0.5-0.1-1-0.5-1.2c-0.5-0.2-1,0.1-1.2,0.5c0,0.1-0.1,0.2-0.1,0.3
	l-1.3,5.6c-0.2,0.5,0,1,0.5,1.3c0.5,0.2,1,0,1.3-0.5C427.1,137.5,427.1,137.4,427.1,137.3L427.1,137.3z M424.6,148.4l1.3-5.6
	c0.2-0.5-0.1-1-0.5-1.2c-0.5-0.2-1,0.1-1.2,0.5c0,0.1-0.1,0.2-0.1,0.3l-1.3,5.6c-0.2,0.5,0.1,1,0.5,1.2c0.5,0.2,1-0.1,1.2-0.5
	C424.6,148.6,424.6,148.5,424.6,148.4L424.6,148.4z M422.1,159.6l1.3-5.6c0.2-0.5-0.1-1-0.5-1.2c-0.5-0.2-1,0.1-1.2,0.5
	c0,0.1-0.1,0.2-0.1,0.3l-1.3,5.6c-0.2,0.5,0,1,0.5,1.3c0.5,0.2,1,0,1.3-0.5C422.1,159.8,422.1,159.7,422.1,159.6L422.1,159.6z
	 M419.6,170.7l1.2-5.5c0.2-0.5-0.1-1-0.5-1.2s-1,0.1-1.2,0.5c0,0.1-0.1,0.2-0.1,0.3l-1.3,5.6c-0.2,0.5,0,1,0.5,1.2
	c0.5,0.2,1,0,1.2-0.5C419.6,170.9,419.6,170.8,419.6,170.7L419.6,170.7z M417.1,181.8l1.3-5.6c0.2-0.5-0.1-1-0.5-1.2
	c-0.5-0.2-1,0.1-1.2,0.5c0,0.1-0.1,0.2-0.1,0.3l-1.3,5.6c-0.2,0.5,0,1,0.5,1.3s1,0,1.3-0.5C417.1,182.1,417.1,181.9,417.1,181.8
	L417.1,181.8z M414.6,192.9l1.3-5.6c0.2-0.5-0.1-1-0.5-1.2c-0.5-0.2-1,0.1-1.2,0.5c0,0.1-0.1,0.2-0.1,0.3l-1.3,5.6
	c-0.2,0.5,0,1,0.5,1.3c0.5,0.2,1,0,1.3-0.5C414.6,193.2,414.6,193.1,414.6,192.9L414.6,192.9z M412.1,204.1l1.3-5.6
	c0.2-0.5-0.1-1-0.5-1.2c-0.5-0.2-1,0.1-1.2,0.5c0,0.1-0.1,0.2-0.1,0.3l-1.3,5.6c-0.2,0.5,0.1,1,0.5,1.2c0.5,0.2,1-0.1,1.2-0.5
	C412,204.3,412.1,204.2,412.1,204.1z M409.6,215.2l1.3-5.6c0.2-0.5-0.1-1-0.5-1.2c-0.5-0.2-1,0.1-1.2,0.5c0,0.1-0.1,0.2-0.1,0.3
	l-1.3,5.6c-0.2,0.5,0.1,1,0.6,1.2c0.5,0.2,1-0.1,1.2-0.6C409.5,215.4,409.6,215.3,409.6,215.2L409.6,215.2z M407,226.3l1.3-5.6
	c0-0.5-0.4-1-0.9-1c-0.4,0-0.8,0.2-1,0.6l-1.3,5.6c-0.2,0.5,0.1,1,0.6,1.2c0.5,0.2,1-0.1,1.2-0.6C407,226.5,407,226.4,407,226.3
	L407,226.3z M404.5,237.5l1.3-5.6c0.2-0.5-0.1-1-0.5-1.2c-0.5-0.2-1,0.1-1.2,0.5c0,0.1-0.1,0.2-0.1,0.3l-1.3,5.6
	c-0.1,0.5,0.3,1,0.9,1C404,238.1,404.4,237.9,404.5,237.5L404.5,237.5z M402,248.6l1.3-5.6c0.2-0.5-0.1-1-0.5-1.2
	c-0.5-0.2-1,0.1-1.2,0.5c0,0.1-0.1,0.2-0.1,0.3l-1.3,5.6c-0.1,0.5,0.3,1,0.8,1.1C401.5,249.3,401.9,249,402,248.6L402,248.6z
	 M399.5,259.7l1.3-5.6c0-0.5-0.4-1-0.9-1c-0.4,0-0.8,0.2-1,0.6l-1.3,5.6c0,0.5,0.4,1,0.9,1C399,260.4,399.4,260.1,399.5,259.7z
	 M397,270.9l1.3-5.6c0.2-0.5-0.1-1-0.5-1.2c-0.5-0.2-1,0.1-1.2,0.5c0,0.1-0.1,0.2-0.1,0.3l-1.3,5.6c0,0.5,0.4,1,0.9,1
	C396.5,271.4,396.9,271.2,397,270.9L397,270.9z M394.5,282l1.3-5.6c0.2-0.5-0.1-1-0.5-1.2c-0.5-0.2-1,0.1-1.2,0.5
	c0,0.1-0.1,0.2-0.1,0.3l-1.3,5.6c0,0.5,0.4,1,0.9,1C393.9,282.6,394.3,282.4,394.5,282z M392,293.1l1.3-5.6c0-0.5-0.4-1-0.9-1
	c-0.4,0-0.8,0.2-1,0.6l-1.3,5.6c-0.1,0.5,0.2,1,0.8,1.1C391.4,293.9,391.9,293.6,392,293.1L392,293.1z M389.5,304.2l1.3-5.6
	c0-0.5-0.4-1-0.9-1c-0.4,0-0.8,0.2-1,0.6l-1.3,5.6c-0.1,0.5,0.2,1,0.8,1.1C388.9,305,389.4,304.7,389.5,304.2L389.5,304.2z
	 M387,315.4l1.3-5.6c0-0.5-0.4-1-0.9-1c-0.4,0-0.8,0.2-1,0.6l-1.3,5.6c0,0.5,0.4,1,0.9,1C386.4,316,386.8,315.8,387,315.4z
	 M384.5,326.5l1.3-5.6c0-0.5-0.4-1-0.9-1c-0.4,0-0.8,0.2-1,0.6l-1.3,5.6c-0.1,0.5,0.3,1,0.9,1C383.9,327.2,384.3,326.9,384.5,326.5
	L384.5,326.5z M382,337.6l1.3-5.6c0-0.5-0.4-1-0.9-1c-0.4,0-0.8,0.2-1,0.6l-1.3,5.6c0,0.5,0.4,1,0.9,1
	C381.4,338.3,381.8,338,382,337.6L382,337.6z M379.4,348.7l1.3-5.5c0-0.5-0.4-1-0.9-1c-0.4,0-0.8,0.2-1,0.6l-1.3,5.6
	c0,0.5,0.3,1,0.9,1C378.9,349.4,379.3,349.2,379.4,348.7L379.4,348.7z M376.9,359.9l1.3-5.5c0-0.5-0.4-1-0.9-1c-0.4,0-0.8,0.2-1,0.6
	l-1.3,5.6c0,0.5,0.4,1,0.9,1C376.4,360.5,376.8,360.3,376.9,359.9L376.9,359.9z M374.4,371l1.3-5.6c0-0.5-0.4-1-0.9-1
	c-0.4,0-0.8,0.2-1,0.6l-1.3,5.6c0,0.5,0.4,1,0.9,1C373.9,371.7,374.3,371.4,374.4,371z M371.9,382.2l1.3-5.6c0-0.5-0.4-1-0.9-1
	c-0.4,0-0.8,0.2-1,0.6l-1.3,5.6c0,0.5,0.4,1,0.9,1C371.4,382.8,371.8,382.5,371.9,382.2L371.9,382.2z M373.2,392.5
	c-0.9-1.5-1.5-3.2-1.7-5c0-0.5-0.4-1-0.9-1c-0.5,0-1,0.4-1,0.9c0,0.1,0,0.2,0,0.3c0.3,2,0.9,4,1.9,5.7c0.3,0.4,0.9,0.5,1.3,0.2
	C373.3,393.3,373.4,392.9,373.2,392.5L373.2,392.5L373.2,392.5z M381.5,398.7c-1.7-0.4-3.4-1.2-4.8-2.3c-0.4-0.4-1-0.4-1.3,0
	s-0.4,1,0,1.3c0.1,0.1,0.1,0.1,0.2,0.2c1.6,1.2,3.5,2.1,5.5,2.6c0.5,0.1,1-0.3,1.1-0.8C382.2,399.3,381.9,398.9,381.5,398.7
	L381.5,398.7L381.5,398.7z M392.6,401.2l-5.6-1.3c-0.5-0.2-1,0.1-1.2,0.5c-0.2,0.5,0.1,1,0.5,1.2c0.1,0,0.2,0.1,0.3,0.1l5.6,1.3
	c0.5,0.2,1-0.1,1.2-0.5c0.2-0.5-0.1-1-0.5-1.2C392.8,401.3,392.7,401.2,392.6,401.2L392.6,401.2z M403.8,403.7l-5.6-1.3
	c-0.5-0.2-1,0.1-1.2,0.5c-0.2,0.5,0.1,1,0.5,1.2c0.1,0,0.2,0.1,0.3,0.1l5.6,1.3c0.5,0.2,1-0.1,1.2-0.5c0.2-0.5-0.1-1-0.5-1.2
	C403.9,403.8,403.9,403.7,403.8,403.7L403.8,403.7z M414.9,406.2l-5.6-1.3c-0.5-0.2-1,0.1-1.2,0.5c-0.2,0.5,0.1,1,0.5,1.2
	c0.1,0,0.2,0.1,0.3,0.1l5.6,1.3c0.5,0.2,1-0.1,1.2-0.5c0.2-0.5-0.1-1-0.5-1.2C415.1,406.3,415,406.3,414.9,406.2L414.9,406.2z
	 M426,408.8l-5.6-1.3c-0.5,0-1,0.4-1,0.9c0,0.4,0.2,0.8,0.6,1l5.6,1.3c0.5,0,1-0.4,1-0.9C426.7,409.3,426.4,408.9,426,408.8
	L426,408.8z M437.1,411.3l-5.6-1.3c-0.5-0.2-1,0.1-1.2,0.5c-0.2,0.5,0.1,1,0.5,1.2c0.1,0,0.2,0.1,0.3,0.1l5.6,1.3
	c0.5,0.2,1-0.1,1.2-0.6c0.2-0.5-0.1-1-0.6-1.2C437.3,411.3,437.2,411.3,437.1,411.3L437.1,411.3z M448.3,413.8l-5.6-1.3
	c-0.5,0-1,0.4-1,0.9c0,0.4,0.2,0.8,0.6,1l5.6,1.3c0.5,0,1-0.4,1-0.9C448.9,414.3,448.7,413.9,448.3,413.8z M459.4,416.3l-5.6-1.3
	c-0.5-0.2-1,0.1-1.2,0.5c-0.2,0.5,0.1,1,0.5,1.2c0.1,0,0.2,0.1,0.3,0.1l5.6,1.3c0.5,0.2,1,0,1.3-0.5c0.2-0.5,0-1-0.5-1.3
	C459.7,416.3,459.5,416.3,459.4,416.3L459.4,416.3z M470.5,418.8l-5.6-1.2c-0.5,0-1,0.4-1,0.9c0,0.4,0.2,0.8,0.6,1l5.6,1.3
	c0.5,0.1,1-0.3,1.1-0.8C471.3,419.4,471,418.9,470.5,418.8z M481.7,421.3l-5.6-1.3c-0.5-0.2-1,0.1-1.2,0.5c-0.2,0.5,0.1,1,0.5,1.2
	c0.1,0,0.2,0.1,0.3,0.1l5.6,1.3c0.5,0,1-0.4,1-0.9C482.3,421.8,482,421.5,481.7,421.3L481.7,421.3z M492.8,423.8l-5.6-1.3
	c-0.5,0-1,0.4-1,0.9c0,0.4,0.2,0.8,0.6,1l5.6,1.2c0.5,0,1-0.4,1-0.9C493.4,424.3,493.1,424,492.8,423.8L492.8,423.8z M503.9,426.3
	l-5.6-1.3c-0.5,0-1,0.4-1,0.9c0,0.4,0.2,0.8,0.6,1l5.6,1.3c0.5,0,1-0.4,1-0.9C504.5,426.9,504.3,426.5,503.9,426.3L503.9,426.3z
	 M515,428.8l-5.6-1.3c-0.5-0.2-1,0.1-1.2,0.5c-0.2,0.5,0.1,1,0.5,1.2c0.1,0,0.2,0.1,0.3,0.1l5.6,1.3c0.5,0,1-0.4,1-0.9
	C515.7,429.4,515.4,429,515,428.8L515,428.8z M526.2,431.3l-5.6-1.3c-0.5-0.2-1,0.1-1.2,0.5c-0.2,0.5,0.1,1,0.5,1.2
	c0.1,0,0.2,0.1,0.3,0.1l5.6,1.3c0.5,0.2,1-0.1,1.2-0.5c0.2-0.5-0.1-1-0.5-1.2C526.3,431.4,526.2,431.4,526.2,431.3z M537.3,433.9
	l-5.6-1.3c-0.5,0-1,0.4-1,0.9c0,0.4,0.2,0.8,0.6,1l5.6,1.3c0.5,0.2,1,0,1.2-0.5c0.2-0.5,0-1-0.5-1.2
	C537.5,433.9,537.4,433.9,537.3,433.9L537.3,433.9z M548.4,436.4l-5.6-1.3c-0.5,0-1,0.4-1,0.9c0,0.4,0.2,0.8,0.6,1l5.6,1.3
	c0.5,0,1-0.3,1-0.9C549.1,436.9,548.8,436.5,548.4,436.4L548.4,436.4z M559.5,438.9l-5.6-1.3c-0.5,0-1,0.4-1,0.9
	c0,0.4,0.2,0.8,0.6,1l5.6,1.3c0.5,0,1-0.3,1-0.9C560.2,439.4,560,439,559.5,438.9L559.5,438.9z M570.7,441.4l-5.6-1.3
	c-0.5-0.2-1,0.1-1.2,0.5c-0.2,0.5,0.1,1,0.5,1.2c0.1,0,0.2,0.1,0.3,0.1l5.6,1.3c0.5,0,1-0.3,1-0.9
	C571.3,441.9,571.1,441.5,570.7,441.4L570.7,441.4z"/>
<g>
	<path class="st2" d="M453.8,6.1l200,45.1c7.7,1.7,12.5,9.4,10.8,17l-78,345.9c-1.7,7.7-9.4,12.5-17,10.8l-200-45.1
		c-7.7-1.7-12.5-9.4-10.8-17l78-345.9C438.4,9.2,446.1,4.4,453.8,6.1z"/>
	<path class="st1" d="M572.6,426.1c-1.1,0-2.2-0.1-3.3-0.4l-200-45.1c-8.1-1.8-13.3-10-11.4-18.1l78-345.9
		c1.8-8.1,10-13.3,18.1-11.4l0,0l200,45.1c3.9,0.9,7.3,3.3,9.5,6.7c2.2,3.4,2.9,7.5,2,11.4l-78,345.9
		C585.8,421.3,579.5,426.1,572.6,426.1z M450.6,6.6c-6.1,0-11.6,4.2-13,10.4l-78,345.9c-1.6,7.2,2.9,14.4,10.1,16l200,45.1
		c7.2,1.6,14.4-2.9,16-10.1l78-345.9c0.8-3.5,0.2-7.1-1.7-10.1c-1.9-3-4.9-5.1-8.4-5.9l-200-45.1C452.6,6.7,451.6,6.6,450.6,6.6z"/>
</g>
<path class="st3" d="M651.7,66.6l-77.5,343.6c-0.3,1.4-1.7,2.2-3.1,1.9l-197.7-44.6c-1.4-0.3-2.2-1.7-1.9-3.1L449,20.8
	c0.3-1.4,1.7-2.2,3.1-1.9l197.7,44.6C651.2,63.8,652,65.2,651.7,66.6z"/>
<path class="st4" d="M651.6,67l-21.8,96.7l-202.8-45.7l21.8-96.7c0.4-1.6,1.8-2.7,3.2-2.3l197.7,44.6C651.2,63.8,652,65.3,651.6,67z
	"/>
<path class="st4" d="M578.8,389.8l-4.6,20.3c-0.3,1.4-1.7,2.2-3.1,1.9l-197.7-44.6c-1.4-0.3-2.2-1.7-1.9-3.1l4.6-20.3L578.8,389.8z"
	/>
<g>
	<path class="st2" d="M447.9,152l101.4,22.9c6,1.4,9.8,7.4,8.5,13.4l0,0c-1.4,6-7.4,9.8-13.4,8.5l-101.4-22.9
		c-6-1.4-9.8-7.4-8.5-13.4l0,0C435.8,154.5,441.8,150.7,447.9,152z"/>
	<path class="st1" d="M546.8,197.9c-0.9,0-1.8-0.1-2.7-0.3l-101.4-22.9c-3.1-0.7-5.8-2.6-7.6-5.3c-1.7-2.7-2.3-6-1.6-9.1
		c0.7-3.1,2.6-5.8,5.3-7.6c2.7-1.7,6-2.3,9.1-1.6l0,0l101.4,22.9c3.1,0.7,5.8,2.6,7.6,5.3c1.7,2.7,2.3,6,1.6,9.1
		c-0.7,3.1-2.6,5.8-5.3,7.6C551.3,197.3,549.1,197.9,546.8,197.9z M445.4,152.7c-1.9,0-3.8,0.5-5.5,1.6c-2.3,1.5-3.9,3.8-4.6,6.4
		c-0.6,2.7-0.1,5.4,1.3,7.8c1.5,2.3,3.8,3.9,6.4,4.6l101.4,22.9c2.7,0.6,5.4,0.1,7.8-1.3c2.3-1.5,3.9-3.8,4.6-6.4
		c0.6-2.7,0.1-5.4-1.3-7.8c-1.5-2.3-3.8-3.9-6.4-4.6l-101.4-22.9C446.9,152.7,446.1,152.7,445.4,152.7z"/>
</g>
<g>
	<path class="st2" d="M583.4,182.6l13,2.9c6,1.4,9.8,7.4,8.5,13.4v0c-1.4,6-7.4,9.8-13.4,8.5l-13-2.9c-6-1.4-9.8-7.4-8.5-13.4v0
		C571.4,185,577.4,181.3,583.4,182.6z"/>
	<path class="st1" d="M594,208.6c-0.9,0-1.8-0.1-2.7-0.3l-13-2.9c-6.5-1.5-10.6-7.9-9.1-14.4c1.5-6.5,7.9-10.6,14.4-9.1l13,2.9
		c3.1,0.7,5.8,2.6,7.6,5.3c1.7,2.7,2.3,6,1.6,9.1C604.5,204.7,599.5,208.6,594,208.6z M580.9,183.2c-4.7,0-9,3.3-10.1,8
		c-1.3,5.5,2.2,11.1,7.8,12.3l13,2.9c5.5,1.3,11.1-2.2,12.3-7.8c0.6-2.7,0.1-5.4-1.3-7.8c-1.5-2.3-3.8-3.9-6.4-4.6l-13-2.9l0,0
		C582.5,183.3,581.7,183.2,580.9,183.2z"/>
</g>
<g>
	<path class="st2" d="M436.1,204.2L537.5,227c6,1.4,9.8,7.4,8.5,13.4l0,0c-1.4,6-7.4,9.8-13.4,8.5L431.2,226
		c-6-1.4-9.8-7.4-8.5-13.4l0,0C424.1,206.6,430.1,202.8,436.1,204.2z"/>
	<path class="st1" d="M535.1,250.1c-0.9,0-1.8-0.1-2.7-0.3L431,226.9c-3.1-0.7-5.8-2.6-7.6-5.3c-1.7-2.7-2.3-6-1.6-9.1
		s2.6-5.8,5.3-7.6c2.7-1.7,6-2.3,9.1-1.6l101.4,22.9c3.1,0.7,5.8,2.6,7.6,5.3c1.7,2.7,2.3,6,1.6,9.1c-0.7,3.1-2.6,5.8-5.3,7.6
		C539.6,249.4,537.3,250.1,535.1,250.1z M433.6,204.8c-1.9,0-3.8,0.5-5.5,1.6c-2.3,1.5-3.9,3.8-4.6,6.4c-0.6,2.7-0.1,5.4,1.3,7.8
		s3.8,3.9,6.4,4.6L532.8,248c2.7,0.6,5.4,0.1,7.8-1.3c2.3-1.5,3.9-3.8,4.6-6.4c0.6-2.7,0.1-5.4-1.3-7.8c-1.5-2.3-3.8-3.9-6.4-4.6
		L435.9,205C435.1,204.9,434.4,204.8,433.6,204.8z"/>
</g>
<g>
	<path class="st2" d="M571.7,234.7l13,2.9c6,1.4,9.8,7.4,8.5,13.4l0,0c-1.4,6-7.4,9.8-13.4,8.5l-13-2.9c-6-1.4-9.8-7.4-8.5-13.4l0,0
		C559.6,237.2,565.6,233.4,571.7,234.7z"/>
	<path class="st1" d="M582.2,260.7c-0.9,0-1.8-0.1-2.7-0.3l-13-2.9c-6.5-1.5-10.6-7.9-9.1-14.4c1.5-6.5,7.9-10.6,14.4-9.1l13,2.9
		c6.5,1.5,10.6,7.9,9.1,14.4C592.7,256.9,587.7,260.7,582.2,260.7z M569.2,235.3c-4.7,0-9,3.3-10.1,8c-1.3,5.5,2.2,11.1,7.8,12.3
		l13,2.9c5.5,1.3,11.1-2.2,12.3-7.8c1.3-5.5-2.2-11.1-7.8-12.3l-13-2.9l0,0C570.7,235.4,569.9,235.3,569.2,235.3z"/>
</g>
<g>
	<path class="st2" d="M424.3,256.3l101.4,22.9c6,1.4,9.8,7.4,8.5,13.4l0,0c-1.4,6-7.4,9.8-13.4,8.5l-101.4-22.9
		c-6-1.4-9.8-7.4-8.5-13.4l0,0C412.3,258.7,418.3,254.9,424.3,256.3z"/>
	<path class="st1" d="M523.3,302.2c-0.9,0-1.8-0.1-2.7-0.3L419.2,279c-3.1-0.7-5.8-2.6-7.6-5.3c-1.7-2.7-2.3-6-1.6-9.1
		c0.7-3.1,2.6-5.8,5.3-7.6c2.7-1.7,6-2.3,9.1-1.6L526,278.3c6.5,1.5,10.6,7.9,9.1,14.4c-0.7,3.1-2.6,5.8-5.3,7.6
		C527.8,301.5,525.6,302.2,523.3,302.2z M421.9,256.9c-1.9,0-3.8,0.5-5.5,1.6c-2.3,1.5-3.9,3.8-4.6,6.4c-0.6,2.7-0.1,5.4,1.3,7.8
		s3.8,3.9,6.4,4.6L521,300.1c5.6,1.3,11.1-2.2,12.3-7.8c1.3-5.5-2.2-11.1-7.8-12.3l-101.4-22.9l0,0
		C423.4,257,422.6,256.9,421.9,256.9z"/>
</g>
<g>
	<path class="st2" d="M559.9,286.9l13,2.9c6,1.4,9.8,7.4,8.5,13.4l0,0c-1.4,6-7.4,9.8-13.4,8.5l-13-2.9c-6-1.4-9.8-7.4-8.5-13.4l0,0
		C547.9,289.3,553.9,285.5,559.9,286.9z"/>
	<path class="st1" d="M570.5,312.8c-0.9,0-1.8-0.1-2.7-0.3l-13-2.9c-3.1-0.7-5.8-2.6-7.6-5.3c-1.7-2.7-2.3-6-1.6-9.1
		c0.7-3.1,2.6-5.8,5.3-7.6c2.7-1.7,6-2.3,9.1-1.6l13,2.9c6.5,1.5,10.6,7.9,9.1,14.4C581,309,576,312.8,570.5,312.8z M557.4,287.5
		c-1.9,0-3.8,0.5-5.5,1.6c-2.3,1.5-3.9,3.8-4.6,6.4c-0.6,2.7-0.1,5.4,1.3,7.8c1.5,2.3,3.8,3.9,6.4,4.6l13,2.9
		c5.5,1.3,11.1-2.2,12.3-7.8c1.3-5.5-2.2-11.1-7.8-12.3l-13-2.9l0,0C558.9,287.5,558.2,287.5,557.4,287.5z"/>
</g>
<g>
	<path class="st2" d="M412.6,308.4L514,331.3c6,1.4,9.8,7.4,8.5,13.4l0,0c-1.4,6-7.4,9.8-13.4,8.5l-101.4-22.9
		c-6-1.4-9.8-7.4-8.5-13.4l0,0C400.6,310.8,406.5,307,412.6,308.4z"/>
	<path class="st1" d="M511.6,354.3c-0.9,0-1.8-0.1-2.7-0.3l-101.4-22.9c-3.1-0.7-5.8-2.6-7.6-5.3c-1.7-2.7-2.3-6-1.6-9.1
		c0.7-3.1,2.6-5.8,5.3-7.6c2.7-1.7,6-2.3,9.1-1.6l101.4,22.9c3.1,0.7,5.8,2.6,7.6,5.3c1.7,2.7,2.3,6,1.6,9.1
		c-0.7,3.1-2.6,5.8-5.3,7.6C516.1,353.6,513.8,354.3,511.6,354.3z M410.1,309c-1.9,0-3.8,0.5-5.5,1.6c-2.3,1.5-3.9,3.8-4.6,6.4
		c-0.6,2.7-0.1,5.4,1.3,7.8c1.5,2.3,3.8,3.9,6.4,4.6l101.4,22.9c2.7,0.6,5.4,0.1,7.8-1.3c2.3-1.5,3.9-3.8,4.6-6.4
		c0.6-2.7,0.1-5.4-1.3-7.8c-1.5-2.3-3.8-3.9-6.4-4.6l-101.4-22.9l0,0C411.6,309.1,410.9,309,410.1,309z"/>
</g>
<g>
	<path class="st2" d="M548.1,339l13,2.9c6,1.4,9.8,7.4,8.5,13.4l0,0c-1.4,6-7.4,9.8-13.4,8.5l-13-2.9c-6-1.4-9.8-7.4-8.5-13.4l0,0
		C536.1,341.4,542.1,337.6,548.1,339z"/>
	<path class="st1" d="M558.7,364.9c-0.9,0-1.8-0.1-2.7-0.3l-13-2.9c-3.1-0.7-5.8-2.6-7.6-5.3c-1.7-2.7-2.3-6-1.6-9.1
		c0.7-3.1,2.6-5.8,5.3-7.6c2.7-1.7,6-2.3,9.1-1.6l13,2.9c6.5,1.5,10.6,7.9,9.1,14.4C569.2,361.1,564.2,364.9,558.7,364.9z
		 M545.7,339.6c-1.9,0-3.8,0.5-5.5,1.6c-2.3,1.5-3.9,3.8-4.6,6.4c-0.6,2.7-0.1,5.4,1.3,7.8c1.5,2.3,3.8,3.9,6.4,4.6l13,2.9
		c5.5,1.3,11.1-2.2,12.3-7.8c1.3-5.5-2.2-11.1-7.8-12.3l-13-2.9l0,0C547.2,339.7,546.4,339.6,545.7,339.6z"/>
</g>
<g>
	<path class="st3" d="M505.8,29.8c-46.6-10.5-92.9,18.7-103.4,65.4c-3.1,13.6-16.5,22.1-30.1,19c-13.6-3.1-22.1-16.5-19-30.1
		c10.5-46.6,56.8-75.9,103.4-65.4L505.8,29.8z"/>
	<path class="st1" d="M377.8,115.6c-1.9,0-3.8-0.2-5.7-0.6c-6.8-1.5-12.6-5.6-16.3-11.5c-3.7-5.9-4.9-12.9-3.4-19.6
		c10.6-47,57.5-76.6,104.5-66L506,28.9c0,0,0,0,0,0l0,0c0.5,0.1,0.8,0.6,0.7,1.1c-0.1,0.5-0.6,0.8-1.1,0.7
		c-46-10.4-92,18.6-102.4,64.7C400.5,107.4,389.7,115.6,377.8,115.6z M437.7,17.4c-39.1,0-74.5,27.1-83.5,66.8
		c-1.4,6.3-0.3,12.8,3.2,18.3c3.5,5.5,8.9,9.3,15.2,10.7c13.1,2.9,26.1-5.3,29-18.3c9.3-41.1,46.3-69,87-68.2l-32-7.2
		C450.2,18.1,443.9,17.4,437.7,17.4z"/>
</g>
<g>
	<path class="st4" d="M554.9,40.8c-46.6-10.5-92.9,18.8-103.4,65.4c-3.1,13.6-16.5,22.1-30.1,19c-13.6-3.1-22.1-16.5-19-30.1
		c10.5-46.6,56.8-75.9,103.4-65.4L554.9,40.8z"/>
	<path class="st1" d="M427,126.7c-1.9,0-3.9-0.2-5.8-0.6c-6.8-1.5-12.6-5.6-16.3-11.5c-3.7-5.9-4.9-12.9-3.4-19.6
		c10.6-47,57.5-76.6,104.5-66L555.1,40c0,0,0,0,0,0c0.5,0.1,0.8,0.6,0.7,1.1c-0.1,0.5-0.6,0.8-1.1,0.7l0,0
		c-46-10.4-91.9,18.7-102.3,64.7c-1.5,6.8-5.6,12.6-11.5,16.3C436.6,125.3,431.8,126.7,427,126.7z M486.8,28.5
		c-39.1,0-74.6,27.1-83.5,66.8c-1.4,6.3-0.3,12.8,3.2,18.3c3.5,5.5,8.9,9.3,15.2,10.7c6.3,1.4,12.8,0.3,18.3-3.2
		c5.5-3.5,9.3-8.9,10.7-15.2c9.3-41.1,46.4-69,87-68.2l-32-7.2C499.3,29.2,493,28.5,486.8,28.5z"/>
</g>
<g>
	<path class="st3" d="M604,51.9c-46.6-10.5-92.9,18.7-103.4,65.4l0,0c-3.1,13.6-16.5,22.1-30.1,19c-13.6-3.1-22.1-16.5-19-30.1
		c10.5-46.6,56.8-75.9,103.4-65.4L604,51.9z"/>
	<path class="st1" d="M476,137.8c-1.9,0-3.8-0.2-5.7-0.6c-14-3.2-22.8-17.1-19.7-31.1c10.6-47,57.5-76.6,104.5-66L604.2,51
		c0,0,0,0,0,0c0.5,0.1,0.8,0.6,0.7,1.1c-0.1,0.5-0.6,0.8-1.1,0.7l0,0c-22.3-5-45.2-1.1-64.5,11.2c-19.3,12.2-32.8,31.2-37.8,53.5
		C498.7,129.5,487.9,137.8,476,137.8z M535.9,39.6c-39.1,0-74.6,27.1-83.5,66.8c-2.9,13.1,5.3,26.1,18.3,29
		c13.1,2.9,26.1-5.3,29-18.3c5.1-22.8,18.8-42.2,38.6-54.7c14.7-9.3,31.4-13.9,48.3-13.5l-31.9-7.2
		C548.4,40.3,542.1,39.6,535.9,39.6z"/>
</g>
<g>
	<path class="st4" d="M653.1,63c-46.6-10.5-92.9,18.7-103.4,65.4c-3.1,13.6-16.5,22.1-30.1,19c-13.6-3.1-22.1-16.5-19-30.1
		c10.5-46.6,56.8-75.9,103.4-65.4L653.1,63z"/>
	<path class="st1" d="M525.2,148.9c-1.9,0-3.9-0.2-5.8-0.6c-6.8-1.5-12.6-5.6-16.3-11.5c-3.7-5.9-4.9-12.9-3.4-19.6
		c10.6-47,57.5-76.6,104.5-66l49.1,11.1c0,0,0,0,0,0c0.5,0.1,0.8,0.6,0.7,1.1c-0.1,0.5-0.6,0.8-1.1,0.7l0,0
		c-22.3-5-45.2-1.1-64.6,11.1c-19.3,12.2-32.8,31.2-37.8,53.5c-1.5,6.8-5.6,12.6-11.5,16.3C534.8,147.5,530,148.9,525.2,148.9z
		 M584.9,50.7c-39.1,0-74.5,27.1-83.5,66.8c-1.4,6.3-0.3,12.8,3.2,18.3c3.5,5.5,8.9,9.3,15.2,10.7c6.3,1.4,12.8,0.3,18.3-3.2
		c5.5-3.5,9.3-8.9,10.7-15.2c5.1-22.8,18.8-42.2,38.6-54.7c14.7-9.3,31.3-13.9,48.3-13.5l-31.9-7.2
		C597.5,51.3,591.2,50.7,584.9,50.7z"/>
</g>
<g>
	<path class="st3" d="M653.1,63l-19,84.4l-84.4-19l0,0C560.2,81.7,606.5,52.5,653.1,63L653.1,63z"/>
	<path class="st1" d="M634.1,148.2c-0.1,0-0.1,0-0.2,0l-84.4-19c-0.2-0.1-0.4-0.2-0.6-0.4c-0.1-0.2-0.2-0.4-0.1-0.7
		c10.6-47,57.5-76.6,104.5-66c0.2,0.1,0.4,0.2,0.6,0.4c0.1,0.2,0.2,0.4,0.1,0.7l-19,84.4c-0.1,0.2-0.2,0.4-0.4,0.6
		C634.4,148.2,634.2,148.2,634.1,148.2z M550.7,127.7l82.6,18.6L652,63.7C606.5,53.9,561.4,82.4,550.7,127.7z"/>
</g>
<g>
	<path class="st2" d="M402.5,501.6l10.3,31.7c0,0,12.8,0.8,12.1-0.3c-0.7-1.1-9.4-36.4-9.4-36.4L402.5,501.6z"/>
	<path class="st1" d="M420.7,534.4c-1.9,0-4.4-0.1-8-0.3c-0.4,0-0.7-0.3-0.8-0.6l-10.3-31.7c-0.1-0.4,0.1-0.9,0.5-1.1l13-5
		c0.2-0.1,0.5-0.1,0.7,0c0.2,0.1,0.4,0.3,0.5,0.6c3.4,13.8,8.7,34.8,9.3,36.2c0.2,0.3,0.2,0.7,0,1
		C425.5,533.9,425.2,534.4,420.7,534.4z M424.1,533.3c0,0,0,0.1,0.1,0.1C424.2,533.4,424.1,533.4,424.1,533.3z M413.4,532.4
		c4.1,0.3,8.7,0.4,10.4,0.2c-1.5-4.7-6.9-26.4-9-34.8l-11.3,4.3L413.4,532.4z M425.7,532.5C425.7,532.5,425.7,532.5,425.7,532.5
		C425.7,532.5,425.7,532.5,425.7,532.5z"/>
</g>
<path class="st5" d="M453.2,583.1c1.7-1.7,3-3.9,3.6-6.3c1.9-6.1,0.2-12.7-4.3-17.1c-7.7-7.8-25.9-31.8-25.9-31.8
	c-12.3,4.9-17.1-0.5-17.1-0.5c-5,4.7-10.5,11.6-14.1,16.5c-2.5,3.4-4.1,5.7-4.1,5.7C409.6,566.1,453.2,583.1,453.2,583.1z"/>
<g>
	<path class="st2" d="M453.2,583.1c1.7-1.7,3-3.9,3.6-6.3c-32.4-11.5-55.2-28.2-61.4-32.9c-2.5,3.4-4.1,5.7-4.1,5.7
		C409.6,566.1,453.2,583.1,453.2,583.1z"/>
	<path class="st1" d="M453.2,584c-0.1,0-0.2,0-0.3-0.1c-0.4-0.2-44-17.2-62.2-33.7c-0.3-0.3-0.4-0.8-0.1-1.2c0,0,1.7-2.4,4.2-5.7
		c0.1-0.2,0.4-0.3,0.6-0.3c0.2,0,0.5,0,0.7,0.2c6.2,4.8,29,21.4,61.2,32.8c0.4,0.2,0.7,0.6,0.6,1.1c-0.7,2.5-2,4.8-3.9,6.6
		C453.7,583.9,453.4,584,453.2,584z M392.5,549.5c17.1,15,55.5,30.6,60.5,32.6c1.2-1.3,2.2-2.9,2.8-4.7
		c-30.9-11.1-53-26.8-60.2-32.2C394.1,547.1,393,548.7,392.5,549.5z"/>
</g>
<path class="st4" d="M380.2,483.2c0,0,7.1-7.1,17-10c9.9-2.9,22.5,2.3,22.5,2.3s6.4,20.4,6.5,21.1c0.1,0.6-4.1,6.2-15.2,11
	c-6.6,2.9-14.1,3-20.8,0.5C385.9,500.2,382.6,491.8,380.2,483.2z"/>
<path class="st5" d="M414,479.8c0,0-4.8,8.6-25.7,4.8l-28.2-73.8c0,0-58.9-67.2-72.6-86.2c-13.6-19-14.8-69.1,9.8-76.4
	c19.3-5.7,33.3,16.8,33.3,16.8c9.5,18.8,44,88,59.5,119.5c4.1,8.4,7,14.1,7.6,15.5c0.8,1.6,2.2,7.3,3.8,14.9
	C406.6,438.3,414,479.8,414,479.8z"/>
<path class="st2" d="M401.6,414.9c-2.2,2.1-5.1,3.4-8.2,3.6c-8,0.4-14.8-7-15.2-16.4c-0.4-8.8,4.8-16.3,12-17.6
	c4.1,8.3,7,14.1,7.6,15.5C398.6,401.6,400,407.3,401.6,414.9z"/>
<path class="st1" d="M394.3,479.8c-0.4,0-0.7-0.2-0.9-0.6l-26.2-70.8l-63.3-75.9c-0.3-0.4-0.3-1,0.1-1.3c0.4-0.3,1-0.3,1.3,0.1
	l63.4,76.1c0.1,0.1,0.1,0.2,0.2,0.3l26.3,71c0.2,0.5-0.1,1-0.6,1.2C394.5,479.8,394.4,479.8,394.3,479.8z"/>
<path class="st1" d="M304.3,330.2c-0.4,0-0.7-0.2-0.9-0.6c-0.2-0.5,0-1,0.5-1.2c12.9-5.4,24.7-19.7,24.8-19.8
	c0.3-0.4,0.9-0.5,1.3-0.1c0.4,0.3,0.5,0.9,0.1,1.3c-0.5,0.6-12.2,14.8-25.6,20.4C304.6,330.2,304.4,330.2,304.3,330.2z"/>
<g>
	<path class="st2" d="M284.9,480.2l-8,32.3c0,0,10.5,7.5,10.5,6.2c0-1.3,11.2-35.9,11.2-35.9L284.9,480.2z"/>
	<path class="st1" d="M287.3,519.7c-0.8,0-3-0.9-10.9-6.5c-0.3-0.2-0.4-0.6-0.3-0.9l8-32.3c0.1-0.5,0.6-0.7,1-0.7l13.7,2.6
		c0.2,0,0.5,0.2,0.6,0.4c0.1,0.2,0.2,0.5,0.1,0.7c-4.4,13.5-10.9,34.1-11.1,35.7c0,0.4-0.2,0.7-0.6,0.9
		C287.6,519.7,287.5,519.7,287.3,519.7z M288.3,518.7C288.3,518.7,288.3,518.7,288.3,518.7C288.3,518.7,288.3,518.7,288.3,518.7z
		 M286.5,518.5c0,0,0,0.1,0,0.1C286.5,518.7,286.5,518.6,286.5,518.5z M278,512.1c3.4,2.4,7.2,4.9,8.8,5.6c1.2-4.8,8.1-26,10.7-34.3
		l-11.9-2.3L278,512.1z"/>
</g>
<path class="st5" d="M285,576.2c2.4-0.6,4.6-1.7,6.4-3.4c4.8-4.2,6.8-10.6,5.3-16.8c-2.4-10.7-5.2-40.6-5.2-40.6
	c-13-2.3-14.3-9.5-14.3-9.5c-6.7,1.3-15.1,4.3-20.7,6.5c-3.9,1.5-6.5,2.7-6.5,2.7C256.9,538.8,285,576.2,285,576.2z"/>
<g>
	<path class="st2" d="M285,576.2c2.4-0.6,4.6-1.7,6.4-3.4c-21.5-26.9-32.1-53-34.8-60.4c-3.9,1.5-6.5,2.7-6.5,2.7
		C256.9,538.8,285,576.2,285,576.2z"/>
	<path class="st1" d="M285,577.1c-0.3,0-0.5-0.1-0.7-0.4c-0.1-0.1-7.1-9.5-15-21.7c-7.2-11.3-16.6-27.3-20.2-39.6
		c-0.1-0.4,0.1-0.9,0.5-1.1c0,0,2.7-1.2,6.6-2.7c0.2-0.1,0.5-0.1,0.7,0c0.2,0.1,0.4,0.3,0.5,0.5c2.8,7.4,13.4,33.5,34.7,60.1
		c0.3,0.4,0.2,0.9-0.1,1.2c-1.9,1.8-4.3,3-6.8,3.6C285.1,577.1,285.1,577.1,285,577.1z M251.1,515.6c2.9,9.5,9.7,22.8,19.7,38.4
		c6.8,10.6,13,19.1,14.5,21.1c1.8-0.5,3.4-1.4,4.8-2.5c-20.3-25.7-30.9-50.7-34.1-59.1C253.8,514.5,252,515.2,251.1,515.6z"/>
</g>
<path class="st4" d="M282.7,458.8c0,0,9.7-2.6,19.7-0.2s18.4,13.2,18.4,13.2s-4.6,20.9-4.9,21.5s-6.7,3.3-18.7,2
	c-7.2-0.8-13.7-4.4-18.3-10C279.2,476.4,280.4,467.5,282.7,458.8z"/>
<path class="st1" d="M302.1,318.5c-0.4,0-0.8-0.2-0.9-0.6c-0.2-0.5,0.1-1,0.6-1.2c1.6-0.5,3.1-1.3,4.5-2.2c3-2,4.6-5.4,4.2-8.9
	c-1.5-14.8-4.3-30.6-4.3-30.8c-0.1-0.5,0.2-1,0.8-1.1c0.5-0.1,1,0.2,1.1,0.8c0,0.2,2.9,16.1,4.4,30.9c0.4,4.2-1.5,8.3-5.1,10.7
	c-1.6,1-3.2,1.8-5,2.4C302.3,318.5,302.2,318.5,302.1,318.5z"/>
<path class="st5" d="M336.3,405.4c-0.1,2.4-1.7,8.7-4,16.5c-6,20.1-16.6,50.3-16.6,50.3c-17.8,3.8-28.5-8.1-28.5-8.1l6.2-53.2
	c0,0-54.2-59.9-57.5-76.1c-3.3-16.2,1.4-56.1,1.4-56.1c3.2-37.6,54.5-28.7,60.5-6.2c6,22.5,6.7,56.7,6.7,56.7s17.1,35.9,26.3,58.7
	C334,396.4,336.3,403.1,336.3,405.4z"/>
<path class="st1" d="M303.9,319.2c-0.5,0-0.9-0.4-0.9-0.9c-0.8-12.8-2.3-25.8-4.5-38.4c-0.1-0.5,0.3-1,0.8-1.1
	c0.5-0.1,1,0.3,1.1,0.8c2.2,12.7,3.8,25.7,4.5,38.7C304.8,318.7,304.4,319.1,303.9,319.2C303.9,319.2,303.9,319.2,303.9,319.2z"/>
<path class="st2" d="M336.3,405.4c-0.1,2.4-1.7,8.7-4,16.5c-7.2-0.7-13.1-7.6-13.5-16.4c-0.4-8.8,4.8-16.2,11.9-17.6
	C334,396.4,336.3,403.1,336.3,405.4z"/>
<path class="st1" d="M295.1,462.4c-0.1,0-0.1,0-0.2,0c-0.5-0.1-0.9-0.6-0.8-1.1l9.1-52.5c-7-8.6-57.3-70-58.5-74.1
	c-1.3-4.2,0.4-32.3,0.6-35.5c0-0.5,0.5-0.9,1-0.9c0.5,0,0.9,0.5,0.9,1c-0.5,8.6-1.7,31.6-0.7,34.8c1,3,35.5,45.8,58.5,73.8
	c0.2,0.2,0.2,0.5,0.2,0.8l-9.2,52.9C296,462.1,295.6,462.4,295.1,462.4z"/>
<path class="st1" d="M304.3,330.2c-13.2,0-27.2-1.6-27.4-1.6c-0.5-0.1-0.9-0.5-0.8-1c0.1-0.5,0.5-0.9,1-0.8c0.1,0,14,1.6,27.1,1.6
	c0.5,0,0.9,0.4,0.9,0.9S304.8,330.2,304.3,330.2z"/>
<path class="st1" d="M318.7,361.4c-0.4,0-0.7-0.2-0.9-0.6c-7.3-16.3-14.3-31-14.4-31.1c-0.1-0.1-0.1-0.3-0.1-0.4
	c0,0-0.1-5.1-0.5-12.4c0-0.5,0.4-1,0.9-1c0.5,0,1,0.4,1,0.9c0.4,6.5,0.5,11.2,0.5,12.2c0.8,1.7,7.4,15.6,14.3,31
	c0.2,0.5,0,1-0.5,1.2C319,361.3,318.9,361.4,318.7,361.4z"/>
<g>
	<path class="st2" d="M354.3,182.5c0,0,23.8,12.4,31.4,13.5c7.6,1.2,23.1,1,23.1,1l0.5,20.7c0,0-25,5-36.1,4.8
		c-11.2-0.2-33.7-15.7-33.7-15.7L354.3,182.5z"/>
	<path class="st1" d="M373.9,223.3c-0.3,0-0.6,0-0.8,0c-11.3-0.2-33.3-15.2-34.2-15.8c-0.4-0.3-0.5-0.8-0.3-1.2l15-24.2
		c0.2-0.4,0.8-0.5,1.2-0.3c0.2,0.1,23.7,12.3,31.1,13.5c7.4,1.2,22.8,0.9,22.9,0.9c0.5,0,0.9,0.4,0.9,0.9l0.5,20.7
		c0,0.4-0.3,0.8-0.7,0.9C408.4,218.7,385.4,223.3,373.9,223.3z M340.5,206.5c3.9,2.6,22.9,14.9,32.6,15.1c9.9,0.2,31-3.8,35.2-4.6
		l-0.4-19.1c-3.4,0-15.7,0.1-22.3-1c-7-1.1-26.8-11.1-30.9-13.3L340.5,206.5z"/>
</g>
<path class="st4" d="M303.7,145.5c9.5-2.9,54.7,34.4,54.7,34.4s-1.9,18.8-14.7,34.7c0,0-25.1-13.8-36.8-31.4
	C295.1,165.7,303.7,145.5,303.7,145.5z"/>
<path class="st1" d="M340.3,210.1c-0.2,0-0.4-0.1-0.6-0.2c-0.4-0.3-0.5-0.9-0.1-1.3c9-11.1,11.4-29.3,11.4-29.5
	c0.1-0.5,0.5-0.9,1.1-0.8c0.5,0.1,0.9,0.5,0.8,1.1c-0.1,0.8-2.5,18.9-11.8,30.4C340.8,209.9,340.6,210.1,340.3,210.1z"/>
<g>
	<path class="st2" d="M411.1,246.2c-17.4-39.5,7.6-74.9,7.6-74.9l-47.5-7.8c0,0-25,35.4-7.6,74.9L411.1,246.2z"/>
	<path class="st1" d="M411.1,247.1c0,0-0.1,0-0.1,0l-47.5-7.8c-0.3,0-0.5-0.2-0.7-0.5c-9.1-20.6-6.5-40.1-2.7-52.8
		c4.1-13.8,10.2-22.5,10.4-22.9c0.2-0.3,0.5-0.4,0.9-0.4l47.5,7.8c0.3,0,0.6,0.3,0.7,0.5c0.1,0.3,0.1,0.6-0.1,0.9
		c-0.1,0.1-6.2,8.9-10.2,22.4c-3.7,12.4-6.2,31.4,2.7,51.6c0.1,0.3,0.1,0.6-0.1,0.9C411.6,247,411.4,247.1,411.1,247.1z
		 M364.2,237.6l45.5,7.5c-8.3-20.1-5.8-38.9-2.1-51.3c3.3-11.1,7.9-18.9,9.7-21.7l-45.6-7.5c-1.3,2-6.4,10.2-9.9,22
		C358.1,198.8,355.6,217.6,364.2,237.6z"/>
</g>
<g>
	<path class="st2" d="M403.6,187.5c-6.8,0.9-4.6,7.1,4.6,8c9.2,0.9,12.6,0.3,12.6-3C420.9,189.3,414.6,186.1,403.6,187.5z"/>
	<path class="st1" d="M414.5,196.8c-1.7,0-3.8-0.1-6.3-0.4c-6.1-0.6-9.3-3.4-9.4-6c0-0.8,0.3-3.2,4.7-3.8l0,0
		c7.4-1,13.5,0.1,16.6,2.7c1.1,1,1.7,2.1,1.7,3.2c0,1.2-0.4,2.1-1.1,2.8C419.5,196.3,417.7,196.8,414.5,196.8z M403.8,188.4
		c-2,0.3-3.2,1-3.2,2c0,1.4,2.5,3.7,7.8,4.2c4.6,0.5,9.6,0.7,11.1-0.6c0.4-0.3,0.5-0.8,0.5-1.5c0-0.8-0.6-1.5-1.1-1.9
		C416.9,188.9,411.8,187.4,403.8,188.4L403.8,188.4z"/>
</g>
<g>
	<path class="st2" d="M408.6,195.7c-8.6,0.2-10.8,4.5-10.1,12.8s4,10.7,14.1,10.3s10-8.3,9.6-13.9
		C421.9,199.4,417.8,195.5,408.6,195.7z"/>
	<path class="st1" d="M410.9,219.8c-9.2,0-12.5-2.9-13.2-11.2c-0.4-5.1,0.3-8.5,2.2-10.7c1.8-2,4.6-3,8.7-3.1l0,0
		c8.8-0.2,14.1,3.5,14.6,10.1c0.3,4.1,0.3,8.6-2.5,11.7c-1.8,1.9-4.4,3-8,3.1C412.1,219.8,411.5,219.8,410.9,219.8z M408.6,196.6
		c-3.6,0.1-6,0.9-7.5,2.5c-1.6,1.8-2.2,4.8-1.8,9.3c0.7,7.8,3.5,9.9,13.2,9.5c3.1-0.1,5.3-0.9,6.7-2.5c2.3-2.6,2.3-6.7,2-10.4
		C421,199.4,416.5,196.4,408.6,196.6L408.6,196.6z"/>
</g>
<path class="st1" d="M241.6,103.4c6.9,3,0.7,17.4-2,21.9c-2.7,4.5,0.4,17.8-8.7,21.9s7,22.3-16,39.8c-17.7,13.5-47.2,1.9-42.6-13.1
	c4.6-15,29-21.3,33.1-35.1c2.6-8.8-0.8-21.7,14.1-25.9C230.4,109.7,236.1,101,241.6,103.4z"/>
<path class="st4" d="M303.7,145.5c0,0,22.6,33,24.2,40.7s-8.9,24.5-8.9,24.5l24.6,58.1c0,0-16.6,16.4-41.1,21.2
	c-24.5,4.8-69.9-5-69.9-5l7.4-58.8l-15.2-26.8l1.5-45.3c0,0,21.9,7.7,37.9,7.6C280.3,161.6,303.7,145.5,303.7,145.5z"/>
<path class="st1" d="M325.2,199.9c-0.1,0-0.2,0-0.4-0.1c-0.5-0.2-0.7-0.8-0.5-1.2c2.3-5.4,3.2-9.6,2.7-12.1
	c-1.3-6.2-17.1-29.9-21.9-37.1c-0.3-0.4-0.2-1,0.3-1.3c0.4-0.3,1-0.2,1.3,0.3c6.2,9.2,20.8,31.4,22.1,37.7c0.6,3-0.3,7.4-2.8,13.2
	C325.9,199.6,325.6,199.9,325.2,199.9z"/>
<path class="st1" d="M285.8,285.6c-20.1,0-45.6-3.2-47-3.4c-0.5-0.1-0.9-0.5-0.8-1.1c0.1-0.5,0.5-0.9,1.1-0.8
	c0.4,0.1,43.7,5.5,62,2.4c18.2-3.1,34.4-16,34.5-16.1c0.4-0.3,1-0.3,1.3,0.1c0.3,0.4,0.3,1-0.1,1.3c-0.2,0.1-16.7,13.4-35.4,16.5
	C297.1,285.4,291.6,285.6,285.8,285.6z"/>
<path class="st5" d="M269.3,154.2c10.1-2,17.5,4.9,19.2,13.2c1.7,8.2-7,13.1-7,13.1s-4.6-8.4-7.9-8.7c-3.3-0.3-5.4,11.5-5.4,11.5
	s-11.3-1.2-14.6-11.8C250.3,160.9,260.3,156,269.3,154.2z"/>
<g>
	<path class="st2" d="M223.2,223.8l-6.7,26.6l30.1,42.8c0,0,13,2.1,19.8,3.6c6.9,1.5,8.9,19.7,7.4,21.9c-1.5,2.1-5.8-10.6-5.8-10.6
		s2.4,12.8,0.2,14c-2.1,1.2-12.7,3.4-13.5,0.8c-0.8-2.6-2.9-9.7-2.9-9.7s-10.3-3.4-10.7-12.2c0,0-44-18.6-57.6-52.2
		c0,0,4.1-19.3,9.5-35.5S227.3,198.4,223.2,223.8z"/>
	<path class="st1" d="M258.3,325.1c-1.2,0-2.2-0.1-2.9-0.4c-1-0.4-1.3-1-1.5-1.4c-0.7-2.2-2.3-7.7-2.7-9.3c-0.9-0.3-2.9-1.2-5-2.8
		c-3.5-2.6-5.5-5.9-5.8-9.5c-2.3-1-12.2-5.6-23.3-13.4c-21.2-14.7-30.3-29.4-34.2-39.1c-0.1-0.2-0.1-0.3,0-0.5
		c0-0.2,4.2-19.6,9.5-35.6c1.4-4.1,4.3-7.5,8.3-9.4c3.7-1.8,8.1-2.3,12-1.3c7,1.7,13.6,8.3,11.5,21.6c0,0,0,0,0,0.1l-6.6,26.2
		l29.7,42.1c2.2,0.4,13.3,2.2,19.5,3.6c2.5,0.6,4.7,3.1,6.3,7.2c2.1,5.6,3,14.1,1.6,16c-0.3,0.5-0.8,0.7-1.3,0.6
		c-1-0.2-2.2-1.9-3.3-4.3c0.3,3.5,0.1,6.7-1.2,7.4C267.1,323.8,262,325.1,258.3,325.1z M184.5,248.7c13.4,32.7,56.6,51.2,57,51.4
		c0.3,0.1,0.5,0.4,0.5,0.8c0.3,8.1,10,11.4,10.1,11.4c0.3,0.1,0.5,0.3,0.6,0.6c0,0.1,2,7.1,2.8,9.7c0,0.1,0.2,0.2,0.4,0.3
		c2.5,1,10.2-0.7,11.8-1.6c0.8-0.7,0.5-6.8-0.7-13.1c-0.1-0.5,0.2-0.9,0.6-1c0.5-0.1,0.9,0.1,1.1,0.6c1.4,4.1,3.4,8.8,4.4,10
		c0.5-1.8,0.1-8.6-2-14.1c-0.9-2.4-2.6-5.4-4.9-6c-6.8-1.5-19.7-3.6-19.8-3.6c-0.2,0-0.4-0.2-0.6-0.4l-30.1-42.8
		c-0.1-0.2-0.2-0.5-0.1-0.7l6.6-26.6c1.3-8-0.7-17.3-10.1-19.6c-8.7-2.1-16.1,3.2-18.3,9.6C189,228.5,185,246.3,184.5,248.7z
		 M223.2,223.8L223.2,223.8L223.2,223.8z"/>
</g>
<path class="st4" d="M226.3,154c-14.9-2.5-32.6,46-39.6,67.2c0,0,17.1,8.6,36.8,10.8c0,0,8.6-25.7,12.4-42.1
	C239.7,173.4,239.6,156.3,226.3,154z"/>
<path class="st1" d="M231.5,207.4c-0.1,0-0.2,0-0.3,0c-0.5-0.1-0.8-0.7-0.6-1.2c1.8-6.3,3.4-12,4.4-16.5c1.8-7.7,4-21.6-0.7-29.3
	c-0.3-0.4-0.1-1,0.3-1.3c0.4-0.3,1-0.1,1.3,0.3c4.8,7.9,3.2,21.1,0.9,30.7c-1,4.5-2.6,10.3-4.4,16.6
	C232.3,207.1,231.9,207.4,231.5,207.4z"/>
<path class="st1" d="M223.7,225.5c0,0-0.1,0-0.1,0c-14.2-2.2-32-9-32.2-9.1c-0.5-0.2-0.7-0.7-0.5-1.2c0.2-0.5,0.7-0.7,1.2-0.5
	c0.2,0.1,17.8,6.8,31.8,9c0.5,0.1,0.9,0.6,0.8,1.1C224.5,225.2,224.1,225.5,223.7,225.5z"/>
<g>
	<path class="st2" d="M277.1,139.4l2.1,20.6c0,0-3,5.9-7.9,6.1c-4.9,0.2-9.6-5-9.6-5v-22.9L277.1,139.4z"/>
	<path class="st1" d="M271,167c-5.1,0-9.8-5.1-10-5.4c-0.1-0.2-0.2-0.4-0.2-0.6v-22.9c0-0.2,0.1-0.5,0.3-0.7
		c0.2-0.2,0.4-0.3,0.7-0.2l15.4,1.2c0.4,0,0.8,0.4,0.8,0.8l2.1,20.6c0,0.2,0,0.3-0.1,0.5c-0.1,0.3-3.3,6.3-8.6,6.6
		C271.2,167,271.1,167,271,167z M262.6,160.7c1,1,4.9,4.7,8.7,4.5c3.8-0.2,6.4-4.4,7-5.4l-2-19.6l-13.7-1.1V160.7z"/>
</g>
<g>
	<path class="st2" d="M248,106.7l-2.7-0.5c-0.9-0.1-1.8,0.2-2.3,0.9c-0.8,1-1.4,2.1-1.6,3.3c-0.2,1.3,0.1,2.6,0.7,3.8
		c0.3,0.6,0.8,1,1.5,1.1l3.1,0.9c1.3,0.4,2.6-0.4,3-1.7c0-0.2,0.1-0.3,0.1-0.5l0.4-4.8C250.1,108,249.2,106.9,248,106.7z"/>
	<path class="st1" d="M247.2,117.2c-0.3,0-0.6,0-0.9-0.1l-3.1-0.9c-0.8-0.2-1.6-0.8-2-1.6c-0.8-1.3-1.1-2.9-0.9-4.4c0,0,0-0.1,0-0.1
		c0.3-1.3,1-2.6,1.8-3.7c0.7-0.9,2-1.4,3.2-1.2l2.7,0.5c1.7,0.3,3,1.8,2.8,3.6l-0.4,4.8c0,0.2-0.1,0.4-0.1,0.6
		C250,116.2,248.7,117.2,247.2,117.2z M242.2,110.6c-0.2,1.1,0.1,2.2,0.6,3.1c0.2,0.4,0.5,0.6,0.9,0.7l3.1,0.9
		c0.4,0.1,0.8,0.1,1.2-0.1c0.4-0.2,0.6-0.5,0.7-0.9c0-0.1,0-0.2,0.1-0.3l0.4-4.8c0.1-0.8-0.5-1.5-1.3-1.6c0,0,0,0,0,0l-2.7-0.5
		c-0.5-0.1-1.1,0.1-1.4,0.6C242.9,108.5,242.4,109.5,242.2,110.6z"/>
</g>
<path class="st2" d="M288.3,126.5c2,8.8,1.1,20-9.5,22.8c-7.8,2-19.1-4.8-23.1-16.4c-4.1-11.6-4.9-22.2,9.4-25.6
	c1.5-0.3,3.1-0.6,4.7-0.7c8.7-0.6,12.1-0.7,17.4,15.2C287.6,123.2,287.9,124.8,288.3,126.5z"/>
<path class="st1" d="M276.3,150.5c-2.2,0-4.8-0.6-8-1.8c-0.5-0.2-0.7-0.7-0.5-1.2c0.2-0.5,0.7-0.7,1.2-0.5c4.2,1.6,7.2,2.1,9.6,1.4
	c4.5-1.2,7.5-4,8.8-8.5c1.1-3.6,1.1-8.3,0-13.2l-0.2-0.7c-0.3-1.4-0.6-2.7-1-3.9c-5.1-15.3-7.9-15.1-16.4-14.6c-0.5,0-0.9-0.4-1-0.9
	c0-0.5,0.4-0.9,0.9-1c8.8-0.6,12.8-0.8,18.3,15.8c0.4,1.3,0.7,2.7,1.1,4.1l0.2,0.7c2.2,9.7,0.7,21-10.2,23.9
	C278.2,150.4,277.3,150.5,276.3,150.5z"/>
<path class="st1" d="M260,133.3c2.5-2.1,3.7-5.4,3.1-8.6c-0.2-1.1-0.5-2.5-0.6-3.8c8.1,4.3,20.7,4.5,26.2,4.3c1.7,0,3.3-1.2,3.8-2.9
	c3-10.5-9.3-24.6-20.3-20.6c-15.5-4.6-28.1,6.5-26.7,17.9C247,132.1,257,136,260,133.3z"/>
<path class="st2" d="M259.4,132.4c0,0-7.4-4.2-12.9-0.6c-5.5,3.7,0.9,17.1,15.2,11L259.4,132.4z"/>
<path class="st1" d="M254.8,145.3c-1.3,0-2.6-0.2-3.8-0.5c-2.8-0.8-5-2.6-6.3-5c-1.8-3.3-1.3-7,1.3-8.7c5.9-3.9,13.5,0.4,13.9,0.5
	c0.4,0.3,0.6,0.8,0.3,1.3c-0.3,0.4-0.8,0.6-1.3,0.3c-0.1-0.1-7-3.9-11.9-0.6c-1.7,1.2-2,3.8-0.7,6.3c1.9,3.6,7,6.5,15,3.1
	c0.5-0.2,1,0,1.2,0.5c0.2,0.5,0,1-0.5,1.2C259.6,144.7,257.1,145.3,254.8,145.3z"/>
<path class="st4" d="M147.9,97.7c6.3-1.2,11.9-4.9,15.5-10.2l7.4,7.4c0,0-6.2,12.1-21.7,12.5L147.9,97.7z"/>
<path class="st4" d="M202.5,398.1c3.3,5.5,8.7,9.5,15,10.9l-4.3,9.5c0,0-13.5-1.5-19.3-15.9L202.5,398.1z"/>
<path class="st4" d="M575.6,475.3c3.3,5.5,8.7,9.5,15,10.9l-4.3,9.5c0,0-13.5-1.5-19.3-15.9L575.6,475.3z"/>
<path class="st3" d="M260.7,29.5c2.8-1.2,5-3.5,6.3-6.3l1.6-3.7l1.6,3.7c1.2,2.8,3.5,5,6.3,6.3l3.7,1.6l-3.7,1.6
	c-2.8,1.2-5,3.5-6.3,6.3l-1.6,3.7L267,39c-1.2-2.8-3.5-5-6.3-6.3l-3.7-1.6L260.7,29.5z"/>
<path class="st3" d="M119.5,232.5c2.4-1,4.3-2.9,5.3-5.3l1.4-3.1l1.4,3.1c1,2.4,2.9,4.3,5.3,5.3l3.1,1.4l-3.1,1.4
	c-2.4,1-4.3,2.9-5.3,5.3l-1.4,3.1l-1.4-3.1c-1-2.4-2.9-4.3-5.3-5.3l-3.1-1.4L119.5,232.5z"/>
<path class="st3" d="M142.8,491.8c2.1-0.9,3.8-2.6,4.7-4.7l1.2-2.8l1.2,2.8c0.9,2.1,2.6,3.8,4.7,4.7l2.8,1.2l-2.8,1.2
	c-2.1,0.9-3.8,2.6-4.7,4.7l-1.2,2.8l-1.2-2.8c-0.9-2.1-2.6-3.8-4.7-4.7L140,493L142.8,491.8z"/>
<path class="st3" d="M503.3,540.7c2.9-1.3,5.3-3.6,6.6-6.6l1.7-3.9l1.7,3.9c1.3,2.9,3.6,5.3,6.6,6.6l3.9,1.7l-3.9,1.7
	c-2.9,1.3-5.3,3.6-6.6,6.6l-1.7,3.9l-1.7-3.9c-1.3-2.9-3.6-5.3-6.6-6.6l-3.9-1.7L503.3,540.7z"/>
<circle class="st3" cx="660" cy="380.3" r="8.2"/>
<circle class="st3" cx="456.1" cy="461.4" r="6.3"/>
</svg>
