<?xml version="1.0" encoding="utf-8"?>
<!-- Generator: Adobe Illustrator 26.0.3, SVG Export Plug-In . SVG Version: 6.00 Build 0)  -->
<svg version="1.1" id="a1dcc6ba-40dd-4863-b6e0-e0077a18cf8c"
	 xmlns="http://www.w3.org/2000/svg" xmlns:xlink="http://www.w3.org/1999/xlink" x="0px" y="0px" viewBox="0 0 729 658"
	 style="enable-background:new 0 0 729 658;" xml:space="preserve">
<style type="text/css">
	.st0{fill:#3F3D56;}
	.st1{fill:#FFFFFF;}
	.st2{fill:#262424;}
	.st3{fill:#DE9244;}
	.st4{fill:#88C0C2;}
	.st5{fill:#221F1F;}
	.st6{fill:none;}
</style>
<path class="st0" d="M668.5,71.3l-27-26.9l-12.9,20.3H409.9c-14.1,0-27,11.5-28.7,25.6L325.4,541l-25.9,40.7l25.1,25l0,0
	c4.1,4.7,10.1,7.6,17.3,7.6h242.3c14.1,0,27-11.5,28.7-25.6l61.7-498.4C675.5,82.8,673.1,76,668.5,71.3z"/>
<path class="st1" d="M558.5,588.7H316.2c-14.1,0-24.2-11.5-22.4-25.6l61.7-498.4c1.7-14.1,14.6-25.6,28.7-25.6h242.3
	c14.1,0,24.2,11.5,22.4,25.6l-61.7,498.4C585.5,577.2,572.6,588.7,558.5,588.7z"/>
<path class="st2" d="M558.5,590.5H316.2c-7.3,0-13.9-2.9-18.5-8.1s-6.7-12.2-5.8-19.6l61.7-498.4c1.9-15,15.6-27.2,30.6-27.2h242.3
	c7.3,0,13.9,2.9,18.5,8.1s6.7,12.2,5.8,19.6l-61.7,498.4C587.2,578.3,573.5,590.5,558.5,590.5z M384.3,41
	c-13.2,0-25.3,10.7-26.9,23.9l-61.7,498.4c-0.8,6.3,0.9,12.3,4.9,16.7c3.9,4.4,9.4,6.8,15.7,6.8h242.3c13.2,0,25.3-10.7,26.9-23.9
	l61.7-498.4c0.8-6.3-0.9-12.3-4.9-16.7s-9.4-6.8-15.7-6.8L384.3,41L384.3,41z"/>
<path class="st2" d="M559.7,571h-240c-2.3,0-4.6-0.9-6.2-2.7s-2.3-4.2-1.9-6.5l61.5-496.1c0.7-5,4.9-8.7,9.9-8.8h67.1
	c1.7,0,3.4,0.7,4.5,2s1.7,3,1.4,4.7c-0.1,0.8,0.1,1.7,0.6,2.3c0.6,0.6,1.3,0.9,2.2,0.9h85.8c2-0.1,3.7-1.6,4-3.6
	c0.2-1.7,1.1-3.3,2.4-4.5s3-1.8,4.7-1.9h67.1c2.3,0,4.6,0.9,6.2,2.7c1.6,1.8,2.3,4.2,1.9,6.5l0,0l-61.5,496.1
	C568.9,567.1,564.7,570.8,559.7,571z M383,59.9c-3.5,0.1-6.3,2.7-6.8,6.1l-61.5,496.1c-0.2,1.5,0.2,3,1.2,4.1s2.4,1.7,3.8,1.6h240
	c3.5-0.1,6.3-2.7,6.8-6.1L628,65.6c0.2-1.5-0.2-3-1.2-4.1s-2.4-1.7-3.8-1.6h-67.1c-1,0-1.9,0.4-2.7,1.1c-0.8,0.7-1.2,1.6-1.4,2.5
	c-0.5,3.6-3.5,6.3-7.1,6.3h-85.8c-1.7,0-3.4-0.7-4.5-2s-1.6-3-1.4-4.7c0.1-0.8-0.1-1.7-0.7-2.3s-1.3-0.9-2.2-0.9H383L383,59.9z
	 M629.5,65.8L629.5,65.8z"/>
<path class="st3" d="M629.5,65.8l-6.6,53.5H368l6.6-53.5c0.6-4.2,4.1-7.3,8.4-7.5h67.1c2.4-0.1,4.3,1.8,4.4,4.2c0,0.3,0,0.5-0.1,0.8
	c-0.2,1.3,0.2,2.5,1,3.5c0.8,0.9,2.1,1.5,3.3,1.5h85.8c2.8-0.1,5.2-2.2,5.6-5c0.2-1.4,0.8-2.6,1.9-3.5c1-0.9,2.3-1.4,3.7-1.5h67.1
	c3.6-0.1,6.5,2.7,6.6,6.3C629.6,65,629.6,65.4,629.5,65.8z"/>
<path class="st3" d="M622.9,121.2H368c-1,0-1.9-0.8-1.9-1.9c0-0.1,0-0.2,0-0.2l6.6-53.5c0.7-5.1,5.1-9,10.2-9.1H450
	c1.8,0,3.5,0.7,4.7,2.1s1.7,3.2,1.5,5c-0.1,0.7,0.1,1.5,0.6,2.1c0.5,0.5,1.2,0.8,1.9,0.8h85.8c1.9-0.1,3.4-1.5,3.7-3.3
	c0.5-3.7,3.7-6.5,7.5-6.6h67.1c2.4,0,4.8,1,6.4,2.8c1.6,1.9,2.3,4.3,2,6.8l0,0l-6.6,53.5C624.6,120.5,623.8,121.2,622.9,121.2z
	 M370.1,117.5h251.2l6.4-51.9c0.2-1.4-0.2-2.8-1.1-3.8c-0.9-1-2.2-1.6-3.6-1.5h-67.1c-0.9,0-1.8,0.4-2.5,1s-1.1,1.4-1.3,2.3
	c-0.5,3.7-3.7,6.6-7.5,6.6h-85.8c-1.8,0-3.5-0.7-4.7-2.1s-1.7-3.2-1.5-5c0.1-0.7-0.1-1.5-0.6-2.1c-0.5-0.5-1.2-0.8-1.9-0.8H383
	c-3.3,0.1-6.1,2.6-6.5,5.8L370.1,117.5z M629.5,65.8L629.5,65.8z"/>
<path class="st3" d="M572.7,524.6l-4.6,37.3c-0.6,4.2-4.1,7.3-8.4,7.5h-240c-3.6,0.1-6.5-2.7-6.6-6.3c0-0.4,0-0.8,0.1-1.2l4.6-37.3
	H572.7z"/>
<path class="st3" d="M559.7,571.3h-240c-2.4,0-4.8-1-6.4-2.8c-1.6-1.9-2.3-4.3-2-6.8l4.6-37.3c0.1-0.9,0.9-1.6,1.9-1.6h254.9
	c1,0,1.9,0.8,1.9,1.9c0,0.1,0,0.2,0,0.2l-4.6,37.3C569.2,567.3,564.9,571.1,559.7,571.3z M319.4,526.5l-4.4,35.7
	c-0.2,1.4,0.2,2.8,1.1,3.8s2.2,1.6,3.6,1.5h240c3.3-0.1,6.1-2.6,6.5-5.8l4.4-35.2H319.4L319.4,526.5z"/>
<path class="st4" d="M540.1,58.4h-74.2c-2.4,0.1-4.3-1.8-4.4-4.2c0-0.3,0-0.5,0.1-0.8l0,0c0.4-2.8,2.8-4.9,5.6-5h74.2
	c2.4-0.1,4.3,1.8,4.4,4.2c0,0.3,0,0.5-0.1,0.8l0,0C545.3,56.2,542.9,58.3,540.1,58.4z"/>
<path class="st3" d="M424.4,431.5l2.6,4.6c0.2,0.3,0.5,0.5,0.8,0.6l5.2,1.6c1.1,0.3,1.3,1.6,0.5,2.5l-4,4.4c-0.3,0.3-0.4,0.7-0.5,1
	l-0.5,5.6c-0.1,1-1.1,1.8-2.1,1.6c-0.1,0-0.2,0-0.3-0.1l-5-1.9c-0.4-0.1-0.7-0.1-1.1,0l-5.5,1.9c-0.7,0.3-1.6,0-1.9-0.7
	c-0.1-0.3-0.1-0.5-0.1-0.8l0.9-5.6c0.1-0.4,0-0.7-0.2-1l-2.9-4.4c-0.5-0.9-0.1-1.9,0.7-2.4c0.1-0.1,0.3-0.1,0.4-0.2l5.6-1.6
	c0.4-0.1,0.7-0.3,1-0.6l3.7-4.6C422.5,430.5,423.9,430.5,424.4,431.5z"/>
<path class="st3" d="M458.1,431.5l2.6,4.6c0.2,0.3,0.5,0.5,0.8,0.6l5.2,1.6c1.1,0.3,1.3,1.6,0.5,2.5l-4,4.4c-0.3,0.3-0.4,0.7-0.5,1
	l-0.5,5.6c-0.1,1-1.1,1.8-2.1,1.6c-0.1,0-0.2,0-0.3-0.1l-5-1.9c-0.4-0.1-0.7-0.1-1.1,0l-5.5,1.9c-0.7,0.3-1.6,0-1.9-0.7
	c-0.1-0.3-0.1-0.5-0.1-0.8l0.9-5.6c0.1-0.4,0-0.7-0.2-1l-2.9-4.4c-0.5-0.9-0.1-1.9,0.7-2.4c0.1-0.1,0.3-0.1,0.4-0.2l5.6-1.6
	c0.4-0.1,0.7-0.3,1-0.6l3.7-4.6C456.2,430.5,457.6,430.5,458.1,431.5z"/>
<path class="st3" d="M491.8,431.5l2.6,4.6c0.2,0.3,0.5,0.5,0.8,0.6l5.2,1.6c1.1,0.3,1.3,1.6,0.5,2.5l-4,4.4c-0.3,0.3-0.4,0.7-0.5,1
	l-0.5,5.6c-0.1,1-1.1,1.8-2.1,1.6c-0.1,0-0.2,0-0.3-0.1l-5-1.9c-0.4-0.1-0.7-0.1-1.1,0l-5.5,1.9c-0.7,0.3-1.6,0-1.9-0.7
	c-0.1-0.3-0.1-0.5-0.1-0.8l0.9-5.6c0.1-0.4,0-0.7-0.2-1l-2.9-4.4c-0.5-0.9-0.1-1.9,0.7-2.4c0.1-0.1,0.3-0.1,0.4-0.2l5.6-1.6
	c0.4-0.1,0.7-0.3,1-0.6l3.7-4.6C489.9,430.5,491.3,430.5,491.8,431.5z"/>
<path class="st4" d="M539.5,400.1H381.8c-7.7,0-13.2-6.3-12.3-14L389,228.4c1-7.7,8-14,15.7-14h157.7c7.7,0,13.2,6.3,12.3,14
	l-19.5,157.7C554.3,393.8,547.3,400.1,539.5,400.1z"/>
<path class="st4" d="M540.6,161H440c-3,0.1-5.4-2.3-5.5-5.2c0-0.3,0-0.7,0.1-1l0,0c0.5-3.5,3.5-6.1,7-6.2h100.5
	c3-0.1,5.4,2.3,5.5,5.2c0,0.3,0,0.7-0.1,1l0,0C547.1,158.3,544.1,160.9,540.6,161z"/>
<path class="st4" d="M506.8,195h-41.4c-3,0.1-5.4-2.3-5.5-5.2c0-0.3,0-0.7,0.1-1l0,0c0.5-3.5,3.5-6.1,7-6.2h41.4
	c3-0.1,5.4,2.3,5.5,5.2c0,0.3,0,0.7-0.1,1l0,0C513.3,192.3,510.4,194.9,506.8,195z"/>
<path class="st1" d="M430.3,86.1h-35.9c-1.5,0-2.9-0.6-3.9-1.7s-1.5-2.7-1.2-4.2c0.4-3.1,3.1-5.5,6.2-5.5h35.9
	c1.5,0,2.9,0.6,3.9,1.7s1.5,2.7,1.2,4.2C436.1,83.7,433.5,86,430.3,86.1z M395.5,77.8c-1.6,0.1-2.9,1.2-3.1,2.8
	c-0.1,0.6,0.1,1.2,0.5,1.7c0.4,0.4,1,0.7,1.6,0.7h35.9c1.6-0.1,2.9-1.2,3.1-2.8c0.1-0.6-0.1-1.2-0.5-1.7c-0.4-0.4-1-0.7-1.6-0.7
	H395.5L395.5,77.8z"/>
<path class="st1" d="M428.2,103.1h-35.8c-1.5,0-2.9-0.6-3.9-1.7s-1.5-2.7-1.2-4.2c0.4-3.1,3.1-5.5,6.2-5.5h35.9
	c1.5,0,2.9,0.6,3.9,1.7s1.5,2.7,1.2,4.2C434,100.7,431.4,103,428.2,103.1z M393.4,94.8c-1.6,0.1-2.9,1.2-3.1,2.8
	c-0.1,0.6,0.1,1.2,0.5,1.7c0.4,0.4,1,0.7,1.6,0.7h35.9c1.6-0.1,2.9-1.2,3.1-2.8c0.1-0.6-0.1-1.2-0.5-1.7c-0.4-0.4-1-0.7-1.6-0.7
	H393.4L393.4,94.8z"/>
<path class="st1" d="M604.5,98.9h-26.1c-0.9,0-1.6-0.7-1.6-1.6V72.5c0-0.9,0.7-1.6,1.6-1.6h32.3c0.9,0,1.6,0.7,1.6,1.6
	c0,0.1,0,0.3,0,0.4l-6.2,24.9C605.9,98.4,605.2,98.9,604.5,98.9z M580,95.8h23.3l5.4-21.8h-28.8L580,95.8z"/>
<path class="st1" d="M578.4,74h-7.6c-0.9,0-1.6-0.7-1.6-1.6s0.7-1.6,1.6-1.6h7.6c0.9,0,1.6,0.7,1.6,1.6
	C579.9,73.3,579.2,74,578.4,74z"/>
<path class="st1" d="M582.3,113.4c-1.5,0-2.9-0.6-3.9-1.7s-1.5-2.6-1.2-4.1c0.4-3.1,3-5.4,6.2-5.5c1.5,0,2.9,0.6,3.9,1.7
	s1.5,2.6,1.2,4.1l0,0C588,111,585.4,113.3,582.3,113.4z M583.3,105.1c-1.6,0.1-2.9,1.2-3.1,2.8c-0.1,0.6,0.1,1.2,0.5,1.7
	c0.4,0.4,1,0.7,1.6,0.7c1.6-0.1,2.9-1.2,3.1-2.8l0,0c0.1-0.6-0.1-1.2-0.5-1.7C584.5,105.4,583.9,105.1,583.3,105.1L583.3,105.1z
	 M586.9,107.7L586.9,107.7z"/>
<path class="st1" d="M597,113.4c-1.5,0-2.9-0.6-3.9-1.7s-1.5-2.6-1.2-4.1c0.4-3.1,3-5.4,6.2-5.5c1.5,0,2.9,0.6,3.9,1.7
	s1.5,2.6,1.2,4.1l0,0C602.8,111,600.2,113.3,597,113.4z M598,105.1c-1.6,0.1-2.9,1.2-3.1,2.8c-0.1,0.6,0.1,1.2,0.5,1.7
	c0.4,0.4,1,0.7,1.6,0.7c1.6-0.1,2.9-1.2,3.1-2.8l0,0c0.1-0.6-0.1-1.2-0.5-1.7C599.2,105.4,598.6,105.1,598,105.1L598,105.1z
	 M601.6,107.7L601.6,107.7z"/>
<path class="st4" d="M496.8,502.3h-97.6c-8.2,0-14.1-6.7-13.1-14.9l0,0c1-8.2,8.5-14.9,16.8-14.9h97.6c8.2,0,14.1,6.7,13.1,14.9l0,0
	C512.6,495.6,505,502.3,496.8,502.3z"/>
<g>
	<g>
		<g>
			<path class="st1" d="M230.9,464.9l55.1-25.8c8.9-4.2,19.5-4.5,28.6-0.5l90.4,38.8c4.1,1.7,6.1,6.3,4.7,10.5l0,0
				c-1.4,4.2-5.9,6.7-10.1,5.5l-54.5-14.3l-7.9,20.4c-5.5,14.3-18.6,24.3-33.8,25.9l-17.3,1.8l-49.5-16.8L230.9,464.9z"/>
			<path class="st5" d="M234.2,512c-0.3-0.4-0.4-0.9-0.5-1.3l-5.6-45.4c-0.1-1.2,0.5-2.4,1.6-2.9l55.1-25.8
				c9.7-4.6,21.1-4.8,30.9-0.6l90.4,38.8c5.3,2.3,8.1,8.5,6.2,14c-1.9,5.6-7.9,8.8-13.6,7.3l-52-13.7l-7,18
				c-6,15.3-19.8,26-36.2,27.7l-17.3,1.8c-0.4,0.1-0.9,0-1.2-0.1L235.7,513C235.1,512.9,234.6,512.5,234.2,512z M234,466.7l5.2,41.6
				l47.2,16l16.8-1.8c14.2-1.5,26.3-10.7,31.4-24l7.9-20.4c0.5-1.3,2-2.2,3.5-1.8l54.5,14.3c2.8,0.7,5.8-0.9,6.7-3.6
				s-0.4-5.9-3.1-6.9l-90.4-38.8c-8.4-3.6-18-3.4-26.3,0.5L234,466.7z"/>
		</g>
		<g>
			<path class="st1" d="M334.8,472.9l-26.7-2.2c-8.2-0.7-15.5,5.3-16.4,13.5l-4.4,37.8c-1,8.2,4.8,15.7,13,16.9l24.5,3.6
				c8.2,1.2,16-4.4,17.3-12.6l6.7-39.1C350.1,481.9,343.8,473.6,334.8,472.9z"/>
			<path class="st5" d="M287.7,534.5c-2.6-3.5-3.9-8.1-3.4-12.9l4.4-37.8c1.2-9.7,9.7-16.8,19.6-15.9l26.7,2.2c5,0.4,9.8,3,12.8,7
				c3.1,4,4.4,9.2,3.5,14.2l-6.7,39.1c-1.6,9.8-10.7,16.4-20.5,14.9l-24.5-3.6C294.7,541,290.5,538.3,287.7,534.5z M343.6,480.9
				c-0.1,0-0.2-0.2-0.1-0.3c-2.2-2.9-5.2-4.5-8.8-4.8l0,0l-26.7-2.2c-6.8-0.6-12.6,4.2-13.4,11l-4.4,37.8
				c-0.7,6.7,3.8,12.7,10.5,13.7l24.5,3.6c6.7,1,12.9-3.5,14-10.2l6.7-39.1C346.4,486.9,345.6,483.6,343.6,480.9z M334.8,472.9
				L334.8,472.9L334.8,472.9z"/>
		</g>
		<g>
			<path class="st1" d="M236,462.6l59.4-33.4c3.6-1.9,7.9-2.2,11.7-0.3l17.9,8.8c4.6,2.3,7.2,7.1,6.9,12.1l-2.2,29.6
				c-0.4,5.6-5.7,9.4-11.2,7.9l0,0c-3.4-0.9-5.9-3.7-6.5-7.2l-2.7-17.1l-27.9,27c-1.7,1.6-3.9,2.6-6.3,2.5l-41.2-0.7L236,462.6z"/>
			<path class="st5" d="M231.4,493.4c-0.4-0.6-0.6-1.3-0.6-1.9l2.2-29c0-0.9,0.6-1.8,1.4-2.3l59.4-33.4c4.4-2.5,9.8-2.7,14.4-0.4
				l17.9,8.8c5.6,2.8,9,8.7,8.4,14.9l-2.2,29.6c-0.2,3.5-2.1,6.7-4.9,8.7c-2.9,2-6.4,2.7-9.8,1.7c-4.5-1.2-7.8-4.9-8.6-9.6
				l-1.9-11.8l-23.9,23.1c-2.2,2.2-5.3,3.4-8.3,3.3l-41.2-0.7c-0.7,0-1.6-0.3-2.1-0.9C231.5,493.5,231.5,493.4,231.4,493.4z
				 M238.6,464.4l-1.9,24.4l38.1,0.6c1.6,0,3.2-0.6,4.3-1.7l27.9-27c0.8-0.8,1.9-1,2.9-0.6c1,0.4,1.8,1.2,1.9,2.2l2.7,17.3
				c0.4,2.3,2.1,4.3,4.5,4.9c1.7,0.5,3.5,0.1,5.1-0.9c1.5-1,2.4-2.7,2.5-4.5l2.2-29.6c0.3-3.9-1.8-7.6-5.4-9.3l-18-9
				c-2.8-1.4-6.2-1.4-9,0.2L238.6,464.4z"/>
		</g>
	</g>
	<g>
		<path class="st0" d="M250.8,527.6c0,0-116.3,38.1-193.7,42.2c-34.2,1.8-149.9-21.2-155.6-38.8c-4.7-14.2,25.1,1.6,28.2-22.2
			c9.4-73.4,1.1-3.4,29.1-56.1c37.3-69.8,22.1-41.5,72.9-13.2c48.2,26.9,104.4,20.4,104.4,20.4l104.1-9.2L250.8,527.6z"/>
		<g>
			<line class="st6" x1="220.5" y1="466.2" x2="228.5" y2="518"/>
			<path class="st5" d="M226.2,519.7c-0.3-0.4-0.5-0.8-0.5-1.2l-8.1-51.9c-0.2-1.6,0.8-3,2.4-3.3c1.6-0.2,3,0.8,3.3,2.4l8.1,51.9
				c0.2,1.6-0.8,3-2.4,3.3C227.8,521,226.8,520.5,226.2,519.7z"/>
		</g>
	</g>
</g>
<path class="st5" d="M430.9,473.4l11-16.9c0.9-1.4,0.5-3.1-0.8-4c-1.4-0.9-3.1-0.5-4,0.8l-11,16.9c-0.3,0.4-0.4,0.8-0.5,1.3
	c-0.2,1,0.3,2,1.2,2.7C428.3,475,430,474.6,430.9,473.4z"/>
<path class="st5" d="M384.7,528.5l11-16.9c0.9-1.4,0.5-3.1-0.8-4c-1.4-0.9-3.1-0.5-4,0.8l-11,16.9c-0.3,0.4-0.4,0.8-0.5,1.3
	c-0.2,1,0.3,2,1.2,2.7C382.1,530.1,383.8,529.7,384.7,528.5z"/>
<path class="st5" d="M420.5,502.2l14.5,14.1c1.2,1.1,2.9,1.1,4.1,0c1.1-1.2,1.1-2.9,0-4.1l-14.5-14.1c-0.3-0.3-0.7-0.5-1.1-0.7
	c-0.9-0.3-2-0.1-2.9,0.7C419.5,499.3,419.5,501.1,420.5,502.2z"/>
<path class="st5" d="M387.3,439.8l7.3,18.8c0.6,1.5,2.2,2.2,3.7,1.7c1.5-0.6,2.2-2.2,1.7-3.7l-7.3-18.8c-0.1-0.4-0.4-0.8-0.8-1.1
	c-0.7-0.7-1.8-1-2.9-0.6C387.5,436.7,386.8,438.3,387.3,439.8z"/>
</svg>
