<?xml version="1.0" encoding="utf-8"?>
<!-- Generator: Adobe Illustrator 26.0.3, SVG Export Plug-In . SVG Version: 6.00 Build 0)  -->
<svg version="1.1" id="a1dcc6ba-40dd-4863-b6e0-e0077a18cf8c"
	 xmlns="http://www.w3.org/2000/svg" xmlns:xlink="http://www.w3.org/1999/xlink" x="0px" y="0px" viewBox="0 0 729 658"
	 style="enable-background:new 0 0 729 658;" xml:space="preserve">
<style type="text/css">
	.st0{fill:#FFFFFF;}
	.st1{fill:#262424;}
	.st2{fill:#88C0C2;}
	.st3{fill:#3F3D56;}
</style>
<path class="st0" d="M412.5,589.3l-27.1,233.1c-0.4,4,2.4,7.6,6.4,8.1c0.3,0,0.5,0,0.8,0l0,0c3.4,0,6.4-2.4,7.1-5.7l51.1-235.5
	H412.5L412.5,589.3z"/>
<path class="st1" d="M392.6,832.5c-5.1,0-9.3-4.2-9.3-9.3c0-0.3,0-0.7,0.1-1l27.1-233.1c0.1-1,1-1.8,2-1.8h38.3c1.1,0,2,0.9,2,2
	c0,0.1,0,0.3,0,0.4l-51.1,235.5C400.7,829.5,397,832.5,392.6,832.5z M414.3,591.3l-26.9,231.4c-0.1,2.9,2.1,5.4,5,5.6
	c2.5,0.1,4.7-1.5,5.4-3.8l50.6-233.1L414.3,591.3L414.3,591.3z"/>
<path class="st0" d="M512.7,589.3l27.1,233.1c0.4,4-2.4,7.6-6.4,8.1c-0.3,0-0.5,0-0.8,0l0,0c-3.4,0-6.4-2.4-7.1-5.7l-51.1-235.5
	H512.7L512.7,589.3z"/>
<path class="st1" d="M532.6,832.5c-4.4,0-8.1-3-9.1-7.3l-51.1-235.5c-0.2-1.1,0.4-2.1,1.5-2.4c0.1,0,0.3,0,0.4,0h38.3
	c1,0,1.9,0.8,2,1.8l27.1,233.1c0.6,5.1-3.1,9.7-8.2,10.3C533.3,832.5,533,832.5,532.6,832.5z M476.9,591.3l50.6,233.1
	c0.8,2.8,3.7,4.4,6.6,3.6c2.4-0.7,4-2.9,3.8-5.4L511,591.2h-34.1V591.3z"/>
<polygon class="st0" points="655.8,567.2 632.7,567.2 652.2,441.2 675.2,441.2 "/>
<path class="st1" d="M655.8,569.2h-23.1c-1.1,0-2-0.9-2-2c0-0.1,0-0.2,0-0.3l19.5-126c0.2-1,1-1.7,2-1.7h23.1c1.1,0,2,0.9,2,2
	c0,0.1,0,0.2,0,0.3l-19.5,126C657.6,568.4,656.8,569.2,655.8,569.2z M635.1,565.2h19l18.9-122h-19L635.1,565.2z"/>
<path class="st2" d="M665.5,457.7L665.5,457.7c-12,0-21.7-9.7-21.7-21.7c0-1.1,0.1-2.2,0.3-3.3l17.8-115.6
	c1.6-10.6,10.7-18.4,21.4-18.4l0,0c12,0,21.7,9.7,21.7,21.7c0,1.1-0.1,2.2-0.3,3.3l-17.8,115.6C685.3,449.9,676.2,457.7,665.5,457.7
	z"/>
<path class="st0" d="M556.7,589.3l-27.1,233.1c-0.4,4,2.4,7.6,6.4,8.1c0.3,0,0.5,0,0.8,0l0,0c3.4,0,6.4-2.4,7.1-5.7L595,589.3H556.7
	z"/>
<path class="st1" d="M536.8,832.5c-5.1,0-9.3-4.2-9.3-9.3c0-0.3,0-0.7,0.1-1l27.1-233.1c0.1-1,1-1.8,2-1.8H595c1.1,0,2,0.9,2,2
	c0,0.1,0,0.3,0,0.4l-51.1,235.5C544.9,829.5,541.2,832.5,536.8,832.5z M558.5,591.3l-26.9,231.4c-0.1,2.9,2.1,5.4,5,5.6
	c2.5,0.1,4.7-1.5,5.4-3.8l50.6-233.1L558.5,591.3L558.5,591.3z"/>
<path class="st0" d="M656.9,589.3L684,822.4c0.4,4-2.4,7.6-6.4,8.1c-0.3,0-0.5,0-0.8,0l0,0c-3.4,0-6.4-2.4-7.1-5.7l-51.1-235.5
	H656.9L656.9,589.3z"/>
<path class="st1" d="M676.8,832.5c-4.4,0-8.1-3-9.1-7.3l-51.1-235.5c-0.2-1.1,0.4-2.1,1.5-2.4c0.1,0,0.3,0,0.4,0h38.3
	c1,0,1.9,0.8,2,1.8L686,822.2c0.6,5.1-3.1,9.7-8.2,10.3C677.5,832.5,677.1,832.5,676.8,832.5z M621,591.3l50.6,233.1
	c0.8,2.8,3.7,4.4,6.6,3.6c2.4-0.7,4-2.9,3.8-5.4l-26.9-231.4H621V591.3z"/>
<path class="st3" d="M413.7,554.3h148.7c10.9,0,19.7,8.8,19.7,19.7l0,0c0,10.9-8.8,19.7-19.7,19.7H413.7c-10.9,0-19.7-8.8-19.7-19.7
	l0,0C394,563.1,402.8,554.3,413.7,554.3z"/>
<path class="st0" d="M557.9,554.3h97.9c10.9,0,19.7,8.8,19.7,19.7l0,0c0,10.9-8.8,19.7-19.7,19.7h-97.9c-10.9,0-19.7-8.8-19.7-19.7
	l0,0C538.2,563.1,547,554.3,557.9,554.3z"/>
<path class="st1" d="M655.7,595.7h-97.9c-12,0-21.7-9.7-21.7-21.7s9.7-21.7,21.7-21.7l0,0h97.9c12,0,21.7,9.7,21.7,21.7
	C677.5,586,667.7,595.7,655.7,595.7L655.7,595.7z M557.9,556.3c-9.8,0-17.7,7.9-17.7,17.7s7.9,17.7,17.7,17.7h97.9
	c9.8,0,17.7-7.9,17.7-17.7s-7.9-17.7-17.7-17.7H557.9L557.9,556.3z"/>
<path class="st2" d="M630.4,465.4c0,0-9.7,59.7-11.9,67.3s-25.2,20.4-41.6,21.2c-16.4,0.9-151.8,0-151.8,0l-58.9,169.5l-51.8-11.5
	c0,0,29-128.4,42.9-184.6c3.6-14.6,6.3-24.3,7.1-25.6c1-1.5,12.5-4.6,29.3-8.6c52.2-12.2,155.6-31.7,155.6-31.7s16.8-32.3,47.8-32.3
	C628.2,429.1,634,444.2,630.4,465.4z"/>
<path class="st0" d="M381.5,524.6c-8.3,4.5-17.4,5.3-24.1,2.7c3.6-14.6,6.3-24.3,7.1-25.6c1-1.5,12.5-4.6,29.3-8.6
	c0.5,0.7,1,1.4,1.4,2.1C400.3,504.5,394.2,517.7,381.5,524.6z"/>
<path class="st1" d="M595,509.1c-0.1,0-0.3,0-0.4,0c-5.5-1.3-9.3-4.1-11.4-8.4c-4.9-10.3,2-25.1,2.3-25.7c0.4-0.8,1.4-1.2,2.2-0.8
	c0.8,0.4,1.2,1.4,0.8,2.2c-0.1,0.1-6.6,14.1-2.3,22.9c1.6,3.4,4.6,5.6,9.2,6.6c0.9,0.2,1.5,1.1,1.3,2
	C596.5,508.5,595.8,509.1,595,509.1z"/>
<path class="st1" d="M353,701.1c-0.9,0-1.7-0.7-1.7-1.7c0-0.2,0-0.3,0.1-0.5l51.3-166.8c0.2-0.7,0.8-1.1,1.5-1.2l187.6-14.1
	l7.3-44.3c0.1-0.9,0.9-1.6,1.9-1.4c0.9,0.1,1.6,0.9,1.4,1.9v0.1l-7.5,45.6c-0.1,0.8-0.7,1.3-1.5,1.4l-187.8,14.1l-51,165.7
	C354.3,700.6,353.7,701.1,353,701.1z"/>
<polygon class="st0" points="431.3,583.4 447.6,631 465.9,623.8 453.8,574.1 "/>
<path class="st1" d="M447.6,633c-0.8,0-1.6-0.5-1.9-1.3L429.4,584c-0.3-1,0.2-2.1,1.1-2.5l22.5-9.3c1-0.4,2.2,0.1,2.6,1.1
	c0,0.1,0.1,0.2,0.1,0.3l12.1,49.7c0.2,1-0.3,2-1.2,2.3l-18.3,7.3C448.1,633,447.9,633,447.6,633z M433.8,584.5l15,43.9l14.7-5.9
	l-11.1-45.7L433.8,584.5z"/>
<path class="st2" d="M417.8,728.6l4.8,7.3l90.3-59.5c0,0-2.2-4-6.2-10.6c-7.8-13-21.1-34.6-38.2-56.9l-31.9,14.4
	c0,0-7.8,42-16.6,76.6c-0.9,3.6-2,7.2-3.3,10.8C414.4,717.5,414.7,723.9,417.8,728.6z"/>
<path class="st1" d="M447.4,682.7c-0.1,0-0.2,0-0.4,0c-1.1-0.2-1.8-1.2-1.6-2.3l0,0c6.1-32.7,3.9-54.9,3.8-55.1
	c-0.1-1.1,0.7-2.1,1.8-2.2c1.1-0.1,2.1,0.7,2.2,1.8c0.1,0.9,2.3,23-3.9,56.2C449.2,682,448.4,682.7,447.4,682.7z"/>
<ellipse transform="matrix(0.8336 -0.5524 0.5524 0.8336 -279.9374 369.3958)" class="st0" cx="473.1" cy="649.3" rx="9.6" ry="10.6"/>
<path class="st1" d="M477.6,664.8c-1,0-2-0.1-3-0.4c-3.2-0.9-5.9-2.8-7.7-5.6l0,0c-1.8-2.7-2.6-6-2.1-9.3c0.8-6,6.3-10.2,12.2-9.4
	c0.5,0.1,1.1,0.2,1.6,0.3c6.5,1.8,10.7,8.1,9.8,14.8c-0.4,3.1-2.2,6-4.8,7.7C481.8,664.2,479.7,664.8,477.6,664.8z M475.6,644
	c-1.3,0-2.7,0.4-3.8,1.1c-1.7,1.1-2.8,3-3.1,5c-0.3,2.3,0.2,4.6,1.5,6.5l0,0c1.2,1.9,3.1,3.3,5.3,3.9c3.7,1.1,7.5-1,8.6-4.7
	c0.1-0.4,0.2-0.8,0.2-1.2c0.6-4.7-2.3-9.1-6.9-10.4C476.9,644.1,476.3,644,475.6,644z"/>
<path class="st1" d="M422.6,737.9c-0.7,0-1.3-0.3-1.7-0.9l-4.8-7.3c-3.4-5.2-3.8-12.2-1.2-19.8c1.2-3.4,2.3-6.9,3.2-10.6
	c0.1-0.3,0.3-0.7,0.5-0.9c7.6-7.5,15.5-11.2,23.5-11c8.5,0.3,14.7,5,17.2,7.3l46.3-30.5c0.9-0.6,2.2-0.3,2.8,0.6c0,0,0,0.1,0.1,0.1
	c3.9,6.6,6.2,10.6,6.2,10.7c0.5,0.9,0.2,2.1-0.7,2.7l-90.3,59.5C423.4,737.9,423,738,422.6,737.9z M421.9,700.9
	c-0.9,3.6-2,7.1-3.2,10.4c-2.2,6.4-2,12.1,0.7,16.3l0,0l3.7,5.6l87.1-57.4c-0.8-1.5-2.3-3.9-4.2-7.1L460.1,699
	c-0.8,0.5-1.9,0.4-2.6-0.3c-0.1-0.1-6.3-6.9-15.6-7.1C435.3,691.2,428.5,694.4,421.9,700.9z"/>
<path class="st2" d="M449,481.3l18.5,95.7l-45.6,15.5c0,0-43.5-78.9-55.2-114.7c-1.9-5.8-2.9-10.5-2.8-13.5
	c0.9-21.5,22.1-40.4,35-40c1.5,0.1,3,0.4,4.5,0.7c25.7,5.4,129.2,39.6,129.2,39.6L449,481.3z"/>
<path class="st1" d="M421.9,594.1c-0.6,0-1.2-0.3-1.5-0.9c-0.3-0.5-25.8-46.8-42.8-84.2c-0.4-0.8-0.1-1.8,0.8-2.2
	c0.8-0.4,1.8-0.1,2.2,0.8c0,0,0,0,0,0.1c15.4,33.9,37.9,75.2,42,82.7l42.9-14.6l-18.2-94.3c-0.2-0.9,0.4-1.8,1.3-1.9l0,0l82-16.4
	c0.9-0.2,1.8,0.4,2,1.3s-0.4,1.8-1.3,2l-80.4,16l18.2,94.1c0.2,0.8-0.3,1.6-1.1,1.9L422.4,594C422.3,594.1,422.1,594.1,421.9,594.1z
	"/>
<path class="st0" d="M392,469.5c-10.8,9.4-20.9,6.9-26.6,4.2c-1.1-3.9-1.7-7.2-1.6-9.4c0.9-21.5,22.1-40.4,35-40
	c1.5,0.1,3,0.4,4.5,0.7c0,0,0,0.1,0,0.2C403.8,427.8,407.6,455.9,392,469.5z"/>
<path class="st1" d="M422.1,580.6c-0.9,0-1.7-0.7-1.7-1.7c0-0.7,0.5-1.3,1.1-1.6l37-12.4c0.9-0.3,1.8,0.2,2.1,1.1
	c0.3,0.9-0.2,1.8-1,2.1l-37,12.4C422.5,580.6,422.3,580.6,422.1,580.6z"/>
<path class="st1" d="M445.3,566.7c-0.8,0-1.5-0.6-1.6-1.4l-16.4-103.1c-0.1-0.9,0.5-1.8,1.4-1.9c0.3,0,0.5,0,0.8,0.1l42.9,14.8
	c0.9,0.3,1.3,1.2,1,2.1s-1.2,1.3-2.1,1l0,0L431,464.4l16,100.4c0.1,0.9-0.5,1.8-1.4,1.9l0,0C445.5,566.7,445.4,566.7,445.3,566.7z"
	/>
<path class="st1" d="M449,482.9c-0.4,0-0.8-0.2-1.2-0.5l-26.1-25.3c-0.7-0.6-0.7-1.7-0.1-2.3c0.6-0.7,1.7-0.7,2.3-0.1l0,0L450,480
	c0.7,0.6,0.7,1.7,0,2.3C449.8,482.8,449.4,482.9,449,482.9z"/>
<path class="st0" d="M319.6,175.7L319.6,175.7c-0.7,1.5-0.2,3.2,1.1,4.1l29.3,21c1.2,0.8,1.5,2.4,0.8,3.7l0,0
	c-0.8,1.3-2.5,1.8-3.8,1c-0.1-0.1-0.2-0.1-0.3-0.2l-9.4-7c-1.6-1.2-3.8-1.2-5.4,0.1l0,0c-1.7,1.3-2.1,3.7-1.1,5.5l8,14.7
	c2.5,4.6,6.6,8.1,11.5,9.8l6.1,2.2l6.8,10.2l20.8-4.4l-7.3-15l-5.1-24.8c-0.8-3.8-3.5-7-7.2-8.3L323.8,174
	C322.1,173.4,320.3,174.2,319.6,175.7z"/>
<path class="st1" d="M363.4,242.9c-0.7,0-1.3-0.3-1.7-0.9l-6.5-9.6l-5.5-1.9c-5.4-1.9-9.9-5.7-12.6-10.7l-8.1-14.7
	c-1.7-3.1-0.6-7,2.5-8.7c2.2-1.2,4.9-1,6.9,0.5l9.4,7c0.2,0.1,0.4,0.2,0.7,0.1c0.4-0.1,0.7-0.5,0.6-0.9c0-0.2-0.2-0.4-0.3-0.5
	l-29.3-21c-2.1-1.5-2.8-4.3-1.7-6.6l0,0c1.1-2.5,4-3.8,6.6-2.8l40.7,14.4c4.3,1.5,7.6,5.2,8.5,9.7l5.1,24.6l7.2,14.8
	c0.5,1,0.1,2.2-0.9,2.7c-0.1,0.1-0.3,0.1-0.5,0.2l-20.8,4.4C363.6,242.8,363.5,242.9,363.4,242.9z M334.7,199.6
	c-1.3,0-2.4,1.1-2.4,2.4c0,0.4,0.1,0.8,0.3,1.2l8.1,14.7c2.3,4.1,6,7.3,10.4,8.9l6.1,2.2c0.4,0.1,0.7,0.4,1,0.8l6.1,9.1l17-3.6
	l-6.2-12.7c-0.1-0.1-0.1-0.3-0.2-0.5l-5.1-24.8c-0.7-3.1-2.9-5.7-5.9-6.8l-40.7-14.4c-0.7-0.2-1.4,0.1-1.7,0.7l0,0
	c-0.3,0.6-0.1,1.3,0.4,1.7l29.3,21c2.1,1.6,2.6,4.6,1.1,6.7c-1.6,2.1-4.6,2.6-6.7,1.1l-9.4-7C335.7,199.7,335.2,199.5,334.7,199.6z
	 M319.6,175.7L319.6,175.7z"/>
<path class="st3" d="M496,235.8l-3,78.3c0,0-49.2,13.9-84.5,21.8c-1.6,0.4-3.1,0.7-4.6,1c-16.8,3.7-33.7-6-39.1-22.4
	c-10.7-32.8-16-75.3-16-75.3s16.4-11.4,37.3-8.1l21.9,40.8L496,235.8z"/>
<path class="st0" d="M408.5,336c-1.6,0.4-3.1,0.7-4.6,1c-14.5,3.2-29.3-3.6-36.5-16.5c10.4-9,26.2-7.9,35.3,2.5
	C405.8,326.6,407.8,331.2,408.5,336z"/>
<path class="st1" d="M400.4,306.8c-0.9,0-1.7-0.7-1.7-1.7c0-0.1,0-0.3,0-0.4l6.6-28.9c0.2-0.9,1-1.5,1.9-1.3s1.5,1,1.3,1.9v0.1
	l-6.6,28.9C401.9,306.3,401.2,306.8,400.4,306.8z"/>
<path class="st1" d="M357.2,256.9c-0.9,0-1.7-0.7-1.7-1.7c0-0.6,0.4-1.2,0.9-1.5c0.6-0.3,14.4-7,33.6-7.7c0.9,0,1.7,0.7,1.7,1.6
	c0,0.9-0.7,1.7-1.6,1.7c-11.1,0.4-22.1,2.9-32.3,7.4C357.7,256.9,357.4,256.9,357.2,256.9z"/>
<circle class="st0" cx="359.6" cy="243.4" r="4.3"/>
<path class="st1" d="M359.6,249.7c-3.5,0-6.3-2.8-6.3-6.3s2.8-6.3,6.3-6.3s6.3,2.8,6.3,6.3l0,0C365.9,246.9,363.1,249.7,359.6,249.7
	z M359.6,241.1c-1.3,0-2.3,1-2.3,2.3s1,2.3,2.3,2.3s2.3-1,2.3-2.3S360.9,241.1,359.6,241.1z"/>
<path class="st3" d="M657,251.4c0,0-50.4-33.5-87.6-32.9c-37.2,0.7-73.3,17.3-73.3,17.3c-30.3,63-39.7,204.2-39.7,204.2
	s16.6,5.7,63.6,20.5c25.9,10.2,52.9,17.4,80.5,21.4l4.7-28.1c0.4-2.2,2.4-3.6,4.5-3.4l0,0c2.2,0.3,3.8,2.3,3.5,4.6l0,0l-3.7,28
	c16.8,1.8,26.2,1.1,26.2,1.1C657.7,406.4,657,251.4,657,251.4z"/>
<path class="st1" d="M472.9,315.5c-0.9,0-1.7-0.7-1.7-1.7c0-0.1,0-0.2,0-0.3c6.2-31.3,13.4-56.2,21.3-74.2c0.3-0.9,1.3-1.3,2.1-1
	c0.9,0.3,1.3,1.3,1,2.1c0,0.1-0.1,0.1-0.1,0.2c-7.8,17.7-14.9,42.4-21.1,73.5C474.4,314.9,473.7,315.4,472.9,315.5z"/>
<path class="st0" d="M608.5,236.5c-7.2,15.3-19.9,21.2-27.8,23.4c-1.7-11.1-6.8-25.2-6.8-25.2c-6.4,8.3-10.1,19.4-11,24.6
	c-19.8-6.1-21.5-25.4-21.5-25.4c3.1-19.2,20.1-33.1,34.3-32.2C607.1,203.7,608.5,236.5,608.5,236.5z"/>
<path class="st1" d="M580.7,261.9c-1,0-1.8-0.7-2-1.7c-1.1-7.4-3.8-16.3-5.4-21.2c-4,6.3-6.8,13.3-8.5,20.6
	c-0.2,1.1-1.2,1.8-2.3,1.6c-0.1,0-0.2,0-0.2-0.1c-20.8-6.5-22.8-27-22.9-27.2c0-0.2,0-0.3,0-0.5c3.4-21.2,21.9-34.8,36.4-33.9
	c17.1,1.1,25.7,11.1,29.8,19.3c2.7,5.5,4.4,11.4,4.9,17.5c0,0.3,0,0.6-0.2,0.9c-5.6,12-16.3,21-29.1,24.5
	C581,261.9,580.9,261.9,580.7,261.9z M573.9,232.7c0.8,0,1.6,0.5,1.9,1.3c0.2,0.5,4.5,12.6,6.5,23.3c10.6-3.5,19.4-11.1,24.2-21.2
	c-0.3-4.1-3.4-30.7-30.9-32.6c-12.7-0.8-29.1,11.9-32.1,30.3c0.2,2.1,2.5,16.8,18,22.8c1.4-5.6,4.9-15.4,10.9-23.1
	C572.7,233,573.3,232.7,573.9,232.7L573.9,232.7z"/>
<path class="st3" d="M681.9,336.5c-0.1,27.2-0.9,62.1-6.5,85.4c-3.5,14.7-9,24.8-17.3,25.4c-6.9,0.5-14.2-1-21.4-3.7
	c-31.1-11.7-67.4-49.6-71-57.1c-4.5-9.2,2.7-32.8,13.6-34.5c11-1.8,42.5,15.9,42.5,15.9s14.4-75.6,17.8-91
	c3.4-15.4,17.4-25.5,17.4-25.5C676.8,260.3,682.1,292.1,681.9,336.5z"/>
<ellipse transform="matrix(0.9813 -0.1925 0.1925 0.9813 -63.7237 118.5626)" class="st0" cx="578.3" cy="387.2" rx="3.9" ry="3.9"/>
<path class="st1" d="M578.3,393.1c-3.2,0-5.9-2.6-5.9-5.9c0-3.2,2.6-5.9,5.9-5.9c3.2,0,5.9,2.6,5.9,5.9c0,2.8-2,5.2-4.7,5.8
	C579.1,393.1,578.7,393.1,578.3,393.1z M578.3,385.3c-1,0-1.9,0.8-1.9,1.9c0,0.1,0,0.2,0,0.4c0.2,1,1.2,1.7,2.2,1.5s1.7-1.2,1.5-2.2
	l0,0l0,0C580,386,579.2,385.4,578.3,385.3L578.3,385.3z"/>
<path class="st1" d="M634,444.4c-0.3,0-0.5-0.1-0.8-0.2c-30.1-12.6-65.3-48.8-69.3-56.9c-3.4-7-0.9-18.9,3.1-26.7
	c3.2-6.2,7.5-10,11.9-10.7c9.9-1.6,33.4,10.5,41.4,14.8c2.6-13.6,14.3-74.7,17.3-88.4c2.1-9.8,8.2-17.4,13-22.1c0.8-0.8,2-0.8,2.8,0
	s0.8,2,0,2.8l0,0c-4.4,4.3-10,11.4-11.9,20.2c-3.3,15.3-17.6,90.2-17.8,90.9c-0.2,1.1-1.2,1.8-2.3,1.6c-0.2,0-0.4-0.1-0.6-0.2
	c-8.6-4.8-32.8-17.1-41.2-15.7c-3.2,0.5-6.4,3.6-9.1,8.6c-4.1,7.8-5.5,18.2-3.1,23.1c3.1,6.5,36.6,42.1,67.3,55
	c1,0.4,1.5,1.5,1.1,2.6C635.6,443.9,634.8,444.4,634,444.4z"/>
<path class="st1" d="M587,399.7c-1.1,0-2-0.9-2-2c0-0.5,0.2-1,0.6-1.4c15.7-16.2,6.5-40.6,6.4-40.8c-0.4-1,0.1-2.2,1.1-2.6
	s2.2,0.1,2.6,1.1c0.4,1.1,10.2,27.1-7.3,45C588.1,399.5,587.6,399.7,587,399.7z"/>
<path class="st1" d="M652.4,391.2c-0.7,0-1.3-0.3-1.7-0.9l0,0c-5.9-7.7-14-13.4-23.2-16.3c-1-0.3-1.6-1.5-1.3-2.5
	c0.3-0.8,1-1.4,1.9-1.4c0.7,0,15.9,0.1,28.5,5.9c1,0.5,1.4,1.6,1,2.6c-0.5,1-1.6,1.4-2.6,1l0,0c-4.8-2.1-9.9-3.6-15.1-4.4
	c9.3,5.6,13.9,12.4,14.2,12.8c0.6,0.9,0.4,2.2-0.6,2.8C653.2,391.1,652.8,391.2,652.4,391.2z"/>
<path class="st0" d="M675.5,421.8c-3.5,14.7-9,24.8-17.3,25.4c-6.9,0.5-14.2-1-21.4-3.7c-0.2-0.9-0.3-1.7-0.3-2.6
	c-0.9-12.9,8.9-24.1,21.9-25C664.6,415.5,670.8,417.7,675.5,421.8z"/>
<path class="st0" d="M513.7,304.5l42.8-8.4c2.1-0.4,4.1,1,4.5,3.1l14.8,75.3c0.4,2.1-1,4.1-3.1,4.5l-42.8,8.4
	c-2.1,0.4-4.1-1-4.5-3.1L510.7,309C510.3,306.9,511.6,304.9,513.7,304.5z"/>
<path class="st1" d="M529.2,389.5c-2.8,0-5.2-2-5.7-4.7l-14.8-75.3c-0.6-3.2,1.4-6.3,4.6-6.9l0,0l42.8-8.4c3.2-0.6,6.3,1.5,6.9,4.6
	l0,0l14.8,75.3c0.6,3.2-1.5,6.3-4.6,6.9l0,0l-42.8,8.4C530,389.5,529.6,389.5,529.2,389.5z M557.2,298c-0.1,0-0.2,0-0.4,0l-42.8,8.4
	c-1,0.2-1.7,1.2-1.5,2.2l0,0l14.8,75.3c0.2,1,1.2,1.7,2.2,1.5l42.8-8.4l0,0c1-0.2,1.7-1.2,1.5-2.2L559,299.5
	C558.9,298.7,558.1,298,557.2,298L557.2,298z"/>
<ellipse transform="matrix(0.9813 -0.1925 0.1925 0.9813 -50.7007 106.5738)" class="st0" cx="523.1" cy="314.2" rx="3.9" ry="3.9"/>
<path class="st1" d="M523.1,320c-3.2,0-5.9-2.6-5.8-5.9c0-3.2,2.6-5.9,5.9-5.8c2.8,0,5.2,2,5.7,4.7l0,0c0.6,3.2-1.5,6.3-4.6,6.9
	C523.8,320,523.4,320,523.1,320z M523.1,312.3c-0.1,0-0.2,0-0.4,0c-1,0.2-1.7,1.2-1.5,2.2s1.2,1.7,2.2,1.5s1.7-1.2,1.5-2.2
	C524.7,312.9,524,312.3,523.1,312.3L523.1,312.3z"/>
<path class="st0" d="M542.4,332c-6.8,2-6.1,12.4,2.3,12.4c8.5,0,33.5-1.5,29.9-11.6C571,322.7,556,328,542.4,332z"/>
<path class="st1" d="M544.7,346.4c-5.4,0-8.4-3.6-8.9-7.1c-0.6-4.1,1.9-8.1,6-9.2l0,0l2.9-0.9c13-3.9,27.7-8.2,31.7,2.9
	c0.9,2.1,0.6,4.6-0.8,6.4C570.5,346,549,346.4,544.7,346.4z M543,333.9c-2.1,0.6-3.5,2.7-3.2,4.9c0.3,1.8,1.7,3.7,4.9,3.7
	c9.4,0,24.6-1.6,27.7-6.2c0.6-0.8,0.7-1.9,0.3-2.8c-2.6-7.1-12.7-4.6-26.8-0.5L543,333.9L543,333.9L543,333.9z"/>
<path class="st0" d="M546.4,343.8c-6.6,2.7-6.5,13.9-3,26.1c3.5,12.1,12.1,17.9,24.2,14.9c12.1-3,19.2-10,15.4-27
	S574.1,332.6,546.4,343.8z"/>
<path class="st1" d="M561.7,387.5c-9.7,0-17-6.1-20.2-17.1c-4.4-15.3-2.9-25.6,4.2-28.4l0,0c14-5.6,22.9-6.7,29-3.5
	c5.8,3.1,8.3,9.5,10.4,18.9c3.6,16.3-1.7,25.7-16.9,29.4C566,387.2,563.8,387.5,561.7,387.5z M547.1,345.6
	c-4.7,1.9-5.4,11.2-1.8,23.7c3.3,11.4,11,16.2,21.8,13.6c12.9-3.2,17.1-10.6,13.9-24.7c-1.8-8.3-3.9-13.9-8.3-16.2
	C567.9,339.4,559.7,340.5,547.1,345.6L547.1,345.6L547.1,345.6z"/>
<path class="st0" d="M595.4,163.3l-1.2,19.3l-1.9,33c-11.4,7.4-22.2,7.9-32.4-0.3l2-15.3l3.1-23.2L595.4,163.3z"/>
<path class="st1" d="M575.5,223.3c-5.9,0-11.5-2.1-16.9-6.4c-0.5-0.4-0.8-1.1-0.7-1.8l5.1-38.5c0.1-0.7,0.5-1.3,1.2-1.6l30.4-13.5
	c1-0.4,2.2,0,2.6,1c0.1,0.3,0.2,0.6,0.2,0.9l-3.1,52.3c0,0.6-0.4,1.2-0.9,1.6C587.2,221.3,581.3,223.3,575.5,223.3z M562,214.5
	c8.6,6.5,17.9,6.5,28.3,0l2.8-48l-26.4,11.8L562,214.5z"/>
<path class="st1" d="M584.9,168c-0.4,8.7-0.6,38.5-24.1,40.9l4.2-32L584.9,168z"/>
<path class="st0" d="M536.7,163.8c1.6,15.9,6.2,34.9,25.3,31.9c22.7-3.5,37.3-19.5,37.5-41.1s-9.7-33.7-35.6-31.3
	c-2.2,0.2-4.4,0.6-6.5,1.2c-14.9,4-22.3,16.3-21.4,30.8C536.2,157.9,536.4,160.8,536.7,163.8z"/>
<path class="st1" d="M558.2,198.1c-4.3,0.1-8.5-1.3-11.9-4c-9.5-7.6-11.3-23.9-12.2-38.6c-0.6-8.9,1.8-16.8,6.8-22.8
	c5.3-6.4,13.2-10.3,22.9-11.2c1.1-0.1,2.1,0.7,2.2,1.8c0.1,1.1-0.7,2.1-1.8,2.2l0,0c-16.9,1.6-27.2,13.3-26.1,29.8
	c0.7,10,1.8,28.6,10.8,35.8c3.4,2.7,7.6,3.7,12.9,2.8c8.4-1.3,15.7-4.4,21.6-9.1c0.9-0.7,2.1-0.5,2.8,0.3c0.7,0.9,0.5,2.1-0.3,2.8
	c-6.4,5.1-14.5,8.5-23.5,9.9C560.9,198,559.6,198.1,558.2,198.1z"/>
<path class="st1" d="M606.3,158.7c-2.2,3.2-4.6,6.1-7.3,8.9l-11.4,0.7l-2.4-8.1c0,0-7.3-0.3-8.8-5.2c0-0.1-0.1-0.2-0.1-0.3
	c-0.4-1.6-1.9-8.8-0.8-19.9c0,0-17.4,7.7-26.9,8.7c-3.4,0.4-7.4-0.9-11.1-2.8c-7.4-3.7-13.9-15.8-12.6-24v-0.2c2-12,8.3-3.7,8.3-3.7
	s1.8-9.7,7.8-10.4c6-0.7,9.9,8.2,9.9,8.2c11.6-2.7,23.6-3.2,35.4-1.5c23.4,3.6,17.6,19.7,17.6,19.7S621,134.5,606.3,158.7z"/>
<path class="st0" d="M590,167.1c-1-9,5.4-17.4,14.4-18.4c1.9-0.2,3.8-0.1,5.7,0.4c11.2,3,8.2,29-19.1,27L590,167.1z"/>
<path class="st1" d="M593.8,178.2c-1,0-2,0-3-0.1c-1.1-0.1-1.9-1-1.8-2.1c0.1-1.1,1-1.9,2.1-1.8c15,1.1,21.7-6.6,22.9-13.4
	c0.8-4.7-1.1-8.8-4.4-9.7c-1.6-0.4-3.3-0.6-5-0.4c-7.8,0.9-13.5,8.2-12.6,16.2c0.1,1.1-0.7,2.1-1.8,2.2c-1.1,0.1-2.1-0.7-2.2-1.8
	l0,0c-1.1-10.2,6.1-19.5,16.1-20.6c2.2-0.3,4.4-0.1,6.5,0.5c5.4,1.5,8.5,7.4,7.3,14.2C616.4,169.9,608.5,178.2,593.8,178.2z"/>
<path class="st0" d="M331,462.5H100c-5.7-0.1-10.5-4.2-11.5-9.8L26.1,62.1c-0.9-5.4,2.9-9.8,8.4-9.8h231c5.7,0.1,10.5,4.2,11.5,9.8
	l62.4,390.6C340.3,458.1,336.5,462.5,331,462.5z"/>
<path class="st1" d="M331,464.5H100c-6.4,0-12.5-5.1-13.5-11.4L24.2,62.4c-1.1-5.5,2.6-10.9,8.1-11.9c0.7-0.1,1.5-0.2,2.3-0.2h231
	c6.4,0,12.5,5.1,13.5,11.4l62.4,390.6c1.1,5.5-2.6,10.9-8.1,11.9C332.5,464.4,331.8,464.5,331,464.5z M34.5,54.3
	c-1.9-0.1-3.8,0.7-5.1,2.2c-1.2,1.5-1.7,3.4-1.3,5.3l62.4,390.6c0.9,4.6,4.9,8,9.5,8.1h231c1.9,0.1,3.8-0.7,5.1-2.2
	c1.2-1.5,1.7-3.4,1.3-5.3L275.1,62.4c-0.9-4.6-4.9-8-9.5-8.1L34.5,54.3L34.5,54.3z"/>
<path class="st3" d="M306.5,427.1h-37.8c-5.7-0.1-10.5-4.2-11.5-9.8l-11.2-70c-0.9-5.4,2.9-9.8,8.4-9.8h37.8
	c5.7,0.1,10.5,4.2,11.5,9.8l11.2,70C315.7,422.7,312,427.1,306.5,427.1z"/>
<path class="st2" d="M228.8,427.1H191c-5.7-0.1-10.5-4.2-11.5-9.8l-11.2-70c-0.9-5.4,2.9-9.8,8.4-9.8h37.8
	c5.7,0.1,10.5,4.2,11.5,9.8l11.2,70C238.1,422.7,234.3,427.1,228.8,427.1z"/>
<path class="st0" d="M151.2,427.1h-37.8c-5.7-0.1-10.5-4.2-11.5-9.8l-11.2-70c-0.9-5.4,2.9-9.8,8.4-9.8h37.8
	c5.7,0.1,10.5,4.2,11.5,9.8l11.2,70C160.4,422.7,156.6,427.1,151.2,427.1z"/>
<path class="st1" d="M151.2,429.1h-37.8c-6.4,0-12.5-5.1-13.5-11.4l-11.2-70c-1.1-5.5,2.6-10.9,8.1-11.9c0.7-0.1,1.5-0.2,2.3-0.2
	h37.8c6.4,0,12.5,5.1,13.5,11.4l11.2,70c1.1,5.5-2.6,10.9-8.1,11.9C152.7,429,151.9,429.1,151.2,429.1z M99,339.5
	c-1.9-0.1-3.8,0.7-5.1,2.2c-1.2,1.5-1.7,3.4-1.3,5.3l11.2,70c0.9,4.6,4.9,8,9.5,8.1h37.8c1.9,0.1,3.8-0.7,5.1-2.2
	c1.2-1.5,1.7-3.4,1.3-5.3l-11.2-70c-0.9-4.6-4.8-8-9.5-8.1H99L99,339.5z"/>
<polygon class="st0" points="313.6,291.1 62.7,291.1 31.5,95.3 282.3,95.3 "/>
<path class="st1" d="M313.6,293.1H62.7c-1,0-1.8-0.7-2-1.7L29.5,95.7c-0.2-1.1,0.6-2.1,1.7-2.3c0.1,0,0.2,0,0.3,0h250.9
	c1,0,1.8,0.7,2,1.7l31.3,195.8c0.2,1.1-0.6,2.1-1.7,2.3C313.9,293.1,313.7,293.1,313.6,293.1z M64.4,289.1h246.8L280.6,97.3H33.8
	L64.4,289.1z"/>
<polygon class="st3" points="257.3,143.2 172.3,143.2 156.8,143.2 71.8,143.2 89.1,251.5 174.1,251.5 189.6,251.5 274.5,251.5 "/>
<path class="st2" d="M67,82.5H51.4c-1.2,0-2.3-0.8-2.7-2L44.3,68c-0.4-1,0-2.2,1.1-2.7c0.3-0.1,0.6-0.2,0.9-0.2h20.3
	c1.6,0,2.8,1.3,2.9,2.9l-0.4,12.5C69.1,81.6,68.2,82.5,67,82.5C67.1,82.5,67,82.5,67,82.5z"/>
<path class="st2" d="M259,70.4h-18.7c-1.5,0-2.8-1.1-3.1-2.6l0,0c-0.2-1.2,0.5-2.3,1.7-2.6c0.2,0,0.3,0,0.5,0h18.8
	c1.5,0,2.8,1.1,3.1,2.6l0,0c0.2,1.2-0.5,2.3-1.7,2.6C259.4,70.4,259.2,70.4,259,70.4z"/>
<path class="st2" d="M261,82.5h-18.8c-1.5,0-2.8-1.1-3.1-2.6l0,0c-0.2-1.2,0.5-2.3,1.7-2.6c0.2,0,0.3,0,0.5,0h18.8
	c1.5,0,2.8,1.1,3.1,2.6l0,0c0.2,1.2-0.5,2.3-1.7,2.6C261.3,82.5,261.2,82.5,261,82.5z"/>
</svg>
