<?xml version="1.0" encoding="utf-8"?>
<!-- Generator: Adobe Illustrator 26.0.3, SVG Export Plug-In . SVG Version: 6.00 Build 0)  -->
<svg version="1.1" id="b89bf718-7a91-4c53-bd44-87446f6864fe"
	 xmlns="http://www.w3.org/2000/svg" xmlns:xlink="http://www.w3.org/1999/xlink" x="0px" y="0px" viewBox="0 0 618.7 487.3"
	 style="enable-background:new 0 0 618.7 487.3;" xml:space="preserve">
<style type="text/css">
	.st0{fill:#FFFFFF;}
	.st1{fill:#262424;}
	.st2{fill:#DE9244;}
	.st3{fill:#3F3D56;}
	.st4{fill:#1BB77D;}
</style>
<g>
	<polygon class="st0" points="445.8,409.9 437.1,415.8 429.9,406.1 422.1,395.7 434.5,390.3 436.8,394.2 	"/>
	<path class="st1" d="M437.1,416.6c-0.2,0-0.5-0.1-0.6-0.3l-14.9-20.1c-0.2-0.3-0.2-0.8,0.1-1c0,0,0.1-0.1,0.2-0.1l12.4-5.4
		c0.4-0.2,0.8,0,1,0.3l11.2,19.6c0.2,0.3,0.1,0.8-0.2,1l-8.7,5.9C437.4,416.5,437.2,416.6,437.1,416.6z M423.3,396l13.9,18.8
		l7.5-5.1l-10.5-18.4L423.3,396z"/>
	<path class="st1" d="M436.8,394.2c-2.4,4.1-5,8.6-6.9,11.9l-7.7-10.4l12.4-5.4L436.8,394.2z"/>
	<path class="st2" d="M466.6,441.6l-33.7,21.3l-2.4-2.3c-1-0.9-1.6-2.1-1.8-3.5c-0.1-0.8-0.1-1.5,0.1-2.3c1.8-7.4,5.7-25.9,2.8-41.8
		l14.6-8.9c0,0,11.4,14,18.3,31.4C465.2,437.6,465.9,439.6,466.6,441.6z"/>
	<path class="st0" d="M466.6,441.6l-33.7,21.3l-2.4-2.3c-1-0.9-1.6-2.1-1.8-3.5l35.8-21.5C465.2,437.6,465.9,439.6,466.6,441.6z"/>
	<path class="st1" d="M432.9,463.7c-0.2,0-0.4-0.1-0.5-0.2l-2.4-2.3c-1.1-1-1.8-2.4-2-3.9c0-0.3,0.1-0.6,0.4-0.7l35.8-21.5
		c0.4-0.2,0.8-0.1,1,0.3c0,0,0,0.1,0.1,0.1c0.8,2,1.5,4,2.2,6c0.1,0.3,0,0.7-0.3,0.9l-33.7,21.3C433.2,463.7,433,463.7,432.9,463.7z
		 M429.5,457.6c0.2,1,0.8,1.8,1.5,2.5l2,1.9l32.7-20.7c-0.5-1.5-1-3-1.6-4.5L429.5,457.6z"/>
	<path class="st3" d="M355.4,214.4c0,0,3.7,84.9,13.4,120.8l52,68.1c0,0,10.4-4.7,17.8-9.4c0,0-17.1-41.3-20.5-47
		c-3.4-5.7-20.5-22.8-20.5-22.8s10.2-77.5,10.7-103.3C409,186.8,356,178.5,355.4,214.4z"/>
	<path class="st1" d="M427.2,391.9c-0.3,0-0.5-0.1-0.6-0.3l-40.9-63.4c-0.2-0.4-0.1-0.8,0.2-1s0.8-0.1,1,0.2l40.9,63.4
		c0.2,0.3,0.1,0.8-0.2,1C427.5,391.9,427.3,391.9,427.2,391.9z"/>
	<path class="st1" d="M419.3,399c-0.4,0-0.8-0.3-0.8-0.7c0-0.3,0.1-0.6,0.4-0.7l15-8.4c0.4-0.2,0.8-0.1,1,0.3c0.2,0.4,0.1,0.8-0.3,1
		l-15,8.4C419.6,399,419.4,399,419.3,399z"/>
	<polygon class="st0" points="370.3,406.1 366.6,413.8 360.5,426.5 350.7,422.6 357.6,402.5 358.8,398.9 	"/>
	<path class="st1" d="M360.5,427.2c-0.1,0-0.2,0-0.3-0.1l-9.8-3.9c-0.4-0.1-0.6-0.6-0.4-0.9l8.1-23.7c0.1-0.4,0.5-0.6,0.9-0.5
		c0.1,0,0.1,0,0.2,0.1l11.5,7.2c0.3,0.2,0.4,0.6,0.3,1l-9.8,20.4C361.1,427.1,360.8,427.2,360.5,427.2z M351.7,422.2l8.5,3.3
		l9.2-19.1l-10.1-6.3L351.7,422.2z"/>
	<path class="st1" d="M358.8,398.9l11.5,7.2l-3.7,7.7c-2.8-3.5-6.6-8.2-9-11.3L358.8,398.9z"/>
	<path class="st2" d="M346.2,461.6l-36.7-15.7l0.5-3.3c0.2-1.3,0.8-2.5,1.8-3.4c0.6-0.5,1.2-0.9,1.9-1.2c7.1-2.7,24.5-10,36-21.4
		l15.6,7c0,0-5.1,17.3-15.5,32.9C348.7,458.2,347.5,459.9,346.2,461.6z"/>
	<path class="st0" d="M346.2,461.6l-36.7-15.7l0.5-3.3c0.2-1.3,0.8-2.5,1.8-3.4l38,17.3C348.7,458.2,347.5,459.9,346.2,461.6z"/>
	<path class="st1" d="M346.2,462.3c-0.1,0-0.2,0-0.3-0.1l-36.7-15.7c-0.3-0.1-0.5-0.5-0.4-0.8l0.5-3.3c0.2-1.5,1-2.9,2.1-3.9
		c0.2-0.2,0.5-0.3,0.8-0.1l38,17.3c0.4,0.2,0.6,0.6,0.4,1c0,0,0,0.1-0.1,0.1c-1.2,1.8-2.4,3.5-3.7,5.2
		C346.6,462.2,346.4,462.3,346.2,462.3z M310.3,445.4l35.6,15.2c1-1.3,1.9-2.6,2.8-3.9L312,440c-0.7,0.7-1.1,1.7-1.2,2.6
		L310.3,445.4z"/>
	<path class="st3" d="M389.5,219.3l1.4,14.6c0,0-18.4,121.8-38.2,167.1c0,0,10.4,6,20.1,7c0,0,20.8-39.9,23.8-49
		c3-9.1,3.7-32.9,3.7-32.9s42.9-69.4,45.3-89.9c2.4-20.5-6.4-50.7-26.2-50.3c-1.1,0-2.1,0.1-3.2,0.2
		C399.8,187.8,387.9,202.7,389.5,219.3z"/>
	<path class="st1" d="M390.4,220.8l1.2,12.9c0,0.1,0,0.1,0,0.2c-0.1,0.5-8.2,53.9-19.3,102.5c-0.1,0.4-0.5,0.7-0.9,0.6c0,0,0,0,0,0
		c-0.4-0.1-0.7-0.5-0.6-0.9c0,0,0,0,0,0c10.9-47.6,18.9-99.8,19.3-102.3l-1.4-14.5c0-0.1,0-0.1,0-0.2
		C389.3,219.7,389.8,220.3,390.4,220.8z"/>
	<path class="st1" d="M400,331.9c0.4,0,0.7,0.3,0.8,0.7c0,0,0,0,0,0.1c-0.4,7.8-1.4,20.3-3.5,26.5c-0.4,1.1-1,2.7-2,4.9
		c-0.1,0.3-0.4,0.5-0.7,0.5c-0.1,0-0.2,0-0.3-0.1c-0.4-0.2-0.5-0.6-0.4-1c0,0,0,0,0,0c0.9-2.1,1.6-3.7,1.9-4.7
		c2-5.9,2.9-18.3,3.4-26.1C399.3,332.2,399.6,331.9,400,331.9L400,331.9L400,331.9z"/>
	<path class="st1" d="M390.9,234.6c-0.1,0-0.1,0-0.2,0c-6.8-1.6-7-2.7-7.1-3.1c-0.2-1-1.8-16.2-1.9-16.8c0-0.4,0.3-0.8,0.7-0.8
		c0.4,0,0.8,0.3,0.8,0.7c0.6,5.2,1.6,15.2,1.8,16.6c0.6,0.5,3.5,1.4,6,2c0.4,0,0.7,0.4,0.7,0.8C391.7,234.3,391.3,234.6,390.9,234.6
		z"/>
	<path class="st1" d="M368.6,398.5c-0.4,0-0.8-0.3-0.8-0.7c0-0.1,0-0.3,0.1-0.4c6.3-11,18.5-32.7,19.3-36c1.6-6.5,2.2-30,2.2-30.3
		c0-0.1,0-0.2,0.1-0.3c14.1-32.7,40.9-94.9,42-97.9c-0.1-1.6-1.3-19.7-1.8-26.8c0-0.4,0.3-0.8,0.7-0.8c0.4,0,0.8,0.3,0.8,0.7
		c0.2,2.7,1.8,26.2,1.8,27c0,0.6-14.1,33.7-42,98.3c-0.1,2.2-0.7,24-2.3,30.5c-1.1,4.3-18.7,35.1-19.5,36.4
		C369.1,398.4,368.9,398.5,368.6,398.5z M432.3,233L432.3,233z"/>
	<path class="st1" d="M373,402.9h-0.1c-7.7-1.3-15.7-5.1-16.1-5.2c-0.4-0.2-0.5-0.6-0.4-1c0.2-0.4,0.6-0.5,1-0.4
		c0.1,0,8.2,3.9,15.6,5.1c0.4,0,0.7,0.4,0.7,0.8C373.8,402.7,373.4,403,373,402.9z"/>
	<path class="st1" d="M432,233.7c-2.5,0-5-1-6.7-2.8c-6.1-6.2-5.4-20.7-5.4-21.3c0-0.4,0.4-0.7,0.8-0.7c0.4,0,0.7,0.4,0.7,0.8
		c0,0.1-0.7,14.4,4.9,20.2c1.5,1.6,3.7,2.5,5.9,2.4h0c0.4,0,0.8,0.3,0.8,0.7s-0.3,0.8-0.7,0.8L432,233.7L432,233.7z"/>
	<path class="st1" d="M231.3,72.7c-0.4,0-0.8-0.3-0.8-0.7c0-0.4,0.3-0.8,0.7-0.8l0,0c1.3-0.2,2-0.3,2-0.3c0.4-0.1,0.8,0.2,0.8,0.7
		c0.1,0.4-0.2,0.8-0.7,0.8c0,0-0.7,0.1-2,0.3L231.3,72.7z"/>
	<path class="st1" d="M460.4,215.7c-0.4,0-0.8-0.3-0.8-0.7c0-0.4,0.3-0.8,0.7-0.8c1.3-0.2,2.6-0.5,3.9-0.7c0.4-0.1,0.8,0.2,0.9,0.6
		c0.1,0.4-0.2,0.8-0.6,0.9c-1.3,0.3-2.7,0.5-4,0.7L460.4,215.7z M468.3,214c-0.4,0.1-0.8-0.2-0.8-0.7c-0.1-0.4,0.2-0.8,0.7-0.8
		c1.3-0.3,2.6-0.7,3.8-1.1c0.4-0.1,0.8,0.1,1,0.5c0.1,0.4-0.1,0.8-0.5,1c-1.3,0.4-2.6,0.8-3.9,1.1C468.5,214,468.4,214,468.3,214
		L468.3,214z M476,211.5c-0.4,0-0.8-0.3-0.8-0.7c0-0.3,0.2-0.6,0.5-0.7c1.3-0.5,2.5-1,3.6-1.6c0.4-0.2,0.8,0,1,0.3
		c0.2,0.4,0,0.8-0.3,1c-1.2,0.6-2.4,1.1-3.7,1.6C476.2,211.5,476.1,211.5,476,211.5L476,211.5z M483.2,208c-0.4,0-0.8-0.3-0.8-0.7
		c0-0.3,0.1-0.5,0.4-0.7c1.1-0.7,2.2-1.4,3.2-2.2c0.3-0.3,0.8-0.2,1.1,0.1c0.3,0.3,0.2,0.8-0.1,1.1c-1.1,0.8-2.2,1.6-3.4,2.3
		C483.5,208,483.4,208,483.2,208L483.2,208z M489.5,203c-0.4,0-0.8-0.3-0.8-0.7c0-0.2,0.1-0.4,0.2-0.5c0.9-0.9,1.7-2,2.4-3.1
		c0.2-0.3,0.7-0.4,1-0.2c0.3,0.2,0.4,0.7,0.2,1l0,0c-0.8,1.2-1.6,2.3-2.6,3.3C489.9,202.9,489.7,203,489.5,203L489.5,203z
		 M493.8,196.3c-0.4,0-0.8-0.3-0.8-0.7c0-0.1,0-0.2,0.1-0.3c0.5-1.2,0.8-2.5,1-3.7c0.1-0.4,0.4-0.7,0.9-0.6c0.4,0.1,0.7,0.4,0.6,0.9
		c-0.2,1.4-0.6,2.7-1.1,4C494.4,196,494.1,196.2,493.8,196.3L493.8,196.3z M495,188.4c-0.4,0-0.7-0.3-0.7-0.7c0-1-0.2-1.9-0.3-2.8
		c-0.1-0.3-0.1-0.7-0.2-1c-0.1-0.4,0.2-0.8,0.6-0.9c0.4-0.1,0.8,0.2,0.9,0.6c0.1,0.4,0.1,0.7,0.2,1.1c0.2,1,0.3,2,0.3,3
		C495.8,188,495.4,188.3,495,188.4C495,188.4,495,188.4,495,188.4L495,188.4L495,188.4z M493.2,180.5c-0.3,0-0.6-0.2-0.7-0.5
		c-0.5-1.2-1.2-2.3-1.9-3.3c-0.2-0.3-0.2-0.8,0.2-1.1c0.3-0.2,0.8-0.2,1.1,0.2c0.8,1.1,1.5,2.3,2.1,3.6c0.2,0.4,0,0.8-0.4,1
		C493.4,180.5,493.3,180.5,493.2,180.5L493.2,180.5z M488.5,174.1c-0.2,0-0.4-0.1-0.5-0.2c-1-0.9-2-1.6-3.1-2.3
		c-0.4-0.2-0.5-0.7-0.3-1c0.2-0.4,0.7-0.5,1-0.3c1.2,0.7,2.3,1.5,3.4,2.4c0.3,0.3,0.4,0.7,0.1,1.1C489,174,488.7,174.1,488.5,174.1z
		 M261.8,171.4h-1.2c-0.4,0-0.7-0.3-0.7-0.7s0.3-0.7,0.7-0.7h4c0.4,0,0.7,0.3,0.7,0.7s-0.3,0.7-0.7,0.7H261.8L261.8,171.4z
		 M256.6,171.4L256.6,171.4l-4,0c-0.4,0-0.7-0.3-0.7-0.7s0.3-0.7,0.7-0.7l4,0c0.4,0.1,0.7,0.4,0.6,0.8
		C257.2,171.1,256.9,171.3,256.6,171.4L256.6,171.4z M268.7,171.4c-0.4,0-0.7-0.3-0.7-0.7s0.3-0.7,0.7-0.7l4,0
		c0.4,0,0.7,0.3,0.7,0.7c0,0.4-0.3,0.7-0.7,0.7L268.7,171.4L268.7,171.4L268.7,171.4z M276.7,171.3c-0.4,0-0.7-0.3-0.7-0.7
		s0.3-0.7,0.7-0.7l4,0c0.4,0,0.7,0.3,0.7,0.7c0,0,0,0,0,0.1c0,0.4-0.3,0.7-0.7,0.7L276.7,171.3L276.7,171.3z M248.5,171.3
		L248.5,171.3c-1.4,0-2.7,0-4-0.1c-0.4,0-0.7-0.3-0.7-0.7c0,0,0,0,0,0c0-0.4,0.4-0.7,0.8-0.7c1.3,0,2.7,0.1,4,0.1
		c0.4,0,0.7,0.4,0.7,0.8C249.2,171,248.9,171.3,248.5,171.3L248.5,171.3z M284.8,171.2c-0.4,0-0.7-0.3-0.7-0.7s0.3-0.7,0.7-0.7
		l3.9-0.1l0.1,0.7v0.7L284.8,171.2L284.8,171.2L284.8,171.2z M240.5,171.1L240.5,171.1c-1.4,0-2.7-0.1-4.1-0.1
		c-0.4,0-0.7-0.4-0.7-0.8c0-0.4,0.4-0.7,0.8-0.7c1.3,0,2.7,0.1,4,0.1c0.4,0.1,0.7,0.5,0.6,0.9C241,170.8,240.8,171,240.5,171.1
		L240.5,171.1z M292.9,171.1c-0.4,0-0.7-0.3-0.7-0.7c0-0.4,0.3-0.7,0.7-0.7l4-0.1l0,0c0.4,0,0.7,0.3,0.7,0.7s-0.3,0.7-0.7,0.7
		L292.9,171.1L292.9,171.1z M300.9,171c-0.4,0-0.7-0.3-0.7-0.7c0-0.4,0.3-0.7,0.7-0.7l4-0.1c0.4,0,0.7,0.3,0.7,0.7s-0.3,0.7-0.7,0.7
		L300.9,171L300.9,171z M309,170.8c-0.4,0-0.7-0.3-0.7-0.7s0.3-0.7,0.7-0.7l4-0.1c0.4,0,0.7,0.3,0.7,0.7s-0.3,0.7-0.7,0.7L309,170.8
		L309,170.8L309,170.8z M232.4,170.8L232.4,170.8c-1.4-0.1-2.7-0.1-4.1-0.2c-0.4,0-0.7-0.4-0.7-0.8c0-0.4,0.4-0.7,0.8-0.7
		c1.3,0.1,2.7,0.1,4,0.2c0.4,0.1,0.6,0.5,0.5,0.9C232.9,170.5,232.7,170.7,232.4,170.8L232.4,170.8z M317.1,170.7
		c-0.4,0-0.7-0.3-0.7-0.7c0-0.4,0.3-0.7,0.7-0.7l4,0c0.4,0,0.7,0.3,0.7,0.7c0,0.4-0.3,0.7-0.7,0.7L317.1,170.7L317.1,170.7
		L317.1,170.7z M325.1,170.6c-0.4,0-0.7-0.3-0.7-0.7s0.3-0.7,0.7-0.7l4,0l0,0c0.4,0,0.7,0.3,0.7,0.7c0,0.4-0.3,0.7-0.7,0.7
		L325.1,170.6L325.1,170.6L325.1,170.6z M333.4,170.6h-0.2c-0.4,0-0.7-0.3-0.7-0.7c0-0.4,0.3-0.7,0.7-0.7h0.2c1.3,0,2.5,0,3.8,0l0,0
		c0.4,0,0.7,0.3,0.7,0.7c0,0.4-0.3,0.7-0.7,0.7C335.9,170.6,334.7,170.6,333.4,170.6L333.4,170.6z M341.3,170.6
		c-0.4,0-0.7-0.3-0.7-0.7c0-0.4,0.3-0.7,0.7-0.7c1.3,0,2.7,0,4-0.1l0,0c0.4,0,0.7,0.3,0.7,0.7c0,0.4-0.3,0.7-0.7,0.7
		C344,170.5,342.6,170.5,341.3,170.6L341.3,170.6L341.3,170.6z M349.3,170.4c-0.4,0-0.8-0.3-0.8-0.7c0-0.4,0.3-0.8,0.7-0.8
		c1.3,0,2.7-0.1,4-0.1c0.4,0,0.7,0.3,0.8,0.7c0,0,0,0.1,0,0.1c0,0.4-0.3,0.8-0.7,0.8c0,0,0,0,0,0C352,170.4,350.7,170.4,349.3,170.4
		L349.3,170.4L349.3,170.4z M224.4,170.4L224.4,170.4c-1.4-0.1-2.8-0.2-4.1-0.3c-0.4,0-0.7-0.4-0.7-0.8c0-0.4,0.4-0.7,0.8-0.7
		c1.3,0.1,2.7,0.2,4,0.3c0.4,0.1,0.6,0.5,0.5,0.9C224.9,170.1,224.6,170.3,224.4,170.4L224.4,170.4z M357.4,170.1
		c-0.4,0-0.8-0.3-0.8-0.7c0-0.4,0.3-0.8,0.7-0.8l4-0.2c0.4,0,0.8,0.3,0.8,0.7c0,0.4-0.3,0.8-0.7,0.8c0,0,0,0,0,0L357.4,170.1
		L357.4,170.1L357.4,170.1z M481.7,169.9c-0.1,0-0.2,0-0.3-0.1c-1.2-0.5-2.4-1-3.7-1.4c-0.4-0.1-0.6-0.5-0.5-0.9
		c0.1-0.4,0.5-0.6,0.9-0.5c1.3,0.4,2.6,0.9,3.9,1.4c0.4,0.2,0.5,0.6,0.3,1C482.2,169.7,481.9,169.9,481.7,169.9L481.7,169.9z
		 M365.4,169.8c-0.4,0-0.8-0.3-0.8-0.7c0-0.4,0.3-0.8,0.7-0.8l4-0.2c0.4,0,0.8,0.3,0.8,0.7c0,0,0,0,0,0c0,0.4-0.3,0.7-0.7,0.7
		L365.4,169.8L365.4,169.8L365.4,169.8z M216.3,169.7L216.3,169.7c-1.4-0.1-2.8-0.3-4.1-0.4c-0.4,0-0.7-0.4-0.7-0.8
		c0-0.4,0.4-0.7,0.8-0.7c1.3,0.1,2.7,0.3,4,0.4c0.4,0.1,0.6,0.5,0.5,0.9C216.8,169.4,216.6,169.6,216.3,169.7L216.3,169.7z
		 M373.5,169.4c-0.4,0-0.8-0.3-0.8-0.7c0-0.4,0.3-0.8,0.7-0.8l0,0l4-0.2c0.4,0,0.8,0.3,0.8,0.7c0,0.4-0.3,0.8-0.7,0.8c0,0,0,0,0,0
		L373.5,169.4L373.5,169.4L373.5,169.4z M381.6,168.9c-0.4,0-0.8-0.3-0.8-0.7c0-0.4,0.3-0.8,0.7-0.8l4-0.3c0.4,0,0.8,0.3,0.8,0.7
		c0,0,0,0,0,0c0,0.4-0.3,0.8-0.7,0.8c0,0,0,0,0,0L381.6,168.9L381.6,168.9L381.6,168.9z M208.3,168.8l-0.1,0c-1.4-0.2-2.7-0.4-4-0.6
		c-0.4-0.1-0.7-0.4-0.6-0.9c0.1-0.4,0.4-0.7,0.9-0.6c1.3,0.2,2.6,0.4,4,0.5c0.4,0,0.7,0.4,0.7,0.8
		C209.1,168.5,208.7,168.8,208.3,168.8L208.3,168.8z M389.6,168.4c-0.4,0-0.8-0.3-0.8-0.7c0-0.4,0.3-0.8,0.7-0.8l4-0.3
		c0.4,0,0.8,0.3,0.8,0.7c0,0.4-0.3,0.8-0.7,0.8L389.6,168.4L389.6,168.4L389.6,168.4z M397.6,167.8c-0.4,0-0.8-0.3-0.8-0.7
		c0-0.4,0.3-0.8,0.7-0.8l4-0.3c0.4,0,0.8,0.3,0.8,0.7c0,0.4-0.3,0.8-0.7,0.8L397.6,167.8L397.6,167.8z M200.3,167.6c0,0-0.1,0-0.1,0
		c-1.3-0.2-2.7-0.5-4-0.7c-0.4-0.1-0.7-0.5-0.6-0.9c0.1-0.4,0.5-0.7,0.9-0.6c1.3,0.2,2.6,0.5,3.9,0.7c0.4,0,0.7,0.4,0.7,0.8
		C201.1,167.4,200.8,167.7,200.3,167.6z M474,167.5c-0.1,0-0.1,0-0.2,0c-1.2-0.3-2.5-0.5-3.9-0.8c-0.4-0.1-0.7-0.5-0.6-0.9
		c0.1-0.4,0.5-0.7,0.9-0.6c1.4,0.2,2.7,0.5,4,0.8c0.4,0.1,0.7,0.4,0.7,0.8C474.8,167.2,474.4,167.5,474,167.5L474,167.5z
		 M405.7,167.2c-0.4,0-0.8-0.3-0.8-0.7c0-0.4,0.3-0.8,0.7-0.8l4-0.3c0.4,0,0.8,0.3,0.8,0.7c0,0.4-0.3,0.8-0.7,0.8L405.7,167.2
		L405.7,167.2L405.7,167.2z M413.7,166.7c-0.4,0-0.8-0.3-0.8-0.7c0-0.4,0.3-0.8,0.7-0.8l4-0.3c0.4,0,0.8,0.3,0.8,0.7
		c0,0.4-0.3,0.8-0.7,0.8L413.7,166.7L413.7,166.7z M421.8,166.2c-0.4,0-0.8-0.3-0.8-0.7c0-0.4,0.3-0.8,0.7-0.8l4-0.2
		c0.4,0,0.8,0.3,0.8,0.7c0,0.4-0.3,0.8-0.7,0.8l0,0L421.8,166.2L421.8,166.2z M466.1,166.1L466.1,166.1c-1.4-0.2-2.7-0.3-4.1-0.4
		c-0.4,0-0.7-0.4-0.7-0.8c0-0.4,0.4-0.7,0.8-0.7c1.4,0.1,2.7,0.3,4,0.4c0.4,0,0.7,0.4,0.7,0.8C466.8,165.8,466.5,166.1,466.1,166.1
		L466.1,166.1z M192.4,166.1c-0.1,0-0.1,0-0.2,0c-1.4-0.3-2.7-0.6-3.9-1c-0.4-0.1-0.6-0.5-0.5-0.9c0.1-0.4,0.5-0.6,0.9-0.5
		c1.2,0.3,2.6,0.7,3.9,1c0.4,0,0.7,0.4,0.7,0.8C193.2,165.8,192.8,166.1,192.4,166.1L192.4,166.1z M429.8,165.7
		c-0.4,0-0.8-0.3-0.8-0.7c0-0.4,0.3-0.8,0.7-0.8c1.4-0.1,2.7-0.1,4-0.2c0.4,0,0.8,0.3,0.8,0.7c0,0.4-0.3,0.8-0.7,0.8
		C432.6,165.6,431.2,165.6,429.8,165.7L429.8,165.7L429.8,165.7z M458,165.4L458,165.4c-1.3-0.1-2.7-0.1-4-0.2
		c-0.4,0-0.7-0.3-0.7-0.7c0,0,0,0,0,0c0-0.4,0.3-0.7,0.7-0.7c0,0,0,0,0,0c1.4,0,2.7,0.1,4,0.2c0.4,0,0.7,0.4,0.7,0.8
		C458.8,165.1,458.4,165.4,458,165.4L458,165.4L458,165.4z M437.9,165.4c-0.4,0-0.8-0.3-0.8-0.7c0-0.4,0.3-0.8,0.7-0.8
		c1.4,0,2.7-0.1,4-0.1l0,0c0.4,0,0.7,0.3,0.7,0.7c0,0.4-0.3,0.7-0.7,0.7C440.6,165.3,439.2,165.3,437.9,165.4L437.9,165.4
		L437.9,165.4z M445.9,165.2c-0.4,0-0.7-0.3-0.7-0.7c0-0.4,0.3-0.7,0.7-0.7c1.4,0,2.7,0,4,0c0.4,0,0.7,0.3,0.7,0.7
		c0,0.4-0.3,0.7-0.7,0.7l0,0C448.7,165.2,447.3,165.2,445.9,165.2L445.9,165.2L445.9,165.2z M184.6,164c-0.1,0-0.1,0-0.2,0
		c-1.3-0.4-2.6-0.8-3.9-1.3c-0.4-0.1-0.6-0.6-0.5-1c0.1-0.4,0.6-0.6,1-0.5l0,0c1.2,0.4,2.5,0.9,3.8,1.3c0.4,0.1,0.7,0.4,0.6,0.9
		C185.4,163.8,185,164.1,184.6,164L184.6,164z M177.1,161.3c-0.1,0-0.2,0-0.3-0.1c-1.3-0.5-2.5-1.1-3.7-1.7c-0.4-0.2-0.5-0.6-0.3-1
		c0.2-0.4,0.6-0.5,1-0.3c1.1,0.6,2.4,1.1,3.6,1.7c0.4,0.1,0.6,0.6,0.4,1C177.7,161.1,177.4,161.3,177.1,161.3L177.1,161.3z
		 M169.9,157.6c-0.1,0-0.3,0-0.4-0.1c-1.2-0.7-2.3-1.5-3.4-2.3c-0.3-0.3-0.4-0.7-0.2-1.1c0.3-0.3,0.7-0.4,1.1-0.2
		c1,0.7,2.1,1.5,3.3,2.2c0.4,0.2,0.5,0.7,0.3,1C170.4,157.5,170.2,157.6,169.9,157.6L169.9,157.6z M163.5,152.8
		c-0.2,0-0.4-0.1-0.5-0.2c-1-0.9-1.9-1.9-2.8-3c-0.3-0.3-0.2-0.8,0.1-1.1c0.3-0.3,0.8-0.2,1.1,0.1l0,0c0.8,1,1.7,2,2.7,2.9
		c0.3,0.3,0.3,0.8,0,1.1C163.9,152.7,163.7,152.8,163.5,152.8L163.5,152.8z M158.4,146.5c-0.3,0-0.5-0.1-0.6-0.4
		c-0.7-1.2-1.3-2.4-1.8-3.7c-0.2-0.4,0-0.8,0.4-1s0.8,0,1,0.4c0.5,1.2,1.1,2.4,1.7,3.5c0.2,0.3,0.1,0.8-0.2,1
		C158.7,146.5,158.6,146.5,158.4,146.5z M155.4,139.1c-0.4,0-0.7-0.2-0.7-0.6c-0.3-1.3-0.6-2.7-0.7-4c0-0.4,0.3-0.8,0.7-0.8
		c0.4,0,0.8,0.3,0.8,0.7c0.1,1.3,0.4,2.6,0.7,3.9c0.1,0.4-0.1,0.8-0.5,0.9C155.5,139.1,155.5,139.1,155.4,139.1z M154.5,131.2
		L154.5,131.2c-0.4,0-0.7-0.3-0.7-0.7c0-1.4,0.1-2.8,0.2-4.1c0-0.4,0.4-0.7,0.8-0.7s0.7,0.4,0.7,0.8l0,0c-0.1,1.3-0.2,2.6-0.2,4
		C155.2,130.8,154.9,131.2,154.5,131.2C154.5,131.2,154.5,131.2,154.5,131.2L154.5,131.2z M155.2,123.2c-0.4,0-0.8-0.3-0.8-0.7
		c0-0.1,0-0.1,0-0.2c0.3-1.3,0.6-2.7,1-4c0.1-0.4,0.5-0.6,0.9-0.5c0.4,0.1,0.6,0.5,0.5,0.9c-0.4,1.3-0.7,2.5-0.9,3.8
		C155.9,122.9,155.6,123.2,155.2,123.2L155.2,123.2z M157.5,115.5c-0.4,0-0.8-0.3-0.8-0.7c0-0.1,0-0.2,0.1-0.3
		c0.5-1.2,1.1-2.5,1.7-3.7c0.2-0.4,0.7-0.5,1-0.3c0.4,0.2,0.5,0.7,0.3,1c-0.6,1.2-1.2,2.4-1.7,3.6
		C158.1,115.3,157.8,115.5,157.5,115.5L157.5,115.5z M161.2,108.4c-0.4,0-0.8-0.3-0.8-0.7c0-0.2,0-0.3,0.1-0.4
		c0.7-1.1,1.5-2.2,2.4-3.3c0.3-0.3,0.7-0.4,1.1-0.1c0.3,0.3,0.4,0.7,0.1,1.1c-0.8,1-1.6,2.1-2.3,3.2
		C161.7,108.2,161.5,108.4,161.2,108.4L161.2,108.4z M166.2,102c-0.4,0-0.8-0.3-0.8-0.7c0-0.2,0.1-0.4,0.2-0.5c0.9-1,1.9-2,2.9-2.9
		c0.3-0.3,0.8-0.3,1.1,0c0.3,0.3,0.3,0.8,0,1.1c-1,0.9-1.9,1.9-2.8,2.8C166.6,101.9,166.4,102,166.2,102L166.2,102z M172,96.5
		c-0.4,0-0.8-0.3-0.8-0.7c0-0.2,0.1-0.5,0.3-0.6c1-0.9,2.1-1.7,3.2-2.5c0.3-0.2,0.8-0.2,1.1,0.2c0.2,0.3,0.2,0.8-0.2,1.1
		c-1.1,0.8-2.1,1.6-3.1,2.5C172.4,96.4,172.2,96.5,172,96.5L172,96.5z M178.5,91.7c-0.4,0-0.8-0.3-0.8-0.7c0-0.3,0.1-0.5,0.4-0.7
		c1.1-0.7,2.2-1.5,3.4-2.2c0.4-0.2,0.8-0.1,1,0.3c0.2,0.4,0.1,0.8-0.3,1c-1.2,0.7-2.3,1.4-3.4,2.1C178.8,91.6,178.7,91.7,178.5,91.7
		L178.5,91.7z M185.5,87.5c-0.4,0-0.8-0.3-0.8-0.7c0-0.3,0.1-0.6,0.4-0.7c1.2-0.6,2.4-1.3,3.6-1.9c0.4-0.2,0.8,0,1,0.3
		c0.2,0.4,0,0.8-0.3,1c-1.2,0.6-2.4,1.2-3.6,1.8C185.7,87.5,185.6,87.5,185.5,87.5L185.5,87.5z M192.7,84c-0.4,0-0.8-0.3-0.8-0.7
		c0-0.3,0.2-0.6,0.5-0.7c1.2-0.6,2.5-1.1,3.7-1.6c0.4-0.2,0.8,0,1,0.4c0.2,0.4,0,0.8-0.4,1c-1.2,0.5-2.5,1-3.7,1.6
		C192.9,83.9,192.8,84,192.7,84L192.7,84z M200.2,80.9c-0.4,0-0.8-0.3-0.8-0.7c0-0.3,0.2-0.7,0.5-0.8c1.3-0.5,2.6-0.9,3.8-1.4
		c0.4-0.1,0.8,0.1,1,0.5c0.1,0.4-0.1,0.8-0.5,1c-1.2,0.4-2.5,0.9-3.8,1.4C200.3,80.9,200.3,80.9,200.2,80.9L200.2,80.9z M207.8,78.3
		c-0.4,0-0.8-0.3-0.8-0.7c0-0.4,0.2-0.7,0.6-0.8c1.3-0.4,2.6-0.8,3.9-1.2c0.4-0.1,0.8,0.1,0.9,0.5c0.1,0.4-0.1,0.8-0.5,0.9
		c-1.2,0.4-2.5,0.7-3.8,1.2C207.9,78.3,207.9,78.3,207.8,78.3L207.8,78.3z M215.5,76c-0.4,0.1-0.8-0.2-0.8-0.7
		c-0.1-0.4,0.2-0.8,0.7-0.8l0,0c1.4-0.4,2.7-0.7,3.9-1c0.4-0.1,0.8,0.2,0.9,0.6c0.1,0.4-0.2,0.8-0.6,0.9c-1.2,0.3-2.5,0.6-3.9,1
		C215.7,76,215.6,76,215.5,76L215.5,76z M223.4,74.2c-0.4,0-0.8-0.3-0.8-0.7c0-0.4,0.3-0.8,0.7-0.8c1.5-0.3,2.8-0.6,4-0.8
		c0.4-0.1,0.8,0.2,0.9,0.6s-0.2,0.8-0.6,0.9c-1.2,0.2-2.5,0.5-3.9,0.8C223.5,74.2,223.5,74.2,223.4,74.2L223.4,74.2z"/>
	<path class="st1" d="M454.3,216.5c-0.4,0-0.8-0.3-0.8-0.7s0.3-0.8,0.7-0.8c0,0,0.7-0.1,2-0.2c0.4,0,0.8,0.2,0.8,0.7
		c0,0.4-0.2,0.8-0.7,0.8C455.1,216.5,454.4,216.5,454.3,216.5L454.3,216.5L454.3,216.5z"/>
	<path class="st3" d="M254.1,28.9c0-11.6-9.4-21.1-21.1-21.1c-11.6,0-21.1,9.4-21.1,21.1c0,0-0.3,27.7,21.1,36.7
		C254.4,56.6,254.1,28.9,254.1,28.9z M233,40.5c-6.4,0-11.6-5.2-11.5-11.6c0-6.4,5.2-11.6,11.6-11.5c6.4,0,11.5,5.2,11.5,11.5
		C244.6,35.3,239.4,40.5,233,40.5C233,40.5,233,40.5,233,40.5L233,40.5z"/>
	<circle class="st3" cx="233" cy="28.9" r="6"/>
	<path class="st2" d="M357.3,82.9c-7.9,3.7-24.4,71.9-24.4,71.9s-22.4,18.2-25.1,24c-2.7,5.9,6.2,21,16.8,18.2
		c10.6-2.8,32.1-25.7,35.3-31.8c3.2-6,13.9-53.5,13.1-64.6C372.3,89.6,367.1,78.2,357.3,82.9z"/>
	<path class="st1" d="M350.4,165.1c-0.2,0-0.5-0.1-0.6-0.3c-4.8-6.7-14.5-8.1-14.6-8.1c-0.4-0.1-0.7-0.4-0.6-0.9
		c0.1-0.4,0.4-0.7,0.9-0.6c0.4,0.1,10.5,1.5,15.6,8.7c0.2,0.3,0.2,0.8-0.2,1C350.7,165,350.5,165.1,350.4,165.1z"/>
	<path class="st0" d="M309.8,181.7c0,0-5.3,5-6.9,6.3c-1.6,1.3-1.3,8.2,3.2,11.3c4.4,3.1,10,2.2,10.7,1.6s5.6-5.2,6.4-6.5
		C324.1,193.2,321.9,180,309.8,181.7z"/>
	<path class="st1" d="M313.4,202.3c-2.8,0-5.5-0.8-7.8-2.3c-3.1-2.2-4.3-5.9-4.4-8.7c-0.1-1.8,0.4-3.2,1.2-3.8
		c1.5-1.2,6.8-6.2,6.9-6.2c0.1-0.1,0.3-0.2,0.4-0.2c6.7-0.9,10.3,2.4,12.2,5.4c2.1,3.4,2.7,7.5,2,8.5c-0.9,1.4-5.8,6-6.6,6.6
		C316.8,201.9,315.3,202.3,313.4,202.3z M310.1,182.5c-1,0.9-5.3,5-6.8,6.2c-0.3,0.2-0.6,1.1-0.6,2.6c0.1,2.3,1.1,5.6,3.7,7.5
		c4.2,2.9,9.3,2,9.8,1.6c0.7-0.6,5.5-5.1,6.2-6.3c0.2-0.5-0.1-4.6-2.7-7.9C317.6,183.2,314.3,181.9,310.1,182.5L310.1,182.5z"/>
	<path class="st0" d="M302.2,209.6c5.2,0.7,10.7-5.5,11.4-9.7c0.8-4.3-4.5-8.9-10.1-8.5s-8.5,4.4-10.6,8
		C290.6,203,295.6,208.7,302.2,209.6z"/>
	<path class="st1" d="M303,210.4c-0.3,0-0.6,0-1-0.1c-4.3-0.6-8.4-3.3-9.9-6.6c-0.8-1.7-0.8-3.4,0-4.8c2.5-4.1,5.5-7.9,11.2-8.3
		c3.4-0.2,6.7,1.1,9,3.6c1.6,1.8,2.3,3.8,2,5.8C313.5,204.4,308.3,210.4,303,210.4z M302.3,208.9c4.7,0.7,9.9-5.1,10.6-9.1
		c0.3-1.5-0.3-3.1-1.6-4.5c-2-2.2-4.8-3.3-7.8-3.1c-5.3,0.4-8,4.1-10.1,7.6c-0.7,1.2-0.4,2.5,0.1,3.4
		C294.6,205.5,297.8,208.2,302.3,208.9L302.3,208.9z"/>
	<path class="st2" d="M394.5,68.9c-13.7,0-37.2,14-37.2,14l-0.7,9c0,0-6.2,17-6.2,23.4s10.9,21.1,10.9,21.1s-7.8,55.7-10.9,80.4
		c0,0,37.1,23.7,103.5,2.3l-23.6-84l5.3-51.3C435.5,83.8,412.7,68.9,394.5,68.9z"/>
	<path class="st1" d="M402.4,220.9c-27.7,0-48-7.3-48.3-7.5c-0.4-0.1-0.6-0.6-0.4-1c0.1-0.4,0.6-0.6,1-0.4c0.5,0.2,45.6,16.5,93.1,0
		c0.4-0.1,0.8,0.1,1,0.5c0.1,0.4-0.1,0.8-0.5,1C432.1,219.1,416.3,220.9,402.4,220.9z"/>
	<path class="st1" d="M357.2,166.9h-0.1c-0.4-0.1-0.7-0.4-0.6-0.8c0,0,0,0,0,0c2.1-15,3.8-27.3,4.1-29.4c-1.5-2-10.9-15.1-10.9-21.3
		c0-6.3,5.6-22.1,6.2-23.6l0.6-6.7c0-0.4,0.4-0.7,0.8-0.7c0,0,0,0,0,0c0.4,0,0.7,0.4,0.7,0.8c0,0,0,0,0,0l-0.6,6.8
		c0,0.1,0,0.1,0,0.2c-0.1,0.2-6.1,17-6.1,23.2c0,6.1,10.7,20.5,10.8,20.7c0.1,0.2,0.2,0.4,0.1,0.6c0,0-1.9,13.3-4.1,29.7
		C357.9,166.7,357.6,167,357.2,166.9z"/>
	<path class="st1" d="M391.9,109.4c-0.4,0-0.9,0-1.5-0.1c-3.7-0.3-4-0.9-4.1-1.2c-0.4-1,1.1-14.9,2-23.1c0-0.4,0.4-0.7,0.8-0.7
		c0.4,0,0.7,0.4,0.7,0.8l0,0c-0.9,7.7-2.1,20.2-2.1,22.3c0.9,0.4,4.2,0.6,5.2,0.4c0.4-2.2,1.6-14.7,2.2-22.5c0-0.4,0.4-0.7,0.8-0.7
		c0.4,0,0.7,0.4,0.7,0.8c-0.9,10.2-2.1,22.6-2.5,23.3C394,109,393.8,109.4,391.9,109.4z M387.7,107.6L387.7,107.6z"/>
	<path class="st0" d="M395.5,63.9c-7.7,0.5-12.1,5.6-12.6,9.8c-0.5,4.2,2.5,8,5.4,8.9c0,0,2.9-8,5-8s3.8,9.2,3.8,9.2
		s10.3,0,13.1-8.8C412,69,404.4,63.3,395.5,63.9z"/>
	<path class="st1" d="M397,84.6c-0.4,0-0.7-0.3-0.7-0.6c-0.8-4.8-2.3-8.6-3-8.6c-0.9,0-2.9,3.5-4.3,7.5c-0.1,0.4-0.5,0.6-0.9,0.5
		c-3.2-1-6.4-5.2-5.9-9.7c0.6-4.7,5.4-10,13.3-10.5l0,0c5.7-0.4,11.2,1.7,14,5.3c1.7,2.1,2.2,4.5,1.4,6.9
		C408,84.5,397.2,84.6,397,84.6z M393.3,73.9c2.4,0,3.8,6,4.4,9.2c2.2-0.2,9.5-1.2,11.7-8.2c0.7-2.4-0.2-4.3-1.2-5.5
		c-2.5-3.1-7.6-5-12.7-4.7l0,0c-7.1,0.5-11.4,5.1-11.9,9.2c-0.4,3.4,1.8,6.7,4.2,7.8C388.7,79.1,391,73.9,393.3,73.9L393.3,73.9z
		 M395.5,63.9L395.5,63.9z"/>
	<path class="st0" d="M391.4,54.4l-1,14.5c0,0,0.3,2.6,3.6,3.9c3.4,0,6.7-1.4,9.1-3.9l-0.9-16.7L391.4,54.4z"/>
	<path class="st1" d="M394.2,73.6H394c-0.1,0-0.2,0-0.2,0c-3.7-1.4-4-4.4-4-4.5c0,0,0-0.1,0-0.1l1-14.5c0-0.3,0.3-0.6,0.6-0.7
		l10.8-2.2c0.4-0.1,0.8,0.2,0.9,0.6c0,0,0,0.1,0,0.1l0.9,16.7c0,0.2-0.1,0.4-0.2,0.6C401.2,72,397.8,73.5,394.2,73.6z M394.2,72.1
		L394.2,72.1c3.1-0.1,6-1.3,8.2-3.4l-0.9-15.5l-9.3,2l-0.9,13.8C391.2,69.2,391.7,71.1,394.2,72.1L394.2,72.1z"/>
	<path class="st1" d="M411,14.8c-4.7,4,3.4,13.8,6.5,16.7c3.1,2.9,3.8,14,11.8,15.2s-0.4,19.1,21.6,27.6c17,6.5,37.5-9.2,30.4-20
		c-7-10.8-27.6-10.1-33.9-20c-4-6.3-4.3-17.2-16.9-17.1C421.1,17.3,414.7,11.7,411,14.8z"/>
	<path class="st0" d="M382.7,43.4c0,0-3.3-5-6.9-3.3c-3.6,1.7-2.4,13.7,6.5,12L382.7,43.4z"/>
	<path class="st1" d="M380.7,53c-3.3,0-5.9-1.9-7-5.4c-1-3.1-0.6-7.1,1.8-8.2c4.1-1.9,7.7,3.3,7.9,3.5c0.2,0.3,0.1,0.8-0.2,1
		c-0.3,0.2-0.8,0.1-1-0.2l0,0c0,0-3-4.4-6-3c-1.4,0.7-1.9,3.7-1,6.4c0.5,1.6,2.2,5.1,7,4.2c0.4-0.1,0.8,0.2,0.9,0.6
		c0.1,0.4-0.2,0.8-0.6,0.9C381.8,53,381.2,53,380.7,53z"/>
	<path class="st0" d="M407.6,20.7l2-1c0.7-0.3,1.4-0.2,2,0.2c0.8,0.6,1.5,1.3,2,2.2c0.5,1,0.6,2.1,0.3,3.1c-0.1,0.5-0.4,1-0.9,1.2
		l-2.2,1.4c-0.9,0.6-2.2,0.3-2.7-0.6c-0.1-0.1-0.1-0.2-0.2-0.4l-1.4-3.6C406.2,22.2,406.7,21.1,407.6,20.7z"/>
	<path class="st1" d="M409.9,28.9c-1.1,0-2.2-0.7-2.6-1.8l-1.4-3.6c-0.5-1.3,0.1-2.8,1.4-3.5l0,0l2-1c0.9-0.4,2-0.3,2.8,0.2
		c0.9,0.6,1.7,1.5,2.3,2.5c0.5,1.1,0.7,2.4,0.3,3.6c-0.2,0.7-0.6,1.3-1.2,1.7l-2.2,1.4C410.9,28.7,410.4,28.9,409.9,28.9z
		 M407.9,21.3c-0.6,0.3-0.9,1-0.6,1.6l1.4,3.6c0.2,0.6,1,1,1.6,0.7c0.1,0,0.1-0.1,0.2-0.1l2.2-1.4c0.3-0.2,0.5-0.4,0.6-0.7
		c0.2-0.9,0.2-1.8-0.2-2.6c-0.5-0.8-1.1-1.4-1.8-1.9c-0.4-0.3-0.8-0.3-1.2-0.1L407.9,21.3z"/>
	<path class="st0" d="M380.5,45.4c0.4,7.4,3.7,15.9,12.6,15.7c6.6-0.2,13.8-8.1,14.4-18.1s-1.2-18.6-13.2-18
		c-1.3,0.1-2.6,0.3-3.8,0.5c-7,1.5-9.6,2.2-10.2,15.9C380.3,42.6,380.4,44,380.5,45.4z"/>
	<path class="st1" d="M392.8,61.8c-8.9,0-12.6-8.4-13-16.4l0-0.6c-0.1-1.2-0.1-2.4-0.1-3.5c0.5-13.6,3.2-14.9,10.7-16.6
		c1.3-0.3,2.6-0.4,3.9-0.5c4.5-0.2,8,0.8,10.4,3.2c3.8,3.8,3.9,10.3,3.6,15.6c-0.6,10.9-8.5,18.6-15.1,18.8L392.8,61.8L392.8,61.8z
		 M395.5,25.7c-0.4,0-0.8,0-1.1,0c-1.2,0.1-2.5,0.2-3.7,0.5c-6.8,1.5-9.1,2-9.6,15.2c0,1,0,2.1,0.1,3.3l0,0.6l0,0
		c0.2,3.6,1.7,15.2,11.9,15c6-0.2,13.1-7.6,13.7-17.4c0.4-7.2-0.6-11.8-3.2-14.4C401.7,26.6,399.1,25.7,395.5,25.7z"/>
	<path class="st1" d="M404.4,43.9c-2.5-0.9-4.2-3.2-4.5-5.8c-0.1-0.9-0.2-2-0.5-3.1c-5.1,5.3-14.7,8.6-18.9,9.8
		c-1.3,0.4-2.8-0.1-3.6-1.2c-4.9-7.2,0.9-21.1,10.3-20.8c10.6-7.4,23.1-2,24.8,7C414,39.8,407.4,45.2,404.4,43.9z"/>
	<path class="st0" d="M404.5,43.4c0,0,4.9-5,10-3.4s2.1,13.5-10.5,12L404.5,43.4z"/>
	<path class="st1" d="M406.1,52.9c-0.7,0-1.5,0-2.2-0.1c-0.4,0-0.7-0.4-0.7-0.8c0,0,0,0,0,0c0-0.4,0.4-0.7,0.8-0.7c0,0,0,0,0,0
		c7,0.8,11.1-2.7,11.9-6.4c0.4-1.7,0-3.6-1.7-4.2c-4.6-1.5-9.1,3.1-9.2,3.2c-0.3,0.3-0.8,0.3-1.1,0c-0.3-0.3-0.3-0.8,0-1.1l0,0
		c0.2-0.2,5.2-5.3,10.7-3.6c2.2,0.7,3.4,3.1,2.7,5.9C416.6,49.1,412.7,52.9,406.1,52.9z"/>
	<path class="st0" d="M391.2,206.2l-35.9-11.6c-3.4-1.1-7.1,0.8-8.2,4.2c0,0,0,0.1,0,0.1l-6.9,22.3h-62.8l5.7-18.4l34.4,11.1
		c2.1,0.7,4.4-0.3,5.1-2.4c0.7-2.1-0.3-4.4-2.4-5.1c-0.1,0-0.2-0.1-0.2-0.1l-35.9-11.6c-3.4-1.1-7.1,0.8-8.2,4.2c0,0,0,0.1,0,0.1
		l-72.4,235.1c-0.7,2.1,0.4,4.4,2.5,5.1c2.1,0.7,4.4-0.4,5.1-2.5c0-0.1,0-0.1,0.1-0.2L275,229.1h62.8l-63.1,204.8
		c-0.7,2.1,0.4,4.4,2.5,5.1c2.1,0.7,4.4-0.4,5.1-2.5c0-0.1,0-0.1,0.1-0.2l71.9-233.6l34.4,11.2c2.1,0.7,4.4-0.5,5.1-2.6
		C394.4,209.1,393.3,206.9,391.2,206.2z"/>
	<path class="st1" d="M278.6,439.9c-2.6,0-4.8-2.1-4.8-4.8c0-0.5,0.1-1,0.2-1.4l62.7-203.8h-61.2l-63.6,206.6
		c-0.8,2.5-3.5,3.9-6,3.2c-2.5-0.8-3.9-3.5-3.2-6l0,0l72.4-235.1c1.2-3.8,5.2-6,9-4.8c0,0,0.1,0,0.1,0l35.9,11.6
		c2.5,0.8,3.9,3.5,3.1,6c-0.8,2.5-3.5,3.9-6,3.1l0,0l-33.6-10.9l-5.1,16.7h61.2l6.7-21.7c1.2-3.8,5.2-6,9-4.8c0,0,0.1,0,0.1,0
		l35.9,11.6l0,0c2.5,0.8,3.9,3.5,3.1,6c-0.8,2.5-3.5,3.9-6,3.1l0,0l-33.6-10.9l-71.7,232.9C282.5,438.5,280.7,439.9,278.6,439.9z
		 M275,228.3h62.8c0.4,0,0.8,0.3,0.8,0.7c0,0.1,0,0.2,0,0.2l-63.1,204.8c-0.5,1.7,0.4,3.6,2.2,4.1c1.7,0.5,3.6-0.4,4.1-2.2l0,0
		l71.9-233.6c0.1-0.4,0.5-0.6,0.9-0.5c0,0,0,0,0,0l34.4,11.2c1.7,0.6,3.6-0.4,4.1-2.1c0.6-1.7-0.4-3.6-2.1-4.1l-35.9-11.6
		c-3-1-6.2,0.7-7.2,3.7c0,0,0,0,0,0.1l-6.9,22.3c-0.1,0.3-0.4,0.5-0.7,0.5h-62.8c-0.4,0-0.8-0.3-0.8-0.7c0-0.1,0-0.2,0-0.2l5.7-18.4
		c0.1-0.4,0.5-0.6,0.9-0.5c0,0,0,0,0,0l34.4,11.2c1.7,0.5,3.5-0.6,4-2.3c0.4-1.6-0.4-3.3-2-3.9l-35.9-11.6c-3-1-6.2,0.7-7.2,3.7
		c0,0,0,0,0,0.1l-72.4,235.1c-0.5,1.7,0.4,3.6,2.2,4.1c1.7,0.5,3.6-0.4,4.1-2.2l63.8-207.2C274.4,228.6,274.6,228.3,275,228.3
		L275,228.3z"/>
	<path class="st0" d="M294.8,193.2c-1.2,0.2-2.3,1-2.8,2.1c-1.1,2.5-3.4,8-3.9,10c-0.6,2.7,3.8,4.9,6,3c0,0,1.1,3.2,6.8,4.4
		c5.7,1.2,8.5-5,9-8.2c0.5-3.2-9.1-10.2-12.2-6.7C297.8,197.7,298,192.9,294.8,193.2z"/>
	<path class="st1" d="M302.4,213.5c-0.5,0-1-0.1-1.5-0.2c-4.3-0.9-6.2-2.9-6.9-4c-1.5,0.7-3.2,0.4-4.5-0.4c-1.6-0.9-2.3-2.4-2-3.9
		c0.4-2,2.6-7.2,3.9-10.1c0.6-1.4,1.9-2.4,3.4-2.6l0,0c0.9-0.1,1.8,0.2,2.4,0.8c0.9,0.8,1.2,2.1,1.4,3.1c1.4-0.6,3.3-0.4,5.4,0.7
		c3.5,1.7,7.2,5.2,6.8,7.6c-0.3,1.9-1.6,5.8-4.5,7.8C305.1,213.1,303.8,213.5,302.4,213.5z M294.2,207.5c0.3,0,0.6,0.2,0.7,0.5
		c0,0.1,1.1,2.8,6.2,3.9c1.5,0.3,3,0,4.2-0.8c2.1-1.5,3.5-4.6,3.9-6.8c0.2-1.3-2.5-4.4-5.9-6c-1.1-0.5-3.7-1.5-4.9-0.1
		c-0.3,0.3-0.7,0.4-1.1,0.1c-0.2-0.2-0.3-0.4-0.3-0.6c0-0.7-0.1-2.6-1-3.4c-0.3-0.3-0.8-0.4-1.2-0.4l0,0c-1,0.1-1.8,0.8-2.1,1.7
		c-1,2.3-3.4,7.9-3.8,9.8c-0.2,1,0.5,1.8,1.3,2.3c1,0.6,2.5,0.9,3.5,0C293.9,207.6,294,207.5,294.2,207.5z M294.8,193.2L294.8,193.2
		z"/>
	<path class="st0" d="M306.7,190.6c-4.2-1.9-10.5-2.5-12.9-2.1c-2.4,0.4-2.9,14.7-1.2,15.9c1.8,1.3,4.4-0.5,4.9-2.4
		c0.5-1.8,0.8-3.4,0.8-3.4s10.4,1.1,12.2-0.3C310.6,198.4,313.7,193.7,306.7,190.6z"/>
	<path class="st1" d="M294,205.6c-0.6,0-1.3-0.2-1.8-0.6c-1.9-1.3-1.5-10-0.7-13.8c0.5-2.2,1.2-3.3,2.2-3.4c2.5-0.4,9,0.2,13.4,2.2
		c2.6,1.2,4.2,2.7,4.8,4.6c0.4,1.5,0.2,3-0.6,4.3c-0.1,0.1-0.1,0.1-0.2,0.2c-1.8,1.3-9.4,0.7-12.1,0.5c-0.1,0.6-0.4,1.7-0.7,2.8
		c-0.5,1.4-1.6,2.6-3,3.1C294.8,205.5,294.4,205.6,294,205.6z M293.9,189.2c0,0-0.6,0.3-1.1,3.2c-0.9,4.8-0.4,10.7,0.3,11.4
		c0.5,0.3,1.1,0.4,1.6,0.1c1-0.3,1.7-1.1,2-2.1c0.5-1.8,0.8-3.4,0.8-3.4c0.1-0.4,0.4-0.6,0.8-0.6c4.1,0.4,10.2,0.7,11.6,0
		c0.5-0.9,0.6-2,0.3-2.9c-0.4-1.4-1.8-2.6-4-3.6l0,0C302.3,189.5,296.2,188.8,293.9,189.2L293.9,189.2L293.9,189.2z M310.5,198.4
		L310.5,198.4z"/>
	<path class="st1" d="M291.7,349.6h-53.8c-0.1,0-0.2,0-0.3-0.1l-56-23.1c-0.4-0.1-0.6-0.6-0.5-1c0.1-0.3,0.4-0.5,0.7-0.5h53.8
		c0.1,0,0.2,0,0.3,0.1l56,23.1c0.4,0.1,0.6,0.6,0.4,1C292.3,349.4,292,349.6,291.7,349.6z M238,348.1h49.8l-52.4-21.6h-49.9
		L238,348.1z"/>
	<polygon class="st3" points="255.2,262.4 235.6,325.8 291.7,348.9 311.3,285.5 	"/>
	<path class="st0" d="M291.1,277.2l-3.1,10.1c-0.4,1.2-1.6,1.8-2.8,1.5c-0.1,0-0.1,0-0.2-0.1l-7.3-3c-1.6-0.7-2.4-2.4-1.9-4l3-9.5
		L291.1,277.2z"/>
	<polygon class="st3" points="201.4,262.4 181.8,325.8 235.6,325.8 255.2,262.4 	"/>
	<path class="st0" d="M212.5,306.4l-3.7,12.1c-0.3,1.1-1.4,1.9-2.6,1.9h-15.1c-0.9,0-1.6-0.7-1.6-1.6c0-0.2,0-0.3,0.1-0.5l3.7-12.1
		c0.3-1.1,1.4-1.9,2.6-1.9h15c0.9,0,1.6,0.7,1.6,1.6C212.6,306.1,212.5,306.3,212.5,306.4z"/>
	<path class="st0" d="M236.9,305.7l-0.7,2.2c-0.2,0.6-0.8,1-1.4,1h-16.7c-0.6,0-1-0.5-1-1c0-0.1,0-0.2,0-0.3l0.7-2.2
		c0.2-0.6,0.8-1,1.4-1h16.7c0.6,0,1,0.5,1,1C236.9,305.5,236.9,305.6,236.9,305.7z"/>
	<path class="st0" d="M234.4,313.1l-0.7,2.2c-0.2,0.6-0.8,1-1.4,1h-16.7c-0.6,0-1-0.5-1-1c0-0.1,0-0.2,0-0.3l0.7-2.2
		c0.2-0.6,0.8-1,1.4-1h16.7c0.6,0,1,0.5,1,1C234.4,312.9,234.4,313,234.4,313.1z"/>
	<path class="st1" d="M236.9,322.3c-0.1,0-0.2,0-0.2,0c-0.4-0.1-0.6-0.5-0.5-0.9c0,0,0,0,0,0l17.2-55.6c0.1-0.4,0.5-0.6,0.9-0.5
		c0.4,0.1,0.6,0.5,0.5,0.9l0,0l-17.2,55.6C237.6,322.1,237.3,322.3,236.9,322.3z"/>
	<polygon class="st2" points="131.1,404.6 202.3,404.6 276.4,435.1 205.2,435.1 	"/>
	<polygon class="st2" points="228.3,320.7 202.3,404.6 276.4,435.1 302.4,351.2 	"/>
	<path class="st0" d="M275.6,340.2l-4.2,13.4c-0.5,1.5-2.1,2.4-3.6,1.9c-0.1,0-0.2-0.1-0.2-0.1l-9.6-4c-2.1-0.9-3.2-3.2-2.5-5.3
		l3.9-12.6L275.6,340.2z"/>
	<polygon class="st2" points="157,320.7 131.1,404.6 202.3,404.6 228.3,320.7 	"/>
	<path class="st0" d="M171.7,378.9l-5,16.1c-0.5,1.5-1.8,2.5-3.4,2.5h-19.9c-1.2,0-2.1-1-2.1-2.1c0-0.2,0-0.4,0.1-0.6l5-16.1
		c0.5-1.5,1.8-2.5,3.4-2.5h19.9c1.2,0,2.1,1,2.1,2.2C171.8,378.5,171.7,378.7,171.7,378.9z"/>
	<path class="st0" d="M204,378l-0.9,2.9c-0.3,0.8-1,1.4-1.9,1.4h-22.1c-0.8,0-1.4-0.6-1.4-1.4c0-0.1,0-0.3,0.1-0.4l0.9-2.9
		c0.3-0.8,1-1.4,1.9-1.4h22.1c0.8,0,1.4,0.6,1.4,1.4C204,377.7,204,377.8,204,378z"/>
	<path class="st0" d="M200.7,387.8l-0.9,2.9c-0.3,0.8-1,1.4-1.9,1.4h-22.1c-0.8,0-1.4-0.6-1.4-1.4c0-0.1,0-0.3,0.1-0.4l0.9-2.9
		c0.3-0.8,1-1.4,1.9-1.4h22.1c0.8,0,1.4,0.6,1.4,1.4C200.8,387.5,200.7,387.6,200.7,387.8z"/>
	<path class="st1" d="M204,399.7c-0.1,0-0.2,0-0.2,0c-0.4-0.1-0.6-0.5-0.5-0.9c0,0,0,0,0,0l22.8-73.6c0.1-0.4,0.5-0.6,0.9-0.5
		c0.4,0.1,0.6,0.5,0.5,0.9l0,0l-22.8,73.6C204.6,399.5,204.4,399.7,204,399.7z"/>
	<path class="st0" d="M280.3,430.9L199,397.4c-0.5-0.2-1.1-0.3-1.7-0.3h-78.1c-2.5,0-4.5,2-4.5,4.5c0,1.8,1.1,3.5,2.8,4.2l81.3,33.5
		c0.5,0.2,1.1,0.3,1.7,0.3h78.1c2.5,0,4.5-2,4.5-4.5C283.1,433.3,282,431.6,280.3,430.9z M142.1,406.2h15.2l59.3,24.4h-15.2
		L142.1,406.2z M240.4,430.6l-59.3-24.4h15.2l59.3,24.4H240.4z"/>
	<path class="st1" d="M278.6,440.4h-78.1c-0.7,0-1.4-0.1-2-0.4l-81.3-33.5c-2.7-1.1-4-4.2-2.9-6.9c0.8-2,2.7-3.3,4.9-3.3h78.1
		c0.7,0,1.4,0.1,2,0.4l81.3,33.5c2.7,1.1,4,4.2,2.9,6.9C282.6,439.1,280.7,440.4,278.6,440.4z M119.2,397.9c-2.1,0-3.8,1.7-3.8,3.8
		c0,1.5,0.9,2.9,2.3,3.5l81.3,33.5c0.5,0.2,0.9,0.3,1.4,0.3h78.1c2.1,0,3.8-1.7,3.8-3.8c0-1.5-0.9-2.9-2.3-3.5l-81.3-33.5
		c-0.5-0.2-0.9-0.3-1.4-0.3L119.2,397.9L119.2,397.9z M255.6,431.3h-15.3c-0.1,0-0.2,0-0.3-0.1l-59.3-24.4c-0.4-0.1-0.6-0.6-0.5-1
		c0.1-0.3,0.4-0.5,0.7-0.5h15.2c0.1,0,0.2,0,0.3,0.1l59.3,24.4c0.4,0.1,0.6,0.6,0.4,1C256.3,431.1,256,431.3,255.6,431.3z
		 M240.6,429.8h11.3l-55.6-22.9h-11.3L240.6,429.8z M216.6,431.3h-15.2c-0.1,0-0.2,0-0.3-0.1l-59.3-24.4c-0.4-0.1-0.6-0.6-0.5-1
		c0.1-0.3,0.4-0.5,0.7-0.5h15.2c0.1,0,0.2,0,0.3,0.1l59.3,24.4c0.4,0.1,0.6,0.6,0.4,1C217.2,431.1,216.9,431.3,216.6,431.3
		L216.6,431.3z M201.5,429.8h11.3l-55.6-22.9h-11.3L201.5,429.8z"/>
	<path class="st3" d="M171.6,432v30.9h-11.2c-5.8,0-10.4-6.9-10.4-15.5s4.7-15.5,10.4-15.5H171.6L171.6,432z"/>
	<ellipse class="st2" cx="171.6" cy="447.5" rx="10.4" ry="15.5"/>
	<ellipse class="st3" cx="171.6" cy="447.5" rx="5.3" ry="7.8"/>
	<path class="st3" d="M239.8,432v30.9h-11.2c-5.8,0-10.4-6.9-10.4-15.5s4.7-15.5,10.4-15.5H239.8L239.8,432z"/>
	<ellipse class="st2" cx="239.8" cy="447.5" rx="10.4" ry="15.5"/>
	<ellipse class="st3" cx="239.8" cy="447.5" rx="5.3" ry="7.8"/>
	<path class="st0" d="M381.4,191l-3.7,2.4c0,0-13-3.1-14.8-2.9s-7,14-6.4,16.4c0.6,2.3,3.4,1.8,4.5,0.6c0,0-0.4,3,5.7,5.4
		c6.1,2.4,12.1,0.4,13.8-4.4c1.7-4.8,4.4-5.7,4.4-5.7l3.8-2C388.7,200.8,387.7,193.4,381.4,191z"/>
	<path class="st1" d="M372,214.6c-1.9,0-3.7-0.4-5.5-1.1c-4.1-1.6-5.5-3.5-5.9-4.8c-0.8,0.4-1.8,0.6-2.8,0.4c-1-0.3-1.8-1.1-2-2.1
		c-0.6-2.4,3.3-12.8,5.4-15.9c0.6-0.9,1.1-1.3,1.6-1.4c1.8-0.3,12,2.1,14.8,2.8l3.4-2.2c0.2-0.1,0.5-0.2,0.7-0.1
		c6.5,2.6,7.6,10.1,7.7,10.4c0,0.3-0.1,0.6-0.4,0.8l-3.8,2l-0.1,0c0,0-2.4,0.9-3.9,5.3c-0.8,2.2-2.5,4-4.6,4.9
		C375.2,214.3,373.6,214.6,372,214.6z M361.1,206.7c0.4,0,0.8,0.3,0.8,0.7c0,0,0,0.1,0,0.1c0,0-0.1,2.5,5.2,4.6
		c3.2,1.3,6.4,1.3,9,0.1c1.8-0.8,3.2-2.2,3.8-4.1c1.7-4.7,4.3-6,4.8-6.2l3.2-1.7c-0.3-1.6-1.8-6.6-6.3-8.6l-3.4,2.2
		c-0.2,0.1-0.4,0.1-0.6,0.1c-5-1.2-13.4-3-14.6-2.8c-1.5,0.7-6.2,13.4-5.7,15.4c0.1,0.5,0.4,0.9,0.9,1c0.9,0.1,1.7-0.1,2.3-0.7
		C360.7,206.8,360.9,206.7,361.1,206.7z"/>
	<path class="st0" d="M393.3,180.1l-13.8,9.4c0,0,0.4,11.2,9.9,17l15.7-9.9L393.3,180.1z"/>
	<path class="st1" d="M389.4,207.3c-0.1,0-0.3,0-0.4-0.1c-9.7-5.9-10.2-17.2-10.2-17.6c0-0.3,0.1-0.5,0.3-0.7l13.8-9.4
		c0.3-0.2,0.8-0.2,1,0.2l11.8,16.5c0.2,0.3,0.2,0.8-0.2,1c0,0,0,0,0,0l-15.7,9.9C389.7,207.3,389.5,207.3,389.4,207.3z M380.3,189.9
		c0.2,2,1.4,10.8,9.1,15.8l14.6-9.3l-10.9-15.2L380.3,189.9z"/>
	<path class="st2" d="M435.5,83.8c9.1,3.9,20,75.1,19.5,80.2c-0.5,5-45.5,37.4-49.3,38.3c-3.9,0.8-15.3-18.8-15.3-21.8
		c0-3,33-26.3,33-26.3s-5.3-44.5-6.2-50.7C416.1,95.4,421.1,77.6,435.5,83.8z"/>
	<path class="st1" d="M405.4,203.1c-0.7,0-1.5-0.4-2.5-1.1c-4.9-3.9-13.3-18.6-13.3-21.4c0-3,22.8-19.5,33-26.7
		c-0.6-4.7-5.3-44.5-6.2-50.2c-0.7-4.9,0.7-12.7,4.7-17.5c2.2-2.7,5-4.1,8.2-4.2h0c0.4,0,0.8,0.3,0.8,0.7c0,0.4-0.3,0.8-0.7,0.8
		c-2.8,0.1-5.2,1.3-7.1,3.7c-3.6,4.3-5.1,11.7-4.4,16.3c0.9,6.1,6.2,50.2,6.2,50.7c0,0.3-0.1,0.5-0.3,0.7
		c-15.5,10.9-32.2,23.7-32.7,25.8c0,2.1,7.9,16.4,12.7,20.2c1.1,0.8,1.5,0.8,1.6,0.8c2-0.4,18.8-12,32.6-22.7
		c0.3-0.3,0.8-0.2,1.1,0.1c0.3,0.3,0.2,0.8-0.1,1.1c-12.3,9.6-30.4,22.4-33.2,23C405.7,203,405.6,203.1,405.4,203.1z"/>
	<path class="st1" d="M442,160.8c-0.2,0-0.3,0-0.4-0.1c-6.4-4.4-15.5-5.1-15.6-5.1c-0.4,0-0.7-0.4-0.7-0.8s0.4-0.7,0.8-0.7
		c0.4,0,9.6,0.7,16.3,5.4c0.3,0.2,0.4,0.7,0.2,1C442.5,160.7,442.3,160.8,442,160.8z"/>
	<path class="st0" d="M267.4,107.5c-1.2,0-2.4,0.2-3.5,0.6c-1.8-10.3-11.6-17.1-21.8-15.3c-10,1.8-16.9,11.2-15.4,21.3
		c-3.9-3-9.6-2.3-12.6,1.6c-3,3.9-2.3,9.6,1.6,12.6c1.6,1.2,3.5,1.9,5.5,1.9h46.1c6.2,0.2,11.5-4.7,11.7-11s-4.7-11.5-11-11.7
		C267.9,107.5,267.7,107.5,267.4,107.5z"/>
	<path class="st1" d="M267.4,130.9h-46.1c-5.4,0-9.7-4.4-9.7-9.7c0-5.4,4.4-9.7,9.7-9.7c1.6,0,3.1,0.4,4.5,1.1
		c0-0.4-0.1-0.9-0.1-1.3c0-10.8,8.8-19.6,19.6-19.6c9.2,0,17.2,6.4,19.2,15.4c6.5-1.6,13,2.4,14.6,8.8c1.6,6.5-2.4,13-8.8,14.6
		C269.4,130.8,268.4,130.9,267.4,130.9z M221.3,113c-4.5-0.1-8.3,3.5-8.4,8c-0.1,4.5,3.5,8.3,8,8.4c0.1,0,0.2,0,0.4,0h46.1
		c5.8,0,10.6-4.7,10.6-10.6c0-5.8-4.7-10.6-10.6-10.6c-1.1,0-2.2,0.2-3.3,0.5c-0.4,0.1-0.8-0.1-0.9-0.5c0,0,0-0.1,0-0.1
		c-1.6-9.9-10.9-16.6-20.7-15c-9.9,1.6-16.6,10.9-15,20.7l0,0c0.1,0.4-0.2,0.8-0.6,0.9c-0.2,0-0.4,0-0.6-0.2
		C224.8,113.6,223.1,113,221.3,113z"/>
	<path class="st0" d="M475.1,299.8c-0.8,0-1.7,0.1-2.5,0.4c-1.3-7.2-8.2-12-15.4-10.7c-7,1.3-11.8,7.9-10.8,14.9
		c-2.8-2.1-6.7-1.6-8.8,1.2s-1.6,6.7,1.2,8.8c1.1,0.8,2.4,1.3,3.8,1.3h32.5c4.4-0.2,7.8-3.9,7.7-8.3
		C482.6,303.3,479.3,300,475.1,299.8z"/>
	<path class="st1" d="M475.1,316.5h-32.5c-3.9-0.1-7-3.3-6.9-7.2c0.1-3.8,3.1-6.8,6.9-6.9c1,0,2,0.2,2.9,0.6c0-0.2,0-0.4,0-0.5
		c0-7.8,6.3-14,14-14c6.5,0,12.2,4.5,13.6,10.8c4.7-1,9.4,1.9,10.4,6.7c1,4.7-1.9,9.4-6.7,10.4C476.3,316.4,475.7,316.5,475.1,316.5
		z M442.6,303.9c-3.1,0-5.6,2.5-5.6,5.6c0,3.1,2.5,5.6,5.6,5.6h32.5c4,0,7.2-3.2,7.2-7.2c0-4-3.2-7.2-7.2-7.2
		c-0.8,0-1.5,0.1-2.2,0.4c-0.4,0.1-0.8-0.1-0.9-0.5c0,0,0-0.1,0-0.1c-1.2-6.8-7.6-11.4-14.5-10.2c-6,1-10.4,6.3-10.4,12.4
		c0,0.6,0.1,1.2,0.2,1.8c0.1,0.4-0.2,0.8-0.6,0.9c-0.2,0-0.4,0-0.6-0.2C445,304.3,443.8,303.9,442.6,303.9z"/>
	<path class="st4" d="M507.1,240.2L507.1,240.2c-6.7,0-12.1,5.4-12.1,12.1l0,0l0,0c0-6.7-5.4-12.1-12.1-12.1l0,0
		c6.7,0,12.1-5.4,12.1-12.1l0,0l0,0C495,234.8,500.5,240.2,507.1,240.2L507.1,240.2L507.1,240.2L507.1,240.2z"/>
	<path class="st4" d="M165.6,52.2L165.6,52.2c-5,0-9.1,4.1-9.1,9.1l0,0c0-5-4.1-9.1-9.1-9.1l0,0l0,0c5,0,9.1-4.1,9.1-9.1v0l0,0
		C156.5,48.1,160.6,52.2,165.6,52.2L165.6,52.2L165.6,52.2L165.6,52.2z"/>
	<path class="st4" d="M180,248.3L180,248.3c-6.1,0-11.1,5-11.1,11.1l0,0l0,0c0-6.1-5-11.1-11.1-11.1l0,0c6.1,0,11.1-5,11.1-11.1l0,0
		C168.9,243.3,173.8,248.3,180,248.3L180,248.3L180,248.3z"/>
	<circle class="st4" cx="313.7" cy="78" r="5.3"/>
	<circle class="st2" cx="486.1" cy="118.9" r="3"/>
	<circle class="st2" cx="118.2" cy="305.7" r="4.5"/>
	<circle class="st2" cx="117.3" cy="180" r="5.8"/>
	<path class="st1" d="M265.5,463.7H127.9c-0.4,0-0.7-0.3-0.7-0.7s0.3-0.7,0.7-0.7h137.5c0.4,0,0.7,0.3,0.7,0.7
		S265.9,463.7,265.5,463.7z"/>
	<path class="st1" d="M459.7,463.7H322.2c-0.4,0-0.7-0.3-0.7-0.7s0.3-0.7,0.7-0.7h137.5c0.4,0,0.7,0.3,0.7,0.7
		S460.1,463.7,459.7,463.7z"/>
	<path class="st1" d="M352.7,479.5h-88.2c-0.4,0-0.7-0.3-0.7-0.7s0.3-0.7,0.7-0.7h88.2c0.4,0,0.7,0.3,0.7,0.7
		S353.1,479.5,352.7,479.5z"/>
	<path class="st1" d="M240.5,479.5h-39.8c-0.4,0-0.7-0.3-0.7-0.7s0.3-0.7,0.7-0.7h39.8c0.4,0,0.7,0.3,0.7,0.7
		S240.9,479.5,240.5,479.5z"/>
	<path class="st1" d="M392.6,479.5h-12.1c-0.4,0-0.7-0.3-0.7-0.7s0.3-0.7,0.7-0.7h12.1c0.4,0,0.7,0.3,0.7,0.8
		C393.4,479.1,393,479.5,392.6,479.5L392.6,479.5z"/>
</g>
</svg>
