<?xml version="1.0" encoding="utf-8"?>
<!-- Generator: Adobe Illustrator 26.0.3, SVG Export Plug-In . SVG Version: 6.00 Build 0)  -->
<svg version="1.1" id="a1dcc6ba-40dd-4863-b6e0-e0077a18cf8c"
	 xmlns="http://www.w3.org/2000/svg" xmlns:xlink="http://www.w3.org/1999/xlink" x="0px" y="0px" viewBox="0 0 729 658"
	 style="enable-background:new 0 0 729 658;" xml:space="preserve">
<style type="text/css">
	.st0{fill:#68C0C2;}
	.st1{fill:#FFFFFF;}
	.st2{fill:#262424;}
	.st3{fill:#3F3D56;}
</style>
<path class="st0" d="M775,494.8c0,0-2.7,40.7-34,61.3l-145.3-70c0,0-160,68.7-214.7,91.3s-196-54-90-112c0,0,195-58.5,277.9-80.8
	c19.9-5.4,33.4-8.6,36.1-8.5c3.5,0.2,16.1,7.8,32.9,19.1C687.8,428.8,775,494.8,775,494.8z"/>
<path class="st1" d="M637.9,395.3c-7.5,5.5-18.1,8.9-29.9,8.9c-18.3,0-33.8-8.2-39.1-19.5c19.9-5.4,33.4-8.6,36.1-8.5
	C608.5,376.3,621.1,383.9,637.9,395.3z"/>
<path class="st2" d="M743,520.1c-0.3,0-0.7-0.1-1-0.2l-141.2-78.2l-230.7,76c-1,0.3-2.2-0.2-2.5-1.3c-0.3-1,0.2-2.2,1.3-2.5l0,0
	l231.5-76.3c0.5-0.2,1.1-0.1,1.6,0.2l142,78.6c1,0.5,1.3,1.8,0.8,2.7C744.4,519.7,743.7,520.1,743,520.1z"/>
<path class="st0" d="M555,986.8c-26,38.7-69.3,20.7-69.3,20.7c-24.7-55.3-81.3-226-81.3-226l-184-206c0,0-38-78.7,19.3-111.3
	S345,500.8,345,500.8l124.7,197.6l22.6,35.8l12.2,49.3L555,986.8z"/>
<path class="st2" d="M386.8,568.9c-0.7,0-1.3-0.4-1.7-0.9l-41.8-66.1c-0.1-0.1-12.6-18-32-31c-0.9-0.6-1.2-1.9-0.6-2.8
	s1.9-1.2,2.8-0.6c12.8,8.7,24,19.6,33.1,32.1l41.8,66.2c0.6,0.9,0.3,2.2-0.6,2.8C387.5,568.8,387.1,568.9,386.8,568.9z"/>
<path class="st2" d="M365.7,535.6c-1.1,0-2-0.9-2-2c0-0.2,0-0.3,0-0.5l3.8-17.9c0.9-4.2,0.1-8.5-2.1-12.1L338,458.5
	c-0.6-1-0.2-2.2,0.7-2.7c0.9-0.6,2.1-0.3,2.7,0.7l27.5,44.7c2.8,4.5,3.7,9.8,2.6,15l-3.8,17.9C367.6,535,366.7,535.6,365.7,535.6z"
	/>
<path class="st1" d="M504.6,783.5c-0.5,0.2-1,0.4-1.5,0.6c-18.1,6.7-40-7.2-48.7-31.1c-8.5-23.1-1.6-47.1,15.4-54.6l22.6,35.8
	L504.6,783.5z"/>
<path class="st2" d="M496,981.1c-0.8,0-1.6-0.5-1.9-1.3c-23.8-66.8-67-198-69.6-205.9L238.8,552.1c-0.7-0.8-0.6-2.1,0.2-2.8
	s2.1-0.6,2.8,0.2l0,0l186,222.1c0.2,0.2,0.3,0.4,0.4,0.7c0.5,1.4,45.3,137.7,69.7,206.2c0.4,1-0.2,2.2-1.2,2.6
	C496.5,981.1,496.2,981.1,496,981.1z"/>
<path class="st3" d="M257.7,192.6c0,0,147.7,75.4,156.7,114.4s-49.2,50.6-103.2,3.1S257.7,192.6,257.7,192.6z"/>
<path class="st1" d="M372.3,295c-6.3,2.7-6.5,14.2-3.3,28s33.7,13.7,37,8.7s1.8-23.8-1.8-29S380.2,291.6,372.3,295z"/>
<path class="st2" d="M393.5,336.7c-3,0-5.9-0.3-8.9-0.8c-9.9-1.8-16.1-6.3-17.5-12.5c-2.7-11.8-4.1-26.6,4.5-30.3l0,0
	c8.5-3.6,30,2.4,34.2,8.4c4,5.7,5.8,25.3,1.9,31.3C405.9,335.5,399.9,336.7,393.5,336.7z M373.1,296.8c-4.6,2-5.4,11.6-2.2,25.7
	c1.5,6.5,10.5,8.8,14.4,9.5c9.3,1.7,18,0,19-1.5c2.7-4.1,1.5-22.1-1.8-26.7C399.5,299.5,380.4,293.7,373.1,296.8L373.1,296.8
	L373.1,296.8z"/>
<path class="st1" d="M357.9,295.6c-8.4,1.4-4.3,20.8-2,30s16,12.5,15.5,0S367.9,294,357.9,295.6z"/>
<path class="st2" d="M365.5,335.8c-4.6,0-10-3.6-11.6-9.7c-3.8-14.8-4.1-24.7-1.1-29.4c1-1.7,2.7-2.8,4.7-3.1l0,0
	c2.5-0.4,5.1,0.2,7,1.9c7.1,5.8,8.5,22.9,8.8,30c0.3,8.5-5,9.9-6.6,10.2C366.3,335.8,365.9,335.8,365.5,335.8z M358.2,297.6
	c-0.8,0.1-1.6,0.6-2,1.4c-2.3,3.5-1.7,13.1,1.6,26.2c1.1,4.3,5.3,7.1,8.3,6.6s3.3-4,3.2-6c-0.4-10.5-2.6-23.2-7.3-27.1
	C360.9,297.8,359.5,297.4,358.2,297.6L358.2,297.6L358.2,297.6z"/>
<path class="st3" d="M226.3,606.8c0,0,55.3-96,190.7-183.3l-80-58.7c0,0-18.7-90.2-79.3-172.2c0,0-52-13.2-82-10.5
	S103,248.8,103,248.8s28,176.7,45.3,235.4C165.7,542.8,226.3,606.8,226.3,606.8z"/>
<path class="st2" d="M215.4,284.2c-0.8,0-1.6-0.1-2.4-0.4c-1.2-0.5-2.3-1-9.6-27.2c-3.5-12.5-6.8-25-6.8-25.2
	c-0.3-1.1,0.3-2.2,1.3-2.5c1.1-0.3,2.2,0.3,2.5,1.3v0.1c5.6,21.7,12.5,45.9,14.5,49.7c3-0.1,5.9-0.9,8.5-2.3c1.6-0.9,2.7-2,2.9-2.9
	c0.6-3-5.9-26.9-12.5-48.2c-0.3-1.1,0.3-2.2,1.3-2.5s2.2,0.3,2.5,1.3c3.3,10.5,13.8,45.2,12.5,50.3c-0.6,2.3-2.6,4.4-5.8,5.9
	C221.7,283.3,218.6,284,215.4,284.2z"/>
<path class="st2" d="M220.3,577.5c-1.1,0-2-0.9-2-2c0-0.4,0.1-0.9,0.4-1.2c0.9-1.1,86.8-110.8,174.2-155.3c1-0.5,2.2-0.2,2.7,0.8
	s0.2,2.2-0.8,2.7c0,0-0.1,0-0.1,0.1c-86.6,44.1-172,153.1-172.8,154.2C221.6,577.2,221,577.5,220.3,577.5z"/>
<path class="st2" d="M322,316.7c-0.8,0-1.6-0.5-1.9-1.3c-10.2-28.2-28.4-70.5-57-111.6c-0.6-0.9-0.4-2.2,0.5-2.8s2.2-0.4,2.8,0.5
	c28.9,41.5,47.2,84.1,57.5,112.6c0.4,1-0.2,2.2-1.2,2.6C322.4,316.6,322.2,316.7,322,316.7z"/>
<path class="st1" d="M224.2,199.9c-0.7,11.3-10.5,20-10.5,20c-2-6.2-8.5-16.4-15.2-24.9c0,0-2.8,15-4.6,27.7
	c-7.4,1.5-37.1,1.4-45.4-16c0,0,1.4-37.3,37-40C200.9,165.6,219.3,179.8,224.2,199.9z"/>
<path class="st2" d="M185.9,225.3c-12.4,0-32.2-3.3-39.1-17.7c-0.1-0.3-0.2-0.6-0.2-0.9c0-0.4,1.9-39.1,38.8-41.9
	c17.2-1.3,35.8,14.6,40.7,34.6c0,0.2,0.1,0.4,0,0.6c-0.8,11.9-10.7,21-11.1,21.3c-0.8,0.7-2.1,0.7-2.8-0.2c-0.2-0.2-0.3-0.4-0.4-0.7
	c-1.6-4.9-6.3-12.9-12.1-20.7c-1,5.4-2.6,14.8-3.7,23.1c-0.1,0.8-0.7,1.5-1.6,1.7C191.6,225.1,188.7,225.3,185.9,225.3z
	 M150.6,206.3c7.5,14.7,33.1,15.7,41.6,14.6c1.8-12.2,4.3-26.2,4.4-26.3c0.2-1.1,1.2-1.8,2.3-1.6c0.5,0.1,0.9,0.3,1.2,0.7
	c5.2,6.6,11.3,15.7,14.3,22.5c2.7-3.1,7.1-9.1,7.7-16.2c-5-20-22.8-32.3-36.4-31.3c-14,1-24.2,7.7-30.2,19.9
	C152.8,194.1,151.2,200.1,150.6,206.3L150.6,206.3z"/>
<path class="st1" d="M269.5,362.6L285,355c0,0,20-26.2,23.8-30.8s38.3,10.7,40.3,13.3s0.5,7.2-2.5,8.3c5.3,7.2,7,16.5,4.5,25.2
	c-4.2,14.7-29.8,1.8-29.8,1.8s-6.8,19.3-14.3,21.3s-27.3-2.5-27.3-2.5L269.5,362.6z"/>
<path class="st2" d="M301.9,396.6c-9.1,0-22-2.9-22.7-3c-0.7-0.2-1.2-0.6-1.4-1.3l-10.2-29c-0.3-1,0.1-2,1-2.5l15.1-7.5
	c2.5-3.3,20-26.1,23.6-30.5c0.9-1.1,2.5-1.7,4.8-1.6c10.1,0.2,36.5,12,38.7,15c1.3,1.8,1.7,4.2,1,6.3c-0.4,1.4-1.2,2.7-2.3,3.8
	c4.7,7.5,6.1,16.7,3.6,25.2c-0.8,3.2-3.1,5.9-6.1,7.3c-7.7,3.4-19.7-1.2-24.5-3.2c-2.1,5.4-8,18.7-14.9,20.5
	C305.6,396.5,303.8,396.7,301.9,396.6z M281.2,389.9c6.1,1.3,19.9,3.7,25.3,2.3c4.7-1.3,10.5-13,13-20.1c0.4-1,1.5-1.6,2.6-1.2
	c0.1,0,0.2,0.1,0.2,0.1c4.2,2.1,16.6,7,23.1,4.1c2-0.9,3.4-2.6,3.9-4.7c2.3-8,0.8-16.6-4.1-23.4c-0.7-0.9-0.6-2.1,0.3-2.8
	c0.2-0.1,0.3-0.2,0.5-0.3c1-0.5,1.7-1.4,2-2.4c0.3-0.9,0.2-2-0.4-2.8c-3.1-3.1-33.6-15.6-37.2-13.2c-3.7,4.5-23.5,30.5-23.7,30.7
	s-0.4,0.4-0.7,0.6l-13.9,6.9L281.2,389.9z"/>
<path class="st2" d="M346.7,347.8c-0.3,0-0.5-0.1-0.8-0.2L318.4,336c-1-0.4-1.6-1.5-1.2-2.6c0.4-1,1.5-1.6,2.6-1.2
	c0,0,0.1,0,0.1,0.1l27.5,11.7c1,0.4,1.5,1.6,1.1,2.6C348.2,347.3,347.5,347.8,346.7,347.8z"/>
<path class="st3" d="M291,396.8c0,0-70.2,74.4-103.4,96.5c-1.6,1.1-3.2,2-4.6,2.9c-19.1,10.8-38.6,13.3-55.8-12.1
	c-10.4-15.3-19.9-40.7-28.2-80.5c-22-106,4-154.7,4-154.7c18.7-9.7,64.3,4.3,68.7,48.3c4.3,44,18.3,93.7,18.3,93.7l84.3-34
	L291,396.8z"/>
<path class="st2" d="M192.6,491.8c-1.1,0-2-0.9-2-2c0-0.6,0.3-1.2,0.8-1.6c31.9-23.4,89.4-83.6,97.3-91.8l-15.4-37l-82.5,33.3
	c-1,0.4-2.2-0.1-2.6-1.1c0-0.1,0-0.1-0.1-0.2c-0.1-0.5-14.1-50.4-18.4-94c-1.9-19.2-11.7-30.9-19.6-37.2
	c-10.8-8.7-25.6-13.4-37.6-12c-1.1,0.1-2.1-0.7-2.2-1.8s0.7-2.1,1.8-2.2c13.2-1.6,28.8,3.4,40.6,12.8c8.5,6.9,19.1,19.3,21.1,39.9
	c3.8,38.2,15,81.2,17.7,91.2l82.3-33.2c1-0.4,2.2,0.1,2.6,1.1l16.7,40c0.3,0.7,0.2,1.6-0.4,2.1c-0.6,0.7-64.3,68-98.7,93.3
	C193.4,491.6,193,491.8,192.6,491.8z"/>
<path class="st2" d="M161,452.8c-1.1,0-2-0.9-2-2c0-0.2,0-0.3,0.1-0.5c0.3-1.2,7.3-29.4,26-53.7c0.7-0.8,2-0.9,2.8-0.2
	c0.8,0.7,0.9,1.8,0.4,2.6c-18.2,23.7-25.2,52-25.3,52.3C162.7,452.2,161.9,452.8,161,452.8z"/>
<path class="st1" d="M187.7,492.1c0,0.4,0,0.8,0,1.1c-1.6,1.1-3.2,2-4.6,2.9c-19.2,10.8-38.6,13.3-55.8-12.1
	c4.1-10.4,15.7-17.9,29.5-17.9C173.8,466.1,187.7,477.8,187.7,492.1z"/>
<path class="st2" d="M266.3,408.1c-0.7,0-1.3-0.3-1.7-0.9c-10.9-16.3-11-36-11-36.8c0-1.1,0.9-2,2-2l0,0c1.1,0,2,0.9,2,2
	c0,0.2,0.1,19.3,10.3,34.6c0.6,0.9,0.4,2.2-0.6,2.8C267.1,408,266.7,408.1,266.3,408.1z"/>
<circle class="st1" cx="275.2" cy="392" r="5.5"/>
<path class="st2" d="M275.2,399.5c-4.1,0-7.5-3.4-7.5-7.5s3.4-7.5,7.5-7.5s7.5,3.4,7.5,7.5S279.3,399.5,275.2,399.5z M275.2,388.5
	c-1.9,0-3.5,1.6-3.5,3.5s1.6,3.5,3.5,3.5s3.5-1.6,3.5-3.5S277.1,388.5,275.2,388.5L275.2,388.5z"/>
<path class="st1" d="M163,123.5l1.5,21.9l2.4,37.5c13,8.3,25.3,8.8,36.8-0.6l-2.4-17.4l-3.7-26.3L163,123.5z"/>
<path class="st2" d="M185.8,191.2c-6.4,0-13-2.2-19.9-6.6c-0.5-0.3-0.9-0.9-0.9-1.5l-3.9-59.4c-0.1-1.1,0.7-2.1,1.8-2.2
	c0.3,0,0.7,0,1,0.2l34.6,15.1c0.6,0.3,1.1,0.9,1.2,1.6l6.1,43.6c0.1,0.7-0.2,1.4-0.7,1.8C198.9,188.7,192.5,191.2,185.8,191.2z
	 M168.9,181.7c12,7.4,22.8,7.3,32.7-0.3l-5.8-41.4l-30.6-13.4L168.9,181.7z"/>
<path class="st1" d="M229.5,123.7c-1.4,18.1-6.1,39.8-27.8,37c-25.9-3.4-43-21.1-43.8-45.6s10.1-38.6,39.5-36.5
	c2.5,0.2,5,0.5,7.4,1.1c17,4.1,25.8,17.9,25.2,34.3C229.9,117,229.8,120.3,229.5,123.7z"/>
<path class="st2" d="M205.4,162.9c-1.3,0-2.6-0.1-3.9-0.3c-10-1.1-19.5-4.9-27.5-11c-0.9-0.7-1-1.9-0.3-2.8s1.9-1,2.8-0.3l0,0
	c7.5,5.6,16.3,9.2,25.6,10.2c6,0.8,10.7-0.4,14.5-3.5c8.2-6.7,10.2-21.3,11-31.7c0.3-3.4,0.4-6.6,0.5-9.6
	c0.6-16.2-8.4-28.6-23.7-32.3c-1.1-0.3-1.7-1.3-1.5-2.4c0.3-1.1,1.3-1.7,2.4-1.5c17.2,4.2,27.4,18.1,26.7,36.4
	c-0.1,2.9-0.3,6.3-0.5,9.8c-0.8,11.1-3,26.8-12.5,34.5C215.2,161.5,210.3,163.1,205.4,162.9z"/>
<path class="st2" d="M150.4,119.9c2.6,3.5,5.4,6.8,8.6,9.9l13,0.5l2.5-9.3c0,0,8.2-0.6,9.8-6.2c0-0.1,0.1-0.3,0.1-0.4
	c0.4-1.8,1.9-10,0.3-22.6c0,0,20,8.2,30.8,9.1c3.9,0.3,8.4-1.3,12.5-3.5c8.3-4.4,15.4-18.3,13.7-27.6v-0.2
	c-2.7-13.6-9.5-3.9-9.5-3.9s-2.3-10.9-9.2-11.5s-11,9.6-11,9.6c-13.3-2.7-26.9-3-40.3-0.7C145.3,67.9,152.4,86,152.4,86
	S132.9,92.8,150.4,119.9z"/>
<path class="st1" d="M169.1,128.9c0.9-10.3-6.6-19.6-16.8-20.5c-2.2-0.2-4.4,0-6.5,0.6c-12.6,3.7-8.5,33.2,22.5,30.1L169.1,128.9z"
	/>
<path class="st2" d="M164,141.3c-15.8,0-24.6-8.8-26.5-18.3c-1.5-7.5,1.8-14.2,7.7-16c2.3-0.7,4.8-0.9,7.2-0.7
	c11.4,1.2,19.7,11.3,18.6,22.7c-0.1,1.1-1.1,1.9-2.2,1.8c-1.1-0.1-1.9-1.1-1.8-2.2c0.9-9.2-5.8-17.4-15-18.4c-1.9-0.2-3.9,0-5.7,0.6
	c-3.9,1.2-6,6-5,11.4c1.5,7.9,9.4,16.5,26.6,14.8c1.1-0.1,2.1,0.7,2.2,1.8c0.1,1.1-0.7,2.1-1.8,2.2
	C166.9,141.3,165.4,141.3,164,141.3z"/>
<path class="st1" d="M443.6,307.5l96.5-67.1c5.7-4,13.5-2.6,17.5,3.2l0,0c4,5.7,2.6,13.5-3.1,17.5l-96.5,67
	c-5.7,4-13.5,2.6-17.5-3.1l0,0C436.5,319.3,437.9,311.4,443.6,307.5z"/>
<path class="st2" d="M451.5,335.7c-0.9,0-1.8-0.1-2.7-0.2c-7.9-1.5-13.2-9.1-11.7-17c0.7-3.8,2.9-7.2,6.1-9.4l96.9-66.6
	c6.6-4.6,15.7-2.9,20.3,3.8s2.9,15.7-3.8,20.3l0,0l-97,66.6C457.3,334.8,454.4,335.7,451.5,335.7z M548.3,243.9
	c-2.1,0-4.2,0.7-6,1.9l-97,66.6c-4.8,3.3-6.1,9.9-2.7,14.7c3.3,4.8,9.9,6.1,14.7,2.7l97-66.6l1.1,1.6l-1.1-1.6
	c4.8-3.3,6.1-9.9,2.8-14.7c-1.6-2.3-4.1-3.9-6.8-4.4C549.6,244,549,243.9,548.3,243.9L548.3,243.9z"/>
<path class="st1" d="M302.7,408.1l149.4-102.7c5.7-3.9,13.6-2.5,17.5,3.2l0,0c3.9,5.7,2.5,13.6-3.2,17.5L317,428.8
	c-5.7,3.9-13.6,2.5-17.5-3.2l0,0C295.5,419.8,297,412,302.7,408.1z"/>
<path class="st2" d="M309.9,433c-0.9,0-1.8-0.1-2.7-0.2c-7.9-1.5-13.2-9.1-11.7-17c0.7-3.8,2.9-7.2,6.1-9.4L451,303.7
	c6.6-4.6,15.7-2.9,20.3,3.8c4.6,6.6,2.9,15.7-3.8,20.3L318.1,430.5C315.7,432.1,312.8,433,309.9,433z M459.3,305.1
	c-2.1,0-4.2,0.7-6,1.9L303.9,409.7c-4.8,3.3-6.1,9.9-2.7,14.7c3.3,4.8,9.9,6.1,14.7,2.7l149.4-102.7c4.8-3.3,6.1-9.9,2.8-14.7
	c-1.6-2.3-4.1-3.9-6.8-4.4C460.6,305.2,459.9,305.1,459.3,305.1z M466.4,326.1L466.4,326.1z"/>
<path class="st1" d="M490.4,92.6L409,148.5c-5.4,3.7-7.9,10.5-6.2,16.8l36.9,135.9c1.1,4.2,5.4,6.6,9.6,5.5c0.9-0.2,1.7-0.6,2.4-1.1
	l81.3-55.9c5.4-3.7,7.9-10.5,6.2-16.8L502.3,97c-1.1-4.2-5.4-6.6-9.6-5.5C491.9,91.7,491.1,92.1,490.4,92.6z"/>
<path class="st2" d="M447.3,309c-1.2,0-2.3-0.2-3.4-0.6c-3-1.1-5.3-3.6-6.1-6.7l-36.9-135.9c-1.9-7.2,0.9-14.8,7-19L489.3,91
	l1.1,1.6l-1.1-1.6c4.5-3.1,10.6-1.9,13.6,2.6c0.6,0.9,1.1,1.9,1.4,2.9l36.9,135.9c1.9,7.2-0.9,14.8-7,19l-81.3,55.9
	C451.2,308.4,449.3,309,447.3,309z M494.8,93.2c-1.2,0-2.3,0.3-3.3,1l-81.4,55.9c-4.7,3.2-6.9,9.1-5.4,14.7l36.9,135.9
	c0.8,3.1,4,4.9,7.1,4.1c0.6-0.2,1.2-0.4,1.8-0.8l81.3-55.9c4.7-3.2,6.8-9.1,5.4-14.6l-36.8-136c-0.5-1.8-1.8-3.3-3.6-3.9
	C496.1,93.4,495.5,93.2,494.8,93.2L494.8,93.2z"/>
<path class="st1" d="M499.9,86.1L418.5,142c-5.4,3.7-7.9,10.5-6.2,16.8l36.9,135.9c1.1,4.2,5.4,6.6,9.6,5.5c0.9-0.2,1.7-0.6,2.4-1.1
	l81.4-55.9c5.4-3.7,7.9-10.5,6.2-16.8L511.9,90.5c-1.1-4.2-5.4-6.6-9.6-5.5C501.4,85.2,500.6,85.6,499.9,86.1z"/>
<path class="st2" d="M456.9,302.5c-1.2,0-2.3-0.2-3.4-0.6c-3-1.1-5.3-3.6-6.1-6.6l-37-135.9c-1.9-7.2,0.9-14.8,7-19l81.3-55.9
	c4.5-3.1,10.6-1.9,13.6,2.6c0.6,0.9,1.1,1.9,1.4,2.9l36.9,135.9c1.9,7.2-0.9,14.8-7,19l-81.3,55.9
	C460.7,301.9,458.8,302.5,456.9,302.5z M504.3,86.7c-1.2,0-2.3,0.3-3.3,1l0,0l-81.4,55.9c-4.7,3.2-6.9,9.1-5.4,14.6l36.9,135.9
	c0.8,3.1,4,4.9,7.1,4.1c0.6-0.2,1.2-0.4,1.8-0.8l81.3-55.9c4.7-3.2,6.9-9.1,5.4-14.6L509.9,91c-0.5-1.8-1.8-3.3-3.6-3.9
	C505.6,86.8,504.9,86.7,504.3,86.7z M499.9,86.1L499.9,86.1z"/>
</svg>
