<?xml version="1.0" encoding="utf-8"?>
<!-- Generator: Adobe Illustrator 26.0.3, SVG Export Plug-In . SVG Version: 6.00 Build 0)  -->
<svg version="1.1" id="b8669117-6177-4f3a-a75c-05852d999d53"
	 xmlns="http://www.w3.org/2000/svg" xmlns:xlink="http://www.w3.org/1999/xlink" x="0px" y="0px" viewBox="0 0 802 537"
	 style="enable-background:new 0 0 802 537;" xml:space="preserve">
<style type="text/css">
	.st0{fill:#F7F7F7;}
	.st1{fill:#3F3D56;}
	.st2{fill:#F5A351;}
	.st3{fill:#CCCCCC;}
	.st4{fill:#FFFFFF;}
	.st5{fill:#221F1F;}
	.st6{fill:#68C0C2;}
	.st7{fill:#2F2E41;}
</style>
<path class="st0" d="M765,341.7c0-46.8-19.5-88.1-49.4-112.9c0.4-4.7,0.6-9.5,0.7-14.4c0-76-51.5-137.5-115.1-137.5
	c-20.3,0-39.3,6.3-55.9,17.3c-45-34.9-103.7-56-168-56c-104.5,0-194.5,55.9-234.4,136c-2.2-0.1-4.4-0.2-6.7-0.2
	C72.6,173.9,21,235.5,21,311.4c0,27.9,7,53.9,18.9,75.6l0,0c0,68.3,54.8,123.7,122.3,123.7H652c53,0,96-43.5,96-97.2l0,0
	C758.8,392.7,765,368,765,341.7z"/>
<path class="st1" d="M532,391H107c-3.9,0-7-3.1-7-7V257c0-3.9,3.1-7,7-7h425c3.9,0,7,3.1,7,7v127C539,387.9,535.9,391,532,391z
	 M107,252c-2.8,0-5,2.2-5,5v127c0,2.8,2.2,5,5,5h425c2.8,0,5-2.2,5-5V257c0-2.8-2.2-5-5-5H107z"/>
<path class="st2" d="M293,444.5c-0.8,0-1.6-0.3-2.3-0.8l-5.6-4.1c-0.9-0.7-2.2-0.7-3.2,0l-5.6,4.1c-1.8,1.3-4.2,0.9-5.5-0.9
	c-0.7-1-0.9-2.3-0.6-3.5l2.1-6.6c0.4-1.1,0-2.3-1-3l-5.6-4.1c-1.8-1.3-2.1-3.7-0.9-5.5c0.7-1,1.9-1.6,3.2-1.6h6.9
	c1.2,0,2.2-0.8,2.6-1.9l2.1-6.6c0.7-2.1,2.9-3.2,5-2.5c1.2,0.4,2.1,1.3,2.5,2.5l2.1,6.6c0.4,1.1,1.4,1.9,2.6,1.9h6.9
	c2.2,0,3.9,1.8,3.9,3.9c0,1.3-0.6,2.4-1.6,3.2l-5.6,4.1c-1,0.7-1.4,1.9-1,3l2.1,6.6c0.5,1.6,0,3.4-1.4,4.4
	C294.6,444.2,293.8,444.5,293,444.5z"/>
<path class="st2" d="M349.5,444.5c-0.8,0-1.6-0.3-2.3-0.8l-5.6-4.1c-0.9-0.7-2.2-0.7-3.2,0l-5.6,4.1c-1.8,1.3-4.2,0.9-5.5-0.9
	c-0.7-1-0.9-2.3-0.6-3.5l2.1-6.6c0.4-1.1,0-2.3-1-3l-5.6-4.1c-1.8-1.3-2.1-3.7-0.9-5.5c0.7-1,1.9-1.6,3.2-1.6h6.9
	c1.2,0,2.2-0.8,2.6-1.9l2.1-6.6c0.7-2.1,2.9-3.2,5-2.5c1.2,0.4,2.1,1.3,2.5,2.5l2.1,6.6c0.4,1.1,1.4,1.9,2.6,1.9h6.9
	c2.2,0,3.9,1.8,3.9,3.9c0,1.3-0.6,2.4-1.6,3.2l-5.6,4.1c-1,0.7-1.4,1.9-1,3l2.1,6.6c0.5,1.6,0,3.4-1.4,4.4
	C351.1,444.2,350.3,444.5,349.5,444.5z"/>
<path class="st2" d="M406,444.5c-0.8,0-1.6-0.3-2.3-0.8l-5.6-4.1c-1-0.7-2.2-0.7-3.2,0l-5.6,4.1c-1.8,1.3-4.2,0.9-5.5-0.9
	c-0.7-1-0.9-2.3-0.6-3.5l2.1-6.6c0.4-1.1,0-2.3-1-3l-5.6-4.1c-1.8-1.3-2.1-3.7-0.9-5.5c0.7-1,1.9-1.6,3.2-1.6h6.9
	c1.2,0,2.2-0.8,2.6-1.9l2.1-6.6c0.7-2.1,2.9-3.2,5-2.5c1.2,0.4,2.1,1.3,2.5,2.5l2.1,6.6c0.4,1.1,1.4,1.9,2.6,1.9h6.9
	c2.2,0,3.9,1.8,3.9,3.9c0,1.3-0.6,2.4-1.6,3.2l-5.6,4.1c-1,0.7-1.4,1.9-1,3l2.1,6.6c0.5,1.6,0,3.4-1.4,4.4
	C407.6,444.2,406.8,444.5,406,444.5z"/>
<path class="st2" d="M462.5,444.5c-0.8,0-1.6-0.3-2.3-0.8l-5.6-4.1c-0.9-0.7-2.2-0.7-3.2,0l-5.6,4.1c-1.8,1.3-4.2,0.9-5.5-0.9
	c-0.7-1-0.9-2.3-0.6-3.5l2.1-6.6c0.4-1.1,0-2.3-1-3l-5.6-4.1c-1.8-1.3-2.1-3.7-0.9-5.5c0.7-1,1.9-1.6,3.2-1.6h6.9
	c1.2,0,2.2-0.8,2.6-1.9l2.1-6.6c0.7-2.1,2.9-3.2,5-2.5c1.2,0.4,2.1,1.3,2.5,2.5l2.1,6.6c0.4,1.1,1.4,1.9,2.6,1.9h6.9
	c2.2,0,3.9,1.8,3.9,3.9c0,1.3-0.6,2.4-1.6,3.2l-5.6,4.1c-1,0.7-1.4,1.9-1,3l2.1,6.6c0.5,1.6,0,3.4-1.4,4.4
	C464.1,444.2,463.3,444.5,462.5,444.5z"/>
<path class="st2" d="M518.6,444.5c-0.8,0-1.6-0.3-2.3-0.8l-5.6-4.1c-0.9-0.7-2.2-0.7-3.2,0l-5.6,4.1c-1.8,1.3-4.2,0.9-5.5-0.9
	c-0.7-1-0.9-2.3-0.6-3.5l2.1-6.6c0.4-1.1,0-2.3-1-3l-5.6-4.1c-1.8-1.3-2.1-3.7-0.9-5.5c0.7-1,1.9-1.6,3.2-1.6h6.9
	c1.2,0,2.2-0.8,2.6-1.9l2.1-6.6c0.7-2.1,2.9-3.2,5-2.5c1.2,0.4,2.1,1.3,2.5,2.5l2.1,6.6c0.4,1.1,1.4,1.9,2.6,1.9h6.9
	c2.2,0,3.9,1.8,3.9,3.9c0,1.3-0.6,2.4-1.6,3.2l-5.6,4.1c-1,0.7-1.4,1.9-1,3l2.1,6.6c0.5,1.6,0,3.4-1.4,4.4
	C520.3,444.2,519.5,444.5,518.6,444.5z"/>
<path class="st3" d="M155,280c-3.6,0-6.5,2.9-6.5,6.5s2.9,6.5,6.5,6.5h329c3.6,0,6.5-2.9,6.5-6.5s-2.9-6.5-6.5-6.5H155z"/>
<path class="st3" d="M155,314c-3.6,0-6.5,2.9-6.5,6.5s2.9,6.5,6.5,6.5h329c3.6,0,6.5-2.9,6.5-6.5s-2.9-6.5-6.5-6.5H155z"/>
<path class="st3" d="M155,348c-3.6,0-6.5,2.9-6.5,6.5s2.9,6.5,6.5,6.5h329c3.6,0,6.5-2.9,6.5-6.5s-2.9-6.5-6.5-6.5H155z"/>
<path class="st3" d="M155,280c-3.6,0-6.5,2.9-6.5,6.5s2.9,6.5,6.5,6.5h329c3.6,0,6.5-2.9,6.5-6.5s-2.9-6.5-6.5-6.5H155z"/>
<path class="st3" d="M155,314c-3.6,0-6.5,2.9-6.5,6.5s2.9,6.5,6.5,6.5h329c3.6,0,6.5-2.9,6.5-6.5s-2.9-6.5-6.5-6.5H155z"/>
<path class="st3" d="M155,348c-3.6,0-6.5,2.9-6.5,6.5s2.9,6.5,6.5,6.5h329c3.6,0,6.5-2.9,6.5-6.5s-2.9-6.5-6.5-6.5H155z"/>
<path class="st1" d="M532,141H107c-3.9,0-7-3.1-7-7V7c0-3.9,3.1-7,7-7h425c3.9,0,7,3.1,7,7v127C539,137.9,535.9,141,532,141z M107,2
	c-2.8,0-5,2.2-5,5v127c0,2.8,2.2,5,5,5h425c2.8,0,5-2.2,5-5V7c0-2.8-2.2-5-5-5H107z"/>
<path class="st2" d="M293,194.5c-0.8,0-1.6-0.3-2.3-0.8l-5.6-4.1c-0.9-0.7-2.2-0.7-3.2,0l-5.6,4.1c-1.8,1.3-4.2,0.9-5.5-0.9
	c-0.7-1-0.9-2.3-0.6-3.5l2.1-6.6c0.4-1.1,0-2.3-1-3l-5.6-4.1c-1.8-1.3-2.1-3.7-0.9-5.5c0.7-1,1.9-1.6,3.2-1.6h6.9
	c1.2,0,2.2-0.8,2.6-1.9l2.1-6.6c0.7-2.1,2.9-3.2,5-2.5c1.2,0.4,2.1,1.3,2.5,2.5l2.1,6.6c0.4,1.1,1.4,1.9,2.6,1.9h6.9
	c2.2,0,3.9,1.8,3.9,3.9c0,1.3-0.6,2.4-1.6,3.2l-5.6,4.1c-1,0.7-1.4,1.9-1,3l2.1,6.6c0.5,1.6,0,3.4-1.4,4.4
	C294.6,194.2,293.8,194.5,293,194.5z"/>
<path class="st2" d="M349.5,194.5c-0.8,0-1.6-0.3-2.3-0.8l-5.6-4.1c-0.9-0.7-2.2-0.7-3.2,0l-5.6,4.1c-1.8,1.3-4.2,0.9-5.5-0.9
	c-0.7-1-0.9-2.3-0.6-3.5l2.1-6.6c0.4-1.1,0-2.3-1-3l-5.6-4.1c-1.8-1.3-2.1-3.7-0.9-5.5c0.7-1,1.9-1.6,3.2-1.6h6.9
	c1.2,0,2.2-0.8,2.6-1.9l2.1-6.6c0.7-2.1,2.9-3.2,5-2.5c1.2,0.4,2.1,1.3,2.5,2.5l2.1,6.6c0.4,1.1,1.4,1.9,2.6,1.9h6.9
	c2.2,0,3.9,1.8,3.9,3.9c0,1.3-0.6,2.4-1.6,3.2l-5.6,4.1c-1,0.7-1.4,1.9-1,3l2.1,6.6c0.5,1.6,0,3.4-1.4,4.4
	C351.1,194.2,350.3,194.5,349.5,194.5z"/>
<path class="st2" d="M406,194.5c-0.8,0-1.6-0.3-2.3-0.8l-5.6-4.1c-1-0.7-2.2-0.7-3.2,0l-5.6,4.1c-1.8,1.3-4.2,0.9-5.5-0.9
	c-0.7-1-0.9-2.3-0.6-3.5l2.1-6.6c0.4-1.1,0-2.3-1-3l-5.6-4.1c-1.8-1.3-2.1-3.7-0.9-5.5c0.7-1,1.9-1.6,3.2-1.6h6.9
	c1.2,0,2.2-0.8,2.6-1.9l2.1-6.6c0.7-2.1,2.9-3.2,5-2.5c1.2,0.4,2.1,1.3,2.5,2.5l2.1,6.6c0.4,1.1,1.4,1.9,2.6,1.9h6.9
	c2.2,0,3.9,1.8,3.9,3.9c0,1.3-0.6,2.4-1.6,3.2l-5.6,4.1c-1,0.7-1.4,1.9-1,3l2.1,6.6c0.5,1.6,0,3.4-1.4,4.4
	C407.6,194.2,406.8,194.5,406,194.5z"/>
<path class="st2" d="M460.8,194.5c-0.8,0-1.6-0.3-2.3-0.8l-5.6-4.1c-1-0.7-2.2-0.7-3.2,0l-5.6,4.1c-1.8,1.3-4.2,0.9-5.5-0.9
	c-0.7-1-0.9-2.3-0.6-3.5l2.1-6.6c0.4-1.1,0-2.3-1-3l-5.6-4.1c-1.8-1.3-2.1-3.7-0.9-5.5c0.7-1,1.9-1.6,3.2-1.6h6.9
	c1.2,0,2.2-0.8,2.6-1.9l2.1-6.6c0.7-2.1,2.9-3.2,5-2.5c1.2,0.4,2.1,1.3,2.5,2.5l2.1,6.6c0.4,1.1,1.4,1.9,2.6,1.9h6.9
	c2.2,0,3.9,1.8,3.9,3.9c0,1.3-0.6,2.4-1.6,3.2l-5.6,4.1c-1,0.7-1.4,1.9-1,3l2.1,6.6c0.5,1.6,0,3.4-1.4,4.4
	C462.5,194.2,461.7,194.5,460.8,194.5z"/>
<path class="st1" d="M500,194.9c-0.9,0-1.8-0.3-2.5-0.8c-1.5-1.1-2.2-3.1-1.6-4.8l2.1-6.6c0.3-1,0-2-0.8-2.6l-5.6-4.1
	c-1.9-1.4-2.4-4.1-1-6c0.8-1.1,2.1-1.8,3.5-1.8h6.9c1,0,1.9-0.6,2.2-1.6l2.1-6.6c0.7-2.3,3.2-3.5,5.4-2.8c1.3,0.4,2.3,1.5,2.8,2.8
	l2.1,6.6c0.3,1,1.2,1.6,2.2,1.6h6.9c2.4,0,4.3,1.9,4.3,4.3c0,1.4-0.7,2.7-1.8,3.5l-5.6,4.1c-0.8,0.6-1.2,1.6-0.8,2.6l2.1,6.6
	c0.7,2.3-0.5,4.7-2.8,5.4c-1.3,0.4-2.8,0.2-3.9-0.6l-5.6-4.1c-0.8-0.6-1.9-0.6-2.7,0l-5.6,4.1C501.8,194.6,501,194.9,500,194.9z
	 M509.5,187.5c0.9,0,1.8,0.3,2.5,0.8l5.6,4.1c1,0.8,2.5,0.5,3.2-0.5c0.4-0.6,0.6-1.4,0.3-2.1l-2.1-6.6c-0.6-1.8,0.1-3.7,1.6-4.8
	l5.6-4.1c1-0.8,1.3-2.2,0.5-3.2c-0.4-0.6-1.1-1-1.9-1H518c-1.9,0-3.5-1.2-4.1-3l-2.1-6.6c-0.4-1.2-1.7-1.9-2.9-1.5
	c-0.7,0.2-1.3,0.8-1.5,1.5l-2.1,6.6c-0.6,1.8-2.2,3-4.1,3h-6.9c-1.3,0-2.3,1-2.3,2.3c0,0.7,0.4,1.4,1,1.9l5.6,4.1
	c1.5,1.1,2.2,3.1,1.6,4.8l-2.1,6.6c-0.4,1.2,0.3,2.5,1.5,2.9c0.7,0.2,1.5,0.1,2.1-0.3l5.6-4.1C507.7,187.8,508.6,187.5,509.5,187.5z
	"/>
<path class="st3" d="M155,30c-3.6,0-6.5,2.9-6.5,6.5s2.9,6.5,6.5,6.5h329c3.6,0,6.5-2.9,6.5-6.5S487.6,30,484,30H155z"/>
<path class="st3" d="M155,64c-3.6,0-6.5,2.9-6.5,6.5s2.9,6.5,6.5,6.5h329c3.6,0,6.5-2.9,6.5-6.5S487.6,64,484,64H155z"/>
<path class="st3" d="M155,98c-3.6,0-6.5,2.9-6.5,6.5s2.9,6.5,6.5,6.5h329c3.6,0,6.5-2.9,6.5-6.5S487.6,98,484,98H155z"/>
<path class="st3" d="M155,30c-3.6,0-6.5,2.9-6.5,6.5s2.9,6.5,6.5,6.5h329c3.6,0,6.5-2.9,6.5-6.5S487.6,30,484,30H155z"/>
<path class="st3" d="M155,64c-3.6,0-6.5,2.9-6.5,6.5s2.9,6.5,6.5,6.5h329c3.6,0,6.5-2.9,6.5-6.5S487.6,64,484,64H155z"/>
<path class="st3" d="M155,98c-3.6,0-6.5,2.9-6.5,6.5s2.9,6.5,6.5,6.5h329c3.6,0,6.5-2.9,6.5-6.5S487.6,98,484,98H155z"/>
<g>
	<g>
		<g>
			<polygon class="st4" points="677,458.9 676.2,479 685.2,480.5 688.2,458.9 			"/>
			<path class="st5" d="M685.2,481.4c-0.1,0-0.1,0-0.2,0l-9.1-1.5c-0.5-0.1-0.8-0.5-0.8-1l0.8-20.1c0-0.5,0.5-0.9,1-0.9h11.2
				c0.3,0,0.5,0.1,0.7,0.3c0.2,0.2,0.3,0.5,0.2,0.8l-3,21.5c0,0.3-0.2,0.5-0.4,0.6C685.6,481.4,685.4,481.4,685.2,481.4z
				 M677.2,478.2l7.2,1.2l2.7-19.4h-9.2L677.2,478.2z"/>
		</g>
		<g>
			<path class="st6" d="M716,342.6c-1.2,5.3-22.7,120.5-22.7,120.5l-21.7-1.6l0.6-57.5l0.2-15.9l0.8-78.7c0-26.6,43.4-23.2,45.2,1.3
				C719.1,320.9,717.2,337.3,716,342.6z"/>
			<g>
				<g>
					<path class="st5" d="M689.7,455.4c-0.1,0-0.1,0-0.2,0c-0.5-0.1-0.9-0.6-0.8-1.1l24.2-139.1c0.1-0.5,0.6-0.9,1.1-0.8
						c0.5,0.1,0.9,0.6,0.8,1.1l-24.2,139.1C690.6,455.1,690.2,455.4,689.7,455.4z"/>
				</g>
				<g>
					<path class="st5" d="M710.8,333.8c-2.5,0-4.4-0.9-5.8-2.7c-4.2-5.4-1.5-17.1-1.4-17.6c0.1-0.5,0.6-0.8,1.2-0.7
						c0.5,0.1,0.8,0.6,0.7,1.2c0,0.1-2.6,11.3,1,16c1,1.3,2.4,1.9,4.3,1.9c0.5,0,1,0.4,1,1C711.8,333.3,711.4,333.8,710.8,333.8z"/>
				</g>
			</g>
			<path class="st4" d="M688.7,396.3c-0.4,6.8-5,12-10.1,11.7c-2.6-0.2-4.9-1.7-6.4-4.1l0.2-15.9c1.9-2.9,4.8-4.7,7.8-4.5
				C685.3,383.8,689.2,389.6,688.7,396.3z"/>
			<g>
				<path class="st5" d="M692.2,459.6C692.1,459.6,692.1,459.6,692.2,459.6l-18-1.5c-0.5,0-0.9-0.5-0.9-1.1c0-0.5,0.5-0.9,1.1-0.9
					l17.9,1.5c0.5,0,0.9,0.5,0.9,1.1C693.1,459.2,692.7,459.6,692.2,459.6z"/>
			</g>
		</g>
	</g>
	<g>
		<path class="st6" d="M644.2,513.7v4.3h44c0,0,0.1-2.2,0.3-6c0.3-7.4,0.5-20.7-0.3-34.4l-16.1-1.4c0,0-8.2,13.8-18.9,25.5
			c-1.1,1.2-4.1,3.2-5.3,4.3C645.6,508.2,644.2,510.9,644.2,513.7z"/>
		<g>
			<path class="st5" d="M667.3,502.7c-0.2,0-0.4-0.1-0.6-0.2c-0.4-0.3-0.6-0.9-0.2-1.4c7.6-11,11.9-23.2,11.9-23.3
				c0.2-0.5,0.7-0.8,1.2-0.6c0.5,0.2,0.8,0.7,0.6,1.2c0,0.1-4.4,12.5-12.2,23.8C667.9,502.5,667.6,502.7,667.3,502.7z"/>
		</g>
		<g>
			<ellipse class="st4" cx="683.2" cy="498.4" rx="2.9" ry="5.2"/>
			<path class="st5" d="M683.2,504.6c-2.2,0-3.9-2.7-3.9-6.2c0-3.5,1.7-6.2,3.9-6.2c2.2,0,3.9,2.7,3.9,6.2
				C687.1,501.8,685.4,504.6,683.2,504.6z M683.2,494.1c-0.8,0-1.9,1.7-1.9,4.2s1.1,4.2,1.9,4.2c0.9,0,1.9-1.9,1.9-4.2
				S684.1,494.1,683.2,494.1z"/>
		</g>
		<g>
			<path class="st4" d="M644.2,513.7v4.3h44c0,0,0.1-2.2,0.3-6h-20.2c0,0,1.1-11.4-15.1-10.2c-1.1,1.2-4.1,3.2-5.3,4.3
				C645.6,508.2,644.2,510.9,644.2,513.7z"/>
			<path class="st5" d="M688.2,518.9h-44c-0.5,0-1-0.4-1-1v-4.3c0-3,1.4-6,4-8.3c0.5-0.5,1.4-1.1,2.2-1.8c1.1-0.9,2.4-1.9,3-2.5
				c0.2-0.2,0.4-0.3,0.6-0.3c6.1-0.4,10.6,0.8,13.4,3.6c2.3,2.3,2.7,5.1,2.8,6.6h19.2c0.3,0,0.5,0.1,0.7,0.3
				c0.2,0.2,0.3,0.4,0.3,0.7c-0.1,3.7-0.3,6-0.3,6C689.2,518.5,688.8,518.9,688.2,518.9z M645.2,517h42.1c0-0.8,0.1-2.2,0.2-4h-19.1
				c-0.3,0-0.5-0.1-0.7-0.3c-0.2-0.2-0.3-0.5-0.2-0.7c0,0,0.3-3.5-2.3-6.2c-2.3-2.3-6.1-3.4-11.4-3c-0.7,0.7-1.9,1.6-3,2.4
				c-0.8,0.6-1.6,1.2-2.1,1.7c-2.2,2-3.4,4.4-3.4,6.9V517z"/>
		</g>
	</g>
</g>
<g>
	<g>
		<polygon class="st4" points="684.4,456.1 697.2,468.9 705.8,465.2 692.4,448.2 		"/>
		<path class="st5" d="M697.2,469.9c-0.3,0-0.5-0.1-0.7-0.3l-12.8-12.9c-0.2-0.2-0.3-0.4-0.3-0.7c0-0.3,0.1-0.5,0.3-0.7l8.1-7.8
			c0.2-0.2,0.5-0.3,0.7-0.3c0.3,0,0.5,0.2,0.7,0.4l13.4,17c0.2,0.2,0.3,0.5,0.2,0.8c-0.1,0.3-0.3,0.5-0.6,0.7l-8.6,3.7
			C697.5,469.9,697.3,469.9,697.2,469.9z M685.7,456.1l11.7,11.7l6.8-3l-11.9-15.1L685.7,456.1z"/>
	</g>
	<g>
		<path class="st6" d="M700.9,514.7l3.2,2.8l28.9-33.2c0,0-1.6-1.6-4.3-4.1c-5.4-5.1-15.2-14-26.1-22.4L691,469c0,0,5,15.3,6.8,31.1
			c0.2,1.6-0.2,5.2-0.2,6.8C697.6,510.1,698.8,512.9,700.9,514.7z"/>
		<g>
			<path class="st5" d="M707,490.5c-0.4,0-0.8-0.3-0.9-0.7c-3.3-13-9.6-24.2-9.7-24.3c-0.3-0.5-0.1-1.1,0.4-1.3
				c0.5-0.3,1.1-0.1,1.3,0.4c0.1,0.1,6.6,11.5,9.9,24.8c0.1,0.5-0.2,1-0.7,1.2C707.2,490.5,707.1,490.5,707,490.5z"/>
		</g>
		<g>
			
				<ellipse transform="matrix(0.6577 -0.7533 0.7533 0.6577 -113.2528 701.3012)" class="st4" cx="715" cy="475.3" rx="2.9" ry="5.2"/>
			<path class="st5" d="M717.3,480.3c-0.3,0-0.7,0-1.1-0.1c-1.3-0.3-2.6-1-3.8-2l0,0c-2.6-2.3-3.6-5.4-2.1-7
				c1.4-1.6,4.6-1.1,7.2,1.2c1.2,1,2.1,2.3,2.5,3.5c0.5,1.4,0.4,2.7-0.4,3.5C719.1,480,718.3,480.3,717.3,480.3z M713.7,476.7
				c0.9,0.8,2,1.4,2.9,1.6c0.7,0.2,1.3,0.1,1.6-0.2c0.3-0.3,0.3-0.9,0-1.6c-0.3-0.9-1-1.9-2-2.7c-2-1.7-3.9-1.9-4.5-1.4
				C711.2,473.1,711.9,475.1,713.7,476.7L713.7,476.7z"/>
		</g>
		<g>
			<path class="st4" d="M700.9,514.7l3.2,2.8l28.9-33.2c0,0-1.6-1.6-4.3-4.1l-13.3,15.2c0,0-7.8-8.4-17.7,4.7
				c0.2,1.6-0.2,5.2-0.2,6.8C697.6,510.1,698.8,512.9,700.9,514.7z"/>
			<path class="st5" d="M704.1,518.5c-0.2,0-0.5-0.1-0.6-0.2l-3.2-2.8c-2.3-2-3.5-5-3.6-8.5c0-0.7,0.1-1.8,0.1-2.8
				c0.1-1.4,0.2-3,0.1-3.9c0-0.2,0-0.5,0.2-0.7c3.7-4.9,7.6-7.5,11.5-7.7c3.2-0.2,5.7,1.3,6.8,2.2l12.6-14.4
				c0.2-0.2,0.4-0.3,0.7-0.3c0.3,0,0.5,0.1,0.7,0.3c2.7,2.6,4.3,4.1,4.3,4.2c0.4,0.4,0.4,0.9,0,1.3l-28.9,33.2
				C704.6,518.3,704.4,518.5,704.1,518.5C704.1,518.5,704.1,518.5,704.1,518.5z M698.8,500.3c0.1,1,0,2.5-0.1,3.9
				c-0.1,1-0.1,2-0.1,2.7c0.1,3,1.1,5.5,3,7.1l0,0l2.5,2.2l27.7-31.7c-0.6-0.6-1.6-1.5-2.9-2.8L716.2,496c-0.2,0.2-0.4,0.3-0.7,0.3
				c-0.3,0-0.5-0.1-0.7-0.3c0,0-2.5-2.5-6.1-2.3C705.3,493.9,702,496.2,698.8,500.3z"/>
		</g>
	</g>
	<path class="st6" d="M696.3,450.3l-17.2,14.3L640,424.8l-0.7-0.7c-5.3-5.4-8.1-12.8-7.7-20.4l0.1-1.9l4.9-95.8
		c2.1-26.5,40.3-19.1,40.5,3.7c0.1,12.1-1.1,24-2.7,29.2c-0.8,2.7-7.4,34.7-13.7,65.4C678.7,428,696.3,450.3,696.3,450.3z"/>
	<g>
		<path class="st5" d="M694.7,449.2c-0.3,0-0.6-0.1-0.8-0.4c-3-3.8-11-13.9-20.4-26.1c-0.3-0.4-0.2-1,0.2-1.4c0.4-0.3,1-0.2,1.4,0.2
			c9.5,12.2,17.4,22.3,20.4,26.1c0.3,0.4,0.3,1-0.2,1.4C695.1,449.1,694.9,449.2,694.7,449.2z"/>
	</g>
	<path class="st4" d="M640.6,424.7c-0.2,0.1-0.4,0.1-0.6,0.2l-0.7-0.7c-5.3-5.4-8.1-12.8-7.7-20.4l0.1-1.9c0.3-0.2,0.7-0.3,1.1-0.5
		c4.9-1.7,10.6,2.2,12.8,8.7C647.7,416.5,645.5,423,640.6,424.7z"/>
	<g>
		<path class="st5" d="M687.6,447.6c-0.3,0-0.6-0.1-0.7-0.4c-0.2-0.2-16.4-19.8-32.2-40.3c-0.2-0.2-0.2-0.5-0.2-0.8
			c4.2-21.7,12.4-54.5,16.3-70.2l0.6-2.5c0.1-0.5,0.7-0.8,1.2-0.7c0.5,0.1,0.8,0.7,0.7,1.2l-0.6,2.5c-3.9,15.6-12,48-16.2,69.7
			c15.7,20.4,31.7,39.7,31.9,39.9c0.3,0.4,0.3,1-0.1,1.4C688,447.5,687.8,447.6,687.6,447.6z"/>
	</g>
	<g>
		<path class="st5" d="M672.4,334.6c-0.2,0-0.4-0.1-0.6-0.2l-2.5-2c-1.4-1.1-2.2-2.7-2.2-4.5v-19.8c0-0.5,0.4-1,1-1c0.5,0,1,0.4,1,1
			v19.8c0,1.2,0.5,2.2,1.4,3l0.9,0.8v-24.9c0-0.5,0.4-1,1-1s1,0.4,1,1v26.9c0,0.4-0.2,0.7-0.6,0.9
			C672.7,334.6,672.5,334.6,672.4,334.6z"/>
	</g>
	<g>
		<path class="st5" d="M678,460.5c-0.3,0-0.6-0.1-0.8-0.4c-0.3-0.4-0.3-1,0.1-1.4l13.9-11.3c0.4-0.3,1-0.3,1.4,0.1
			c0.3,0.4,0.3,1-0.1,1.4l-13.9,11.3C678.4,460.5,678.2,460.5,678,460.5z"/>
	</g>
</g>
<g>
	<g>
		<g>
			<polygon class="st4" points="590.6,244.9 599.2,254.4 610,248.4 608.6,240 			"/>
			<path class="st5" d="M599.2,255.4c-0.3,0-0.5-0.1-0.7-0.3l-8.5-9.5c-0.2-0.3-0.3-0.6-0.2-0.9c0.1-0.3,0.4-0.6,0.7-0.7l17.9-4.9
				c0.3-0.1,0.5,0,0.8,0.1c0.2,0.1,0.4,0.4,0.4,0.7l1.4,8.3c0.1,0.4-0.1,0.8-0.5,1l-10.8,6.1C599.5,255.4,599.4,255.4,599.2,255.4z
				 M592.4,245.4l7,7.8l9.5-5.3l-1.1-6.6L592.4,245.4z"/>
		</g>
		<g>
			<path class="st7" d="M640.6,282.9c-1.5,2-3.1,3.6-4.7,4.9c-1.5,1.3-3.1,2.2-4.7,2.7c-0.3,0.1-0.5,0.2-0.8,0.2c0,0,0,0,0,0
				c-5.2,1.9-11.7,1.2-18.1-4.3c-6.4-5.6-12.6-16-16.9-33.6l15.1-6.1l7.8,8.5c5.7-15.1,21.4-54.5,30.7-51.4
				C667.6,210.3,656.4,262.5,640.6,282.9z"/>
		</g>
		<path class="st4" d="M635.9,287.9c-1.5,1.3-3.1,2.2-4.7,2.7c-0.3,0.1-0.5,0.2-0.8,0.2c0,0,0,0,0,0c-5.2,1.9-11.7,1.2-18.1-4.3
			c2.4-3.8,6.6-6.3,11.4-6.3C629.1,280.3,633.7,283.4,635.9,287.9z"/>
		<g>
			<path class="st5" d="M619.9,274.5c-0.5,0-0.9-0.4-1-0.9l-1.1-15.4c0-0.5,0.4-1,0.9-1c0.5,0,1,0.4,1,0.9l1.1,15.4
				C621,274,620.6,274.4,619.9,274.5C620,274.5,620,274.5,619.9,274.5z"/>
		</g>
		<g>
			<path class="st5" d="M601,258.6c-0.4,0-0.8-0.2-0.9-0.6c-0.2-0.5,0.1-1.1,0.6-1.3l12.3-4.7c0.5-0.2,1.1,0.1,1.3,0.6
				c0.2,0.5-0.1,1.1-0.6,1.3l-12.3,4.7C601.2,258.6,601.1,258.6,601,258.6z"/>
		</g>
	</g>
	<g>
		<g>
			<path class="st4" d="M589.7,247.9l15.3-4.2c0.9-0.2,1.4-1.1,1.2-2l-7.3-30.5c-0.2-0.9-1.2-1.5-2.1-1.2l-15.3,4.2
				c-0.9,0.2-1.4,1.1-1.2,2l7.3,30.5C587.8,247.6,588.8,248.2,589.7,247.9z"/>
			<path class="st5" d="M589.2,249c-0.5,0-0.9-0.1-1.4-0.4c-0.6-0.4-1.1-1-1.2-1.7l-7.3-30.5c-0.3-1.4,0.5-2.8,1.9-3.2l15.3-4.2
				c0.7-0.2,1.4-0.1,2.1,0.3c0.6,0.4,1.1,1,1.2,1.7l7.3,30.5c0.3,1.4-0.5,2.8-1.9,3.2l-15.3,4.2C589.7,248.9,589.5,249,589.2,249z
				 M597.3,210.9c-0.1,0-0.1,0-0.2,0l-15.3,4.2c-0.4,0.1-0.6,0.5-0.5,0.9l7.3,30.5c0,0.2,0.2,0.4,0.3,0.5c0.2,0.1,0.4,0.1,0.6,0.1
				c0,0,0,0,0,0l15.3-4.2c0.4-0.1,0.6-0.5,0.5-0.9l-7.3-30.5c0-0.2-0.2-0.4-0.3-0.5C597.6,211,597.5,210.9,597.3,210.9z"/>
		</g>
		<g>
			<path class="st4" d="M593.6,246.9l15.3-4.2c0.9-0.2,1.4-1.1,1.2-2l-7.3-30.5c-0.2-0.9-1.2-1.5-2.1-1.2l-15.3,4.2
				c-0.9,0.2-1.4,1.1-1.2,2l7.3,30.5C591.8,246.6,592.7,247.1,593.6,246.9z"/>
			<path class="st5" d="M593.2,247.9c-0.5,0-0.9-0.1-1.4-0.4c-0.6-0.4-1.1-1-1.2-1.7l-7.3-30.5c-0.3-1.4,0.5-2.8,1.9-3.2l15.3-4.2
				c0.7-0.2,1.4-0.1,2.1,0.3c0.6,0.4,1.1,1,1.2,1.7l7.3,30.5c0.3,1.4-0.5,2.8-1.9,3.2l-15.3,4.2
				C593.6,247.9,593.4,247.9,593.2,247.9z M601.3,209.9c-0.1,0-0.1,0-0.2,0l-15.3,4.2c-0.4,0.1-0.6,0.5-0.5,0.9l7.3,30.5
				c0,0.2,0.2,0.4,0.3,0.5c0.2,0.1,0.4,0.1,0.6,0.1h0l15.3-4.2c0.4-0.1,0.6-0.5,0.5-0.9l-7.3-30.5c0-0.2-0.2-0.4-0.3-0.5
				C601.5,209.9,601.4,209.9,601.3,209.9z"/>
		</g>
		<g>
			<path class="st4" d="M593.6,246.9l15.3-4.2c0.9-0.2,1.4-1.1,1.2-2l-7.3-30.5c-0.2-0.9-1.2-1.5-2.1-1.2l-15.3,4.2
				c-0.9,0.2-1.4,1.1-1.2,2l7.3,30.5C591.8,246.6,592.7,247.1,593.6,246.9z"/>
			<path class="st5" d="M593.2,247.9c-0.5,0-0.9-0.1-1.4-0.4c-0.6-0.4-1.1-1-1.2-1.7l-7.3-30.5c-0.3-1.4,0.5-2.8,1.9-3.2l15.3-4.2
				c0.7-0.2,1.4-0.1,2.1,0.3c0.6,0.4,1.1,1,1.2,1.7l7.3,30.5c0.3,1.4-0.5,2.8-1.9,3.2l-15.3,4.2
				C593.6,247.9,593.4,247.9,593.2,247.9z M601.3,209.9c-0.1,0-0.1,0-0.2,0l-15.3,4.2c-0.4,0.1-0.6,0.5-0.5,0.9l7.3,30.5
				c0,0.2,0.2,0.4,0.3,0.5c0.2,0.1,0.4,0.1,0.6,0.1h0l15.3-4.2c0.4-0.1,0.6-0.5,0.5-0.9l-7.3-30.5c0-0.2-0.2-0.4-0.3-0.5
				C601.5,209.9,601.4,209.9,601.3,209.9z"/>
		</g>
		<g>
			<polygon class="st4" points="587.2,215.5 600.5,211.9 607.2,240.3 594,243.9 			"/>
			<path class="st5" d="M594,244.9c-0.2,0-0.3,0-0.5-0.1c-0.2-0.1-0.4-0.4-0.4-0.6l-6.8-28.4c-0.1-0.5,0.2-1,0.7-1.2l13.3-3.6
				c0.3-0.1,0.5,0,0.8,0.1c0.2,0.1,0.4,0.4,0.4,0.6l6.8,28.4c0.1,0.5-0.2,1-0.7,1.2l-13.3,3.6C594.1,244.9,594,244.9,594,244.9z
				 M588.4,216.2l6.3,26.5l11.4-3.1l-6.3-26.5L588.4,216.2z"/>
		</g>
	</g>
	<g>
		<g>
			<path class="st4" d="M583.9,230.2c-3.6,1.9-1.7,8.3,0.4,13.6c2.9,7.1,10.2,3.8,10-0.9C594.1,238.5,593.5,225.2,583.9,230.2z"/>
			<path class="st5" d="M589.4,248.9c-2.1,0-4.5-1.2-6-4.7c-2.1-5.3-4.5-12.5,0-14.9l0,0c2.8-1.4,5.1-1.6,7-0.5
				c4.3,2.5,4.6,10.6,4.8,14.1c0.1,2.7-1.9,5.3-4.7,5.9C590.2,248.9,589.8,248.9,589.4,248.9z M584.4,231.1c-2.3,1.2-2,5.4,0.9,12.4
				c1.1,2.6,2.9,3.9,4.9,3.4c1.9-0.4,3.2-2.1,3.2-3.9c-0.1-2.9-0.5-10.5-3.8-12.5C588.2,229.8,586.5,230,584.4,231.1L584.4,231.1z"
				/>
		</g>
		<g>
			<path class="st4" d="M582,225.9c-4.4,1.6-3,7,2.8,5.4C593.2,229,593.3,221.9,582,225.9z"/>
			<path class="st5" d="M582.9,232.5c-2.4,0-3.8-1.2-4.3-2.7c-0.5-1.7,0.3-4,3.1-4.9l0,0c4.4-1.6,7.7-1.7,9.3-0.3
				c0.7,0.6,1,1.6,0.8,2.5c-0.5,2.1-3.1,4-6.7,5C584.3,232.4,583.5,232.5,582.9,232.5z M587.7,225.6c-1.2,0-3,0.3-5.4,1.1l0,0
				c-1.7,0.6-2.1,1.7-1.9,2.5c0.3,1,1.7,1.7,4.1,1c3.5-0.9,5.1-2.7,5.3-3.6c0.1-0.4,0-0.5-0.2-0.7
				C589.3,225.8,588.7,225.6,587.7,225.6z M582,225.9L582,225.9L582,225.9z"/>
		</g>
	</g>
</g>
<g>
	<g>
		<g>
			<path class="st7" d="M721,208.1l1.3,108.4c0,0-2.9,0.4-7.8,0.9v-11.8c0-0.5-0.2-0.9-0.5-1.2c-0.3-0.3-0.7-0.5-1.2-0.5
				c-1,0-1.7,0.8-1.7,1.7v12.1c-16.3,1.3-47.7,2.6-76.9-3.5c0,0,3.7-86.2,13.1-110.3c0,0,16.5-9.4,35.4-9
				C701.7,195.2,721,208.1,721,208.1z"/>
		</g>
		<g>
			<g>
				<path class="st5" d="M635.9,287.2C635.8,287.2,635.8,287.2,635.9,287.2c-0.6,0-1-0.5-1-1c1.8-26.2,5-61,10.1-78.3
					c0.2-0.5,0.7-0.8,1.2-0.7c0.5,0.2,0.8,0.7,0.7,1.2c-5,17.1-8.2,51.8-10,77.9C636.8,286.8,636.4,287.2,635.9,287.2z"/>
			</g>
			<g>
				<path class="st5" d="M686.1,314.6c-25.7,0-47.8-3.1-48.1-3.1c-0.5-0.1-0.9-0.5-0.8-1.1c0.1-0.5,0.5-0.9,1.1-0.8
					c0.4,0,35.5,4.9,68.4,2.3c0.5,0,1,0.3,1,0.9c0,0.5-0.3,1-0.9,1C699.9,314.4,692.8,314.6,686.1,314.6z"/>
			</g>
		</g>
	</g>
	<g>
		<path class="st4" d="M696.8,200.3c-2.6,6-7.5,8.5-10.5,9.4c-0.8-4.3-2.9-9.7-2.9-9.7c-2.4,3.3-3.7,7.7-4,9.7
			c-7.8-2.1-8.7-9.6-8.7-9.6c0.9-7.5,7.4-13.1,12.9-12.9C695.8,187.6,696.8,200.3,696.8,200.3z"/>
		<path class="st5" d="M686.3,210.7c-0.2,0-0.3,0-0.5-0.1c-0.2-0.1-0.4-0.4-0.5-0.7c-0.5-2.7-1.5-5.8-2.2-7.7
			c-1.6,2.8-2.5,5.9-2.8,7.7c0,0.3-0.2,0.5-0.4,0.7c-0.2,0.2-0.5,0.2-0.8,0.1c-8.3-2.3-9.3-10.1-9.4-10.4c0-0.1,0-0.2,0-0.2
			c1.1-8.4,8.2-14,13.9-13.8c12.9,0.4,14.1,13.9,14.1,14c0,0.2,0,0.3-0.1,0.5c-2.8,6.5-8.2,9-11.1,10
			C686.5,210.7,686.4,210.7,686.3,210.7z M683.3,199.1c0,0,0.1,0,0.1,0c0.4,0,0.7,0.3,0.8,0.6c0.1,0.2,1.9,4.7,2.8,8.8
			c2.7-1,6.6-3.3,8.8-8.3c-0.2-1.7-1.8-11.7-12.2-12c-4.8-0.2-10.9,4.9-11.9,12c0.1,0.9,1.2,6.2,6.9,8.3c0.5-2.3,1.8-6,3.9-9
			C682.7,199.2,683,199.1,683.3,199.1z"/>
	</g>
</g>
<g>
	<g>
		<g>
			<path class="st4" d="M625.8,225.1c-2.5-2.2-6.2-2.5-9-0.6c-4.6,3.1-11.4,7.6-14.4,9.7c-0.9,0.6-1.2,1.9-0.7,2.9
				c0.5,1,1.6,1.4,2.7,1.1l9.2-3l0.8,2.2c2,5.1,7.1,8.4,12.7,7.9l4.3-0.4l8.8-6.8L625.8,225.1z"/>
			<path class="st5" d="M626.1,246.2c-5.5,0-10.5-3.4-12.5-8.6l-0.5-1.3l-8.4,2.7c-1.5,0.5-3.1-0.2-3.8-1.6c-0.7-1.4-0.3-3.2,1-4.1
				c2.9-2,9.5-6.4,14.4-9.7c3.2-2.1,7.4-1.8,10.2,0.7l14.4,12.9c0.2,0.2,0.3,0.5,0.3,0.8c0,0.3-0.1,0.6-0.4,0.7l-8.8,6.8
				c-0.1,0.1-0.3,0.2-0.5,0.2l-4.3,0.4C626.8,246.2,626.5,246.2,626.1,246.2z M613.6,234.1c0.4,0,0.8,0.2,0.9,0.6l0.8,2.2
				c1.8,4.7,6.6,7.7,11.7,7.3l4.1-0.3l7.6-5.9l-13.5-12.1c-2.2-1.9-5.4-2.2-7.8-0.6c-4.9,3.3-11.4,7.6-14.4,9.7
				c-0.5,0.4-0.7,1.1-0.4,1.6c0.3,0.5,0.9,0.8,1.5,0.6l9.2-3C613.4,234.1,613.5,234.1,613.6,234.1z"/>
		</g>
		<path class="st7" d="M685.2,279.9c-4.2,2.5-8.2,3.9-11.5,3.6c-4.3-0.3-8.9-2-13.3-4.6c-16.7-9.8-32.1-31.7-32.1-31.7l9.8-13.6
			l32.6,17.1c0,0,42.5-48.7,51.7-40.9C737.3,222.4,707.4,266.8,685.2,279.9z"/>
		<path class="st4" d="M685.2,279.9c-4.2,2.5-8.2,3.9-11.5,3.6c-4.3-0.3-8.9-2-13.3-4.6c2.2-4.5,6.8-7.6,12.2-7.6
			C678.3,271.2,683.2,274.8,685.2,279.9z"/>
		<g>
			<path class="st5" d="M671.8,267.8c-0.5,0-0.9-0.4-1-0.9l-1.2-16.2c0-0.5,0.4-1,0.9-1c0.5,0,1,0.4,1,0.9l1.2,16.2
				C672.8,267.3,672.4,267.8,671.8,267.8C671.9,267.8,671.9,267.8,671.8,267.8z"/>
		</g>
		<g>
			<path class="st5" d="M674.3,284.5c-0.2,0-0.5,0-0.7,0c-8.9-0.6-19.3-6.9-31.1-19c-8.7-8.9-15-17.7-15-17.8
				c-0.2-0.3-0.2-0.8,0-1.1l9.8-13.6c0.3-0.4,0.8-0.5,1.2-0.3l31.9,16.7c2.3-2.6,11.7-13.1,22-22.9c16.3-15.5,26.3-21.2,30.6-17.6
				c5.5,4.6,5.8,13.3,1.1,25.1c-4.4,11-13,23.7-23,34C690.9,278.6,681.2,284.5,674.3,284.5z M629.5,247.2
				c3.3,4.5,25.6,34.2,44.3,35.4c6.3,0.4,15.9-5.5,25.9-15.8c9.8-10.1,18.2-22.6,22.6-33.4c3.1-7.6,5.5-17.8-0.5-22.9
				c-1.5-1.3-7.3-2.2-28,17.5c-11.6,11-22.2,23.2-22.3,23.3c-0.3,0.3-0.8,0.4-1.2,0.2l-31.9-16.7L629.5,247.2z"/>
		</g>
	</g>
	<g>
		<path class="st5" d="M638.1,250.1c-0.2,0-0.4-0.1-0.5-0.2c-0.4-0.3-0.6-0.9-0.3-1.4l7.8-11.5c0.3-0.4,0.9-0.6,1.4-0.3
			c0.4,0.3,0.6,0.9,0.3,1.4l-7.8,11.5C638.7,250,638.4,250.1,638.1,250.1z"/>
	</g>
	<g>
		<circle class="st4" cx="634.2" cy="246.3" r="1.9"/>
		<path class="st5" d="M634.2,249.1c-1.6,0-2.8-1.3-2.8-2.8c0-1.6,1.3-2.8,2.8-2.8s2.8,1.3,2.8,2.8
			C637.1,247.9,635.8,249.1,634.2,249.1z M634.2,245.4c-0.5,0-0.9,0.4-0.9,0.9c0,0.5,0.4,0.9,0.9,0.9s0.9-0.4,0.9-0.9
			C635.1,245.8,634.7,245.4,634.2,245.4z"/>
	</g>
</g>
<g>
	<g>
		<path class="st4" d="M690.7,172.1l-0.2,7.5l-0.3,12.8c-4.3,3-8.5,3.3-12.6,0.3l0.6-6l0.9-9L690.7,172.1z"/>
		<path class="st5" d="M683.5,195.8c-2.2,0-4.4-0.8-6.4-2.3c-0.3-0.2-0.4-0.5-0.4-0.9l1.5-15c0-0.3,0.2-0.6,0.5-0.8l11.6-5.6
			c0.3-0.1,0.7-0.1,1,0.1c0.3,0.2,0.5,0.5,0.4,0.8l-0.5,20.3c0,0.3-0.2,0.6-0.4,0.8C688.3,195,685.8,195.8,683.5,195.8z
			 M678.7,192.3c3.3,2.3,6.8,2.1,10.6-0.4l0.5-18.2l-9.7,4.7L678.7,192.3z"/>
	</g>
	<path class="st5" d="M686.7,174c-0.1,3.4,0.3,14.9-8.8,16.2l1.2-12.5L686.7,174z"/>
</g>
<g>
	<g>
		<g>
			<path class="st4" d="M667.7,176.7c1.9,5.9,5.1,12.8,12.2,10.1c8.3-3.1,12.6-10.4,11-18.6s-6.4-12-16-9.1c-0.9,0.3-1.7,0.6-2.4,1
				c-5.3,2.7-7.2,8-5.7,13.4C667,174.5,667.3,175.6,667.7,176.7z"/>
		</g>
		<g>
			<path class="st5" d="M676.9,188.4c-1.1,0-2.2-0.3-3.2-0.8c-4.3-2.2-6.3-8.3-7.8-13.8c-2-7.1,1.5-13.3,8.7-15.6
				c0.5-0.2,1.1,0.1,1.2,0.6c0.2,0.5-0.1,1.1-0.6,1.2c-6.2,1.9-9.1,7.1-7.4,13.2c1,3.7,3,10.6,6.8,12.6c1.5,0.7,3.1,0.8,5,0
				c3.1-1.2,5.6-2.9,7.4-5.1c0.3-0.4,1-0.5,1.4-0.1c0.4,0.3,0.5,1,0.1,1.4c-2,2.5-4.9,4.4-8.2,5.7
				C679,188.2,677.9,188.4,676.9,188.4z"/>
		</g>
		<path class="st5" d="M693.7,169.2c0,0-0.8,2.1-2.1,4l-4.3,1.2l-1.6-2.9c0,0-2.8,0.5-3.7-1.3c0,0,0,0-0.1-0.1
			c-0.3-0.6-1.4-3.2-1.9-7.5c0,0-6,4.3-9.5,5.5c-1.3,0.4-2.9,0.2-4.4-0.2c-3.1-0.8-6.6-4.9-6.7-8.1c0,0,0,0,0-0.1
			c-0.2-4.7,2.9-2.1,2.9-2.1s-0.1-3.8,2.2-4.6c2.3-0.7,4.4,2.3,4.4,2.3s5.8-3,13.4-3.4c9.2-0.5,8.2,6.1,8.2,6.1
			S697.4,158.8,693.7,169.2z"/>
		<g>
			<path class="st4" d="M688.2,173.7c-1.1-3.3,0.7-7,4-8.1c0.7-0.2,1.4-0.3,2.2-0.3c4.5,0.3,5.4,10.4-5.1,11.8L688.2,173.7z"/>
			<g>
				<path class="st5" d="M689.3,178c-0.5,0-0.9-0.4-1-0.8c-0.1-0.5,0.3-1,0.8-1.1c5.7-0.8,7.5-4.1,7.4-6.7c-0.1-1.5-0.9-3.1-2.3-3.1
					c-0.6,0-1.2,0-1.8,0.3c-2.8,0.9-4.3,4-3.4,6.9c0.2,0.5-0.1,1.1-0.6,1.2c-0.5,0.2-1.1-0.1-1.2-0.6c-1.3-3.9,0.8-8.1,4.6-9.4
					c0.8-0.3,1.7-0.4,2.6-0.3c2.3,0.1,4,2.2,4.1,5c0.1,3.7-2.6,7.9-9.1,8.7C689.3,178,689.3,178,689.3,178z"/>
			</g>
		</g>
	</g>
</g>
</svg>
