<svg version="1.1" id="a27b99c7-e964-4c47-a10a-750eac27831c"
	 xmlns="http://www.w3.org/2000/svg" xmlns:xlink="http://www.w3.org/1999/xlink" x="0px" y="0px" viewBox="0 0 855.9 630.1"
	 style="enable-background:new 0 0 855.9 630.1;" xml:space="preserve" width="855.9" height="630.1">
<style type="text/css">
	.st0{fill:#3F3D56;}
	.st1{fill:#F2F2F2;}
	.st2{fill:#FFFFFF;}
	.st3{fill:#E4E4E4;}
	.st4{fill:#6C63FF;}
	.st5{fill:#F0F0F0;}
	.st6{fill:#FF6584;}
	.st7{fill:#F5A351;}
	.st8{fill:#2F2E41;}
	.st9{fill:#E6E6E6;}
</style>
<path class="st0" d="M763.4,337.6c-3.7,43.1-22.5,84.7-49.3,119.1c-1.1,1.4-2.3,2.9-3.4,4.3c-2.6,3.2-5.2,6.3-7.9,9.4
	c-3.3,3.8-6.7,7.5-10.2,11.1c-2.9,3-5.8,5.9-8.8,8.7c-2.3,2.2-4.6,4.4-7,6.5c-28.4,25.7-61.1,46.9-94.7,65.4
	c-65.7,36.2-137.6,63.6-212.5,67.6c-74.9,4-153-17.5-207.9-68.5c-74-68.8-94.6-183.6-64.6-280c20-64.2,60.8-122.2,116.3-160.2
	c55-37.6,124.4-54.5,190.1-43.4c52.4-31.9,121.1-32.5,178.1-8.9c30.4,12.6,57.7,31.3,81.7,53.9c11,10.4,21.2,21.5,30.7,33.2
	c1,1.2,1.9,2.4,2.9,3.6c4,5,7.8,10.2,11.5,15.4c5.3,7.5,10.4,15.2,15.2,23c1.3,2.2,2.6,4.3,3.9,6.5c0.9,1.5,1.7,3,2.6,4.4
	c0,0,0,0.1,0,0.1c13.3,23.4,24.2,48.4,29.9,74.5c1,4.6,1.8,9.3,2.5,13.9v0c0.6,4,1,8,1.3,12C764.3,318.7,764.2,328.1,763.4,337.6z"
	/>
<circle class="st1" cx="227.6" cy="250.8" r="89"/>
<path class="st2" d="M306.6,244.8c0,44.7-36.3,81-81,81c0,0,0,0,0,0c-9.5,0-18.9-1.7-27.8-4.9C155.7,305.6,134,259,149.4,217
	c15.3-42.1,61.8-63.7,103.9-48.4C285.3,180.2,306.6,210.7,306.6,244.8L306.6,244.8z"/>
<circle class="st3" cx="211.6" cy="217.8" r="25"/>
<path class="st1" d="M303.4,222.3c-12.4,6-27.4,0.8-33.4-11.7c-4.8-10-2.5-22,5.8-29.4C289.1,191.7,298.7,206.1,303.4,222.3z"/>
<circle class="st3" cx="252.6" cy="271.8" r="9"/>
<path class="st1" d="M215.6,322.8c0,0.8-0.1,1.6-0.3,2.3c-6-0.7-11.8-2.2-17.5-4.2c1.1-4.9,5.8-7.9,10.7-6.9
	C212.6,314.9,215.6,318.5,215.6,322.8z"/>
<path class="st1" d="M162.6,240.8c0,9.5-7.3,17.3-16.8,18c-2.1-11.9-1.5-24.1,1.8-35.7C156.2,224.5,162.6,232,162.6,240.8z"/>
<circle class="st4" cx="606.5" cy="208.5" r="3.7"/>
<circle class="st5" cx="572.3" cy="119.9" r="2.2"/>
<circle class="st5" cx="225.3" cy="543.9" r="2.2"/>
<circle class="st5" cx="584.6" cy="331.6" r="2.2"/>
<circle class="st4" cx="305.5" cy="350.5" r="3.7"/>
<circle class="st4" cx="171.5" cy="416.5" r="17.5"/>
<circle class="st5" cx="267.3" cy="435.9" r="2.2"/>
<circle class="st5" cx="487.3" cy="97.9" r="2.2"/>
<circle class="st5" cx="358.3" cy="558.9" r="2.2"/>
<circle class="st5" cx="326.3" cy="117.9" r="2.2"/>
<circle class="st5" cx="382.3" cy="222.9" r="2.2"/>
<circle class="st5" cx="296.6" cy="480.6" r="2.2"/>
<circle class="st5" cx="549.6" cy="494.6" r="2.2"/>
<circle class="st5" cx="437.6" cy="368.6" r="2.2"/>
<circle class="st5" cx="494.6" cy="222.6" r="2.2"/>
<circle class="st6" cx="598.2" cy="292.7" r="4.3"/>
<circle class="st7" cx="424.2" cy="150.7" r="4.3"/>
<circle class="st6" cx="424.2" cy="445.7" r="4.3"/>
<path class="st4" d="M691.4,470.4c-3.4,0-6.4,2.3-7.4,5.6c-0.2,0.7-0.3,1.4-0.3,2.1v12c3-2.8,5.9-5.7,8.8-8.7
	c3.5-3.6,6.9-7.3,10.2-11.1H691.4z"/>
<path class="st4" d="M718.7,532.9c-12.9,0-27.1-0.5-42.5-1.5c-79.6-5.1-182.7-22.6-290.4-49.5c-107.6-26.9-206.9-59.8-279.6-92.7
	c-35.4-16-62.6-31.2-80.7-45.1c-19.2-14.7-27.7-27.6-25-38.2c5.1-20.6,50.7-25.1,88.1-25.3l0,3c-51.3,0.2-81.5,8.4-85.2,23
	c-4.7,18.6,33.3,47.7,104.1,79.8c72.5,32.9,171.6,65.7,279.1,92.6c107.5,26.8,210.4,44.4,289.8,49.4c77.6,4.9,124.7-2.9,129.4-21.6
	c3.9-15.5-21.6-38.3-71.7-64.2l1.4-2.7c36.4,18.8,78.6,45.9,73.2,67.6c-2.6,10.6-16.1,18-40,21.9C755,531.8,738.3,532.9,718.7,532.9
	z"/>
<circle class="st2" cx="714.6" cy="208.8" r="100.5"/>
<path class="st8" d="M714.6,106.8c-56.3,0-102,45.7-102,102s45.7,102,102,102s102-45.7,102-102c0.2-56.1-45.1-101.8-101.3-102
	C715.1,106.8,714.8,106.8,714.6,106.8z M714.6,307.8c-54.7,0-99-44.3-99-99s44.3-99,99-99s99,44.3,99,99l0,0
	c0.2,54.5-43.8,98.8-98.2,99C715.1,307.8,714.8,307.8,714.6,307.8z"/>
<path class="st8" d="M626.4,232.9c-0.9,0-1.8-0.7-2-1.6c-5.8-29.7,2.4-60.4,22.3-83.1c0.7-0.8,2-0.9,2.8-0.2c0.8,0.7,0.9,2,0.2,2.8
	c-19.1,21.8-27,51.2-21.4,79.7c0.2,1.1-0.5,2.1-1.6,2.4C626.7,232.8,626.5,232.9,626.4,232.9L626.4,232.9z"/>
<circle class="st7" cx="714.5" cy="238.3" r="63.9"/>
<path class="st8" d="M694.2,262.4c-4.1-0.1-9.3-0.3-13.3-3.2c-2.4-1.8-3.9-4.6-4-7.6c-0.1-2.1,0.7-4.2,2.3-5.6
	c2.1-1.8,5.1-2.2,8.4-1.2l-3.4-24.7l2.5-0.3l4,29l-2.1-1c-2.4-1.1-5.7-1.7-7.8,0.1c-1,0.9-1.6,2.3-1.4,3.6c0.1,2.2,1.2,4.3,3,5.7
	c3.1,2.3,7.2,2.5,11.9,2.7L694.2,262.4z"/>
<rect x="658.5" y="222.2" class="st8" width="13.5" height="2.5"/>
<rect x="701.1" y="222.2" class="st8" width="13.5" height="2.5"/>
<path class="st8" d="M717.2,317.9h-57.9c-4.5,0-8.1,3.6-8.1,8.1v128.3c0,17.7,9.9,34,25.6,42.2c2.4-2.1,4.7-4.3,7-6.5
	c3-2.8,5.9-5.7,8.8-8.7c3.5-3.6,6.9-7.3,10.2-11.1c2.7-3.1,5.4-6.2,7.9-9.4c1.1-1.4,2.3-2.8,3.4-4.3c26.8-34.4,45.6-76.1,49.3-119.1
	C751.3,325,734.6,317.9,717.2,317.9z"/>
<path class="st4" d="M719.3,344.7c-2.8-2.7-6.5-4.2-10.4-4.2c-3.4,0-6.6,1.2-9.2,3.4c-0.4,0.3-0.8,0.7-1.2,1.1l-47.4,48.6
	l-34.4,35.2c-0.5,0.5-1,1.1-1.3,1.8c-0.5,1-0.8,2.2-0.8,3.3c0,1.9,0.8,3.7,2.2,5.1l1.3,1.3l9.8,9.5l0,0c1.3,1.1,3,1.6,4.7,1.6
	c1.9,0,3.7-0.8,5.1-2.2l1.6-1.6l11.4-11.7l0.4-0.4l68.4-70.2C725.2,359.7,725.1,350.4,719.3,344.7L719.3,344.7z"/>
<path class="st8" d="M718.8,208.5c2.1-4.5-0.1-9.2-3.8-12.1c-4.7-3.6-10.7-3-16-1.3c-5.8,1.9-11.5,5.2-17.8,5
	c-4.6-0.1-8.7-3-10.2-7.3c-3.4-8.6,0.4-18.3,6.3-24.8c6.7-7.6,16.4-11.8,26.5-11.6c11.6,0.6,22.1,6.9,28.1,16.9
	c0.4,0.7,1.3,0.9,2.1,0.5c9-4,19.2-4.3,28.4-0.7c14,5.7,22.9,19.4,22.6,34.5c0,1.9,3,1.9,3,0c0.2-10.3-3.6-20.3-10.6-27.8
	c-7.2-7.6-17.1-12-27.6-12.2c-6-0.1-11.9,1.1-17.3,3.6l2.1,0.5c-5.5-9.2-14.6-15.7-25.1-17.7c-10.4-1.9-21.1,0.7-29.4,7.3
	c-7.7,6-13.5,15.4-13.2,25.4c0.2,4.3,1.4,8.8,4.5,12c3.9,4.1,9.6,4.9,14.9,3.8c7.1-1.4,13.5-6.1,20.9-5.9c2.9,0,5.7,1.3,7.6,3.4
	c1.6,1.8,2.6,4.5,1.5,6.8C715.4,208.7,718,210.2,718.8,208.5L718.8,208.5z"/>
<path class="st4" d="M240.1,569.4c-35.6,0-68.7-1.2-98.3-3.7c-38.7-3.2-69.4-8.4-91.2-15.4c-23.1-7.4-35.3-16.7-36.4-27.5
	c-2.1-21.2,39.3-40.7,74.4-53.4l1,2.8c-48.2,17.4-74,35.3-72.5,50.3c1.9,19.1,47.4,33.8,124.9,40.2c79.3,6.6,183.7,4.3,293.9-6.6
	c110.2-10.8,213.1-28.9,289.6-50.8c74.7-21.4,116.5-44.7,114.6-63.8c-1.6-15.9-33.2-28.8-89.1-36.4l0.4-3
	c40.6,5.5,89.5,16.8,91.7,39.1c1.1,10.9-9.1,22.3-30.3,34.1c-20,11.1-49.1,22.2-86.5,32.9c-76.7,22-179.7,40.1-290.1,50.9
	C367,565.9,300,569.4,240.1,569.4z"/>
<circle class="st4" cx="838.5" cy="434.5" r="17.5"/>
<circle class="st9" cx="331.5" cy="17.5" r="17.5"/>
<circle class="st9" cx="19.5" cy="433.5" r="17.5"/>
<circle class="st7" cx="127.5" cy="108.5" r="10.7"/>
<circle class="st6" cx="77.5" cy="514.5" r="10.7"/>
<circle class="st6" cx="807.5" cy="339.5" r="10.7"/>
<circle class="st9" cx="645.5" cy="598.5" r="17.5"/>
</svg>
