<?xml version="1.0" encoding="utf-8"?>
<!-- Generator: Adobe Illustrator 25.4.1, SVG Export Plug-In . SVG Version: 6.00 Build 0)  -->
<svg version="1.1" id="a1dcc6ba-40dd-4863-b6e0-e0077a18cf8c"
	 xmlns="http://www.w3.org/2000/svg" xmlns:xlink="http://www.w3.org/1999/xlink" x="0px" y="0px" viewBox="0 0 729 658"
	 style="enable-background:new 0 0 729 658;" xml:space="preserve">
<style type="text/css">
	.st0{fill:#F2F2F2;}
	.st1{fill:#FFFFFF;}
	.st2{fill:#3F3D56;}
	.st3{fill:#6C63FF;}
	.st4{fill:#403D56;}
</style>
<path class="st0" d="M242.2,633.3c11.2-9.5,18-24.5,16.2-39c-1.8-14.6-12.9-28-27.2-31.1c-14.4-3.1-30.7,5.5-35.1,19.5
	c-2.4-27-5.2-55.2-19.5-78.2c-13-20.9-35.6-35.8-60-38.4s-50.2,7.4-65.4,26.7s-19,47.3-8.3,69.5c7.9,16.3,22.4,28.5,37.5,38.3
	c49,31.6,107.9,44.5,165.7,36.2"/>
<path class="st1" d="M75.3,474c20.2,16.4,38.7,34.8,55.2,54.8c25.9,31.3,46.9,66.3,62.2,103.9c1.1,2.7-3.3,3.9-4.4,1.2
	c-9.7-23.8-21.8-46.6-35.9-68c-22.1-33.5-49.2-63.4-80.3-88.7C69.8,475.4,73,472.1,75.3,474z"/>
<path class="st0" d="M249.9,633.3c-11.2-9.5-18-24.5-16.2-39s12.9-28,27.2-31.1c14.4-3.1,30.7,5.5,35.1,19.5
	c2.4-27,5.2-55.2,19.5-78.2c13-20.9,35.6-35.8,60-38.4s50.2,7.4,65.4,26.7c15.2,19.3,19,47.3,8.3,69.5
	c-7.9,16.3-22.4,28.5-37.5,38.3c-49,31.6-107.9,44.5-165.7,36.2"/>
<path class="st1" d="M416.8,474c-20.2,16.4-38.7,34.8-55.2,54.8c-25.9,31.3-46.9,66.3-62.2,103.9c-1.1,2.7,3.3,3.9,4.4,1.2
	c25-61.1,65-115,116.2-156.8C422.3,475.4,419,472.1,416.8,474L416.8,474z"/>
<circle class="st0" cx="283.2" cy="272.8" r="37.6"/>
<path class="st0" d="M167.3,143.3h258.9v14.2H200.4c-55.9,0-101.1,45.3-101.1,101.1l0,0v160.9H70.9c-2.6,0-4.7-2.1-4.7-4.7V244.4
	C66.2,188.5,111.5,143.3,167.3,143.3L167.3,143.3z"/>
<path class="st2" d="M217.1,634.1V418.9h63v215.2c0,3-2.4,5.5-5.5,5.5h-52.1C219.6,639.5,217.1,637.1,217.1,634.1z"/>
<path class="st2" d="M52.9,414.7v-175c0.1-58,47.1-105,105.1-105.1h267v286.1H58.9C55.6,420.7,52.9,418,52.9,414.7z M422.6,137
	H157.9c-56.7,0.1-102.6,46-102.6,102.6v175c0,2,1.6,3.6,3.6,3.6h363.7V137z"/>
<path class="st3" d="M283.2,292.2c-12,0-21.8-9.8-21.8-21.8V114c0-2-1.6-3.6-3.6-3.6h-84.9c-3.3,0-6.1-2.7-6.1-6.1v-57
	c0-3.3,2.7-6.1,6.1-6.1H299c3.3,0,6.1,2.7,6.1,6.1v223.1C305,282.4,295.2,292.2,283.2,292.2z"/>
<path class="st2" d="M434.7,132.2L434.7,132.2c38.1-0.1,69,30.7,69.1,68.8v199.2h135.8c11.4,0,20.6,9.2,20.6,20.5H365.6V201
	C365.7,162.9,396.7,132.1,434.7,132.2z"/>
<circle class="st1" cx="283.2" cy="270.4" r="8.5"/>
<path class="st3" d="M568,320.2c-2.1-8.6,3.2-17.3,11.8-19.4l55.8-13.5c8.6-2.1,17.3,3.3,19.3,11.9s-3.2,17.2-11.8,19.3L587.4,332
	C578.8,334.1,570.1,328.8,568,320.2z"/>
<g>
	<polygon class="st1" points="390.7,261 424.7,392.3 515.4,368.8 511.7,229.7 	"/>
</g>
<g>
	<path class="st4" d="M705,308.7l-33.3-127.5c0-0.1,0-0.2-0.1-0.2c0-0.3-0.1-0.5-0.2-0.7c-0.3-0.6-0.8-1-1.4-1.2
		c-0.5-0.2-1.1-0.2-1.5,0l-265.3,69.7l-0.3,0.1c-0.1,0-0.2,0.1-0.2,0.1l-14.6,8.5l-1.4,0.5c-0.5,0.2-0.8,0.7-0.7,1.2l0.2,0.9
		l-0.1,0.1c-0.4,0.3-0.6,0.8-0.4,1.2c0.2,0.4,0.6,0.7,1,0.6L421,395l0.5,1.5c0.1,0.4,0.5,0.7,0.9,0.7c0.1,0,0.2,0,0.3,0l276.4-71.6
		c0.1,0,0.3,0,0.4,0c0.4,0,0.8-0.2,1.1-0.4l0.8-0.3c0.5-0.2,0.8-0.7,0.7-1.2l-0.2-0.7l3.1-13.1c0-0.1,0-0.1,0-0.2V309
		C705,308.9,705,308.8,705,308.7z M674.5,319.3c0.1,0.3,0.2,0.5,0.5,0.6c0.2,0.1,0.5,0.2,0.8,0.1l3.1-0.8c0.5-0.1,0.9-0.7,0.7-1.2
		L648,195.5l14.7-3.8L696.2,321l-181,46.8L425.5,391L392,261.7l250.9-64.9l31.4,121.5L674.5,319.3z"/>
</g>
</svg>
