<?xml version="1.0" encoding="utf-8"?>
<!-- Generator: Adobe Illustrator 21.0.2, SVG Export Plug-In . SVG Version: 6.00 Build 0)  -->
<svg version="1.1" id="Lager_1" xmlns="http://www.w3.org/2000/svg" xmlns:xlink="http://www.w3.org/1999/xlink" x="0px" y="0px"
	 viewBox="0 0 423.2 734.5" style="enable-background:new 0 0 423.2 734.5;" xml:space="preserve" width="100%" height="100%">
<style type="text/css">
	.st0{fill:none;}
	.st1{fill:#1D1D1B;}
</style>
<g>
	<path class="st0" d="M31.9,22.7c-0.6-1.8-1-3.5-1.5-5.1h-0.1c-0.4,1.7-0.9,3.4-1.4,5.1l-2.7,8.1h8.5L31.9,22.7z"/>
	<path class="st0" d="M67.4,36.7c0,2.4,1.6,3.5,3.5,3.5c2.6,0,4.3-1.7,4.9-3.4c0.1-0.4,0.2-0.8,0.2-1.2v-3.5
		C72,32,67.4,32.8,67.4,36.7z"/>
	<path class="st0" d="M115.6,107.8c-0.3-0.3-0.7-0.6-1-0.7c-0.4-0.2-0.8-0.3-1.3-0.3c-1.4,0-2.6,0.9-3.7,2.9c-1,2-1.6,4.5-1.6,7.6
		c0,0.8,0.1,1.4,0.2,1.8c0.2,0.4,0.4,0.4,0.4,0.4c0.5,0,1.5-0.4,3.4-3.4C113.6,113.7,114.8,110.9,115.6,107.8z"/>
	<path class="st0" d="M119.8,437.1c-3,0-4.8,3-4.8,5.7c0,2.7,1.8,5.7,4.8,5.7c3,0,4.9-3,4.9-5.7
		C124.6,440.1,122.8,437.1,119.8,437.1z"/>
	<path class="st0" d="M138.2,109.4c-1.1,1.8-1.6,4-1.6,6.7c0,1,0.1,1.9,0.4,2.5c0.3,0.7,0.6,0.7,0.7,0.7c0.4,0,1.3-0.4,2.8-3.1
		c1.2-2.1,2.3-4.9,3.2-8.2c-0.3-0.4-0.6-0.7-0.9-0.9c-0.3-0.2-0.7-0.3-1-0.3C140.4,106.8,139.2,107.7,138.2,109.4z"/>
	<path class="st0" d="M121.3,616.8c-0.4,0.4-0.6,1-0.6,1.6c0,0.7,0.2,1.2,0.7,1.7c0.4,0.4,1,0.6,1.6,0.6c1.1,0,2.2-0.5,3.3-1.5v-5
		c-1.4,0.5-2.5,0.9-3.3,1.3C122.2,615.9,121.6,616.3,121.3,616.8z"/>
	<path class="st0" d="M29.3,105.2l-2.4,14.1c1.4,0.2,2.5,0.4,3.4,0.5c1,0.1,1.7,0.2,2.4,0.2c2.5,0,4.4-0.6,5.8-1.8
		c1.4-1.2,2-2.8,2-4.9c0-1.8-0.5-3.2-1.6-4.3c-1.1-1.1-2.5-1.6-4.3-1.6c-0.1,0-0.3,0-0.4,0l-1.2,0.1l-0.1-1.3l0.4-0.1
		c2.8-0.5,5-1.4,6.6-2.7c1.6-1.3,2.3-2.7,2.3-4.4c0-1.7-0.5-3.1-1.5-4.2c-1-1.1-2.1-1.7-3.5-1.7c-1.7,0-3.3,1.1-4.7,3.2
		C31,98.4,29.9,101.4,29.3,105.2z"/>
	<path class="st0" d="M154.6,690.1l-0.7-0.8l-2.3,0.7v13.1c1.2,0.3,2.3,0.7,3.3,1.2l2.4-1.6v-11.2l-1.1-0.5
		C155.6,690.9,155.1,690.5,154.6,690.1z"/>
	<path class="st0" d="M75.3,688l-3.3,1.7v13l1.1,0.1c0.4,0.1,0.8,0.2,1.3,0.4c0.4,0.2,0.8,0.5,1.2,0.7l0.9,0.8l1.2-0.4v-14
		c-0.6-0.5-1.1-0.9-1.4-1.2L75.3,688z"/>
	<path class="st0" d="M88.5,526.8c-1,0.7-1.8,1.4-2.4,2.3c-0.4,0.6-0.7,1.2-0.7,1.8c0,0.5,0.2,1,0.5,1.3c0.4,0.4,0.8,0.5,1.4,0.5
		c0.4,0,0.9-0.1,1.5-0.4c0.8-0.4,1.6-1,2.5-1.8c0.1-1.7,0.1-2.9,0.1-3.6c0-0.4,0-0.9-0.1-1.5C90.5,525.7,89.5,526.2,88.5,526.8z"/>
	<path class="st0" d="M41.4,687.2c1,0,1.9-0.1,2.5-0.4l0.5-0.2l-0.2-0.6c-0.9-2.5-2.1-4.4-3.5-5.8l-1.2-1.1l-0.5,0.3v7.4l0.8,0.2
		C40.2,687.1,40.7,687.2,41.4,687.2z"/>
	<path class="st0" d="M166.6,36.7c0,2.4,1.6,3.5,3.5,3.5c2.6,0,4.3-1.7,4.9-3.4c0.1-0.4,0.2-0.8,0.2-1.2v-3.5
		C171.1,32,166.6,32.8,166.6,36.7z"/>
	<path class="st0" d="M41.6,698.3c-0.5,0-1,0.1-1.5,0.1l-1.1,0.3v7.8l1-0.5c2-1.2,3.4-3.2,4.4-6l0.3-1.1l-0.7-0.3
		C43.4,698.5,42.6,698.3,41.6,698.3z"/>
	<path class="st0" d="M45,688.9l-0.2-1.1l-1,0.3c-0.6,0.2-1.3,0.2-2.2,0.2c-0.6,0-1.1,0-1.5-0.1l-1.1-0.2v9.3l1.2-0.2
		c0.6-0.1,1.2-0.1,1.8-0.1c0.8,0,1.5,0.1,2,0.2l1,0.4l0.1-0.6c0.1-0.7,0.2-1.5,0.2-2.5v-1.7l-0.1-1.8
		C45.2,690.4,45.1,689.6,45,688.9z"/>
	<path class="st0" d="M61.3,192c0.2-0.2,0.3-0.5,0.3-1c0-1.9-0.4-3.3-1.1-4.3c-0.8-1-1.9-1.5-3.3-1.5c-1.6,0-2.7,0.6-3.5,1.8
		c-0.4,0.6-0.7,1.4-0.9,2.3c-0.2,0.9-0.3,1.9-0.3,3.1h7.7C60.7,192.3,61.1,192.2,61.3,192z"/>
	<path class="st0" d="M225.3,109.6c-0.3-0.9-0.7-1.6-1.2-2.1c-0.5-0.5-1.1-0.7-1.8-0.7c-1.2,0-2.4,0.9-3.4,2.6c-1,1.8-1.5,4-1.5,6.5
		c0,1.3,0.1,2.2,0.4,2.8c0.3,0.7,0.7,0.8,1,0.8c0.5,0,1.3-0.4,2.7-2.6C222.8,115.2,224.1,112.7,225.3,109.6z"/>
	<path class="st0" d="M48.1,280c1.5,1.5,3.4,2.3,5.5,2.3c2.2,0,4-0.8,5.5-2.3c1.5-1.5,2.3-3.3,2.3-5.5c0-2.1-0.8-4-2.3-5.5
		c-1.5-1.5-3.4-2.3-5.5-2.3c-2.2,0-4,0.8-5.5,2.3s-2.3,3.3-2.3,5.5C45.8,276.7,46.5,278.5,48.1,280z"/>
	<path class="st0" d="M192.1,107.8c-0.3-0.3-0.7-0.6-1-0.7c-0.4-0.2-0.8-0.3-1.3-0.3c-1.4,0-2.6,0.9-3.7,2.9c-1,2-1.6,4.5-1.6,7.6
		c0,0.8,0.1,1.4,0.2,1.8c0.2,0.4,0.4,0.4,0.4,0.4c0.5,0,1.5-0.4,3.4-3.4C190.2,113.7,191.4,110.9,192.1,107.8z"/>
	<path class="st0" d="M206,39.9c2.5,0,4.7-1.6,5.4-4.4c0.1-0.5,0.2-1,0.2-1.6v-3.5c0-0.5,0-1.1-0.2-1.5c-0.5-2.3-2.5-4.3-5.3-4.3
		c-3.8,0-6,3.3-6,7.8C200,36.5,202,39.9,206,39.9z"/>
	<path class="st0" d="M52.8,112.4c1.4,0,2.3-1.8,2.7-5.4c-0.3,0-0.6,0-1,0c-0.4,0-0.7,0-0.9,0c-1,0-1.6,0.4-2.1,1.1
		c-0.4,0.7-0.8,2.2-1.1,4.4c0.3,0,0.7,0,1,0.1C51.9,112.4,52.3,112.4,52.8,112.4z"/>
	<path class="st0" d="M229,24.4c-3.7,0-5.3,3.4-5.6,6h10.7C234.1,28,233.1,24.4,229,24.4z"/>
	<path class="st0" d="M206.7,365.2c1.6,0,3-0.7,4.1-2c1.1-1.3,1.6-3.4,1.6-6.3c0-2.8-0.6-4.9-1.7-6.2c-1.2-1.3-2.5-1.9-4.1-1.9
		c-1.6,0-2.9,0.6-4,1.9s-1.6,3.3-1.6,6.2c0,3,0.5,5.1,1.6,6.4C203.8,364.6,205.1,365.2,206.7,365.2z"/>
	<path class="st0" d="M265.1,202.4c1.8,0,3.1-0.7,3.9-2c0.8-1.4,1.2-3.5,1.2-6.6c0-3-0.4-5.2-1.2-6.6c-0.8-1.4-2.1-2.1-3.9-2.1
		c-1.8,0-3,0.7-3.8,2.1c-0.8,1.4-1.2,3.6-1.2,6.6c0,3,0.4,5.2,1.2,6.6C262.1,201.8,263.4,202.4,265.1,202.4z"/>
	<path class="st0" d="M65.2,363.3c1.2-1.4,1.9-3,1.9-4.9c0-0.4,0-0.8-0.1-1.3c-1.3-0.1-2.3-0.1-3-0.1c-2.5,0-4.5,0.4-5.9,1.2
		c-1.4,0.8-2.1,2-2.1,3.6c0,1,0.4,1.9,1.1,2.6c0.8,0.7,1.8,1.1,3.3,1.1C62.4,365.4,64,364.7,65.2,363.3z"/>
	<path class="st0" d="M140.3,533.6c1,0,2-0.3,3-0.8c1-0.6,1.7-1.4,2.3-2.7c0.6-1.2,0.9-2.6,0.9-4.3c0-1.1-0.2-2.3-0.7-3.7
		c-0.4-1.4-1.1-2.4-2-3.1c-0.9-0.7-2-1-3.2-1c-0.9,0-1.8,0.2-2.7,0.6c-0.9,0.4-1.7,1.2-2.4,2.4c-0.6,1.2-1,2.9-1,5.1
		c0,2.5,0.6,4.3,1.7,5.6C137.2,532.9,138.6,533.6,140.3,533.6z"/>
	<path class="st0" d="M151.9,268.6c-1.4-1.2-3.2-1.8-5.2-1.8c-2,0-3.7,0.6-5.2,1.8c-1.4,1.2-2.3,2.7-2.7,4.6h15.7
		C154.2,271.3,153.3,269.8,151.9,268.6z"/>
	<path class="st0" d="M57.7,526.8c-1,0.7-1.8,1.4-2.4,2.3c-0.4,0.6-0.7,1.2-0.7,1.8c0,0.5,0.2,1,0.5,1.3c0.4,0.4,0.8,0.5,1.4,0.5
		c0.4,0,0.9-0.1,1.5-0.4c0.8-0.4,1.6-1,2.5-1.8c0.1-1.7,0.1-2.9,0.1-3.6c0-0.4,0-0.9-0.1-1.5C59.7,525.7,58.7,526.2,57.7,526.8z"/>
	<path class="st0" d="M234,108.9c-0.8,1.5-1.2,3.6-1.2,6.3c0,1.6,0.2,2.8,0.7,3.7c0.5,0.8,1.1,1.1,2,1.1c1.2,0,2.2-0.7,3-2.2
		c0.8-1.6,1.2-3.7,1.2-6.5c0-1.6-0.2-2.7-0.7-3.5c-0.5-0.7-1.1-1-2-1C235.8,106.7,234.8,107.4,234,108.9z"/>
	<path class="st0" d="M200.4,691.1c-0.9,0-1.8-0.4-2.6-1.2l-0.6-0.6l-1.4,0.3v7.1h1.4l1.9-2c1-1.1,1.8-2,2.4-2.7l1.4-2
		C201.9,690.7,201.1,691,200.4,691.1z"/>
	<path class="st0" d="M322.3,185.8c-1.7,0-3,0.7-3.8,2c-0.8,1.3-1.2,3.4-1.2,6.2c0,2.9,0.4,5,1.2,6.3c0.8,1.3,2.1,2,4,2
		c1.6,0,2.8-0.7,3.6-2c0.8-1.3,1.2-3.4,1.2-6.3c0-2.8-0.4-4.9-1.2-6.2C325.3,186.5,324.1,185.8,322.3,185.8z"/>
	<path class="st0" d="M196.3,699.4c-1.3,1.4-2.2,2.3-2.6,2.8l-1.1,1.4l0.9-0.5c0.6-0.2,1.2-0.4,1.9-0.4c1,0,2.1,0.5,3.3,1.4l1,0.9
		l1.1-0.4v-7H198L196.3,699.4z"/>
	<path class="st0" d="M344,185.2c-1.8,0-3,0.7-3.8,2.1c-0.8,1.4-1.2,3.6-1.2,6.6c0,3,0.4,5.2,1.2,6.6c0.8,1.4,2.1,2,3.8,2
		c1.8,0,3.1-0.7,3.9-2c0.8-1.4,1.2-3.5,1.2-6.6c0-3-0.4-5.2-1.2-6.6C347,185.9,345.8,185.2,344,185.2z"/>
	<path class="st0" d="M185.3,519.7c-0.9-0.6-1.9-0.8-3-0.8c-1.6,0-2.9,0.6-4,1.8c-1.1,1.2-1.6,3-1.6,5.4c0,2.1,0.6,3.7,1.8,5
		c1.2,1.2,2.6,1.9,4.4,1.9c1,0,1.9-0.1,2.7-0.4c0.8-0.3,1.4-0.5,1.6-0.8c0.1-0.9,0.1-2.8,0.1-5.6c0-2.4-0.1-3.9-0.3-4.5
		S186.2,520.2,185.3,519.7z"/>
	<path class="st0" d="M365.4,185.2c-1.8,0-3,0.7-3.8,2.1c-0.8,1.4-1.2,3.6-1.2,6.6c0,3,0.4,5.2,1.2,6.6c0.8,1.4,2.1,2,3.8,2
		c1.8,0,3.1-0.7,3.9-2c0.8-1.4,1.2-3.5,1.2-6.6c0-3-0.4-5.2-1.2-6.6C368.5,185.9,367.2,185.2,365.4,185.2z"/>
	<path class="st0" d="M286.6,185.2c-1.8,0-3,0.7-3.8,2.1c-0.8,1.4-1.2,3.6-1.2,6.6c0,3,0.4,5.2,1.2,6.6c0.8,1.4,2.1,2,3.8,2
		c1.8,0,3.1-0.7,3.9-2s1.2-3.5,1.2-6.6c0-3-0.4-5.2-1.2-6.6C289.7,185.9,288.4,185.2,286.6,185.2z"/>
	<path class="st1" d="M25.5,33.6h10l3,8.8h3.9l-9.6-28.1h-4.4l-9.5,28.1h3.7L25.5,33.6z M29,22.6c0.5-1.7,1-3.4,1.4-5.1h0.1
		c0.4,1.6,0.8,3.3,1.5,5.1l2.8,8.1h-8.5L29,22.6z"/>
	<path class="st1" d="M54.1,42.4L62,22.3h-3.8l-3.9,11.3c-0.7,1.8-1.2,3.5-1.7,5.2h-0.1c-0.4-1.7-1-3.3-1.6-5.2l-4-11.3h-3.9
		l7.7,20.2H54.1z"/>
	<path class="st1" d="M63.7,37.1c0,2.9,2.1,5.8,6.2,5.8c2.9,0,5-1.4,6.2-3h0.1l0.3,2.5h3.3c-0.3-1.4-0.3-3.1-0.3-4.8V30
		c0-4-1.5-8.2-7.7-8.2c-2.5,0-5,0.7-6.6,1.8L66,26c1.4-0.9,3.4-1.5,5.2-1.5c4.1,0,4.6,3,4.6,4.7v0.4C68.1,29.5,63.7,32.2,63.7,37.1z
		 M76,32.1v3.5c0,0.4-0.1,0.8-0.2,1.2c-0.6,1.7-2.3,3.4-4.9,3.4c-1.9,0-3.5-1.1-3.5-3.5C67.4,32.8,72,32,76,32.1z"/>
	<path class="st1" d="M85.4,42.4h3.7V30.3c0-0.6,0.1-1.3,0.2-1.7c0.6-2,2.5-3.7,4.9-3.7c3.5,0,4.7,2.7,4.7,6v11.6h3.7v-12
		c0-6.9-4.3-8.6-7.1-8.6c-3.3,0-5.7,1.9-6.7,3.8h-0.1l-0.2-3.3h-3.3c0.1,1.7,0.2,3.4,0.2,5.5V42.4z"/>
	<path class="st1" d="M109.2,36c0,2.4,0.4,4.2,1.4,5.3c0.9,1,2.2,1.5,4,1.5c1.4,0,2.5-0.2,3.3-0.5l-0.2-2.7
		c-0.5,0.1-1.2,0.2-2.1,0.2c-2,0-2.7-1.4-2.7-3.9V25h5.2v-2.8h-5.2v-5.8l-3.6,1v4.8h-3.1V25h3.1V36z"/>
	<path class="st1" d="M150.1,42.7c3.8,0,7-1,8.6-1.5V27.7h-9.2v2.9h5.7V39c-0.8,0.4-2.5,0.7-4.8,0.7c-6.5,0-10.8-4.2-10.8-11.3
		c0-7,4.5-11.3,11.3-11.3c2.8,0,4.7,0.5,6.2,1.2l0.9-3c-1.2-0.6-3.8-1.3-7-1.3c-9.4,0-15.2,6.1-15.2,14.5c0,4.4,1.5,8.1,3.9,10.5
		C142.3,41.6,145.8,42.7,150.1,42.7z"/>
	<path class="st1" d="M162.9,37.1c0,2.9,2.1,5.8,6.2,5.8c2.9,0,5-1.4,6.2-3h0.1l0.3,2.5h3.3c-0.3-1.4-0.3-3.1-0.3-4.8V30
		c0-4-1.5-8.2-7.7-8.2c-2.5,0-5,0.7-6.6,1.8l0.8,2.4c1.4-0.9,3.4-1.5,5.2-1.5c4.1,0,4.6,3,4.6,4.7v0.4
		C167.2,29.5,162.9,32.2,162.9,37.1z M175.1,32.1v3.5c0,0.4-0.1,0.8-0.2,1.2c-0.6,1.7-2.2,3.4-4.9,3.4c-1.9,0-3.5-1.1-3.5-3.5
		C166.6,32.8,171.1,32,175.1,32.1z"/>
	<path class="st1" d="M184.6,42.4h3.6V31.7c0-0.6,0.1-1.2,0.2-1.7c0.5-2.7,2.3-4.7,4.9-4.7c0.5,0,0.9,0,1.2,0.1v-3.5
		c-0.3-0.1-0.6-0.1-1-0.1c-2.5,0-4.7,1.7-5.6,4.4h-0.2l-0.1-4h-3.2c0.1,1.9,0.2,3.9,0.2,6.3V42.4z"/>
	<path class="st1" d="M204.9,42.9c3.3,0,5.7-1.7,6.9-4h0.1l0.2,3.5h3.3c-0.1-1.4-0.2-3.4-0.2-5.2V12.8h-3.7v12h-0.1
		c-0.9-1.6-3-3.1-6.1-3.1c-4.9,0-9.1,4.1-9,10.8C196.3,38.8,200.1,42.9,204.9,42.9z M206.1,24.7c2.8,0,4.7,1.9,5.3,4.3
		c0.1,0.5,0.2,1.1,0.2,1.5V34c0,0.6,0,1.1-0.2,1.6c-0.7,2.7-2.9,4.4-5.4,4.4c-4,0-6-3.4-6-7.5C200,28,202.3,24.7,206.1,24.7z"/>
	<path class="st1" d="M229.7,42.8c3.2,0,5.4-0.7,6.7-1.3l-0.6-2.6c-1.4,0.6-3,1-5.6,1c-3.7,0-6.8-2-6.9-7h14.2c0-0.4,0.1-1,0.1-1.7
		c0-3.7-1.8-9.5-8.3-9.5c-5.9,0-9.5,4.8-9.5,10.9S223.5,42.8,229.7,42.8z M229,24.4c4.1,0,5.1,3.6,5.1,6h-10.7
		C223.7,27.8,225.3,24.4,229,24.4z"/>
	<path class="st1" d="M23,120.6c1.2,0,2.9,0.1,5,0.4c2.2,0.3,3.7,0.4,4.7,0.4c3.2,0,5.9-0.8,7.8-2.5c2-1.7,3-3.9,3-6.6
		c0-1.5-0.4-2.8-1.2-3.9c-0.7-1-1.7-1.9-3.1-2.8c1.9-1,3.3-2.1,4.2-3.3c1.1-1.3,1.6-2.9,1.6-4.5c0-1.9-0.6-3.5-1.9-4.8
		c-1.2-1.3-2.8-2-4.6-2c-2.9,0-5.3,1.3-7.1,3.8c-1.8,2.5-3.1,6.3-4,11.3l-2.2,12.9c-0.2,0-0.4,0-0.6,0l3.5-21.2
		c0.1-0.7,0.2-1.2,0.2-1.6c0-0.4,0.1-0.7,0.1-1c0-1.4-0.4-2.6-1.1-3.4c-0.7-0.9-1.7-1.3-3-1.3c-1.6,0-3,0.7-4.2,2.2
		c-1.1,1.4-1.7,3.2-1.7,5.2c0,0.5,0,0.9,0.1,1.4c0.1,0.4,0.2,0.8,0.3,1.2l0.1,0.3l1.3-0.4l-0.1-0.4c-0.1-0.4-0.2-0.8-0.2-1.1
		c0-0.4-0.1-0.7-0.1-1c0-1.5,0.4-2.7,1.1-3.8c0.7-1.1,1.5-1.6,2.3-1.6c0.7,0,1.1,0.2,1.5,0.7c0.4,0.5,0.5,1.2,0.5,2.2
		c0,0.2,0,0.5,0,0.8c0,0.3-0.1,0.7-0.1,1.1L21.7,119c-0.8,0.1-1.6,0.2-2.3,0.4c-0.8,0.2-1.6,0.4-2.3,0.6l-0.4,0.1l0.4,1.4l0.4-0.1
		c1.1-0.3,2.1-0.5,3.1-0.7C21.5,120.6,22.3,120.6,23,120.6z M37.1,93.1c1.4,0,2.6,0.6,3.5,1.7c1,1.1,1.5,2.6,1.5,4.2
		c0,1.7-0.8,3.1-2.3,4.4c-1.6,1.3-3.8,2.2-6.6,2.7l-0.4,0.1l0.1,1.3l1.2-0.1c0.2,0,0.3,0,0.4,0c1.8,0,3.2,0.5,4.3,1.6
		c1.1,1.1,1.6,2.5,1.6,4.3c0,2.1-0.7,3.7-2,4.9c-1.4,1.2-3.3,1.8-5.8,1.8c-0.6,0-1.4-0.1-2.4-0.2c-0.9-0.1-2-0.2-3.4-0.5l2.4-14.1
		c0.6-3.8,1.7-6.8,3.1-8.9C33.8,94.2,35.4,93.1,37.1,93.1z"/>
	<path class="st1" d="M57.3,105.3c-0.2,0-0.4,0.1-0.6,0.1c-0.4,0-0.7,0-1.7,0c-0.5,0-0.9-0.1-1.2-0.1c-1.2,0-2.2,0.2-3,0.7
		c-0.8,0.5-1.4,1.2-1.9,2.1c-0.5,0.9-0.9,2.2-1.2,3.8c-0.3,1.6-0.4,3.3-0.4,5c0,1.4,0.3,2.5,1,3.2c0.7,0.7,1.8,1,3.2,1
		c1.2,0,2.2-0.3,3.1-0.9c0.9-0.6,1.6-1.5,2.2-2.7l0.1-0.3l-1.1-0.7l-0.2,0.4c-0.5,0.8-1,1.5-1.6,1.8c-0.6,0.4-1.4,0.6-2.3,0.6
		c-0.7,0-1.2-0.2-1.5-0.5c-0.3-0.3-0.5-0.9-0.5-1.8c0-0.5,0.1-1.4,0.2-2.8l0.1-0.6c0.2,0,0.5,0,0.9,0.1c0.8,0.1,1.4,0.1,1.6,0.1
		c1.3,0,2.3-0.2,3-0.6c0.8-0.4,1.3-1.1,1.5-2c0.1-0.5,0.2-1.2,0.3-2.4c0.1-1.1,0.3-2,0.4-2.7l0-0.2l-0.6-0.6L57.3,105.3z
		 M51.5,107.9c0.4-0.7,1.1-1.1,2.1-1.1c0.2,0,0.5,0,0.9,0c0.4,0,0.7,0,1,0c-0.4,3.6-1.3,5.4-2.7,5.4c-0.5,0-0.9,0-1.4,0
		c-0.3,0-0.6,0-1-0.1C50.7,110.1,51.1,108.7,51.5,107.9z"/>
	<path class="st1" d="M61.1,106.6c-0.6,0.8-1.2,2-1.6,3.5l-0.1,0.4l1.3,0.3l0.1-0.4c0.3-1,0.6-1.7,0.9-2.3c0.4-0.6,0.6-0.6,0.7-0.7
		c0,0,0,0.1,0,0.3c0,0.1,0,0.3-0.1,0.7c0,0.3-0.1,0.7-0.1,1.1l-1.9,11.4l0.6-0.1c0.4-0.1,0.7-0.1,1-0.2c0.5,0,0.8-0.1,1.5,0
		c0.3,0,0.7,0.1,1.2,0.2l0.4,0.1l1.4-8.1c0.3-1.8,0.7-3.3,1-4.2c0.3-0.6,0.6-1.1,0.9-1.4c0.2,0.5,0.4,0.8,0.8,1.1
		c0.5,0.4,1.1,0.6,1.9,0.7l0.3,0l0.1-0.3c0-0.1,0.1-0.3,0.1-0.4c0-0.2,0-0.3,0-0.5c0-0.7-0.2-1.3-0.7-1.8c-0.5-0.5-1-0.8-1.6-0.8
		c-1.1,0-1.9,0.6-2.6,1.7c-0.6,1-1.1,2.7-1.5,4.8l-1.3,7.5l-0.7,0l1.6-9.6c0-0.1,0-0.3,0.1-0.5c0.2-0.9,0.2-1.5,0.2-1.9
		c0-0.6-0.1-1.1-0.4-1.4c-0.3-0.4-0.7-0.5-1.3-0.5C62.5,105.3,61.7,105.7,61.1,106.6z"/>
	<path class="st1" d="M76.7,112.3c0.3-2.3,0.5-3.7,0.5-4.2c0-0.9-0.1-1.6-0.4-2c-0.3-0.5-0.8-0.8-1.4-0.8c-0.8,0-1.5,0.5-2.1,1.4
		c-0.6,0.8-1.1,2-1.5,3.5l-0.1,0.4l1.2,0.3l0.1-0.4c0.3-1,0.6-1.8,0.9-2.3c0.3-0.5,0.5-0.6,0.5-0.6c0,0,0,0,0.1,0.1
		c0.1,0.1,0.1,0.4,0.1,0.6c0,1-0.2,2.8-0.6,5.2c-0.4,2.4-0.6,4.3-0.6,5.6c0,0.6,0.1,1,0.2,1.3c0.2,0.4,0.5,0.6,0.9,0.6
		c0.7,0,1.3-0.8,2-2.5c0.2-0.4,0.3-0.8,0.4-1c1.6-3.9,2.9-6.6,3.6-7.9c1-1.8,1.5-1.9,1.5-1.9c0.1,0,0.1,0,0.2,0.1
		c0.1,0.1,0.1,0.4,0.1,0.6c0,0.8-0.2,2.4-0.7,4.7c-0.5,2.3-0.7,4.2-0.7,5.6c0,0.7,0.1,1.3,0.4,1.6c0.3,0.4,0.8,0.6,1.4,0.6
		c0.8,0,1.5-0.3,2.1-1c0.6-0.6,1.1-1.6,1.6-3l0.1-0.4l-1.2-0.5l-0.2,0.4c-0.4,0.9-0.8,1.6-1.1,2c-0.4,0.6-0.6,0.6-0.7,0.5
		c0-0.1-0.1-0.2-0.1-0.5c0-1.2,0.2-3,0.7-5.4c0.5-2.5,0.7-4.3,0.7-5.4c0-0.8-0.1-1.4-0.4-1.8c-0.3-0.5-0.7-0.7-1.3-0.7
		c-1.1,0-2.3,1-3.5,3c-1,1.6-2.2,4.2-3.7,7.8C76.3,114.8,76.5,113.6,76.7,112.3z"/>
	<path class="st1" d="M102.1,116.8c-0.4,0.8-0.7,1.5-1.1,2c-0.5,0.6-0.7,0.6-0.7,0.6c-0.1,0-0.1,0-0.1-0.1c0-0.1,0-0.3,0.1-0.7
		c0-0.3,0.1-0.5,0.1-0.6l1.3-8.8c0-0.3,0.1-0.6,0.1-0.9c0-0.3,0-0.5,0-0.7c0-0.7-0.2-1.3-0.6-1.7c-0.4-0.4-0.9-0.7-1.5-0.7
		c-1.2,0-2.3,0.8-3.4,2.5c-0.9,1.4-2.2,4.2-3.9,8.6c0.4-3.8,1-7.8,1.7-11.9c0.9-5.1,1.3-7.9,1.3-8.5c0-0.7-0.2-1.3-0.5-1.8
		c-0.4-0.5-0.9-0.8-1.4-0.8c-0.8,0-1.5,0.4-2.1,1.1c-0.6,0.7-1.1,1.7-1.5,3l-0.1,0.4l1.3,0.4l0.1-0.3c0.4-1,0.7-1.6,1-2.1
		c0.2-0.3,0.4-0.5,0.6-0.5c0,0,0.1,0,0.1,0.1c0,0.1,0.1,0.2,0.1,0.6c0,0.2-0.2,1.4-0.9,5.9c-0.4,2.2-0.6,4-0.9,5.4l-0.5,3.1
		c-0.7,4.3-1,6.8-1,7.5c0,0.9,0.1,1.6,0.3,2.1c0.3,0.8,0.7,1,1.1,1c0.5,0,1.1-0.4,2.9-4.7l0.1-0.2c1.5-3.6,2.6-6.1,3.3-7.3
		c0.9-1.5,1.4-1.7,1.7-1.7c0.2,0,0.3,0.1,0.3,0.1c0,0.1,0.1,0.2,0.1,0.5c0,0.1,0,0.3,0,0.4c0,0.1,0,0.2-0.1,0.4l-1.4,9.5
		c0,0,0,0.1,0,0.2c-0.1,0.3-0.1,0.5-0.1,0.7c0,0.6,0.2,1.1,0.5,1.5c0.4,0.4,0.8,0.6,1.4,0.6c0.7,0,1.4-0.4,2.1-1.1
		c0.6-0.7,1.2-1.6,1.6-2.8l0.1-0.4l-1.2-0.4L102.1,116.8z"/>
	<path class="st1" d="M108.1,121.2c1.1,0,2.2-0.7,3.5-2.1c0.8-1,1.7-2.3,2.7-3.9c-0.2,1.5-0.3,2.5-0.3,3.2c0,0.9,0.1,1.6,0.4,2.1
		c0.3,0.5,0.8,0.8,1.5,0.8c0.7,0,1.4-0.3,2-1c0.6-0.6,1.2-1.6,1.7-2.8l0.2-0.4l-1.1-0.5l-0.2,0.3c-0.5,0.9-0.9,1.5-1.2,1.9
		c-0.4,0.5-0.6,0.5-0.6,0.4c0-0.1-0.1-0.2-0.1-0.5c0-1.1,0.2-2.7,0.5-4.8c0.4-2.1,0.9-4.7,1.5-7.8l0.1-0.5h-2.5l-0.1,0.5
		c-0.3-0.2-0.7-0.4-1-0.6c-0.5-0.2-1-0.3-1.6-0.3c-2.2,0-4.1,1.2-5.7,3.5c-1.6,2.3-2.4,5.1-2.4,8.3c0,1.2,0.2,2.2,0.7,3
		C106.5,120.8,107.2,121.2,108.1,121.2z M108.7,119.4c-0.1,0-0.3,0-0.4-0.4c-0.2-0.4-0.2-1-0.2-1.8c0-3.1,0.5-5.6,1.6-7.6
		c1-1.9,2.2-2.9,3.7-2.9c0.5,0,0.9,0.1,1.3,0.3c0.3,0.2,0.7,0.4,1,0.7c-0.8,3.2-1.9,5.9-3.4,8.2C110.2,119,109.2,119.4,108.7,119.4z
		"/>
	<path class="st1" d="M122.6,110.4c0.3-1,0.6-1.7,0.9-2.3c0.4-0.6,0.6-0.6,0.7-0.7c0,0,0,0.1,0,0.3c0,0.1,0,0.3-0.1,0.7
		c0,0.3-0.1,0.7-0.1,1.1l-1.9,11.4l0.6-0.1c0.4-0.1,0.7-0.1,1-0.2c0.5,0,0.8-0.1,1.5,0c0.3,0,0.7,0.1,1.2,0.2l0.4,0.1l1.4-8.1
		c0.3-1.8,0.7-3.3,1-4.2c0.3-0.6,0.6-1.1,0.9-1.4c0.2,0.5,0.4,0.8,0.8,1.1c0.5,0.4,1.1,0.6,1.9,0.7l0.3,0l0.1-0.3
		c0-0.1,0.1-0.3,0.1-0.4c0-0.2,0-0.3,0-0.5c0-0.7-0.2-1.3-0.7-1.8c-0.5-0.5-1-0.8-1.6-0.8c-1.1,0-1.9,0.6-2.6,1.7
		c-0.6,1-1.1,2.7-1.5,4.8l-1.3,7.5l-0.7,0l1.6-9.6c0-0.1,0-0.3,0.1-0.5c0.2-0.9,0.2-1.5,0.2-1.9c0-0.6-0.1-1.1-0.4-1.4
		c-0.3-0.4-0.7-0.5-1.3-0.5c-0.8,0-1.6,0.4-2.3,1.3c-0.6,0.8-1.2,2-1.6,3.5l-0.1,0.4l1.3,0.3L122.6,110.4z"/>
	<path class="st1" d="M136.9,121.2c1.3,0,2.6-0.8,3.8-2.5c0.8-1.1,1.6-2.6,2.5-4.6c-0.1,0.5-0.2,1-0.2,1.5c-0.2,1.3-0.3,2.3-0.3,3
		c0,0.8,0.2,1.4,0.5,1.9c0.3,0.5,0.8,0.8,1.4,0.8c0.7,0,1.3-0.3,1.9-1c0.6-0.6,1.1-1.5,1.7-2.8l0.2-0.4l-1.1-0.5l-0.2,0.3
		c-0.5,0.9-0.9,1.5-1.2,1.9c-0.4,0.5-0.6,0.5-0.6,0.5c0,0-0.1-0.2-0.1-0.5c0-0.5,0-0.9,0-1.3c0-0.4,0.1-0.7,0.1-1.1l3.3-22.3H146
		l-1.9,12.3c-0.3-0.3-0.6-0.5-0.9-0.7c-0.5-0.3-1-0.4-1.6-0.4c-2.1,0-3.9,1.1-5.5,3.3c-1.6,2.2-2.4,4.7-2.4,7.5
		c0,1.5,0.3,2.7,0.8,3.6C135.1,120.7,135.9,121.2,136.9,121.2z M142.8,107.1c0.3,0.2,0.6,0.5,0.9,0.9c-0.9,3.3-2,6.1-3.2,8.2
		c-1.5,2.7-2.4,3.1-2.8,3.1c-0.1,0-0.4,0-0.7-0.7c-0.2-0.6-0.4-1.4-0.4-2.5c0-2.7,0.5-4.9,1.6-6.7c1-1.7,2.2-2.6,3.7-2.6
		C142.1,106.8,142.5,106.9,142.8,107.1z"/>
	<path class="st1" d="M165,106l0.3,0.3l1-0.9l-0.3-0.3c-0.7-0.7-1.1-1.5-1.5-2.4c-0.3-0.8-0.5-1.7-0.5-2.7c0-1.9,0.6-3.5,1.8-4.8
		c1.2-1.3,2.7-2,4.5-2c0.7,0,1.7,0.2,3,0.6c1.3,0.4,2.2,0.6,2.7,0.8l1.7,0.6c-0.6,0.6-1,1.4-1.4,2.1c-0.4,1-0.8,2.5-1.2,4.7
		l-2.9,17.2c-0.6,0-1.2,0.1-1.7,0.2c-0.7,0.1-1.4,0.2-2.1,0.3l-0.4,0.1l0.2,1.6l0.4-0.1c1-0.2,1.8-0.3,2.6-0.4
		c0.7-0.1,1.4-0.1,2-0.1c0.8,0,1.6,0,2.4,0.1c0.8,0.1,1.7,0.2,2.7,0.3l0.4,0.1l0.2-1.6l-0.4-0.1c-0.4-0.1-1-0.1-1.8-0.2
		c-0.6-0.1-1-0.1-1.4-0.2l3.3-19.9c0.1-1,0.3-1.7,0.5-2.3c0.1-0.5,0.3-0.9,0.5-1.4l0.9,0.2c1,0.3,1.8,0.4,2.3,0.5
		c0.6,0.1,1,0.1,1.3,0.1c0.8,0,1.5-0.4,2.1-1.1c0.6-0.7,1.1-1.8,1.7-3.4l0.1-0.4l-1.3-0.5l-0.1,0.3c-0.4,0.9-0.8,1.5-1.1,1.8
		c-0.3,0.3-0.7,0.4-1.2,0.4c-0.3,0-0.9-0.1-1.7-0.3c-0.8-0.2-2.2-0.6-4.2-1.1c-0.6-0.2-1.8-0.5-3.5-1.1c-1.7-0.6-3-0.9-4-0.9
		c-0.7,0-1.5,0.2-2.3,0.6c-0.8,0.4-1.9,1.1-3.3,2.1c-1,1.1-1.8,2.3-2.3,3.4c-0.5,1.2-0.8,2.4-0.8,3.6c0,1.1,0.2,2.2,0.6,3.2
		C163.5,104.4,164.1,105.2,165,106z"/>
	<path class="st1" d="M195.1,106.1l0.1-0.5h-2.5l-0.1,0.5c-0.3-0.2-0.7-0.4-1-0.6c-0.5-0.2-1-0.3-1.6-0.3c-2.2,0-4.1,1.2-5.7,3.5
		c-1.6,2.3-2.4,5.1-2.4,8.3c0,1.2,0.2,2.2,0.7,3c0.5,0.8,1.2,1.2,2.1,1.2c1.1,0,2.2-0.7,3.5-2.1c0.8-1,1.7-2.3,2.7-3.9
		c-0.2,1.5-0.3,2.5-0.3,3.2c0,0.9,0.1,1.6,0.4,2.1c0.3,0.5,0.8,0.8,1.5,0.8c0.7,0,1.4-0.3,2-1c0.6-0.6,1.2-1.6,1.7-2.8l0.2-0.4
		l-1.1-0.5l-0.2,0.3c-0.5,0.9-0.9,1.5-1.2,1.9c-0.4,0.5-0.6,0.5-0.6,0.4c0-0.1-0.1-0.2-0.1-0.5c0-1.1,0.2-2.7,0.5-4.8
		C193.9,111.8,194.4,109.2,195.1,106.1z M185.3,119.4c-0.1,0-0.3,0-0.4-0.4c-0.2-0.4-0.2-1-0.2-1.8c0-3.1,0.5-5.6,1.6-7.6
		c1-1.9,2.2-2.9,3.7-2.9c0.5,0,0.9,0.1,1.3,0.3c0.3,0.2,0.7,0.4,1,0.7c-0.8,3.2-1.9,5.9-3.4,8.2C186.8,119,185.8,119.4,185.3,119.4z
		"/>
	<path class="st1" d="M203.2,108.1c0-0.9-0.1-1.6-0.4-2c-0.3-0.5-0.8-0.8-1.4-0.8c-0.8,0-1.5,0.5-2.1,1.4c-0.6,0.8-1.1,2-1.5,3.5
		l-0.1,0.4l1.2,0.3l0.1-0.4c0.3-1,0.6-1.8,0.9-2.3c0.3-0.5,0.5-0.6,0.5-0.6c0,0,0,0,0.1,0.1c0.1,0.1,0.1,0.4,0.1,0.6
		c0,1-0.2,2.8-0.6,5.2c-0.4,2.4-0.6,4.3-0.6,5.6c0,0.6,0.1,1,0.2,1.3c0.2,0.4,0.5,0.6,0.9,0.6c0.7,0,1.3-0.8,2-2.5
		c0.2-0.4,0.3-0.8,0.4-1c1.6-3.9,2.9-6.6,3.6-7.9c1-1.8,1.5-1.9,1.5-1.9c0.1,0,0.1,0,0.2,0.1c0.1,0.1,0.1,0.4,0.1,0.6
		c0,0.8-0.2,2.4-0.7,4.7c-0.5,2.3-0.7,4.2-0.7,5.6c0,0.7,0.1,1.3,0.4,1.6c0.3,0.4,0.8,0.6,1.4,0.6c0.8,0,1.5-0.3,2.1-1
		c0.6-0.6,1.1-1.6,1.6-3l0.1-0.4l-1.2-0.5l-0.2,0.4c-0.4,0.9-0.8,1.6-1.1,2c-0.4,0.5-0.6,0.5-0.6,0.5c-0.1,0-0.1,0-0.1-0.1
		c0-0.1-0.1-0.2-0.1-0.5c0-1.1,0.2-3,0.7-5.4c0.5-2.5,0.7-4.3,0.7-5.4c0-0.8-0.1-1.4-0.4-1.8c-0.3-0.5-0.7-0.7-1.3-0.7
		c-1.1,0-2.3,1-3.5,3c-1,1.6-2.2,4.2-3.7,7.8c0.1-1.2,0.3-2.4,0.5-3.7C203,110,203.2,108.6,203.2,108.1z"/>
	<path class="st1" d="M214.7,115.9c0,1.6,0.3,2.9,0.9,3.8c0.6,1,1.5,1.5,2.6,1.5c1.1,0,2.1-0.5,3.1-1.6c0.8-0.9,1.9-2.6,3.3-5.2
		c-0.9,5.7-1.7,9.3-2.5,10.7c-0.9,1.7-2.4,2.4-4.3,2.2c-0.1,0-0.2,0-0.3,0c-0.1-0.9-0.3-1.5-0.6-1.9c-0.4-0.5-1-0.8-1.7-0.8
		c-0.1,0-0.3,0-0.6,0.1c-0.1,0-0.1,0-0.2,0.1l-0.2,0.1l0,0.2c0,0.2-0.1,0.3-0.1,0.5c0,0.2,0,0.3,0,0.4c0,0.9,0.4,1.7,1.2,2.2
		c0.8,0.5,1.8,0.8,3,0.8c1.8,0,3.4-0.6,4.8-1.9c1.3-1.2,2.3-3,2.9-5.1c0.3-1.2,0.7-3.6,1.2-7.1c0.5-3.5,1-6.4,1.5-8.6l0.1-0.4
		l-1-0.3l-0.2,0.3c-0.3,0.5-0.7,1.1-1.1,1.9c-0.4-0.7-0.9-1.2-1.4-1.6c-1.4-1-3.4-1-5.1,0c-0.8,0.5-1.6,1.2-2.3,2.1
		c-0.9,1.1-1.6,2.4-2,3.7C214.9,113.1,214.7,114.5,214.7,115.9z M218.9,119.5c-0.3,0-0.7-0.1-1-0.8c-0.3-0.6-0.4-1.6-0.4-2.8
		c0-2.5,0.5-4.7,1.5-6.5c1-1.7,2.1-2.6,3.4-2.6c0.7,0,1.3,0.2,1.8,0.7c0.5,0.5,0.9,1.2,1.2,2.1c-1.3,3.1-2.5,5.6-3.7,7.4
		C220.2,119.1,219.4,119.5,218.9,119.5z"/>
	<path class="st1" d="M235.7,121.2c1.8,0,3.4-0.9,4.8-2.8c1.4-1.8,2.1-3.9,2.1-6.3c0-2-0.5-3.6-1.5-4.9c-1-1.3-2.4-1.9-4.1-1.9
		c-1.9,0-3.5,0.9-4.9,2.7c-1.3,1.7-2,3.9-2,6.4c0,2,0.5,3.7,1.6,4.9C232.6,120.6,234,121.2,235.7,121.2z M239,107.7
		c0.5,0.8,0.7,1.9,0.7,3.5c0,2.7-0.4,4.9-1.2,6.5c-0.8,1.5-1.7,2.2-3,2.2c-0.9,0-1.6-0.4-2-1.1c-0.5-0.8-0.7-2-0.7-3.7
		c0-2.6,0.4-4.7,1.2-6.3c0.8-1.5,1.7-2.2,3-2.2C237.9,106.7,238.6,107,239,107.7z"/>
	<path class="st1" d="M33.8,174.5c2.3,0,4.2,0.9,5.8,2.7c1.6,1.8,2.6,4.4,3.3,7.8l1.6-0.1l-0.5-12.1h-1.6l-1.6,2.6
		c-0.6-0.5-1.1-0.9-1.7-1.2c-0.6-0.3-1.2-0.6-1.8-0.8c-1.2-0.5-2.6-0.7-4-0.7c-2.1,0-3.9,0.4-5.6,1.2c-1.7,0.8-3.1,2-4.4,3.6
		c-1.2,1.5-2.1,3.2-2.7,5s-0.9,3.8-0.9,5.9c0,1.4,0.1,2.7,0.4,3.9s0.6,2.4,1.1,3.5c1,2.2,2.4,4.1,4.3,5.6c1.2,0.9,2.4,1.6,3.7,2.1
		c0.7,0.3,1.4,0.4,2.1,0.5c0.7,0.1,1.5,0.2,2.3,0.2c3.2,0,5.9-1,8-3s3.4-4.7,3.8-8.1l-2-0.2c-0.6,3-1.7,5.4-3.3,6.9
		c-1.6,1.6-3.6,2.4-6,2.4c-3.1,0-5.3-1.1-6.8-3.4s-2.2-5.7-2.2-10.4c0-4.6,0.7-8.1,2.2-10.4C28.7,175.7,30.9,174.5,33.8,174.5z"/>
	<path class="st1" d="M52.3,194.1h13.6v-0.8c0-3.1-0.8-5.5-2.4-7.2c-1.6-1.8-3.7-2.6-6.4-2.6c-2.7,0-4.9,1-6.5,2.9
		c-1.7,1.9-2.5,4.4-2.5,7.5c0,3.1,0.8,5.6,2.5,7.5c1.7,1.9,3.9,2.9,6.5,2.9c2,0,3.8-0.5,5.2-1.5c1.5-1,2.7-2.5,3.6-4.4l-1.5-0.8
		c-0.8,1.5-1.7,2.7-2.8,3.4c-1.1,0.7-2.4,1.1-3.8,1.1c-1.7,0-3-0.6-4.1-1.9c-1-1.3-1.5-3-1.5-5.1v-0.4L52.3,194.1z M52.7,189.2
		c0.2-0.9,0.5-1.6,0.9-2.3c0.8-1.2,2-1.8,3.5-1.8c1.4,0,2.5,0.5,3.3,1.5c0.8,1,1.1,2.4,1.1,4.3c0,0.5-0.1,0.8-0.3,1
		c-0.2,0.2-0.6,0.3-1.2,0.3h-7.7C52.4,191.1,52.5,190.1,52.7,189.2z"/>
	<path class="st1" d="M68.1,184.2v1.6l0.7,0l0.6,0c0.9,0,1.5,0.1,1.8,0.4c0.3,0.2,0.4,0.7,0.4,1.3v12.7c0,0.6-0.1,1-0.3,1.2
		c-0.2,0.2-0.6,0.3-1.1,0.3l-1.8,0.1v1.8h10.1v-1.8l-1.7-0.1c-0.3,0-0.5,0-0.7-0.1c-0.2,0-0.3-0.1-0.4-0.2c-0.2-0.2-0.3-0.6-0.3-1.2
		v-6.9c0-2.3,0.5-4,1.4-5.2c0.9-1.2,2.2-1.8,4-1.8c1.2,0,2.2,0.3,2.8,1s1,1.6,1,2.9v9.9c0,0.6-0.1,1-0.3,1.2
		c-0.2,0.2-0.6,0.3-1.1,0.3l-1.8,0.1v1.8h10.1v-1.8l-1.8-0.1c-0.6,0-0.9-0.1-1.1-0.3c-0.2-0.2-0.3-0.6-0.3-1.2v-9.8
		c0-2.1-0.6-3.8-1.7-4.9c-1.1-1.2-2.7-1.7-4.7-1.7c-1.4,0-2.7,0.3-3.8,1c-1.1,0.7-2.1,1.7-3,3v-4L68.1,184.2z"/>
	<path class="st1" d="M98.7,175.7c0,1.3-0.1,2.5-0.4,3.5c-0.3,1-0.7,1.9-1.2,2.7s-1.1,1.4-1.8,1.8c-0.7,0.4-1.4,0.6-2.2,0.6v1.7h3.3
		v12.4c0,2.1,0.4,3.6,1.1,4.5c0.7,0.9,1.9,1.3,3.7,1.3c2.1,0,3.7-0.7,4.8-2c1.1-1.3,1.7-3.2,1.7-5.7v-0.5l-1.5,0
		c0,0.9-0.1,1.8-0.3,2.5c-0.2,0.7-0.4,1.3-0.7,1.8c-0.6,0.9-1.4,1.4-2.5,1.4c-0.9,0-1.5-0.3-1.9-0.8c-0.4-0.5-0.5-1.5-0.5-2.8v-12
		h6.2v-1.8h-6v-8.5H98.7z"/>
	<path class="st1" d="M116.3,197.6v-14l-7.3,0.5v1.6l0.7,0l0.6,0c0.9,0,1.5,0.1,1.8,0.4c0.3,0.2,0.4,0.7,0.4,1.3v10.1
		c0,2.1,0.6,3.8,1.7,4.9c1.1,1.2,2.7,1.7,4.7,1.7c1.4,0,2.7-0.3,3.8-1s2.1-1.7,3.1-3v3.8l7.1-0.5v-1.6l-0.7,0l-0.6,0
		c-0.9,0-1.5-0.1-1.8-0.3c-0.3-0.2-0.4-0.7-0.4-1.3v-16.5l-7.4,0.5v1.6l0.7,0l0.6,0c1,0,1.6,0.1,1.9,0.4c0.3,0.2,0.4,0.7,0.4,1.3
		v7.5c0,2.1-0.5,3.8-1.4,4.9c-0.9,1.1-2.2,1.7-4,1.7c-1.2,0-2.2-0.3-2.8-1C116.6,199.9,116.3,198.9,116.3,197.6z"/>
	<path class="st1" d="M138.1,201.3c-0.2,0.2-0.6,0.3-1.1,0.3l-2,0.1v1.8h11v-1.8l-2.5-0.1c-0.6,0-0.9-0.1-1.1-0.3
		c-0.2-0.2-0.3-0.6-0.3-1.2v-4.5c0-2.8,0.5-5.2,1.6-7.2c1.1-2,2.3-2.9,3.8-2.9h0.2c-0.3,0.2-0.5,0.5-0.6,0.8c-0.1,0.3-0.2,0.6-0.2,1
		c0,0.7,0.2,1.3,0.7,1.8c0.5,0.4,1.1,0.6,1.8,0.6c0.7,0,1.3-0.2,1.7-0.7c0.5-0.5,0.7-1.1,0.7-1.9c0-1-0.4-1.9-1.1-2.5s-1.6-1-2.7-1
		c-1.4,0-2.5,0.5-3.6,1.5c-1,1-1.9,2.5-2.5,4.5v-5.9l-7.2,0.5v1.6h1.2c1.1,0,1.8,0.1,2.1,0.3c0.3,0.2,0.4,0.7,0.4,1.3v12.7
		C138.4,200.7,138.3,201.1,138.1,201.3z"/>
	<path class="st1" d="M161,185.9h1v-1.8h-9.7v1.8c0.5,0,1,0,1.4,0.1c0.4,0.1,0.7,0.2,0.9,0.3c0.2,0.1,0.3,0.3,0.5,0.5l0.5,0.9
		l6.6,15.2l-0.3,0.7c-0.8,2-1.7,3.6-2.7,4.8s-1.8,1.8-2.5,1.8c-0.2,0-0.4,0-0.6-0.1c-0.1-0.1-0.2-0.2-0.2-0.3l0.2-0.4
		c0.1-0.2,0.2-0.5,0.2-0.8c0-0.6-0.2-1.1-0.6-1.5s-0.9-0.5-1.6-0.5c-0.7,0-1.3,0.2-1.8,0.7s-0.7,1.1-0.7,1.8c0,1,0.3,1.8,1,2.4
		c0.7,0.6,1.6,0.9,2.8,0.9c1.7,0,3.2-0.6,4.4-1.8c1.3-1.2,2.5-3.1,3.6-5.8l7-16.4c0.4-0.8,0.8-1.4,1.3-1.7c0.5-0.3,1.1-0.5,1.9-0.5
		v-1.8h-8.1l0,1.8c1.1,0,1.9,0.1,2.3,0.3c0.4,0.2,0.6,0.6,0.6,1.1c0,0.2-0.1,0.5-0.2,0.8l-0.1,0.1l-4.1,10.1l-4.4-10.2l-0.4-0.9
		l-0.1-0.4c0-0.3,0.1-0.6,0.3-0.7S160.4,185.9,161,185.9z"/>
	<path class="st1" d="M198.9,204.2c3.3,0,5.8-0.8,7.6-2.4c1.8-1.6,2.7-3.9,2.7-6.8c0-1.3-0.2-2.5-0.7-3.6c-0.4-1.1-1.1-2-1.9-2.8
		c-0.7-0.6-1.6-1.2-2.5-1.6s-2.6-0.9-4.9-1.5l-1.1-0.3c-5-1.2-7.6-3.1-7.6-5.6c0-1.6,0.5-2.9,1.5-3.7c1-0.9,2.4-1.3,4.3-1.3
		c2.5,0,4.5,0.8,6.2,2.3c1.6,1.6,2.9,3.9,3.6,7h1.6l-0.5-10.8h-1.5l-1.6,2.5c-1-0.9-2.2-1.7-3.6-2.2c-1.3-0.5-2.8-0.7-4.2-0.7
		c-2.7,0-4.9,0.8-6.5,2.3s-2.4,3.6-2.4,6.2c0,2.4,0.7,4.2,2,5.5c1.3,1.3,3.9,2.4,7.9,3.5l1.9,0.5c2.6,0.7,4.2,1.3,5,1.8
		c0.6,0.4,1.1,1,1.4,1.7s0.5,1.4,0.5,2.3c0,1.9-0.6,3.3-1.8,4.4s-3,1.6-5.2,1.6c-2.7,0-4.9-0.9-6.6-2.7c-1.7-1.8-2.9-4.4-3.5-7.8
		h-1.7l0.2,12.1h1.5l1.8-2.9c1,1,2.3,1.8,3.7,2.3C195.7,203.9,197.3,204.2,198.9,204.2z"/>
	<path class="st1" d="M225.7,202.7c1.3-1,2.3-2.5,3.1-4.6l-1.5-0.8c-0.6,1.5-1.3,2.5-2.2,3.2s-1.9,1-3.2,1c-1.9,0-3.4-0.7-4.3-2
		c-1-1.3-1.4-3.4-1.4-6.1c0-2.8,0.4-4.8,1.3-6.2c0.9-1.4,2.2-2.1,3.9-2.1c0.9,0,1.6,0.1,2.1,0.4c0.5,0.3,0.8,0.6,0.8,1
		c0,0.1-0.2,0.4-0.7,0.9c-0.4,0.4-0.7,1-0.7,1.6c0,0.7,0.2,1.2,0.7,1.7c0.5,0.4,1.1,0.6,1.8,0.6c0.8,0,1.5-0.3,2-0.8
		s0.8-1.3,0.8-2.2c0-1.4-0.6-2.5-1.9-3.4s-2.9-1.4-4.8-1.4c-2.9,0-5.2,1-7,2.9c-1.8,2-2.7,4.5-2.7,7.7c0,3,0.8,5.4,2.5,7.2
		c1.7,1.8,3.9,2.8,6.5,2.8C222.8,204.2,224.4,203.7,225.7,202.7z"/>
	<path class="st1" d="M250.6,201.3c-0.2-0.2-0.3-0.6-0.3-1.2v-9.8c0-2.1-0.5-3.8-1.6-4.9c-1.1-1.2-2.6-1.7-4.7-1.7
		c-1.4,0-2.6,0.3-3.7,0.9s-2.1,1.6-2.9,2.8v-14.8l-7.3,0.5v1.6l0.7,0l0.6,0c0.9,0,1.6,0.1,1.9,0.3c0.3,0.2,0.5,0.7,0.5,1.3v23.7
		c0,0.6-0.1,1-0.3,1.2c-0.2,0.2-0.6,0.3-1.2,0.3l-1.7,0.1v1.8h10.1v-1.8l-1.8-0.1c-0.3,0-0.6,0-0.8-0.1c-0.1,0-0.2-0.1-0.3-0.2
		c-0.2-0.2-0.3-0.6-0.3-1.2v-6.9c0-2.3,0.5-4,1.4-5.2s2.3-1.8,4-1.8c1.2,0,2.2,0.3,2.8,1c0.7,0.7,1,1.6,1,2.9v9.9
		c0,0.6-0.1,1-0.3,1.2c-0.2,0.2-0.6,0.3-1.1,0.3l-1.8,0.1v1.8h10.1v-1.8l-1.8-0.1C251.1,201.6,250.8,201.5,250.6,201.3z"/>
	<path class="st1" d="M265.1,204.2c2.8,0,5-1,6.8-2.9c1.7-1.9,2.6-4.4,2.6-7.5c0-3.1-0.9-5.6-2.6-7.5c-1.7-1.9-4-2.9-6.7-2.9
		c-2.8,0-5,1-6.8,2.9c-1.7,1.9-2.6,4.4-2.6,7.5c0,3.1,0.9,5.6,2.6,7.5C260.1,203.2,262.4,204.2,265.1,204.2z M261.3,187.3
		c0.8-1.4,2.1-2.1,3.8-2.1c1.8,0,3.1,0.7,3.9,2.1c0.8,1.4,1.2,3.6,1.2,6.6c0,3-0.4,5.2-1.2,6.6c-0.8,1.4-2.1,2-3.9,2
		c-1.7,0-3-0.7-3.8-2c-0.8-1.4-1.2-3.6-1.2-6.6C260.1,190.8,260.5,188.6,261.3,187.3z"/>
	<path class="st1" d="M286.6,183.5c-2.8,0-5,1-6.8,2.9c-1.7,1.9-2.6,4.4-2.6,7.5c0,3.1,0.9,5.6,2.6,7.5c1.7,1.9,4,2.9,6.8,2.9
		c2.8,0,5-1,6.8-2.9c1.7-1.9,2.6-4.4,2.6-7.5c0-3.1-0.9-5.6-2.6-7.5C291.6,184.5,289.4,183.5,286.6,183.5z M290.5,200.4
		c-0.8,1.4-2.1,2-3.9,2c-1.7,0-3-0.7-3.8-2c-0.8-1.4-1.2-3.6-1.2-6.6c0-3,0.4-5.2,1.2-6.6c0.8-1.4,2.1-2.1,3.8-2.1
		c1.8,0,3.1,0.7,3.9,2.1c0.8,1.4,1.2,3.6,1.2,6.6C291.7,196.9,291.3,199.1,290.5,200.4z"/>
	<path class="st1" d="M306,201.3c-0.2-0.2-0.3-0.6-0.3-1.2v-27.5l-7.3,0.5v1.6l0.7,0l0.6,0c0.9,0,1.5,0.1,1.8,0.4
		c0.3,0.2,0.4,0.7,0.4,1.3v23.7c0,0.6-0.1,1-0.3,1.2c-0.2,0.2-0.6,0.3-1.1,0.3l-2,0.1v1.8H309v-1.8l-1.8-0.1
		C306.6,201.6,306.2,201.5,306,201.3z"/>
	<path class="st1" d="M323.1,183.5c-1.3,0-2.4,0.3-3.3,0.8c-1,0.5-1.8,1.2-2.4,2.2v-13.9l-7.4,0.5v1.6l0.7,0l0.6,0
		c0.9,0,1.5,0.1,1.8,0.4c0.3,0.2,0.4,0.7,0.4,1.3V198c0,0.5,0,0.9,0,1.4c0,0.4-0.1,0.9-0.1,1.4c-0.1,1-0.3,2.1-0.5,3.2h1.4l1.9-3.3
		c1.1,1.2,2.1,2.1,3.2,2.7c1.1,0.5,2.4,0.8,3.8,0.8c2.5,0,4.5-1,6-2.9c1.6-1.9,2.3-4.4,2.3-7.5c0-3.1-0.8-5.6-2.4-7.5
		C327.6,184.4,325.6,183.5,323.1,183.5z M326.2,200.3c-0.8,1.3-2,2-3.6,2c-1.8,0-3.2-0.7-4-2c-0.8-1.3-1.2-3.4-1.2-6.3
		c0-2.9,0.4-4.9,1.2-6.2c0.8-1.3,2.1-2,3.8-2c1.7,0,3,0.7,3.8,2c0.8,1.3,1.2,3.4,1.2,6.2C327.3,196.8,327,198.9,326.2,200.3z"/>
	<path class="st1" d="M344,183.5c-2.8,0-5,1-6.8,2.9s-2.6,4.4-2.6,7.5c0,3.1,0.9,5.6,2.6,7.5c1.7,1.9,4,2.9,6.8,2.9
		c2.8,0,5-1,6.8-2.9c1.7-1.9,2.6-4.4,2.6-7.5c0-3.1-0.9-5.6-2.6-7.5C349,184.5,346.7,183.5,344,183.5z M347.8,200.4
		c-0.8,1.4-2.1,2-3.9,2c-1.7,0-3-0.7-3.8-2c-0.8-1.4-1.2-3.6-1.2-6.6c0-3,0.4-5.2,1.2-6.6c0.8-1.4,2.1-2.1,3.8-2.1
		c1.8,0,3.1,0.7,3.9,2.1c0.8,1.4,1.2,3.6,1.2,6.6C349.1,196.9,348.7,199.1,347.8,200.4z"/>
	<path class="st1" d="M365.4,183.5c-2.8,0-5,1-6.8,2.9s-2.6,4.4-2.6,7.5c0,3.1,0.9,5.6,2.6,7.5c1.7,1.9,4,2.9,6.8,2.9
		c2.8,0,5-1,6.8-2.9c1.7-1.9,2.6-4.4,2.6-7.5c0-3.1-0.9-5.6-2.6-7.5C370.4,184.5,368.2,183.5,365.4,183.5z M369.3,200.4
		c-0.8,1.4-2.1,2-3.9,2c-1.7,0-3-0.7-3.8-2c-0.8-1.4-1.2-3.6-1.2-6.6c0-3,0.4-5.2,1.2-6.6c0.8-1.4,2.1-2.1,3.8-2.1
		c1.8,0,3.1,0.7,3.9,2.1c0.8,1.4,1.2,3.6,1.2,6.6C370.5,196.9,370.1,199.1,369.3,200.4z"/>
	<path class="st1" d="M392,201.5c-0.2,0.1-0.6,0.2-1.2,0.2l-1.2,0.1v1.8h10.8l0-1.8c-0.5,0-0.9,0-1.3-0.1c-0.4-0.1-0.7-0.2-1.1-0.4
		c-0.7-0.3-1.2-0.8-1.7-1.5l-6.5-8.7l2.1-2c1.4-1.3,2.6-2.2,3.5-2.6c0.9-0.4,1.9-0.6,3-0.6h0.3v-1.6h-10.7v1.6h1.3c0.4,0,0.8,0,1,0
		c0.3,0,0.5,0.1,0.6,0.1c0.3,0.1,0.5,0.3,0.5,0.5c0,0.1-0.1,0.3-0.1,0.4c-0.1,0.2-0.2,0.4-0.3,0.5l-6.4,5.9v-20.6l-7.3,0.5v1.6
		l0.7,0l0.5,0c0.9,0,1.6,0.1,1.9,0.4c0.3,0.2,0.4,0.7,0.4,1.3v23.7c0,0.6-0.1,1-0.3,1.2c-0.2,0.2-0.6,0.3-1.1,0.3l-1.9,0.1v1.8h10.3
		v-1.8l-1.8-0.1c-0.6,0-1-0.1-1.2-0.3c-0.2-0.2-0.3-0.6-0.3-1.2v-4.4l2.5-2.3l5,6.8l0,0.1c0.2,0.3,0.4,0.6,0.4,0.8
		C392.3,201.2,392.2,201.4,392,201.5z"/>
	<path class="st1" d="M39.3,280.3c0.6-0.6,0.9-1.1,0.9-1.4c0-0.2-0.1-0.4-0.2-0.6c-0.1-0.1-0.3-0.2-0.6-0.2c-0.3,0-0.5,0.1-0.8,0.4
		c-1.1,1.3-2.2,2.3-3.4,2.9c-1.2,0.6-2.5,1-3.9,1c-2.4,0-4.6-0.9-6.4-2.8c-1.8-1.9-2.8-4.1-2.8-6.6v-3c0-1.2,0.2-2.3,0.6-3.2
		c0.5-1.3,1.2-2.5,2.1-3.5c0.5-0.6,1.2-1.1,2.1-1.5c1.2-0.6,2.4-0.9,3.7-0.9c2,0,3.8,0.6,5.4,1.8c1.2,0.9,1.8,1.9,1.9,3
		c0,0.4,0.1,0.6,0.3,0.8s0.3,0.2,0.6,0.2c0.3,0,0.5-0.1,0.6-0.3c0.2-0.2,0.2-0.5,0.2-0.9v-4.7c0-0.4-0.1-0.7-0.2-0.9
		c-0.2-0.2-0.4-0.3-0.6-0.3s-0.5,0.1-0.6,0.3c-0.2,0.2-0.2,0.5-0.2,0.9v1.2c-2-1.9-4.5-2.9-7.3-2.9c-1.8,0-3.5,0.5-5.1,1.4
		c-1.6,0.9-2.8,2.3-3.7,4.1c-0.9,1.8-1.4,3.5-1.4,5.2v3.5c0,1.2,0.2,2.3,0.5,3.2c0.3,1,1,2.1,1.9,3.2c0.9,1.2,1.7,2,2.4,2.5
		s1.4,0.9,2.4,1.3c1.3,0.5,2.5,0.7,3.8,0.7c1.4,0,2.8-0.3,4.2-0.9S38.2,281.5,39.3,280.3z"/>
	<path class="st1" d="M44.1,274.6c0,2.6,0.9,4.8,2.8,6.7c1.9,1.9,4.1,2.8,6.8,2.8c2.6,0,4.9-0.9,6.7-2.8s2.8-4.1,2.8-6.7
		c0-2.6-0.9-4.9-2.8-6.7s-4.1-2.8-6.7-2.8c-2.7,0-4.9,0.9-6.8,2.8C45,269.7,44.1,272,44.1,274.6z M53.6,266.8c2.2,0,4,0.8,5.5,2.3
		c1.5,1.5,2.3,3.3,2.3,5.5c0,2.1-0.8,4-2.3,5.5c-1.5,1.5-3.4,2.3-5.5,2.3c-2.2,0-4-0.8-5.5-2.3c-1.5-1.5-2.3-3.3-2.3-5.5
		c0-2.1,0.8-4,2.3-5.5S51.4,266.8,53.6,266.8z"/>
	<path class="st1" d="M66.6,266c-0.2,0.2-0.3,0.4-0.3,0.6c0,0.3,0.1,0.5,0.3,0.6c0.2,0.2,0.5,0.2,0.9,0.2h2.3v11
		c0,1.6,0.6,3,1.7,4.2c0.9,0.9,2.1,1.4,3.8,1.4c2.7,0,5.2-1.1,7.6-3.2v2.5H86c0.4,0,0.7-0.1,0.9-0.2c0.2-0.2,0.3-0.4,0.3-0.6
		c0-0.3-0.1-0.5-0.3-0.6c-0.2-0.2-0.5-0.2-0.9-0.2h-1.4v-15.9h-4.9c-0.4,0-0.7,0.1-0.9,0.2c-0.2,0.2-0.3,0.4-0.3,0.6
		c0,0.3,0.1,0.5,0.3,0.6c0.2,0.2,0.5,0.2,0.9,0.2h3.2v11c-2.3,2.6-4.9,3.8-7.7,3.8c-1.1,0-1.9-0.4-2.6-1.1c-0.7-0.7-1.1-1.6-1.1-2.7
		v-12.8h-4C67,265.7,66.8,265.8,66.6,266z"/>
	<path class="st1" d="M106.7,283.1c0.2-0.2,0.3-0.4,0.3-0.6c0-0.3-0.1-0.5-0.3-0.6c-0.2-0.2-0.5-0.2-0.9-0.2h-7.6v-9.4
		c2.6-2.3,4.4-3.8,5.5-4.4s2-0.9,2.7-0.9c0.3,0,0.7,0.1,1,0.3c0.4,0.2,0.8,0.5,1.2,1c0.3,0.3,0.4,0.4,0.5,0.5c0.1,0,0.2,0.1,0.3,0.1
		c0.3,0,0.5-0.1,0.6-0.3s0.3-0.4,0.3-0.6c0-0.4-0.4-0.9-1.3-1.6c-0.9-0.7-1.8-1-2.8-1c-0.9,0-2,0.3-3.1,0.9s-2.8,1.9-5,3.9v-4.3
		h-4.9c-0.4,0-0.7,0.1-0.9,0.2c-0.2,0.2-0.3,0.4-0.3,0.6c0,0.3,0.1,0.5,0.3,0.6c0.2,0.2,0.5,0.2,0.9,0.2h3.2v14.2h-4.1
		c-0.4,0-0.7,0.1-0.9,0.2s-0.3,0.3-0.3,0.6c0,0.2,0.1,0.4,0.3,0.6c0.2,0.2,0.5,0.2,0.9,0.2h13.4
		C106.3,283.3,106.6,283.3,106.7,283.1z"/>
	<path class="st1" d="M116.2,281.6c-0.4,0-0.7,0.1-0.9,0.2c-0.2,0.2-0.3,0.4-0.3,0.6c0,0.2,0.1,0.4,0.3,0.6c0.2,0.2,0.5,0.2,0.9,0.2
		h15.1c0.4,0,0.7-0.1,0.9-0.2c0.2-0.2,0.3-0.4,0.3-0.6c0-0.3-0.1-0.5-0.3-0.6c-0.2-0.2-0.5-0.2-0.9-0.2h-6.7v-15.9h-6.7
		c-0.4,0-0.7,0.1-0.9,0.2c-0.2,0.2-0.3,0.4-0.3,0.6c0,0.2,0.1,0.4,0.3,0.6c0.2,0.2,0.5,0.2,0.9,0.2h5v14.2H116.2z"/>
	<rect x="122" y="256.9" class="st1" width="2.5" height="4.4"/>
	<path class="st1" d="M147.4,284c1.8,0,3.5-0.3,5.1-0.9c1.7-0.6,2.8-1.2,3.5-1.9c0.2-0.2,0.3-0.4,0.3-0.7s-0.1-0.4-0.2-0.6
		s-0.4-0.3-0.6-0.3c-0.2,0-0.4,0.1-0.7,0.3c-0.9,0.7-2,1.2-3.4,1.7c-1.4,0.4-2.7,0.6-4,0.6c-2.3,0-4.2-0.7-5.8-2
		c-1.6-1.4-2.5-3.1-2.8-5.3h17.4c0-2.9-0.9-5.3-2.7-7.1c-1.8-1.8-4.1-2.7-6.9-2.7c-2.7,0-5,0.9-6.8,2.7c-1.8,1.8-2.8,3.9-2.8,6.4
		c0,2.7,1,5.1,2.9,7S144.5,284,147.4,284z M141.6,268.6c1.4-1.2,3.2-1.8,5.2-1.8c2,0,3.7,0.6,5.2,1.8s2.3,2.7,2.7,4.6h-15.7
		C139.2,271.3,140.1,269.8,141.6,268.6z"/>
	<path class="st1" d="M162.5,281.7c-0.4,0-0.7,0.1-0.9,0.2s-0.3,0.3-0.3,0.6c0,0.2,0.1,0.4,0.3,0.6c0.2,0.2,0.5,0.2,0.9,0.2h13.4
		c0.4,0,0.7-0.1,0.9-0.2c0.2-0.2,0.3-0.4,0.3-0.6c0-0.3-0.1-0.5-0.3-0.6c-0.2-0.2-0.5-0.2-0.9-0.2h-7.6v-9.4
		c2.6-2.3,4.4-3.8,5.5-4.4s2-0.9,2.7-0.9c0.3,0,0.7,0.1,1,0.3c0.4,0.2,0.8,0.5,1.2,1c0.3,0.3,0.4,0.4,0.5,0.5c0.1,0,0.2,0.1,0.3,0.1
		c0.3,0,0.5-0.1,0.6-0.3s0.3-0.4,0.3-0.6c0-0.4-0.4-0.9-1.3-1.6c-0.9-0.7-1.8-1-2.8-1c-0.9,0-2,0.3-3.1,0.9s-2.8,1.9-5,3.9v-4.3
		h-4.9c-0.4,0-0.7,0.1-0.9,0.2c-0.2,0.2-0.3,0.4-0.3,0.6c0,0.3,0.1,0.5,0.3,0.6c0.2,0.2,0.5,0.2,0.9,0.2h3.2v14.2H162.5z"/>
	<polygon class="st1" points="38.3,342.6 38.3,339.5 21.2,339.5 21.2,367.3 24.7,367.3 24.7,354.1 35.9,354.1 35.9,351.3 
		24.7,351.3 24.7,342.6 	"/>
	<path class="st1" d="M40.7,346.7v20.6h3.2v-10.9c0.1-2.1,0.7-3.9,1.9-5.2c1.2-1.3,2.6-2,4.4-2h0.7v-3.1c-0.5-0.1-0.9-0.1-1.3-0.1
		c-1,0-2.1,0.3-3.1,1c-1,0.7-2,2.1-3,4.4v-4.8H40.7z"/>
	<path class="st1" d="M67,363.6c0.1,1.8,0.2,3.1,0.4,3.7h3.2c-0.3-1.2-0.4-2.5-0.4-4v-8.7c0-3.1-0.6-5.3-1.8-6.5s-3.2-1.9-6-1.9
		c-5.3,0-8.4,1.9-9.1,5.7l3,0.5c0.5-2.5,2.4-3.7,5.7-3.7c1.3,0,2.4,0.2,3.2,0.7c0.8,0.4,1.3,1,1.6,1.7c0.3,0.7,0.4,1.9,0.4,3.5
		c-1.2-0.1-2.2-0.1-2.7-0.1c-4.2,0-7.2,0.7-9,2s-2.6,3-2.6,5.1c0,1.7,0.6,3.2,1.9,4.4c1.2,1.2,3,1.8,5.3,1.8
		C63.2,367.9,65.6,366.4,67,363.6z M56.1,361.8c0-1.6,0.7-2.8,2.1-3.6c1.4-0.8,3.4-1.2,5.9-1.2c0.7,0,1.7,0,3,0.1
		c0,0.5,0.1,1,0.1,1.3c0,1.9-0.6,3.5-1.9,4.9c-1.2,1.4-2.8,2.1-4.8,2.1c-1.4,0-2.5-0.4-3.3-1.1C56.4,363.6,56.1,362.8,56.1,361.8z"
		/>
	<path class="st1" d="M92.7,355.4c0-2.6-0.2-4.4-0.6-5.4c-0.4-1-1.1-1.9-2.2-2.7s-2.4-1.2-3.9-1.2c-2.7,0-4.8,1.5-6.5,4.4v-3.8h-3
		v20.6h3.2V356c0-2.1,0.6-3.8,1.7-5.2s2.5-2,4.1-2c1.2,0,2.2,0.4,3,1.2c0.8,0.8,1.2,2.1,1.2,4v13.2h3V355.4z"/>
	<polygon class="st1" points="102.3,357.3 102.3,339.5 99.1,339.5 99.1,367.3 102.3,367.3 102.3,360.9 106.7,355.8 112.7,367.3 
		116.1,367.3 108.8,354 115.2,346.7 111.8,346.7 	"/>
	<rect x="120" y="339.5" class="st1" width="3.2" height="27.8"/>
	<rect x="129.4" y="339.5" class="st1" width="3.4" height="3.6"/>
	<rect x="129.6" y="346.7" class="st1" width="3.2" height="20.6"/>
	<path class="st1" d="M142.3,356c0-2.1,0.6-3.8,1.7-5.2s2.5-2,4.1-2c1.2,0,2.2,0.4,3,1.2c0.8,0.8,1.2,2.1,1.2,4v13.2h3v-11.9
		c0-2.6-0.2-4.4-0.6-5.4s-1.1-1.9-2.2-2.7c-1.1-0.8-2.4-1.2-3.9-1.2c-2.7,0-4.8,1.5-6.5,4.4v-3.8h-3v20.6h3.2V356z"/>
	<path class="st1" d="M182.3,367.9c3.4,0,5.9-1.2,7.6-3.7l1,3.5h2.1v-14.4h-10.5v2.9h6.9c0,0.6,0,1.1,0,1.5c0,2.3-0.7,4.1-2,5.4
		c-1.3,1.3-2.9,1.9-4.9,1.9c-2.5,0-4.5-1-6-3c-1.5-2-2.2-4.8-2.2-8.4c0-3.3,0.7-6.1,2-8.3s3.3-3.3,6.1-3.3c1.5,0,3,0.5,4.3,1.4
		c1.3,0.9,2.2,2.4,2.7,4.5l3.3-0.8c-1.6-5.4-4.9-8.1-10-8.1c-3.7,0-6.6,1.4-8.8,4.2c-2.2,2.8-3.2,6.3-3.2,10.5c0,3.9,1,7.3,3.1,10
		C175.8,366.5,178.6,367.9,182.3,367.9z"/>
	<path class="st1" d="M206.5,367.9c2.8,0,5.1-1,6.8-3c1.8-2,2.6-4.6,2.6-7.9c0-3.1-0.8-5.7-2.5-7.7c-1.6-2.1-3.9-3.1-6.7-3.1
		c-2.6,0-4.9,1-6.6,2.9c-1.8,2-2.7,4.6-2.7,7.8c0,3.1,0.8,5.7,2.4,7.8C201.5,366.8,203.7,367.9,206.5,367.9z M202.7,350.8
		c1.1-1.3,2.4-1.9,4-1.9c1.5,0,2.9,0.6,4.1,1.9c1.2,1.3,1.7,3.3,1.7,6.2c0,2.8-0.5,4.9-1.6,6.3c-1.1,1.3-2.5,2-4.1,2
		c-1.6,0-3-0.6-4.1-1.9c-1.1-1.3-1.6-3.4-1.6-6.4C201,354.1,201.6,352.1,202.7,350.8z"/>
	<path class="st1" d="M224,362.2v-12.9h4.6v-2.5H224v-5.5l-3,0.3l-0.1,5.2h-3.6v2.5h3.6v12.4c0,4.2,2,6.2,6,6.2
		c0.8,0,1.8-0.1,2.9-0.2v-2.5c-0.9,0.1-1.8,0.2-2.5,0.2C225.1,365.3,224,364.3,224,362.2z"/>
	<path class="st1" d="M248.1,348.8c-0.5-0.8-1.2-1.4-2.2-1.9c-0.9-0.5-2-0.7-3.2-0.7c-2.7,0-4.8,1.5-6.2,4.4v-11h-3.2v27.8h3.2
		v-11.1c0-2.3,0.6-4.1,1.7-5.4s2.5-2,4.1-2c0.9,0,1.7,0.3,2.4,0.8c0.7,0.5,1.1,1.2,1.3,1.9c0.2,0.7,0.3,1.8,0.3,3.3v12.5h3.2v-12.5
		c0-1.8-0.1-3-0.3-3.8C248.9,350.3,248.6,349.5,248.1,348.8z"/>
	<rect x="255.6" y="339.5" class="st1" width="3.4" height="3.6"/>
	<rect x="255.8" y="346.7" class="st1" width="3.2" height="20.6"/>
	<path class="st1" d="M272.6,348.8c2.7,0,4.4,1.7,4.9,5.1l2.9-0.5c-0.3-2.1-1.2-3.8-2.5-5.2c-1.4-1.3-3.1-2-5.4-2
		c-2.7,0-4.8,1-6.4,3.1c-1.6,2.1-2.4,4.7-2.4,7.8c0,3,0.7,5.6,2.2,7.7c1.5,2.1,3.6,3.1,6.5,3.1c2.1,0,3.8-0.6,5.2-1.9
		c1.4-1.3,2.3-3.1,2.7-5.3l-2.9-0.5c-0.7,3.4-2.4,5.1-5,5.1c-1.7,0-3-0.7-4-2.2c-0.9-1.5-1.4-3.5-1.4-6.1c0-2.4,0.5-4.3,1.4-5.8
		C269.5,349.6,270.8,348.8,272.6,348.8z"/>
	<polygon class="st1" points="35.6,427 35.6,421.7 20,421.7 20,453.1 26.1,453.1 26.1,439.2 35,439.2 35,433.9 26.1,433.9 26.1,427 
			"/>
	<path class="st1" d="M57.4,444.7v-12h-5.8v11.1c0,2.3-0.4,5.1-3.3,5.1c-3,0-3.3-2.8-3.3-5.1v-11.1H39v12c0,6,3.1,9.1,9.2,9.1
		C54.3,453.7,57.4,450.6,57.4,444.7z"/>
	<polygon class="st1" points="68,453.1 68,437.5 71.6,437.5 71.6,432.6 68,432.6 68,425.7 62.2,425.7 62.2,432.6 60.2,432.6 
		60.2,437.5 62.2,437.5 62.2,453.1 	"/>
	<path class="st1" d="M91.1,444.7v-12h-5.8v11.1c0,2.3-0.4,5.1-3.3,5.1c-3,0-3.3-2.8-3.3-5.1v-11.1h-5.8v12c0,6,3.1,9.1,9.2,9.1
		C88,453.7,91.1,450.6,91.1,444.7z"/>
	<path class="st1" d="M101,443.9c0-3.2,0.4-6.7,4.5-6.7c0.9,0,1.7,0.2,2.4,0.7l0.7-5.4c-0.7-0.3-1.6-0.5-2.4-0.5
		c-2.2,0-3.9,1-5.1,2.8H101v-2.1h-5.8v20.5h5.8V443.9z"/>
	<path class="st1" d="M129.8,453.1v-20.5h-5.8v1.9c-1.4-1.7-3.6-2.6-5.7-2.6c-5.9,0-9.3,5.4-9.3,10.8c0,5.5,3.4,11,9.4,11
		c2.1,0,4.3-0.9,5.5-2.5h0.1v1.9H129.8z M119.8,448.6c-3,0-4.8-3-4.8-5.7c0-2.7,1.8-5.7,4.8-5.7c3,0,4.9,3,4.9,5.7
		C124.6,445.6,122.8,448.6,119.8,448.6z"/>
	<path class="st1" d="M49.3,522.9c0.1-0.2,0.1-0.4,0.1-0.6c0-0.1,0-0.1,0-0.2s-0.1-0.1-0.2-0.1c-0.5,0-1,0-1.3,0l-1.9,0l-2.1-0.1
		c-1.2,0-2.1,0-2.6,0c-2.4,0-3.9,0.1-4.6,0.2c-0.1,0.1-0.1,0.2-0.1,0.3l0.3,0.5c0.1,0,0.2,0,0.3,0.1l0.5,0l0.8,0.1
		c1.7,0.1,2.6,0.4,3,0.8s0.5,1.8,0.5,4.1c0,1.4-0.1,2.4-0.3,2.8c-0.2,0.5-0.5,0.9-1,1.3c-0.5,0.4-1.2,0.7-2.2,0.9
		c-1,0.2-1.9,0.3-2.7,0.3c-1.3,0-2.2-0.1-2.8-0.2c-1.1-0.3-2.1-0.7-2.9-1.3c-1.2-0.8-2.3-1.8-3.2-3c-0.9-1.1-1.6-2.4-2.1-3.7
		s-0.8-2.8-0.8-4.5c0-2.9,0.7-5.4,2.1-7.4c1.4-2,3-3.5,4.9-4.3c1.3-0.6,3.2-0.9,5.6-0.9c2,0,3.6,0.5,5,1.5c1.4,1,2.5,2.6,3.4,4.6
		l0.6-0.1c0-0.3,0-1-0.1-1.9l-0.2-3.1c-0.9-0.5-2-1-3.5-1.4c-1.5-0.4-3.4-0.6-5.7-0.6c-3.4,0-6.1,0.5-8,1.5
		c-2.8,1.4-4.8,3.3-6.1,5.5c-1.3,2.3-1.9,4.6-1.9,7c0,1.9,0.4,3.8,1.2,5.6c0.5,1.2,1.4,2.5,2.7,3.7c1.2,1.2,2.7,2.2,4.4,2.9
		c1.7,0.7,3.9,1,6.6,1c1.7,0,3.4-0.2,5.2-0.5c1-0.2,2-0.5,3.2-1c0.8-0.3,1.4-0.6,1.6-0.8c0.3-0.2,0.4-0.5,0.5-0.8
		c0.1-0.5,0.2-1.7,0.2-3.5l0-2.7c0-0.9,0.1-1.4,0.2-1.5c0.3-0.3,0.6-0.5,1.1-0.5l1.3,0C48.2,523.1,48.7,523.1,49.3,522.9z"/>
	<path class="st1" d="M58.1,525.5c-2,0.8-3.5,1.9-4.7,3.2s-1.7,2.4-1.7,3.4c0,0.7,0.2,1.2,0.6,1.6c0.4,0.4,0.9,0.6,1.6,0.6
		c0.9,0,1.8-0.1,2.4-0.3c0.4-0.1,1-0.4,1.8-0.9l2.3-1.6c0.1,0.9,0.3,1.5,0.6,1.9c0.5,0.6,1.2,0.9,2.2,0.9c0.6,0,1-0.1,1.3-0.3
		c0.5-0.3,1-0.8,1.4-1.5c0.3-0.5,0.5-0.9,0.5-1.1c0-0.1,0-0.2-0.1-0.4c-0.2,0.1-0.4,0.1-0.4,0.1l-0.2,0.3c-0.4,0.5-0.8,0.8-1.3,0.8
		c-0.4,0-0.7-0.1-0.9-0.4c-0.3-0.3-0.4-0.6-0.4-1.1c0-0.2,0-0.5,0-0.9c0-0.2,0-0.5,0-0.8l0-2.4l0.1-3.2c0-1.8,0-2.9-0.1-3.2
		c-0.1-0.6-0.4-1.2-0.8-1.7c-0.4-0.5-0.9-0.9-1.5-1.1c-0.6-0.2-1.4-0.3-2.6-0.3c-0.9,0-1.9,0.3-3,0.9c-1.1,0.6-2.1,1.5-2.8,2.8
		c-0.8,1.2-1.1,2-1.1,2.4c0,0.1,0.1,0.2,0.2,0.3c0.2,0.2,0.5,0.3,0.8,0.3c0.4,0,0.8-0.2,1.4-0.6c0.2-0.4,0.4-0.8,0.5-1.1
		c0.3-1.3,0.6-2.1,1.1-2.6c0.8-0.7,1.7-1.1,2.6-1.1c0.9,0,1.6,0.3,2.1,0.9c0.5,0.6,0.7,1.8,0.7,3.5c0,0.5,0,1,0,1.5
		C60.4,524.5,59.5,524.9,58.1,525.5z M60.5,530.5c-0.9,0.8-1.7,1.4-2.5,1.8c-0.6,0.3-1.1,0.4-1.5,0.4c-0.5,0-1-0.2-1.4-0.5
		c-0.4-0.4-0.5-0.8-0.5-1.3c0-0.6,0.2-1.1,0.7-1.8c0.6-0.9,1.4-1.6,2.4-2.3c1-0.7,2-1.2,2.9-1.5c0,0.6,0.1,1.1,0.1,1.5
		C60.6,527.5,60.6,528.7,60.5,530.5z"/>
	<path class="st1" d="M75.7,520.2c0.1-0.1,0.4-0.2,0.8-0.2c0.2,0,0.6,0.1,1.3,0.3c0.6,0.2,1.1,0.3,1.3,0.3c0.5,0,0.9-0.2,1.3-0.5
		c0.3-0.3,0.4-0.6,0.4-1.1c0-0.6-0.2-1.1-0.6-1.5c-0.4-0.4-0.9-0.6-1.5-0.6c-0.5,0-1.2,0.3-2.1,0.9c-0.2,0.1-0.4,0.3-0.5,0.5
		l-0.5,0.5c-0.8,0.8-1.4,1.6-1.9,2.6c0-0.2,0-0.3,0-0.4l0-0.3c0-2.3,0-3.8-0.1-4.5l-0.7,0c-0.5,1-1.1,1.8-1.7,2.4
		c-0.5,0.4-1.4,0.9-2.9,1.5l-0.1,0.6c0.3,0.1,0.6,0.2,1.1,0.3c0.8,0.1,1.3,0.3,1.5,0.4c0.2,0.2,0.3,0.6,0.4,1.4
		c0.1,0.7,0.1,3.4,0.1,8c0,0.9,0,1.4-0.1,1.6c-0.1,0.1-0.1,0.2-0.3,0.3l-1.7,0.3l-1.2,0.2c-0.1,0.2-0.2,0.3-0.2,0.4l0.1,0.3l3.4-0.1
		l1.1-0.1h2.1l1.2,0l0.9,0l2.3,0c0.1-0.1,0.2-0.2,0.2-0.3c0-0.1-0.1-0.2-0.2-0.3c-0.2-0.1-0.6-0.2-1.2-0.2c-0.1,0-0.2,0-0.4,0
		c-0.3-0.1-1.1-0.1-2.6-0.3c-0.2-0.1-0.4-0.3-0.4-0.3c-0.1-0.1-0.1-0.4-0.2-0.9l0-4l-0.1-3.4c0-0.6,0.2-1.2,0.6-1.9
		C74.8,521.1,75.3,520.5,75.7,520.2z"/>
	<path class="st1" d="M95.5,534c0.5-0.3,1-0.8,1.4-1.5c0.3-0.5,0.5-0.9,0.5-1.1c0-0.1,0-0.2-0.1-0.4c-0.2,0.1-0.4,0.1-0.4,0.1
		l-0.2,0.3c-0.4,0.5-0.8,0.8-1.3,0.8c-0.4,0-0.7-0.1-0.9-0.4c-0.3-0.3-0.4-0.6-0.4-1.1c0-0.2,0-0.5,0-0.9c0-0.2,0-0.5,0-0.8l0-2.4
		l0.1-3.2c0-1.8,0-2.9-0.1-3.2c-0.1-0.6-0.4-1.2-0.8-1.7c-0.4-0.5-0.9-0.9-1.5-1.1c-0.6-0.2-1.4-0.3-2.6-0.3c-0.9,0-1.9,0.3-3,0.9
		c-1.1,0.6-2.1,1.5-2.8,2.8c-0.8,1.2-1.1,2-1.1,2.4c0,0.1,0.1,0.2,0.2,0.3c0.2,0.2,0.5,0.3,0.8,0.3c0.4,0,0.8-0.2,1.4-0.6
		c0.2-0.4,0.4-0.8,0.5-1.1c0.3-1.3,0.6-2.1,1.1-2.6c0.8-0.7,1.7-1.1,2.6-1.1c0.9,0,1.6,0.3,2.1,0.9c0.5,0.6,0.7,1.8,0.7,3.5
		c0,0.5,0,1,0,1.5c-0.3,0.2-1.2,0.5-2.6,1.1c-2,0.8-3.5,1.9-4.7,3.2s-1.7,2.4-1.7,3.4c0,0.7,0.2,1.2,0.6,1.6
		c0.4,0.4,0.9,0.6,1.6,0.6c0.9,0,1.8-0.1,2.4-0.3c0.4-0.1,1-0.4,1.8-0.9l2.3-1.6c0.1,0.9,0.3,1.5,0.6,1.9c0.5,0.6,1.2,0.9,2.2,0.9
		C94.8,534.3,95.2,534.2,95.5,534z M91.3,530.5c-0.9,0.8-1.7,1.4-2.5,1.8c-0.6,0.3-1.1,0.4-1.5,0.4c-0.5,0-1-0.2-1.4-0.5
		c-0.4-0.4-0.5-0.8-0.5-1.3c0-0.6,0.2-1.1,0.7-1.8c0.6-0.9,1.4-1.6,2.4-2.3c1-0.7,2-1.2,2.9-1.5c0,0.6,0.1,1.1,0.1,1.5
		C91.5,527.5,91.4,528.7,91.3,530.5z"/>
	<path class="st1" d="M112.4,532c0,0.1-0.1,0.2-0.2,0.3c-0.4,0.2-0.9,0.3-1.3,0.3c-0.8,0.1-1.4,0.3-1.7,0.5l0,0.2c0,0.1,0,0.2,0,0.4
		l1.6,0h5.9l1,0h0.3c0.1-0.1,0.2-0.2,0.2-0.4c0-0.2-0.1-0.4-0.2-0.5c-0.2-0.1-0.5-0.1-0.9-0.2c-0.9-0.1-1.4-0.3-1.6-0.4
		c-0.2-0.2-0.3-0.4-0.3-0.7c0-0.3-0.1-1.7-0.1-4.2l0.1-2.4v-3.1l0-0.5c0.7-0.9,1.5-1.5,2.3-1.9c0.8-0.4,1.6-0.6,2.4-0.6
		c1.1,0,1.9,0.3,2.6,0.9c0.7,0.6,1.1,1.4,1.3,2.4c0.1,0.6,0.1,3,0.1,7c0,1.8-0.1,2.9-0.2,3.2c-0.2,0.3-0.6,0.4-1.2,0.6
		c-0.6,0.1-1.1,0.2-1.5,0.4c-0.1,0.2-0.1,0.3-0.1,0.4c0,0.1,0,0.2,0,0.3c0.4,0,0.7,0,0.9,0h1c1.2-0.1,2.1-0.1,2.7-0.1
		c0.5,0,0.9,0,1.2,0l2.1,0.1h0.1c0.1-0.2,0.1-0.4,0.1-0.5c0-0.1,0-0.2-0.1-0.3s-0.3-0.2-0.8-0.3c-0.7-0.2-1.1-0.3-1.2-0.4
		c-0.3-0.3-0.4-0.7-0.4-1.3l0-4.8l0-1.9v-1.7c0-1.9-0.5-3.4-1.5-4.4c-1-1-2.2-1.5-3.7-1.5c-1,0-2,0.2-3,0.7s-2.1,1.3-3.3,2.5
		c-0.6-1.2-1.3-2-2-2.4c-0.7-0.4-1.6-0.7-2.8-0.7c-1,0-1.9,0.2-2.7,0.5c-1.2,0.5-2.5,1.5-3.9,2.8c0-0.5,0-1.1,0-1.5l0-2.3
		c-0.1-0.1-0.2-0.1-0.3-0.1c-0.2,0-0.3,0-0.4,0H103c-0.9,1.1-1.6,1.8-2.1,2.2c-0.5,0.4-1.1,0.7-2,0.9v0.7c0.5,0.1,0.8,0.2,0.9,0.2
		c0.5,0.1,0.9,0.3,1.2,0.4c0.2,0.8,0.3,2.7,0.3,5.6c0,2.9,0,4.7-0.1,5.2c-0.1,0.4-0.2,0.7-0.5,0.9c-0.3,0.1-0.7,0.3-1.3,0.3
		c-0.4,0.1-0.7,0.2-0.9,0.3c-0.1,0.2-0.1,0.3-0.1,0.4c0,0.1,0,0.1,0,0.2l2.3-0.1h0.6l1-0.1c0.4,0,0.9,0,1.5,0c0.5,0,1.6,0.1,3.1,0.2
		c0-0.1,0-0.3,0-0.4c0-0.2-0.1-0.3-0.2-0.4c-0.3-0.2-0.8-0.3-1.7-0.4c-0.5-0.1-0.9-0.2-1-0.4c-0.2-0.2-0.2-1.1-0.3-2.6l-0.1-6.8
		c0-0.3,0-0.7,0-1c0.6-0.8,1.4-1.4,2.4-1.9s1.9-0.7,2.9-0.7c1,0,1.9,0.4,2.6,1.2c0.7,0.8,1,2,1,3.7l0,1.5l0,2.7l-0.1,2.4
		C112.5,531.3,112.5,531.8,112.4,532z"/>
	<path class="st1" d="M131.3,525.6c0,1.7,0.4,3.2,1.2,4.5c0.8,1.3,1.8,2.3,2.9,3c1.5,0.9,3.1,1.3,4.8,1.3c2.7,0,5-0.9,6.8-2.6
		c1.8-1.7,2.7-3.6,2.7-5.8c0-2.4-0.9-4.5-2.6-6.3c-1.7-1.7-3.8-2.6-6.4-2.6c-1.8,0-3.3,0.3-4.5,0.9c-0.9,0.4-1.7,1-2.5,1.9
		c-0.8,0.8-1.4,1.8-1.8,2.8S131.3,524.7,131.3,525.6z M135.4,521c0.6-1.2,1.4-2,2.4-2.4c0.9-0.4,1.8-0.6,2.7-0.6
		c1.2,0,2.3,0.3,3.2,1c0.9,0.7,1.6,1.7,2,3.1c0.4,1.4,0.7,2.6,0.7,3.7c0,1.6-0.3,3-0.9,4.3c-0.6,1.2-1.3,2.1-2.3,2.7
		c-1,0.6-2,0.8-3,0.8c-1.7,0-3.1-0.6-4.2-1.9c-1.1-1.3-1.7-3.1-1.7-5.6C134.4,523.9,134.8,522.2,135.4,521z"/>
	<path class="st1" d="M165.8,532.6c-0.1,0.1-0.4,0.1-0.8,0.1c-0.7,0.1-1.2,0.2-1.5,0.3c-0.1,0.1-0.1,0.2-0.1,0.3l0.1,0.4
		c0.8,0,1.7,0,2.7,0l2.6-0.1l2.7,0h0.4c0.1-0.2,0.1-0.4,0.1-0.5v-0.2c-0.2-0.2-1-0.5-2.3-0.6c-0.3-0.2-0.5-0.4-0.5-0.5
		c-0.1-0.3-0.1-0.9-0.1-1.8c0-0.6,0-1.1,0-1.6c0-0.5,0-0.7,0-0.8v-3.1c0-2.4-0.1-4-0.4-4.8c-0.2-0.8-0.8-1.5-1.6-2.1
		c-0.8-0.6-1.8-0.9-2.9-0.9c-0.5,0-1,0.1-1.4,0.2c-0.7,0.2-1.4,0.4-2.3,0.8c-0.9,0.4-1.7,0.9-2.5,1.5c-0.2,0.2-0.4,0.3-0.6,0.4
		l0-0.4v-1.3c0-0.3,0-0.7-0.1-1.4l-0.7,0c-0.5,1-1.2,1.9-2,2.5c-0.5,0.4-1.3,0.8-2.3,1.1v0.7c1,0.1,1.7,0.4,2,0.8
		c0.2,0.2,0.3,0.8,0.3,1.6l0,6.2c0,0.4,0,0.8,0,1l0,0.7c0,0.6-0.1,1-0.3,1.1c-0.2,0.2-0.7,0.3-1.5,0.4c-0.4,0.1-0.8,0.1-1.2,0.2
		c0,0.2-0.1,0.3-0.1,0.4l0,0.3h0.5c0.3,0,0.9,0,1.9,0l4.4,0.1h2.1l0-0.4c-0.1-0.2-0.3-0.3-0.5-0.4c-0.1,0-0.4-0.1-0.8-0.2
		s-0.8-0.2-1.1-0.3c-0.3-0.1-0.5-0.2-0.7-0.3c-0.1-0.1-0.1-0.2-0.1-0.4c-0.1-0.5-0.1-2-0.1-4.3l-0.1-4.5c0-0.5,0-1,0-1.7
		c0.8-0.8,1.7-1.4,2.5-1.8c0.9-0.4,1.8-0.6,2.7-0.6c1.2,0,2.1,0.3,2.8,1s1.1,1.9,1.1,3.6l0,1.6v1.1c0,2.5,0,4,0.1,4.7
		c0,0.3,0,0.5,0,0.6c0,0.2-0.1,0.5-0.2,0.8C166.1,532.5,165.9,532.6,165.8,532.6z"/>
	<path class="st1" d="M192.7,533.6c0-0.1,0-0.2,0-0.3v-0.4c-0.3,0-0.6,0-0.8,0c-0.9,0-1.5-0.2-1.8-0.4c-0.1-0.1-0.2-0.7-0.2-1.6
		l0.1-4.7l-0.1-8.8l0.1-7.8c0-1.1,0-2.2-0.1-3.1l-1,0c-1.3,0.4-2.9,0.8-4.8,1c0,0.2,0,0.3,0,0.4v0.2c0.2,0.1,0.4,0.1,0.4,0.1
		c1.3,0.4,2.1,0.7,2.4,1c0.3,0.3,0.4,1.1,0.4,2.4l0,4.5l0,2.4l0,0.6c-0.2-0.1-0.5-0.2-0.8-0.4c-1.2-0.5-2.7-0.8-4.5-0.8
		c-0.4,0-1.2,0.2-2.4,0.5c-0.5,0.1-1.1,0.4-1.9,0.9c-0.7,0.5-1.3,0.9-1.7,1.4c-0.6,0.7-1.2,1.6-1.5,2.7s-0.6,2.2-0.6,3.3
		c0,1.3,0.3,2.6,0.9,3.8s1.5,2.2,2.6,2.9c1.1,0.7,2.2,1,3.3,1c1.8,0,3.7-0.4,5.8-1.3c0.5-0.2,0.8-0.3,1.1-0.4v2c0.3,0,0.6,0,1-0.1
		l3-0.6C191.8,533.8,192.3,533.7,192.7,533.6z M187.2,531.6c-0.3,0.2-0.8,0.5-1.6,0.8c-0.8,0.3-1.7,0.4-2.7,0.4
		c-1.7,0-3.2-0.6-4.4-1.9c-1.2-1.2-1.8-2.9-1.8-5c0-2.4,0.5-4.1,1.6-5.4c1.1-1.2,2.4-1.8,4-1.8c1.1,0,2.1,0.3,3,0.8
		c0.9,0.6,1.4,1.2,1.7,1.8s0.3,2.1,0.3,4.5C187.3,528.8,187.3,530.7,187.2,531.6z"/>
	<path class="st1" d="M30.5,600.6c1.6-0.8,3.5-1.2,5.5-1.2c3.3,0,6.7,0.9,10.2,2.6v-5c-3.4-1.6-6.9-2.3-10.4-2.3
		c-3,0-5.8,0.6-8.2,1.9c-2.5,1.2-4.4,3-5.8,5.3s-2.1,4.8-2.1,7.6c0,2.7,0.7,5.2,2,7.5c1.4,2.2,3.3,4,5.7,5.2
		c2.4,1.2,5.2,1.9,8.2,1.9c2.1,0,4.2-0.3,6.1-0.8s3.6-1.3,5-2.3V609H36.6v4.3h4.7v4.7c-1.1,0.4-2,0.7-2.8,0.9s-1.6,0.2-2.5,0.2
		c-3.2,0-5.7-0.9-7.6-2.7s-2.9-4.1-2.9-7c0-1.9,0.4-3.6,1.3-5.2C27.7,602.7,28.9,601.5,30.5,600.6z"/>
	<path class="st1" d="M54.7,601.3c0.8,0,1.5-0.3,2-0.9s0.8-1.2,0.8-2c0-0.8-0.3-1.4-0.8-2c-0.6-0.6-1.2-0.8-2-0.8
		c-0.7,0-1.4,0.3-2,0.8c-0.6,0.5-0.9,1.2-0.9,2c0,0.7,0.3,1.4,0.8,2C53.3,601,53.9,601.3,54.7,601.3z"/>
	<rect x="52.2" y="604.4" class="st1" width="5" height="19"/>
	<rect x="62.5" y="595" class="st1" width="5" height="28.4"/>
	<rect x="72.9" y="595" class="st1" width="5" height="28.4"/>
	<path class="st1" d="M106,618.7c-0.8,0.6-1.9,0.9-3.3,0.9c-2.7,0-5.6-1.3-8.6-3.8v5.4c1.6,1,3.1,1.7,4.4,2.1
		c1.3,0.4,2.9,0.6,4.7,0.6c2.8,0,5.1-0.7,6.8-2.2c1.8-1.5,2.6-3.5,2.6-5.9c0-1.9-0.5-3.5-1.5-4.8c-1-1.3-2.7-2.6-5-3.7
		c-2.7-1.2-4.3-2-4.7-2.3c-1.5-0.9-2.2-1.9-2.2-3c0-0.9,0.4-1.6,1.2-2.1c0.8-0.5,1.9-0.8,3.2-0.8c2.3,0,4.9,0.9,7.8,2.7v-4.9
		c-2.6-1.4-5.2-2.1-8-2.1c-2.9,0-5.3,0.7-7,2.1c-1.8,1.4-2.7,3.3-2.7,5.7c0,1.8,0.6,3.4,1.7,4.7c1.1,1.4,2.8,2.5,5,3.6
		c1.9,0.9,3.4,1.7,4.6,2.3c1.4,0.8,2.2,1.9,2.2,3.2C107.3,617.3,106.9,618.1,106,618.7z"/>
	<path class="st1" d="M122.3,612.8c-2.4,0.7-4.2,1.5-5.1,2.5s-1.5,2.2-1.5,3.9c0,1.3,0.5,2.4,1.5,3.3c1,0.9,2.2,1.4,3.5,1.4
		c1.9,0,3.8-0.7,5.8-2c0.2,0.8,0.5,1.3,1,1.6c0.5,0.3,1.2,0.4,2.1,0.4c1.5,0,3.1-0.5,4.8-1.6v-2.9c-0.3,0.3-0.7,0.5-1.1,0.7
		c-0.4,0.2-0.8,0.3-1,0.3c-0.6,0-0.9-0.4-0.9-1.1V610c0-1.9-0.6-3.3-1.9-4.3c-1.3-1-3.2-1.6-5.6-1.6c-2.8,0-5.3,0.8-7.4,2.5v4.5
		c0.9-1,2-1.8,3.1-2.3s2.3-0.8,3.4-0.8c2.3,0,3.4,0.9,3.4,2.8v0.9L122.3,612.8z M126.3,619.2c-1.1,1-2.2,1.5-3.3,1.5
		c-0.7,0-1.2-0.2-1.6-0.6c-0.4-0.4-0.7-1-0.7-1.7c0-0.6,0.2-1.2,0.6-1.6c0.4-0.4,1-0.9,1.8-1.3c0.8-0.4,1.9-0.9,3.3-1.3V619.2z"/>
	<path class="st1" d="M148.9,608.9c0.6,0.7,0.9,1.7,0.9,2.9v11.6h5v-12.1c0-2.2-0.6-3.9-1.8-5.3s-2.8-2-4.9-2
		c-1.1,0-2.2,0.2-3.2,0.7s-1.9,1.2-2.8,2.3v-2.7h-5v19h5v-12.6c0.8-1.1,1.6-1.8,2.2-2.3c0.7-0.5,1.4-0.7,2.2-0.7
		C147.5,607.9,148.3,608.2,148.9,608.9z"/>
	<path class="st1" d="M172.6,617.9c0-1.3-0.4-2.4-1.3-3.3c-0.9-0.9-2.4-1.9-4.6-3c-1.5-0.8-2.4-1.3-2.8-1.6
		c-0.3-0.3-0.5-0.6-0.5-0.9c0-0.5,0.2-0.9,0.6-1.2s1-0.4,1.7-0.4c0.9,0,1.8,0.2,2.9,0.6c1.1,0.4,2.1,0.9,3.1,1.5v-4
		c-1-0.5-2-0.9-2.9-1.1c-0.9-0.2-1.9-0.4-3-0.4c-2.1,0-3.9,0.5-5.2,1.5c-1.3,1-2,2.3-2,4c0,1.2,0.4,2.2,1.1,3.1
		c0.7,0.9,1.9,1.7,3.4,2.4c2,1,3.2,1.6,3.6,1.9c0.4,0.3,0.7,0.5,0.9,0.8c0.2,0.2,0.3,0.5,0.3,0.8c0,0.5-0.3,0.9-0.8,1.2
		c-0.5,0.3-1.2,0.5-2.1,0.5c-1.7,0-3.7-0.7-6.2-2v4.2c0.8,0.4,1.7,0.8,2.9,1.1c1.2,0.3,2.4,0.4,3.8,0.4c2.2,0,3.9-0.5,5.2-1.6
		C171.9,621.2,172.6,619.8,172.6,617.9z"/>
	<path class="st1" d="M48.3,681.5c-1.2-1.9-3-3.7-5.6-5.4l-1.6,1l-2,1.1v-1.9h-1.2v2.4l-1.3,0.6c-1,0.5-2.1,0.9-3.2,1.3l-3,1.1
		l-1.4,0.5v1.2l1.9-0.5v18.3v0.6c0,0.4-0.2,0.9-0.6,1.3l-0.3,0.2l0.4,0.3l0.9-0.3c2.8-1.2,4.2-2.6,4.4-4.4l0-1.2V681l2.1-1v27.1
		l-1.2,0.3c-0.4,0.1-1,0.1-1.6,0.1c-6.7,0-10.1-5.3-10.2-15.8c0-5.8,1.2-10,3.6-12.7c0.6-0.7,1.3-1.3,2-1.7l1-0.5l-0.3-0.7
		c-2.5,0.9-4.5,2.1-6.1,3.7c-3.7,3.7-5.5,8.1-5.5,13.3c0,1.7,0.2,3.4,0.7,4.9c0.7,2.3,1.8,4.3,3.5,6c1.8,1.8,3.7,3.1,5.8,3.9
		c1.6,0.6,3.2,0.9,4.9,0.9c2,0,4-0.4,5.9-1.3c3.2-1.5,5.7-3.9,7.6-7.2c1.8-3.1,2.7-6.5,2.7-10.2c0-1.5-0.2-3-0.6-4.5
		S49.1,682.8,48.3,681.5z M39,679.4l0.5-0.3l1.2,1.1c1.4,1.4,2.6,3.3,3.5,5.8l0.2,0.6l-0.5,0.2c-0.7,0.3-1.5,0.4-2.5,0.4
		c-0.7,0-1.2,0-1.6-0.1l-0.8-0.2V679.4z M44.4,700c-1,2.8-2.5,4.8-4.4,6l-1,0.5v-7.8l1.1-0.3c0.4-0.1,0.9-0.1,1.5-0.1
		c1,0,1.9,0.1,2.5,0.3l0.7,0.3L44.4,700z M45.4,694.5c-0.1,1-0.1,1.9-0.2,2.5l-0.1,0.6l-1-0.4c-0.5-0.1-1.2-0.2-2-0.2
		c-0.7,0-1.3,0.1-1.8,0.1l-1.2,0.2v-9.3l1.1,0.2c0.4,0.1,0.9,0.1,1.5,0.1c0.9,0,1.6-0.1,2.2-0.2l1-0.3l0.2,1.1
		c0.1,0.7,0.2,1.4,0.3,2.1l0.1,1.8V694.5z"/>
	<path class="st1" d="M62.6,704.7l-1.2-0.9l-1-0.7v-18.1l0-2.1l0.1-2c0.1-0.6,0.1-1.2,0.3-1.6s0.4-1.1,0.7-2l-1.3,0.8l-1.9,1.2
		c-1,0.6-2.1,0.9-3.4,0.9l0.5,1.1c0.1,0.4,0.2,0.8,0.3,1.3l0.1,1.3v2.7v17.1l-0.8,0.5c-0.4,0.3-0.9,0.7-1.3,1l-0.5,0.5l0.3,0.2l1,0
		c0.5,0.1,1,0.3,1.6,0.6c0.7,0.4,1.4,0.8,2.2,1.3l1.3,0.8l4.2-3.7l-0.6-0.8L62.6,704.7z"/>
	<path class="st1" d="M82.3,690.8c0-0.5,0.3-1.2,0.8-1.9l-0.9-0.4c-0.3-0.1-0.6-0.4-1-0.7l-1-0.9l-1.8-1.7l-1.9-1.8l-2.3-2.5
		l-1.6-1.8c-0.4-0.5-0.8-0.9-1-1.3l-0.5-1.1l-1.3,0.5c-1.1,0.4-2.3,0.7-3.6,0.8l-1.1,0.1l2.2,1.9c1.3,1.2,2.4,2.2,3.3,3.1l2.2,2.2
		l1.6,1.7c-2.1,1.2-4,1.8-5.9,1.9l-1,0l-0.9-0.1l0.4,0.8c0.2,0.4,0.3,0.8,0.4,1.2l0,1.2v11.2l-1.1,0.9c-0.5,0.4-0.9,0.8-1.1,1.3
		l-0.3,0.6l0.2,0.2L66,706c1-0.4,2-0.4,3.2,0c0.5,0.2,1,0.4,1.5,0.7c0.5,0.3,0.9,0.6,1.3,1l1.2,1.1l0.9-0.9c1.4-1.2,3-2,5-2.2
		l1.2-0.1c0.5,0,1,0,1.3,0.1l0.9,0.2l0.7,0.2l-0.5-0.8c-0.2-0.4-0.3-0.9-0.3-1.5l0-1.6v-10.6L82.3,690.8z M77.7,704.4l-1.2,0.4
		l-0.9-0.8c-0.4-0.3-0.8-0.5-1.2-0.7c-0.4-0.2-0.9-0.3-1.3-0.4l-1.1-0.1v-13l3.3-1.7l1,1.2c0.3,0.3,0.7,0.7,1.4,1.2V704.4z"/>
	<path class="st1" d="M119.9,683.5l3.5-5.9l-0.8-0.5l-0.4,0.6l-1.1-0.6c-1.5-0.7-2.8-1.1-4.2-1.1c-1.2,0-2.4,0.4-3.6,1.2
		c-1.2,0.8-2.1,1.7-2.8,2.7c-0.7,1.1-1.1,2.4-1.2,4.1l-0.1,1.6v16.5l-1.3,0.4c-0.9,0.3-1.6,0.7-2.3,1c-0.8,0.4-1.6,1-2.4,1.6
		c-0.8,0.6-1.4,1.2-1.9,1.8l-0.8,1l0.4,0.5c0.6-0.5,1-0.8,1.3-1c1.4-0.8,3.5-1.3,6.5-1.3c2.4,0,4.8,0.4,7.3,1
		c0.8,0.2,1.7,0.5,2.5,0.8l1.3,0.5l3.2-5.7l-0.8-0.4l-0.7,1l-0.7-0.2c-1.9-0.7-3.5-1.1-4.9-1.3c-1.2-0.2-2.2-0.3-3-0.3l-1.6,0.1
		l-1,0.1v-8.6l0.6-0.4c0.7-0.3,1.4-0.5,2.2-0.5c0.5,0,1.1,0.1,1.7,0.3c0.6,0.2,1.2,0.5,1.8,0.9l0.8,0.7l-0.7,1.1l0.8,0.5l4.1-6.6
		l-0.7-0.5l-0.6,0.9l-0.6-0.3c-0.5-0.2-1.1-0.5-1.8-0.6c-0.8-0.2-1.5-0.3-2.1-0.3c-1.7,0-3.3,1-4.8,2.8l-0.7,0.9v-5.9l0-2.1
		c0.1-1.3,0.5-2.2,1.4-2.9s1.9-1,3.2-1c0.7,0,1.4,0.1,2.1,0.3c0.6,0.2,1.2,0.5,1.7,0.9l0.8,0.7l-0.5,0.9L119.9,683.5z"/>
	<path class="st1" d="M102.3,694.8v6.7c0,1-0.1,1.7-0.4,2.2l-0.4,0.5l0.3,0.4l0.8-0.5c2.9-1.9,4.4-3.8,4.5-5.8l0-1.5v-11v-1.5
		c0-0.8,0.3-1.6,0.9-2.2l-0.3-0.4l-1.9,1.3c-2.4,1.6-3.5,3.5-3.5,5.6v0.7h-0.9c-0.4,0-0.9,0.1-1.3,0.2c-0.8,0.2-1.4,0.7-1.9,1.5
		c-0.4,0.7-0.7,1.5-0.7,2.4c0,1.2,0.4,2.1,1.4,2.6l0.7,0.3l-0.1-0.7c0-0.6,0.3-1,0.9-1l0.9,0H102.3z"/>
	<path class="st1" d="M99.5,680.3l1.6,0.1l2,0.3c1.4,0.2,2.3,0.4,2.8,0.3c0.7,0,1.5-0.3,2.2-0.8c0.4-0.3,0.8-0.5,1.1-0.9l1-1.1
		l0.7-0.9l0.4-0.5l-0.4-0.3l-0.4,0.3c-0.5,0.3-1.2,0.4-2.2,0.2l-2.6-0.6c-0.9-0.2-1.7-0.3-2.4-0.3c-2.2,0.1-4,1.1-5.4,3.3
		c-0.2,0.3-0.4,0.7-0.6,1.2l-0.3,0.8l0.4,0.2l0.4-0.4C98.3,680.6,98.9,680.3,99.5,680.3z"/>
	<path class="st1" d="M143.2,704.2c-1.2,0-1.8-0.8-1.8-2.4v-10.6l0.7-0.7c0.5-0.7,0.8-1.2,1-1.8l0.1-0.9H143l-0.5,0.4
		c-0.6,0.4-1.4,0.5-2.2,0.3c-0.7-0.2-1.3-0.7-1.8-1.3l-0.5-1l-6.8,4.8l-0.1-1.3c-0.2-1.5-0.8-2.5-2-3.2l-0.9-0.4l-0.7,0.9
		c-0.4,0.5-0.7,0.9-1.2,1.3l-1.3,1.2l-1,0.9l1.2,0.4c0.9,0.4,1.3,1.2,1.3,2.5v10.2l-0.9,0.9l-1.1,1.1l-0.5,0.7l0.4,0.2l0.6-0.1
		c1.1-0.2,2.3,0.1,3.5,0.9l1.1,0.9l0.9,0.7l2.3-2l1.8-1.4l-0.9-0.7c-0.5-0.3-1-0.7-1.6-1l-0.9-0.4v-11l2.8-1.8l0.8,0.8
		c0.3,0.3,0.7,0.5,1.2,0.6l0.9,0.3v10.7l0,1.8c0,2.1,0.8,3.4,2.3,3.9l1.1,0.3l3.7-4.3l-0.2-0.2L143.2,704.2z"/>
	<path class="st1" d="M159.2,687.1l-0.8-1l-1.4,0.7c-0.5,0.3-1.2,0.5-2,0.8c-0.8,0.3-1.6,0.6-2.2,0.8c-0.8,0.2-1.5,0.4-2.1,0.5
		s-1.3,0.2-2,0.1c-0.5,0-1,0-1.4-0.1l-1.1-0.2l0.5,0.9c0.1,0.3,0.2,0.7,0.3,1.2l0,1.5v11.7l-1.2,1l-1.4,1.4l0.2,0.2l0.8-0.3
		c0.4-0.1,0.9-0.2,1.4-0.2c0.5,0,1,0.1,1.5,0.2s1,0.4,1.4,0.7c0.4,0.3,0.8,0.6,1.2,1l0.7,0.8l1.8-1.6c0.8-0.7,1.6-1.3,2.4-1.8l1.6-1
		l0.4,1.2c0.2,0.4,0.4,0.9,0.8,1.5c0.6,0.9,0.8,1.6,0.8,2.1c0,0.8-0.4,1.6-1.1,2.2l-0.6,0.5c-0.8-0.3-1.5-0.6-2-0.7
		c-0.7-0.2-1.6-0.3-2.5-0.3c-1,0-1.9,0.1-2.7,0.4c-0.7,0.2-1.3,0.5-2,0.9c-0.7,0.4-1.3,0.9-1.7,1.4c-0.4,0.4-0.8,0.9-1.2,1.5
		l0.4,0.2l1-0.7c0.7-0.4,1.5-0.5,2.5-0.5c0.7,0,1.3,0.1,1.9,0.3c1,0.3,2.1,1,3.3,2l2.4-2.3l4.7-3.7c1.4-1.1,2.1-2.2,2.1-3.2
		c0-0.5-0.1-1-0.4-1.5l-0.9-1.7c-0.5-0.9-0.7-1.6-0.8-2.3l0-1.6v-8.8l0.7-0.7c0.6-0.6,1.1-1.2,1.5-1.8l0.3-0.4v-0.1l-0.8,0.2
		C161.8,688.7,160.4,688.3,159.2,687.1z M157.3,702.8l-2.4,1.6c-1-0.6-2.2-1-3.3-1.2V690l2.3-0.7l0.7,0.8c0.4,0.5,1,0.8,1.5,1.1
		l1.1,0.5V702.8z"/>
	<path class="st1" d="M175.3,704.7l-1.2-0.9l-1-0.7v-18.1l0-2.1l0.1-2c0.1-0.6,0.1-1.2,0.3-1.6s0.4-1.1,0.7-2l-1.3,0.8l-1.9,1.2
		c-1,0.6-2.1,0.9-3.4,0.9l0.5,1.1c0.1,0.4,0.2,0.8,0.3,1.3l0.1,1.3v2.7v17.1l-0.8,0.5c-0.4,0.3-0.9,0.7-1.3,1l-0.5,0.5l0.3,0.2l1,0
		c0.5,0.1,1,0.3,1.6,0.6c0.7,0.4,1.4,0.8,2.2,1.3l1.3,0.8l4.2-3.7l-0.6-0.8L175.3,704.7z"/>
	<path class="st1" d="M186.9,704.9c-1.5-0.1-2.2-0.9-2.2-2.4l0-1.6v-9.5c0.8-0.4,1.4-0.9,1.8-1.5c0.2-0.3,0.4-0.7,0.5-1.1l0.2-0.7
		l-0.2-0.2l-0.5,0.3c-1.3,0.8-2.6,0.1-4-2.1l-1.6,1.6c-0.6,0.6-1.3,1.1-2,1.6l-1.4,1l0.5,0.8l0.9-0.4l1.2,1.1v11.2l0,2
		c0.1,1.8,1.2,3,3.2,3.6l1,0.3l1.9-1.8l1.9-1.7l-0.2-0.3L186.9,704.9z"/>
	<path class="st1" d="M179.8,683.2l0.5,0.4c0.9,0.6,1.8,0.9,2.5,0.9c0.5,0,1-0.1,1.7-0.5c0.4-0.2,0.8-0.5,1.1-0.8
		c0.3-0.3,0.6-0.7,0.8-1.2l0.4-0.8h-0.2l-0.4,0.2c-1.3,0.4-2.5-0.1-3.5-1.5l-2.1,1.5l-2.1,1.3l0.4,0.7L179.8,683.2z"/>
	<path class="st1" d="M204.1,690.5c0.5-0.7,1-1.4,1.3-2.1c0.3-0.5,0.7-1.3,1.2-2.3h-0.9c-0.6,1-1.4,1.5-2.6,1.4
		c-0.8,0-1.6-0.3-2.5-1l-0.6-0.5l-0.9,0.9c-1.5,1.2-3.4,1.8-5.8,1.8l-1.4-0.1l-1.6-0.2l0.3,0.5c0.3,0.6,0.5,1.2,0.5,1.8v5.4
		l-0.2,1.4c-0.1,0.6-0.2,1-0.3,1.3l-0.3,0.6h4l-1.7,2l-1.5,1.9c-1.1,1.5-1.9,2.8-2.2,3.9l-0.4,1.4h1c0.4-1.7,1.5-2.5,3.2-2.5
		c1.3,0,2.4,0.5,3.2,1.6l0.6,0.9l0.9-1c1.1-0.9,2.3-1.5,3.8-1.7c1.8-0.3,3.2-0.3,4.2,0l0.9,0.4l-0.5-1.1c-0.2-0.4-0.3-0.9-0.3-1.4
		l0-1.2v-4.6l0-1.2c0-0.6,0.1-1,0.3-1.4l0.5-0.7h-5.7l1.6-1.9C202.9,692.2,203.5,691.3,204.1,690.5z M200.8,697.7v7l-1.1,0.4l-1-0.9
		c-1.1-1-2.2-1.4-3.3-1.4c-0.7,0-1.3,0.1-1.9,0.4l-0.9,0.5l1.1-1.4c0.4-0.5,1.3-1.4,2.6-2.8l1.6-1.7H200.8z M199.2,694.7l-1.9,2
		h-1.4v-7.1l1.4-0.3l0.6,0.6c0.9,0.8,1.7,1.2,2.6,1.2c0.7,0,1.5-0.3,2.6-1l-1.4,2C201,692.8,200.2,693.7,199.2,694.7z"/>
	<path class="st1" d="M227.5,688.1c-0.6,0.4-1.3,0.5-2.1,0.3c-0.8-0.2-1.4-0.6-1.8-1.2l-0.6-1l-6.8,4.9v-7.1c0-1.5,0.2-3,0.4-4.6
		l0.3-1.3l0.4-1.3l-0.9,0.7l-1.5,0.9c-0.7,0.4-1.2,0.7-1.5,0.8c-0.4,0.2-1,0.3-1.6,0.4l-1,0.1l0.5,0.9c0.1,0.3,0.2,0.7,0.2,1.2
		l0.1,1.9l0.1,1.4v18.6l-1.2,0.8c-0.7,0.4-1.2,0.9-1.6,1.3l-0.6,0.8l0.4,0.3l0.5-0.2c1.5-0.5,3.2-0.1,4.8,1.1l1.3,1.1l1.2-1.1
		c0.5-0.5,1.1-0.9,1.8-1.5l1.4-1l-0.9-0.6c-0.5-0.3-1-0.6-1.6-0.9l-0.9-0.4v-10.8l2.8-1.8l0.6,0.5c0.4,0.3,0.8,0.5,1.3,0.7l1,0.3
		v14.4l-0.4,0.6c-0.3,0.5-0.4,1.1-0.4,1.8c0,0.7,0.1,1.3,0.2,1.7l0.8,1.8c0.2,0.4,0.3,0.8,0.3,1.3c0,0.8-0.5,1.4-1.5,1.8
		c0.5,0.6,1.1,0.8,1.7,0.8c0.8,0,1.5-0.3,2.1-0.9s0.9-1.3,0.9-2.2c0-1.2-0.7-2.3-2.1-3.5c-0.8-0.6-1.2-1.2-1.2-1.6
		c0-0.5,0.4-0.8,1.3-1.2c0.4-0.1,1-0.2,1.9-0.2l1.2,0l1.1,0.1l-0.6-0.7c-0.2-0.3-0.3-0.6-0.4-1.1l-0.1-1.3l-0.1-1.2V691l0.4-0.3
		c0.5-0.5,0.9-1.3,1.2-2.4l0.1-0.5l-0.1-0.1L227.5,688.1z"/>
</g>
</svg>
